<svg width="162" height="120" viewBox="0 0 162 120" fill="none" xmlns="http://www.w3.org/2000/svg">
<g id="0">
<path d="M160.941 31.6993C157.191 28.2693 152.531 26.1493 147.691 25.5493C146.331 20.1193 142.911 15.0993 139.271 10.9793C135.581 6.80928 130.371 4.00928 125.101 2.36928C119.021 0.479281 112.611 0.729281 106.441 1.93928C100.681 3.06928 94.8609 5.24928 90.7709 9.63928C90.0409 10.4193 89.4309 11.2593 88.9409 12.1293C88.5309 12.2893 88.1409 12.4493 87.7909 12.5893C85.7209 13.3993 83.8909 14.9493 82.3509 16.5193C81.3409 17.5493 80.8109 18.7593 80.6309 20.0393C80.4409 18.7593 79.9209 17.5493 78.9009 16.5193C77.3609 14.9493 75.5409 13.3993 73.4609 12.5893C73.1109 12.4493 72.7209 12.2793 72.3109 12.1293C71.8209 11.2593 71.2109 10.4193 70.4809 9.63928C66.3909 5.24928 60.5809 3.07928 54.8109 1.93928C48.6409 0.719281 42.2309 0.479281 36.1509 2.36928C30.8809 4.00928 25.6709 6.79928 21.9809 10.9793C18.3409 15.0893 14.9309 20.1093 13.5609 25.5493C8.72086 26.1393 4.06086 28.2693 0.310859 31.6993C0.0508594 31.9393 0.0408594 32.2293 0.170859 32.4693C-0.0991406 32.6693 -0.0491406 33.1793 0.320859 33.2693C0.800859 33.3893 1.44086 33.0593 1.88086 32.9593C4.22086 32.3793 7.30086 32.2493 9.67086 32.6793C10.3609 32.7993 11.0609 32.9293 11.7609 33.0593C8.35086 40.8393 11.5509 51.6493 18.0209 56.8893C21.4509 59.6593 25.9309 61.0793 30.2409 59.5493C34.3509 58.0893 38.2309 54.6493 39.1209 50.1693C40.9209 41.1093 34.9709 32.4793 27.2309 28.2193C27.6609 27.5693 28.1309 26.9693 28.6409 26.4393C31.8209 23.1893 35.4809 21.5293 40.0809 21.5093C42.8909 21.4993 45.5409 21.8493 47.8909 23.1893C48.2009 23.6693 48.5109 24.1393 48.8409 24.5993C49.3909 25.3593 50.0209 26.0893 50.7209 26.7693C50.4109 26.8093 50.1109 27.0493 50.0809 27.3993C50.0409 27.9793 50.0909 28.5493 50.2209 29.1093C48.9909 28.7093 47.5409 28.8593 46.3209 29.2393C43.5609 30.0793 40.7909 30.7293 38.0209 31.4993C37.7109 31.5893 37.6409 31.8593 37.7209 32.0893C37.4309 32.8893 38.6809 33.8993 39.0309 34.4293C40.4809 36.5993 42.1609 38.7293 44.2209 40.3693C46.2609 41.9993 49.6609 44.3293 52.5209 43.7693C52.2909 44.6593 52.0709 45.5393 51.9009 46.4393C51.0509 50.8093 50.7609 55.1593 52.3809 59.3993C53.6809 62.7693 55.5509 66.5393 58.2109 69.0693C58.5909 69.4293 58.9809 69.7893 59.3809 70.1393C58.3809 72.2693 57.5109 74.4593 56.4909 76.5793C55.6009 78.4393 54.8509 80.2193 54.4409 82.2393C53.6909 85.8393 55.4809 88.9593 56.4109 92.2893C56.4309 92.3493 56.4609 92.3893 56.4909 92.4293C56.4209 94.6893 57.0409 96.8393 58.9109 98.7593C59.3309 100.389 60.1509 101.609 61.1009 102.919C62.1209 105.569 63.7609 107.099 66.0609 108.799C66.3309 109.259 66.6309 109.709 66.9609 110.159C68.8209 112.669 72.8809 115.719 76.1309 115.749C76.4109 115.749 76.5709 115.599 76.6309 115.399C76.7909 115.509 76.9509 115.619 77.1009 115.739C78.1709 116.859 79.3809 117.899 80.2509 119.159C80.3509 119.299 80.4809 119.349 80.6109 119.329C80.7409 119.349 80.8709 119.299 80.9709 119.159C81.8409 117.899 83.0509 116.859 84.1209 115.739C84.2809 115.619 84.4309 115.509 84.5909 115.399C84.6509 115.599 84.8109 115.749 85.0909 115.749C88.3309 115.719 92.3909 112.669 94.2609 110.159C94.5909 109.709 94.8909 109.259 95.1609 108.799C97.4609 107.099 99.1009 105.579 100.121 102.919C101.071 101.619 101.891 100.399 102.311 98.7593C104.181 96.8293 104.801 94.6793 104.731 92.4293C104.761 92.3893 104.791 92.3493 104.811 92.2893C105.741 88.9593 107.531 85.8393 106.781 82.2393C106.361 80.2193 105.611 78.4293 104.731 76.5793C103.711 74.4593 102.841 72.2693 101.841 70.1393C102.241 69.7793 102.631 69.4293 103.011 69.0693C105.671 66.5493 107.541 62.7793 108.841 59.3993C110.471 55.1593 110.181 50.8093 109.331 46.4393C109.151 45.5393 108.941 44.6493 108.711 43.7693C111.571 44.3393 114.971 41.9993 117.011 40.3693C119.061 38.7293 120.751 36.5993 122.201 34.4293C122.561 33.8993 123.801 32.8893 123.511 32.0893C123.601 31.8593 123.521 31.5893 123.211 31.4993C120.441 30.7193 117.671 30.0793 114.911 29.2393C113.681 28.8693 112.241 28.7093 111.011 29.1093C111.131 28.5393 111.181 27.9693 111.151 27.3993C111.121 27.0393 110.821 26.8093 110.511 26.7693C111.211 26.0893 111.841 25.3593 112.391 24.5993C112.721 24.1393 113.031 23.6593 113.341 23.1893C115.691 21.8493 118.341 21.4893 121.151 21.5093C125.751 21.5293 129.411 23.1993 132.591 26.4393C133.101 26.9593 133.571 27.5593 134.001 28.2193C126.261 32.4893 120.311 41.1193 122.111 50.1693C123.001 54.6493 126.891 58.0993 130.991 59.5493C135.301 61.0793 139.781 59.6593 143.211 56.8893C149.691 51.6493 152.881 40.8393 149.471 33.0593C150.171 32.9193 150.871 32.7993 151.561 32.6793C153.941 32.2493 157.011 32.3793 159.351 32.9593C159.791 33.0693 160.431 33.3893 160.911 33.2693C161.281 33.1793 161.331 32.6793 161.061 32.4693C161.181 32.2293 161.181 31.9393 160.921 31.6993H160.941Z" fill="url(#paint0_linear_57_241)"/>
<path d="M38.7709 69.2893C39.3909 68.2793 40.2409 66.9093 40.0009 65.9493C39.6409 64.4593 37.2809 66.1693 36.7509 66.4793C36.5409 66.5993 36.3209 66.7193 36.1009 66.8393C35.3109 66.0793 34.4209 65.3493 33.4709 65.1493C33.2509 65.0993 33.0209 65.3193 33.0109 65.5293C32.9609 66.3793 33.1209 67.2993 33.3109 68.1893C32.3109 68.6993 31.3709 69.2693 30.7209 70.0293C30.6309 70.1393 30.6109 70.3493 30.6809 70.4693C31.3009 71.4893 32.7909 71.5393 33.8409 71.6593C33.9009 71.6593 33.9609 71.6693 34.0209 71.6793C34.0209 71.6893 34.0209 71.7093 34.0209 71.7293C34.0409 71.9593 34.0509 72.1893 34.0509 72.4193C34.0509 73.2593 33.9309 74.7193 34.6809 75.2793C34.8209 75.3793 35.0709 75.4193 35.2209 75.3293C35.7809 74.9793 36.0409 74.6393 36.3209 74.0493C36.6609 73.3493 36.9909 72.6493 37.3309 71.9593C38.3809 72.0393 39.4309 72.1493 40.4509 72.3493C40.6809 72.3993 40.9209 72.1293 40.8609 71.9093C40.5909 70.9493 39.6809 70.0693 38.7609 69.2893H38.7709Z" fill="url(#paint1_linear_57_241)"/>
<path d="M128.961 85.8693C129.441 85.0893 130.091 84.0393 129.911 83.2993C129.641 82.1593 127.821 83.4593 127.411 83.7093C127.251 83.8093 127.081 83.8993 126.911 83.9893C126.301 83.3993 125.621 82.8493 124.891 82.6893C124.721 82.6493 124.551 82.8193 124.541 82.9793C124.501 83.6293 124.631 84.3393 124.771 85.0193C124.001 85.4093 123.281 85.8493 122.771 86.4393C122.701 86.5193 122.691 86.6893 122.741 86.7793C123.221 87.5593 124.361 87.6093 125.171 87.6993C125.221 87.6993 125.261 87.6993 125.311 87.7093C125.311 87.7193 125.311 87.7293 125.311 87.7393C125.321 87.9193 125.331 88.0993 125.331 88.2693C125.331 88.9193 125.241 90.0393 125.811 90.4593C125.921 90.5393 126.111 90.5693 126.231 90.4993C126.661 90.2293 126.861 89.9693 127.081 89.5193C127.341 88.9793 127.601 88.4493 127.861 87.9093C128.671 87.9693 129.471 88.0493 130.251 88.2093C130.431 88.2493 130.611 88.0393 130.571 87.8693C130.371 87.1293 129.661 86.4593 128.961 85.8593V85.8693Z" fill="url(#paint2_linear_57_241)"/>
<path d="M47.1009 92.4693C47.8709 92.2793 48.9209 92.0193 49.2609 91.4593C49.7909 90.5793 47.8609 90.2793 47.4609 90.1893C47.3009 90.1493 47.1409 90.1093 46.9809 90.0593C46.9609 89.3293 46.8809 88.5693 46.5209 88.0193C46.4409 87.8993 46.2309 87.8893 46.1209 87.9893C45.7009 88.3693 45.3409 88.8893 45.0209 89.3993C44.3009 89.1793 43.5909 89.0093 42.9209 89.0593C42.8309 89.0593 42.7209 89.1593 42.7009 89.2493C42.5209 90.0193 43.2009 90.7493 43.6509 91.2993C43.6709 91.3293 43.7009 91.3593 43.7309 91.3893C43.7309 91.3893 43.7209 91.4093 43.7109 91.4193C43.6109 91.5393 43.5109 91.6593 43.4009 91.7593C43.0109 92.1593 42.2609 92.7993 42.3609 93.4193C42.3809 93.5293 42.4809 93.6693 42.6009 93.6893C43.0309 93.7893 43.3109 93.7393 43.7209 93.5993C44.2109 93.4293 44.7009 93.2493 45.1909 93.0793C45.6609 93.6093 46.1009 94.1493 46.4909 94.7293C46.5809 94.8593 46.8209 94.8393 46.8909 94.7093C47.2109 94.1193 47.1909 93.2793 47.1109 92.4793L47.1009 92.4693Z" fill="url(#paint3_linear_57_241)"/>
<path d="M109.151 104.449C109.881 104.769 110.871 105.189 111.481 104.949C112.431 104.569 111.071 103.169 110.811 102.849C110.711 102.729 110.611 102.589 110.511 102.449C110.941 101.849 111.331 101.199 111.371 100.549C111.371 100.399 111.211 100.269 111.071 100.279C110.501 100.329 109.911 100.529 109.341 100.739C108.911 100.129 108.441 99.5593 107.871 99.1993C107.791 99.1493 107.651 99.1593 107.581 99.2193C106.971 99.7293 107.071 100.719 107.091 101.429C107.091 101.469 107.091 101.509 107.091 101.549C107.091 101.549 107.071 101.549 107.061 101.549C106.901 101.589 106.751 101.619 106.601 101.639C106.041 101.719 105.061 101.779 104.771 102.329C104.721 102.429 104.711 102.599 104.791 102.689C105.071 103.019 105.331 103.159 105.741 103.289C106.241 103.449 106.731 103.599 107.231 103.759C107.281 104.469 107.311 105.169 107.271 105.859C107.271 106.019 107.461 106.149 107.601 106.089C108.211 105.819 108.701 105.129 109.131 104.449H109.151Z" fill="url(#paint4_linear_57_241)"/>
<path d="M119.351 66.5593C120.081 66.8793 121.071 67.2993 121.681 67.0593C122.631 66.6793 121.271 65.2793 121.011 64.9593C120.911 64.8393 120.811 64.6993 120.711 64.5593C121.141 63.9593 121.531 63.2993 121.571 62.6593C121.571 62.5093 121.411 62.3793 121.271 62.3893C120.701 62.4393 120.111 62.6293 119.541 62.8393C119.111 62.2293 118.641 61.6593 118.071 61.2993C117.991 61.2493 117.851 61.2593 117.781 61.3193C117.171 61.8293 117.271 62.8193 117.301 63.5293C117.301 63.5693 117.301 63.6093 117.301 63.6493C117.301 63.6493 117.281 63.6493 117.271 63.6493C117.121 63.6793 116.961 63.7093 116.821 63.7393C116.261 63.8193 115.281 63.8793 114.991 64.4293C114.941 64.5293 114.931 64.6993 115.011 64.7893C115.291 65.1193 115.541 65.2593 115.961 65.3893C116.461 65.5493 116.951 65.6993 117.451 65.8593C117.501 66.5593 117.531 67.2693 117.491 67.9593C117.491 68.1193 117.681 68.2493 117.821 68.1893C118.431 67.9193 118.921 67.2293 119.351 66.5493V66.5593Z" fill="url(#paint5_linear_57_241)"/>
<path d="M30.2309 81.1793C29.6609 81.1793 29.1709 81.2793 28.7309 81.6493C28.3309 81.9893 28.0709 82.4793 28.0209 83.0093C27.9209 84.0293 28.7409 85.2193 29.8509 85.2193C30.4209 85.2193 30.9109 85.1293 31.3509 84.7493C31.7509 84.4093 32.0109 83.9193 32.0609 83.3893C32.1609 82.3693 31.3409 81.1793 30.2309 81.1793Z" fill="url(#paint6_linear_57_241)"/>
<path d="M41.5509 82.3093C40.4009 82.3093 40.2209 84.0993 41.3809 84.0993C42.5409 84.0993 42.7109 82.3093 41.5509 82.3093Z" fill="url(#paint7_linear_57_241)"/>
<path d="M129.371 67.9693C129.401 68.0793 129.431 68.1893 129.481 68.2893C129.631 68.6093 129.851 68.6993 130.061 68.6593C130.271 68.6793 130.481 68.5793 130.641 68.2393C130.671 68.1893 130.691 68.1393 130.701 68.0893C131.071 66.8693 129.071 66.9693 129.371 67.9693Z" fill="url(#paint8_linear_57_241)"/>
<path d="M116.941 76.3693C113.221 76.3693 112.651 82.1593 116.391 82.1593C120.131 82.1593 120.681 76.3693 116.941 76.3693Z" fill="url(#paint9_linear_57_241)"/>
<path d="M108.381 109.389C106.611 109.389 106.341 112.149 108.121 112.149C109.901 112.149 110.161 109.389 108.381 109.389Z" fill="url(#paint10_linear_57_241)"/>
<path d="M100.581 112.699C100.551 112.329 100.171 112.029 99.8209 111.999C99.3609 111.959 98.9209 112.309 98.8909 112.769C98.8909 112.859 98.8809 112.949 98.8709 113.039C98.8309 113.519 99.1809 113.949 99.6609 113.999C100.271 114.059 100.651 113.529 100.611 112.979L100.591 112.709L100.581 112.699Z" fill="url(#paint11_linear_57_241)"/>
<path d="M161.071 32.4893C161.211 32.2493 161.211 31.9393 160.941 31.6993C157.181 28.2693 152.521 26.1593 147.671 25.5593C146.311 20.1293 142.911 15.0993 139.271 10.9893C135.581 6.81928 130.371 4.01928 125.101 2.37928C119.021 0.489281 112.611 0.739281 106.441 1.94928C100.681 3.07928 94.8609 5.25928 90.7709 9.64928C90.0409 10.4293 89.4309 11.2693 88.9409 12.1493C88.5309 12.2993 88.1409 12.4693 87.8009 12.6093C85.7209 13.4193 83.9009 14.9693 82.3609 16.5393C81.3509 17.5693 80.8209 18.7793 80.6409 20.0593C80.4509 18.7793 79.9209 17.5693 78.9109 16.5393C77.3709 14.9693 75.5509 13.4193 73.4709 12.6093C73.1209 12.4693 72.7309 12.3093 72.3309 12.1493C71.8409 11.2793 71.2309 10.4393 70.5009 9.64928C66.4109 5.25928 60.6009 3.08928 54.8309 1.94928C48.6609 0.739281 42.2509 0.489281 36.1709 2.37928C30.9009 4.01928 25.6909 6.81928 22.0009 10.9893C18.3609 15.0993 14.9609 20.1293 13.6009 25.5593C8.75086 26.1493 4.09086 28.2693 0.330859 31.6993C0.0608594 31.9493 0.0608594 32.2493 0.200859 32.4893C-0.0691406 32.6893 -0.0291407 33.1793 0.340859 33.2693C0.820859 33.3793 1.46086 33.0593 1.90086 32.9493C4.24086 32.3693 7.32086 32.2393 9.69086 32.6693C10.3909 32.7893 11.0909 32.9193 11.8009 33.0593C8.39086 40.8393 11.5709 51.6393 18.0509 56.8793C21.4809 59.6493 25.9609 61.0693 30.2709 59.5393C34.3809 58.0793 38.2609 54.6393 39.1509 50.1593C40.9509 41.1093 35.0009 32.4893 27.2709 28.2193C27.7009 27.5693 28.1609 26.9493 28.6709 26.4293C31.8509 23.1893 35.5109 21.5193 40.1109 21.4993C42.9309 21.4893 45.5809 21.8593 47.9409 23.2093C48.2409 23.6793 48.5409 24.1393 48.8709 24.5893C49.4209 25.3493 50.0509 26.0793 50.7509 26.7593C50.4409 26.7993 50.1409 27.0393 50.1209 27.3893C50.0809 27.9693 50.1509 28.5393 50.2809 29.1093C49.0509 28.6993 47.5909 28.8493 46.3609 29.2293C43.6009 30.0693 40.8309 30.7193 38.0609 31.4893C37.7409 31.5793 37.6709 31.8593 37.7609 32.0893C37.4909 32.8893 38.7109 33.8893 39.0709 34.4193C40.5209 36.5893 42.2109 38.7193 44.2609 40.3593C46.3009 41.9893 49.7009 44.3193 52.5609 43.7593C52.3309 44.6493 52.1109 45.5293 51.9409 46.4293C51.0909 50.7993 50.7909 55.1493 52.4209 59.3893C53.7209 62.7593 55.5909 66.5293 58.2509 69.0593C58.6309 69.4193 59.0209 69.7793 59.4109 70.1293C58.4109 72.2593 57.5409 74.4493 56.5209 76.5693C55.6309 78.4193 54.8809 80.2093 54.4709 82.2293C53.7209 85.8293 55.5109 88.9493 56.4409 92.2793C56.4509 92.3293 56.4909 92.3493 56.5209 92.3893C56.4409 94.6593 57.0609 96.8193 58.9409 98.7593C59.3609 100.399 60.1909 101.629 61.1409 102.939C62.1609 105.569 63.7909 107.099 66.0809 108.789C66.3509 109.249 66.6509 109.709 66.9909 110.159C68.8509 112.669 72.9109 115.719 76.1609 115.759C76.4409 115.759 76.6009 115.599 76.6609 115.409C76.8309 115.529 76.9909 115.649 77.1509 115.779C78.2209 116.889 79.4109 117.929 80.2809 119.179C80.3809 119.319 80.5109 119.349 80.6409 119.339C80.7709 119.359 80.9009 119.329 81.0009 119.179C81.8709 117.929 83.0609 116.889 84.1309 115.779C84.2909 115.649 84.4609 115.529 84.6209 115.409C84.6809 115.609 84.8409 115.759 85.1209 115.759C88.3609 115.719 92.4209 112.679 94.2809 110.159C94.6209 109.709 94.9109 109.249 95.1909 108.789C97.4809 107.099 99.1109 105.569 100.131 102.939C101.091 101.629 101.911 100.409 102.331 98.7693C104.211 96.8293 104.821 94.6693 104.751 92.3993C104.781 92.3693 104.811 92.3393 104.831 92.2893C105.761 88.9593 107.551 85.8393 106.801 82.2393C106.381 80.2193 105.631 78.4293 104.741 76.5793C103.721 74.4593 102.851 72.2693 101.851 70.1393C102.241 69.7793 102.631 69.4293 103.011 69.0693C105.671 66.5493 107.541 62.7793 108.841 59.3993C110.471 55.1593 110.181 50.8093 109.331 46.4393C109.151 45.5393 108.941 44.6493 108.711 43.7693C111.571 44.3393 114.971 41.9993 117.011 40.3793C119.061 38.7393 120.751 36.6093 122.201 34.4393C122.551 33.9093 123.781 32.9093 123.511 32.1093C123.601 31.8793 123.531 31.5993 123.211 31.5093C120.441 30.7293 117.671 30.0893 114.911 29.2493C113.681 28.8693 112.221 28.7193 110.991 29.1293C111.121 28.5593 111.191 27.9893 111.151 27.4093C111.131 27.0493 110.821 26.8193 110.511 26.7793C111.211 26.0993 111.841 25.3693 112.391 24.6093C112.721 24.1593 113.021 23.6893 113.321 23.2293C115.681 21.8793 118.331 21.5093 121.151 21.5193C125.751 21.5393 129.411 23.2093 132.591 26.4493C133.101 26.9693 133.561 27.5893 133.991 28.2393C126.261 32.5093 120.311 41.1293 122.111 50.1793C123.001 54.6593 126.891 58.1093 130.991 59.5593C135.301 61.0893 139.781 59.6693 143.211 56.8993C149.691 51.6693 152.871 40.8593 149.461 33.0793C150.171 32.9393 150.871 32.8093 151.571 32.6893C153.951 32.2593 157.021 32.3893 159.361 32.9693C159.801 33.0793 160.441 33.3993 160.921 33.2893C161.291 33.1993 161.321 32.7193 161.061 32.5093L161.071 32.4893ZM37.6109 47.3793C37.1509 58.0593 23.7909 61.6193 17.4209 53.5193C12.7709 47.6093 11.3409 40.4993 12.7209 33.2393C15.5909 33.8393 18.4409 34.6593 20.8709 36.3293C21.3109 36.6393 21.7709 36.9593 22.2209 37.3093C21.8009 39.8993 21.9209 42.5393 23.0309 45.1693C23.8509 47.1193 26.7109 49.9493 28.8809 48.9893C28.6409 50.3493 27.9609 51.5793 26.6409 52.4793C24.6309 53.8393 22.8009 53.4093 20.6009 52.9393C20.0209 52.8193 19.6409 53.6093 20.1909 53.9093C23.5509 55.8093 28.4809 55.1693 30.1009 51.0893C31.8209 46.7793 29.8609 42.4793 26.8809 39.2093C22.8609 34.7793 17.8609 32.3693 12.0009 31.3993C9.16086 30.9293 6.57086 30.8993 3.70086 31.1793C4.43086 30.6493 5.17086 30.1293 5.98086 29.7293C8.03086 28.7293 10.0309 28.3293 12.1409 27.6493C15.8009 26.4793 20.8209 27.0193 24.2709 28.7193C31.3609 32.2193 37.9709 38.8893 37.6109 47.3793ZM23.7109 38.5293C25.9909 40.5293 28.0209 43.0093 28.7309 45.8593C28.8609 46.3993 28.9409 46.9393 28.9709 47.4693C25.1009 49.4693 23.4509 40.7793 23.7209 38.5293H23.7109ZM42.9109 13.4993C39.8709 10.8893 36.0009 11.0593 32.4009 12.1793C32.3709 12.1893 32.3709 12.2393 32.4009 12.2393C36.4309 12.3893 40.2209 12.6793 43.0909 15.8793C44.4709 17.4193 45.5109 19.1593 46.5509 20.9093C43.6609 19.6893 39.8309 19.8293 37.1309 20.1593C32.4109 20.7393 28.2909 23.4193 25.9009 27.4993C22.5309 25.9093 18.9409 25.2493 15.3909 25.3993C19.2909 15.0493 26.4909 6.51928 37.6509 3.68928C43.5209 2.19928 49.6409 2.32928 55.5109 3.73928C60.4109 4.91928 65.9909 6.72928 69.3109 10.8293C73.2809 15.7093 73.5609 24.6293 67.4109 28.1493C62.3209 31.0593 55.5109 29.4193 51.6309 25.1593C48.3009 21.4993 46.7209 16.7593 42.9009 13.4893L42.9109 13.4993ZM50.0009 42.1893C47.9709 41.3493 46.1409 40.2793 44.5309 38.7693C42.9109 37.2393 41.5209 35.5893 40.2609 33.7393C39.9109 33.2293 39.6509 32.8293 39.3309 32.4593C41.2409 32.4193 43.1009 31.8293 44.9109 31.1993C46.9109 30.5093 48.6409 30.3093 50.6509 30.2893C51.3009 31.8793 52.5109 33.3593 54.0009 34.5693C53.9209 35.7593 53.9209 36.9293 53.8209 38.0993C52.0909 34.2893 45.4209 32.9493 41.9609 33.1093C41.9309 33.1093 41.9209 33.1293 41.9009 33.1293C41.8509 33.1093 41.8109 33.0793 41.7609 33.0593C41.0609 32.7593 40.4309 33.7293 41.1509 34.1093C42.6209 34.7693 43.9309 36.4293 45.1409 37.4993C46.6009 38.7893 48.3609 39.8893 50.2509 40.3993C50.2909 40.4093 50.3109 40.3493 50.2709 40.3293C48.0009 39.4693 46.5709 37.5893 44.9109 35.9493C44.3609 35.3993 43.8409 34.7293 43.2709 34.1493C45.2209 34.5493 47.2409 34.5993 49.0609 35.6093C51.3109 36.8493 52.6509 38.2293 53.3509 40.7393C53.3509 40.7393 53.3509 40.7493 53.3609 40.7593C53.1809 41.4493 53.0009 42.1293 52.8109 42.8193C51.8909 42.5693 50.9309 42.5693 49.9909 42.1793L50.0009 42.1893ZM104.881 80.6893C105.831 83.7793 104.821 86.5693 104.341 89.4793C103.311 85.0493 100.741 80.3993 100.701 76.3393C100.701 76.2093 100.491 76.1693 100.471 76.3093C99.9709 79.8793 101.351 82.8793 102.261 86.3093C102.871 88.6293 103.111 90.9093 103.101 93.2993C103.101 94.2293 102.861 95.0993 102.531 95.9393C102.351 94.0293 101.651 92.0993 101.081 90.3893C101.031 90.2293 100.801 90.2893 100.831 90.4593C101.341 93.1993 101.821 95.9793 101.161 98.7393C101.081 99.0593 100.961 99.3693 100.831 99.6793C100.991 95.8293 99.2509 91.5393 99.0109 87.9093C99.0109 87.8393 98.9009 87.8393 98.9009 87.9093C98.8209 91.6193 99.5109 95.2993 99.4509 99.0093C99.4109 101.339 98.5509 103.419 97.1909 105.269C96.9509 105.589 96.7009 105.859 96.4409 106.099C97.4309 103.239 97.4909 100.199 97.0509 96.9293C97.0309 96.8093 96.8609 96.8493 96.8509 96.9593C96.5209 100.799 96.4109 104.869 93.9609 108.049C91.7209 110.959 89.1709 112.809 85.9509 114.249C86.5909 113.559 87.3009 112.939 87.9609 112.279C89.2809 110.959 89.9109 109.219 89.7209 107.399C89.7209 107.319 89.6009 107.319 89.5909 107.399C89.3709 109.489 87.9909 110.819 86.4909 112.089C86.9309 110.689 86.9509 109.219 86.6309 107.729C86.5909 107.539 86.3109 107.589 86.3009 107.779C86.2209 110.449 85.1409 112.539 83.2609 114.369C82.2309 115.379 81.1909 116.449 80.6409 117.779C80.0909 116.459 79.0609 115.389 78.0209 114.369C76.1509 112.539 75.0609 110.439 74.9809 107.779C74.9809 107.599 74.7009 107.549 74.6509 107.729C74.3309 109.219 74.3509 110.689 74.7909 112.089C73.2809 110.819 71.9009 109.479 71.6909 107.399C71.6909 107.319 71.5709 107.319 71.5709 107.399C71.3809 109.219 72.0109 110.959 73.3309 112.279C73.9909 112.939 74.7009 113.559 75.3409 114.249C72.1109 112.809 69.5709 110.959 67.3309 108.049C64.8809 104.869 64.7809 100.799 64.4409 96.9593C64.4409 96.8493 64.2509 96.8093 64.2409 96.9293C63.7909 100.189 63.8609 103.239 64.8509 106.099C64.5909 105.849 64.3409 105.589 64.1009 105.269C62.7409 103.419 61.8809 101.339 61.8409 99.0093C61.7809 95.3093 62.4709 91.6193 62.3909 87.9093C62.3909 87.8393 62.2909 87.8393 62.2809 87.9093C62.0409 91.5293 60.3009 95.8293 60.4609 99.6793C60.3309 99.3793 60.2109 99.0693 60.1309 98.7393C59.4709 95.9793 59.9509 93.1993 60.4609 90.4593C60.4909 90.2993 60.2609 90.2293 60.2009 90.3893C59.6309 92.1093 58.9409 94.0393 58.7609 95.9493C58.4409 95.1093 58.1909 94.2393 58.1909 93.3093C58.1909 90.9193 58.4209 88.6493 59.0309 86.3193C59.9309 82.8893 61.3209 79.8793 60.8209 76.3193C60.8009 76.1793 60.5909 76.2193 60.5909 76.3493C60.5509 80.4093 57.9809 85.0593 56.9509 89.4893C56.4709 86.5793 55.4709 83.7893 56.4109 80.6993C57.4709 77.2493 59.4609 74.2293 60.0309 70.6793C62.6309 72.9993 65.3609 75.3593 66.9609 78.4393C66.7209 79.1593 66.4409 79.8793 66.3309 80.6293C66.1409 81.9293 65.9209 83.2193 65.7809 84.5293C65.5109 86.9193 65.5709 89.2293 66.0309 91.5793C66.4509 93.7393 69.1109 99.0293 72.0209 98.7193C72.7209 100.889 73.6809 102.909 75.5209 104.319C76.9209 105.399 78.8409 106.429 80.6409 106.099C82.4409 106.419 84.3609 105.389 85.7609 104.319C87.6009 102.909 88.5609 100.889 89.2609 98.7193C92.1709 99.0293 94.8309 93.7393 95.2509 91.5793C95.7009 89.2293 95.7709 86.9193 95.5009 84.5293C95.3609 83.2293 95.1309 81.9293 94.9509 80.6293C94.8409 79.8793 94.5709 79.1593 94.3209 78.4393C95.9209 75.3693 98.6509 73.0093 101.251 70.6793C101.821 74.2393 103.811 77.2593 104.871 80.6993L104.881 80.6893ZM80.6509 86.5493C82.5509 86.6193 84.3909 86.4893 86.1709 87.2693C86.2409 87.2993 86.3009 87.3393 86.3609 87.3693C86.0009 87.5093 85.6609 87.7193 85.3109 87.8693C84.5509 88.1993 83.7309 88.9693 83.2709 89.6393C82.8709 90.2293 82.0209 91.0093 82.2109 91.8293C82.3109 92.2493 82.5609 92.5193 83.0309 92.4593C83.0709 92.4593 83.1009 92.4393 83.1409 92.4293C82.3609 93.0593 81.3509 93.4093 80.6509 94.0793C79.9509 93.4093 78.9509 93.0493 78.1609 92.4293C78.2009 92.4293 78.2309 92.4493 78.2709 92.4593C78.7409 92.5193 78.9909 92.2493 79.0909 91.8293C79.2809 91.0093 78.4309 90.2293 78.0309 89.6393C77.5809 88.9693 76.7509 88.1893 75.9909 87.8693C75.6409 87.7193 75.3009 87.5093 74.9409 87.3693C75.0009 87.3393 75.0709 87.2993 75.1309 87.2693C76.9109 86.4893 78.7509 86.6293 80.6509 86.5493ZM80.6509 104.879C78.6109 104.739 76.4109 103.619 75.3209 101.869C74.9009 101.199 74.6409 100.419 74.3509 99.6593C76.1909 100.829 78.3009 101.339 80.0909 99.6893C80.3309 99.4693 80.5009 99.2093 80.6509 98.9393C80.7909 99.2093 80.9609 99.4593 81.2109 99.6893C83.0009 101.339 85.1109 100.829 86.9509 99.6593C86.6609 100.419 86.4109 101.189 85.9809 101.869C84.8809 103.619 82.6909 104.739 80.6509 104.879ZM80.6809 95.1593C80.6809 95.1593 80.6609 95.2193 80.6509 95.2493C80.6409 95.2193 80.6309 95.1893 80.6209 95.1593C80.6309 95.1593 80.6409 95.1593 80.6509 95.1493C80.6609 95.1493 80.6709 95.1493 80.6809 95.1593ZM88.3209 96.6293C87.4509 97.7593 86.1209 98.7093 84.8109 99.2393C81.6009 100.539 81.6309 97.4993 81.6809 96.0893C81.6609 96.7393 81.8509 95.6993 81.8509 95.0293C83.0109 94.6293 84.1209 93.5693 84.8209 92.7793C85.7609 91.7093 86.2709 90.3493 85.9009 89.0393C86.0709 88.9593 86.2409 88.8793 86.4109 88.7993C86.9309 89.3593 87.5109 89.8293 88.0709 90.3793C89.9309 92.1993 89.8509 94.6693 88.3209 96.6493V96.6293ZM84.7009 90.0793C84.3509 90.3793 84.0009 90.6793 83.6609 90.9993L83.4409 91.1993C83.3809 91.2193 83.3509 91.2393 83.3009 91.2593C83.5609 90.7193 84.3509 90.0393 84.8209 89.6793C84.7809 89.8093 84.7409 89.9393 84.7009 90.0693V90.0793ZM77.8609 91.2093L77.6409 91.0093C77.3009 90.6893 76.9509 90.3893 76.6009 90.0893C76.5609 89.9593 76.5209 89.8293 76.4809 89.6993C76.9509 90.0593 77.7309 90.7293 78.0009 91.2793C77.9609 91.2593 77.9209 91.2393 77.8609 91.2193V91.2093ZM74.8809 88.7893C75.0509 88.8693 75.2209 88.9493 75.3909 89.0293C75.0209 90.3393 75.5309 91.6993 76.4709 92.7693C77.1709 93.5593 78.2909 94.6193 79.4409 95.0193C79.4409 95.6893 79.6309 96.7293 79.6109 96.0793C79.6609 97.4993 79.6909 100.529 76.4809 99.2293C75.1709 98.6993 73.8509 97.7493 72.9709 96.6193C71.4409 94.6493 71.3609 92.1793 73.2209 90.3493C73.7809 89.7993 74.3609 89.3293 74.8809 88.7693V88.7893ZM116.381 31.2093C118.201 31.8293 120.051 32.4293 121.961 32.4693C121.641 32.8393 121.381 33.2293 121.031 33.7493C119.771 35.5993 118.381 37.2493 116.761 38.7793C115.161 40.2893 113.321 41.3593 111.291 42.1993C110.361 42.5893 109.391 42.5893 108.471 42.8393C108.291 42.1493 108.101 41.4693 107.921 40.7793C107.921 40.7793 107.921 40.7693 107.931 40.7593C108.631 38.2493 109.961 36.8693 112.221 35.6293C114.041 34.6293 116.061 34.5693 118.011 34.1693C117.441 34.7493 116.931 35.4193 116.371 35.9693C114.701 37.6093 113.281 39.4893 111.011 40.3493C110.971 40.3693 110.991 40.4293 111.031 40.4193C112.921 39.9093 114.681 38.8093 116.141 37.5193C117.351 36.4493 118.661 34.7893 120.131 34.1293C120.841 33.7493 120.221 32.7793 119.521 33.0793C119.471 33.0993 119.431 33.1293 119.381 33.1493C119.361 33.1493 119.351 33.1293 119.321 33.1293C115.851 32.9693 109.191 34.3093 107.461 38.1193C107.361 36.9493 107.351 35.7793 107.281 34.5893C108.771 33.3793 109.981 31.9093 110.641 30.3093C112.651 30.3293 114.381 30.5293 116.381 31.2193V31.2093ZM106.431 33.6293C104.371 35.5793 100.881 37.7793 97.9609 37.3993C97.9109 37.3993 97.9009 37.4693 97.9509 37.4793C100.421 38.0593 103.571 37.1293 106.171 35.3893C105.811 37.5993 106.101 39.9693 106.781 42.0893C108.401 47.1393 109.141 53.0293 107.591 58.1493C106.191 62.7593 103.131 66.7093 99.7109 69.9793C97.5409 72.0593 95.1909 73.7993 93.9009 76.4193C93.7509 74.3693 92.7709 72.3693 92.5409 70.3093C92.1509 66.7393 91.3109 63.2493 91.0509 59.6593C90.8609 56.9893 90.9909 54.3493 91.4209 51.7693C92.2409 50.5093 93.1809 49.3593 94.5109 48.4593C96.2109 47.3093 98.1709 46.8593 100.101 47.7793C102.071 48.7193 102.231 50.6793 102.261 52.5193C102.201 52.5493 102.151 52.5893 102.111 52.6493C100.941 53.0993 99.5709 53.1493 98.3609 53.0693C96.9409 52.9793 95.8509 53.8693 94.9809 54.8593C94.0209 55.9393 93.6409 57.3393 93.5009 58.7393C93.4409 59.3893 93.4809 60.7993 94.2509 61.0293C94.3209 61.0493 94.4009 61.0093 94.4409 60.9393C94.4709 60.9393 94.5109 60.9393 94.5409 60.9293C95.6209 60.6293 96.7009 61.2093 97.8109 60.8193C98.8409 60.4593 99.6709 59.8793 100.471 59.1393C101.901 57.8293 102.881 55.7793 102.961 53.8093C103.011 53.7693 103.051 53.7293 103.091 53.6893C103.221 53.6293 103.341 53.5193 103.391 53.3493C104.701 49.6793 101.491 45.2093 97.4509 45.8993C95.2709 46.2693 93.3309 47.4693 91.9609 49.1493C92.7209 46.1293 93.9109 43.2193 95.5609 40.5093C95.5709 40.4893 95.5509 40.4693 95.5309 40.4893C87.9609 47.8893 89.0709 59.9093 90.6109 69.4293C91.3309 73.8893 92.7609 78.2493 93.3409 82.7193C93.6909 85.4293 94.0609 88.3693 93.3409 91.0393C92.8309 92.9093 92.0509 94.1993 90.9609 95.3393C91.2509 94.6393 91.3809 93.8893 91.2309 93.1393C90.8309 91.1393 89.6009 89.0993 87.8109 88.0293C87.9609 87.8593 88.0509 87.6593 88.0509 87.3893C88.0509 86.4293 86.4109 85.8393 85.6709 85.6093C84.2309 85.1593 82.1109 84.7693 80.6409 85.4093C79.1709 84.7693 77.0509 85.1593 75.6109 85.6093C74.8709 85.8393 73.2309 86.4193 73.2309 87.3893C73.2309 87.6593 73.3209 87.8593 73.4709 88.0293C71.6809 89.1093 70.4509 91.1393 70.0509 93.1393C69.9009 93.8893 70.0309 94.6293 70.3209 95.3293C69.2309 94.1893 68.4509 92.8993 67.9409 91.0393C67.2109 88.3693 67.5909 85.4293 67.9409 82.7193C68.5209 78.2493 69.9509 73.8893 70.6709 69.4293C72.2109 59.9093 73.3209 47.8893 65.7509 40.4893C65.7309 40.4693 65.7009 40.4893 65.7209 40.5093C67.3709 43.2193 68.5609 46.1293 69.3209 49.1493C67.9509 47.4693 66.0109 46.2693 63.8309 45.8993C59.7909 45.2093 56.5709 49.6893 57.8909 53.3493C57.9509 53.5193 58.0609 53.6193 58.1909 53.6893C58.2309 53.7293 58.2709 53.7693 58.3209 53.8093C58.4009 55.7793 59.3809 57.8293 60.8109 59.1393C61.6109 59.8793 62.4409 60.4493 63.4709 60.8193C64.5809 61.2093 65.6609 60.6293 66.7409 60.9293C66.7809 60.9393 66.8109 60.9293 66.8409 60.9393C66.8709 61.0093 66.9509 61.0593 67.0309 61.0293C67.7909 60.7993 67.8409 59.3893 67.7809 58.7393C67.6509 57.3393 67.2609 55.9393 66.3009 54.8593C65.4209 53.8693 64.3409 52.9693 62.9209 53.0693C61.7209 53.1493 60.3409 53.0993 59.1709 52.6493C59.1309 52.5893 59.0809 52.5393 59.0209 52.5193C59.0509 50.6793 59.2109 48.7293 61.1809 47.7793C63.1109 46.8593 65.0709 47.3093 66.7709 48.4593C68.1009 49.3593 69.0409 50.5093 69.8609 51.7693C70.2909 54.3493 70.4209 56.9893 70.2309 59.6593C69.9709 63.2493 69.1409 66.7393 68.7409 70.3093C68.5109 72.3693 67.5309 74.3593 67.3809 76.4193C66.0909 73.7993 63.7409 72.0593 61.5709 69.9793C58.1609 66.7093 55.0909 62.7593 53.6909 58.1493C52.1409 53.0293 52.8809 47.1393 54.5009 42.0893C55.1809 39.9693 55.4709 37.5993 55.1109 35.3893C57.7209 37.1193 60.8609 38.0493 63.3309 37.4793C63.3809 37.4793 63.3709 37.3893 63.3209 37.3993C60.4009 37.7793 56.9109 35.5793 54.8509 33.6293C52.9109 31.7893 51.9209 29.9793 51.4409 27.3993C54.3009 29.9193 58.0809 31.6093 61.8309 31.4793C70.9609 31.1693 76.1009 21.6593 73.1509 13.8893C73.4809 14.0393 73.7409 14.1793 73.8409 14.2393C75.1109 14.9793 76.3809 15.7793 77.4209 16.8293C80.5509 19.9893 79.8809 24.3493 78.1809 28.1093C78.1409 28.1993 78.2609 28.2693 78.3109 28.1893C79.4109 26.5293 80.3609 24.4293 80.6409 22.3393C80.9109 24.4293 81.8609 26.5193 82.9709 28.1893C83.0209 28.2693 83.1409 28.1993 83.1009 28.1093C81.4009 24.3493 80.7309 19.9893 83.8609 16.8293C84.9009 15.7793 86.1709 14.9693 87.4409 14.2393C87.5409 14.1793 87.8009 14.0493 88.1309 13.8893C85.1809 21.6593 90.3209 31.1693 99.4509 31.4793C103.201 31.6093 106.971 29.9193 109.841 27.3993C109.361 29.9793 108.361 31.7893 106.431 33.6293ZM101.461 54.4493C101.421 54.5993 101.391 54.7493 101.351 54.8993C101.081 56.1393 100.361 57.2593 99.5109 58.1893C98.6909 59.0893 97.4909 59.8393 96.2509 59.7993C95.6109 59.7793 95.1209 59.6893 94.6209 59.8893C94.7209 58.8893 94.7309 57.9093 95.2109 56.9293C96.1009 55.1493 97.4409 54.4493 99.3609 54.5993C99.8609 54.6393 100.681 54.6093 101.461 54.4493ZM59.8309 54.4493C60.6109 54.6093 61.4309 54.6393 61.9309 54.5993C63.8609 54.4493 65.2009 55.1493 66.0909 56.9293C66.5709 57.9093 66.5809 58.8893 66.6809 59.8893C66.1809 59.6893 65.6809 59.7793 65.0409 59.7993C63.8009 59.8393 62.6009 59.0893 61.7809 58.1893C60.9309 57.2693 60.2109 56.1493 59.9409 54.8993C59.9109 54.7493 59.8709 54.5993 59.8409 54.4493H59.8309ZM124.151 20.1693C121.451 19.8393 117.621 19.6993 114.731 20.9193C115.771 19.1693 116.821 17.4293 118.191 15.8893C121.061 12.6893 124.851 12.3993 128.881 12.2493C128.911 12.2493 128.921 12.1993 128.881 12.1893C125.281 11.0693 121.411 10.8993 118.371 13.5093C114.551 16.7793 112.971 21.5193 109.641 25.1793C105.761 29.4393 98.9409 31.0793 93.8609 28.1693C87.7109 24.6493 87.9909 15.7293 91.9609 10.8493C95.2809 6.75928 100.861 4.93928 105.761 3.75928C111.641 2.34928 117.761 2.21928 123.621 3.70928C134.781 6.54928 141.981 15.0793 145.881 25.4193C142.331 25.2593 138.741 25.9293 135.371 27.5193C132.981 23.4393 128.861 20.7593 124.141 20.1793L124.151 20.1693ZM149.281 31.3993C143.421 32.3793 138.421 34.7893 134.401 39.2093C131.431 42.4793 129.471 46.7793 131.181 51.0893C132.801 55.1693 137.741 55.8093 141.091 53.9093C141.641 53.5993 141.261 52.8093 140.681 52.9393C138.481 53.4093 136.651 53.8393 134.641 52.4793C133.321 51.5793 132.631 50.3493 132.401 48.9893C134.571 49.9493 137.431 47.1193 138.251 45.1693C139.351 42.5393 139.481 39.8993 139.061 37.3093C139.511 36.9693 139.961 36.6393 140.411 36.3293C142.841 34.6593 145.691 33.8293 148.561 33.2393C149.941 40.4993 148.511 47.6093 143.861 53.5193C137.491 61.6193 124.131 58.0593 123.671 47.3793C123.301 38.8893 129.921 32.2193 137.011 28.7193C140.461 27.0193 145.481 26.4793 149.141 27.6493C151.261 28.3293 153.261 28.7293 155.301 29.7293C156.111 30.1293 156.851 30.6493 157.581 31.1793C154.711 30.8893 152.121 30.9193 149.281 31.3993ZM132.321 47.4793C132.351 46.9493 132.421 46.4093 132.561 45.8693C133.261 43.0293 135.291 40.5393 137.581 38.5393C137.841 40.7893 136.191 49.4793 132.331 47.4793H132.321Z" fill="#897EB3"/>
</g>
<defs>
<linearGradient id="paint0_linear_57_241" x1="0.0208594" y1="60.1749" x2="161.261" y2="60.1749" gradientUnits="userSpaceOnUse">
<stop stop-color="#C0CBD8"/>
<stop offset="0.54" stop-color="white"/>
<stop offset="0.87" stop-color="white"/>
<stop offset="0.99" stop-color="#C0CBD8"/>
</linearGradient>
<linearGradient id="paint1_linear_57_241" x1="0.0329853" y1="60.1488" x2="161.4" y2="60.1488" gradientUnits="userSpaceOnUse">
<stop stop-color="#C0CBD8"/>
<stop offset="0.54" stop-color="white"/>
<stop offset="0.87" stop-color="white"/>
<stop offset="0.99" stop-color="#C0CBD8"/>
</linearGradient>
<linearGradient id="paint2_linear_57_241" x1="-0.179331" y1="60.2916" x2="161.321" y2="60.2916" gradientUnits="userSpaceOnUse">
<stop stop-color="#C0CBD8"/>
<stop offset="0.54" stop-color="white"/>
<stop offset="0.87" stop-color="white"/>
<stop offset="0.99" stop-color="#C0CBD8"/>
</linearGradient>
<linearGradient id="paint3_linear_57_241" x1="-0.251348" y1="59.9952" x2="161.199" y2="59.9952" gradientUnits="userSpaceOnUse">
<stop stop-color="#C0CBD8"/>
<stop offset="0.54" stop-color="white"/>
<stop offset="0.87" stop-color="white"/>
<stop offset="0.99" stop-color="#C0CBD8"/>
</linearGradient>
<linearGradient id="paint4_linear_57_241" x1="0.42855" y1="60.0558" x2="161.17" y2="60.0558" gradientUnits="userSpaceOnUse">
<stop stop-color="#C0CBD8"/>
<stop offset="0.54" stop-color="white"/>
<stop offset="0.87" stop-color="white"/>
<stop offset="0.99" stop-color="#C0CBD8"/>
</linearGradient>
<linearGradient id="paint5_linear_57_241" x1="0.201439" y1="60.3971" x2="161.399" y2="60.3971" gradientUnits="userSpaceOnUse">
<stop stop-color="#C0CBD8"/>
<stop offset="0.54" stop-color="white"/>
<stop offset="0.87" stop-color="white"/>
<stop offset="0.99" stop-color="#C0CBD8"/>
</linearGradient>
<linearGradient id="paint6_linear_57_241" x1="-0.0693082" y1="60.1659" x2="161.301" y2="60.1659" gradientUnits="userSpaceOnUse">
<stop stop-color="#C0CBD8"/>
<stop offset="0.54" stop-color="white"/>
<stop offset="0.87" stop-color="white"/>
<stop offset="0.99" stop-color="#C0CBD8"/>
</linearGradient>
<linearGradient id="paint7_linear_57_241" x1="-0.350781" y1="59.8353" x2="160.34" y2="59.8353" gradientUnits="userSpaceOnUse">
<stop stop-color="#C0CBD8"/>
<stop offset="0.54" stop-color="white"/>
<stop offset="0.87" stop-color="white"/>
<stop offset="0.99" stop-color="#C0CBD8"/>
</linearGradient>
<linearGradient id="paint8_linear_57_241" x1="0.0907927" y1="59.9093" x2="161.708" y2="59.9093" gradientUnits="userSpaceOnUse">
<stop stop-color="#C0CBD8"/>
<stop offset="0.54" stop-color="white"/>
<stop offset="0.87" stop-color="white"/>
<stop offset="0.99" stop-color="#C0CBD8"/>
</linearGradient>
<linearGradient id="paint9_linear_57_241" x1="-0.0514244" y1="60.2681" x2="161.085" y2="60.2681" gradientUnits="userSpaceOnUse">
<stop stop-color="#C0CBD8"/>
<stop offset="0.54" stop-color="white"/>
<stop offset="0.87" stop-color="white"/>
<stop offset="0.99" stop-color="#C0CBD8"/>
</linearGradient>
<linearGradient id="paint10_linear_57_241" x1="-0.0818098" y1="59.737" x2="161.106" y2="59.737" gradientUnits="userSpaceOnUse">
<stop stop-color="#C0CBD8"/>
<stop offset="0.54" stop-color="white"/>
<stop offset="0.87" stop-color="white"/>
<stop offset="0.99" stop-color="#C0CBD8"/>
</linearGradient>
<linearGradient id="paint11_linear_57_241" x1="-0.63598" y1="60.1205" x2="160.043" y2="60.1205" gradientUnits="userSpaceOnUse">
<stop stop-color="#C0CBD8"/>
<stop offset="0.54" stop-color="white"/>
<stop offset="0.87" stop-color="white"/>
<stop offset="0.99" stop-color="#C0CBD8"/>
</linearGradient>
</defs>
</svg>
