<svg width="133" height="127" viewBox="0 0 133 127" fill="none" xmlns="http://www.w3.org/2000/svg">
<g id="1">
<path d="M132.361 53.9793C127.411 53.0693 123.431 50.1693 118.671 48.6293C118.511 48.5793 118.261 48.5093 117.961 48.4293C119.591 47.7393 121.141 46.7993 122.571 45.5793C126.061 42.6093 127.601 37.9793 127.901 33.5893C128.221 28.7693 126.401 24.8893 123.411 21.2093C120.181 17.2293 115.731 14.5993 111.191 12.3993C108.451 11.0693 105.841 9.67926 103.081 8.41926C100.151 7.08926 97.7209 4.05926 98.9309 0.679261C99.1409 0.0892607 98.2509 -0.260739 97.9409 0.239261C97.8709 0.239261 97.7909 0.249261 97.7109 0.289261C95.0209 1.40926 93.2309 3.20926 92.0909 5.93926C90.6909 9.28926 91.9009 12.2493 94.1309 14.8693C96.8409 18.0293 100.601 19.6293 104.191 21.5293C105.281 22.1093 106.401 22.6293 107.511 23.1693C107.491 23.2893 107.511 23.4093 107.581 23.5293C108.641 25.1993 107.201 26.4593 105.331 27.3593C105.101 25.9993 103.791 24.9693 102.601 24.2293C99.8809 22.5193 96.2509 23.0893 93.4209 24.0893C92.4509 24.4293 91.5909 24.8893 90.8309 25.4193C87.6009 24.2193 82.9509 26.4993 80.4609 28.5493C78.6109 28.2793 77.0409 29.6093 75.3209 30.2793C72.6609 31.3193 69.7709 31.9793 66.9009 32.0293C64.0209 31.9893 61.1409 31.3193 58.4709 30.2793C56.7609 29.6093 55.1809 28.2793 53.3309 28.5493C50.8309 26.4993 46.1809 24.2193 42.9509 25.4193C42.1909 24.8893 41.3309 24.4293 40.3609 24.0893C37.5309 23.0893 33.9009 22.5193 31.1809 24.2293C29.9909 24.9793 28.6809 25.9993 28.4509 27.3593C26.5809 26.4593 25.1409 25.1993 26.2009 23.5293C26.2709 23.4093 26.3009 23.2893 26.2709 23.1693C27.3809 22.6293 28.5109 22.1093 29.5909 21.5293C33.1809 19.6293 36.9509 18.0293 39.6509 14.8693C41.8909 12.2593 43.1009 9.29926 41.6909 5.93926C40.5509 3.21926 38.7609 1.41926 36.0709 0.289261C35.9909 0.259261 35.9109 0.239261 35.8409 0.239261C35.5309 -0.260739 34.6409 0.0892607 34.8509 0.679261C36.0609 4.06926 33.6309 7.08926 30.7009 8.41926C27.9309 9.67926 25.3209 11.0793 22.5909 12.3993C18.0509 14.5993 13.6009 17.2293 10.3709 21.2093C7.39088 24.8893 5.56088 28.7593 5.88088 33.5893C6.18088 37.9793 7.72088 42.6093 11.2009 45.5793C12.6309 46.7993 14.1809 47.7393 15.8109 48.4293C15.5109 48.4993 15.2709 48.5693 15.1009 48.6293C10.3409 50.1693 6.36088 53.0693 1.41088 53.9793C0.790881 54.0893 0.870881 54.9593 1.38088 55.1493C1.86088 56.2193 2.98088 56.8493 3.73088 57.8193C4.53088 58.8693 5.21088 60.1493 6.17088 61.0593C8.43088 63.1893 11.2109 65.6893 14.2309 66.6193C17.3809 67.5893 20.6009 67.4893 23.8109 66.8493C25.7309 66.4693 27.6709 65.5593 29.6409 65.7193C29.8709 65.7393 30.1009 65.7693 30.3309 65.7993C31.2909 67.4193 32.3909 68.9093 33.5509 70.3493C34.4709 74.0293 35.0809 78.1093 34.5309 81.8093C34.0209 85.2293 33.5109 89.0993 33.8609 92.5593C34.4809 98.7093 38.4609 103.849 44.0209 106.539C44.0209 106.539 44.0309 106.539 44.0409 106.539C44.6709 109.609 47.1909 112.639 50.0609 114.479C49.2009 117.609 51.1309 121.369 54.0409 122.889C57.7009 124.799 62.5009 127.489 66.8609 126.749C71.2209 127.489 76.0209 124.789 79.6709 122.889C82.5709 121.379 84.5109 117.609 83.6509 114.479C86.5209 112.639 89.0409 109.599 89.6709 106.539C89.6709 106.539 89.6809 106.539 89.6909 106.539C95.2509 103.849 99.2309 98.7093 99.8509 92.5593C100.201 89.1093 99.6909 85.2393 99.1809 81.8093C98.6309 78.1093 99.2309 74.0293 100.161 70.3493C101.321 68.9093 102.421 67.4193 103.381 65.7993C103.611 65.7793 103.841 65.7393 104.071 65.7193C106.051 65.5593 107.991 66.4693 109.901 66.8493C113.111 67.4893 116.331 67.5993 119.481 66.6193C122.491 65.6893 125.281 63.1893 127.541 61.0593C128.501 60.1493 129.181 58.8693 129.981 57.8193C130.731 56.8393 131.851 56.2193 132.331 55.1493C132.841 54.9593 132.921 54.0893 132.301 53.9793H132.361Z" fill="url(#paint0_linear_57_257)"/>
<path d="M22.0209 74.9693C22.6409 73.9593 23.4909 72.5893 23.2509 71.6293C22.8909 70.1393 20.5309 71.8393 20.0009 72.1593C19.7909 72.2893 19.5709 72.4093 19.3509 72.5293C18.5609 71.7693 17.6709 71.0393 16.7209 70.8393C16.5009 70.7893 16.2709 71.0093 16.2609 71.2193C16.2109 72.0693 16.3709 72.9893 16.5609 73.8793C15.5609 74.3893 14.6209 74.9593 13.9709 75.7193C13.8809 75.8293 13.8609 76.0393 13.9309 76.1593C14.5509 77.1793 16.0409 77.2293 17.0909 77.3593C17.1509 77.3593 17.2109 77.3593 17.2709 77.3793C17.2709 77.3893 17.2709 77.4093 17.2709 77.4293C17.2909 77.6593 17.3009 77.8893 17.3009 78.1193C17.3009 78.9593 17.1809 80.4193 17.9309 80.9693C18.0709 81.0693 18.3209 81.1093 18.4709 81.0193C19.0309 80.6693 19.2909 80.3293 19.5709 79.7393C19.9109 79.0393 20.2409 78.3393 20.5809 77.6493C21.6309 77.7293 22.6809 77.8293 23.6909 78.0393C23.9209 78.0893 24.1609 77.8193 24.1009 77.5993C23.8409 76.6393 22.9209 75.7593 22.0009 74.9793L22.0209 74.9693Z" fill="url(#paint1_linear_57_257)"/>
<path d="M116.731 90.7793C117.031 90.2993 117.421 89.6493 117.311 89.1993C117.141 88.4993 116.021 89.2993 115.771 89.4493C115.671 89.5093 115.571 89.5593 115.461 89.6193C115.081 89.2593 114.661 88.9093 114.211 88.8193C114.111 88.7993 114.001 88.8993 113.991 88.9993C113.971 89.3993 114.041 89.8393 114.131 90.2593C113.661 90.4993 113.211 90.7693 112.901 91.1293C112.861 91.1793 112.851 91.2793 112.881 91.3393C113.171 91.8193 113.881 91.8493 114.381 91.9093C114.411 91.9093 114.441 91.9093 114.461 91.9093C114.461 91.9093 114.461 91.9193 114.461 91.9293C114.461 92.0393 114.471 92.1493 114.471 92.2493C114.471 92.6493 114.411 93.3393 114.771 93.5993C114.841 93.6493 114.951 93.6693 115.031 93.6193C115.301 93.4593 115.421 93.2893 115.551 93.0193C115.711 92.6893 115.871 92.3593 116.031 92.0293C116.531 92.0693 117.021 92.1193 117.501 92.2193C117.611 92.2393 117.721 92.1093 117.701 92.0093C117.571 91.5493 117.141 91.1393 116.701 90.7693L116.731 90.7793Z" fill="url(#paint2_linear_57_257)"/>
<path d="M30.3509 98.1593C31.1209 97.9693 32.1709 97.7093 32.5109 97.1493C33.0409 96.2693 31.1109 95.9793 30.7109 95.8793C30.5509 95.8393 30.3909 95.7993 30.2309 95.7493C30.2109 95.0193 30.1309 94.2593 29.7709 93.7193C29.6909 93.5893 29.4809 93.5893 29.3709 93.6793C28.9509 94.0593 28.5909 94.5793 28.2709 95.0893C27.5509 94.8593 26.8409 94.6993 26.1709 94.7493C26.0809 94.7493 25.9709 94.8493 25.9509 94.9393C25.7709 95.7093 26.4509 96.4393 26.9009 96.9893C26.9309 97.0193 26.9509 97.0493 26.9809 97.0793C26.9809 97.0793 26.9709 97.0993 26.9609 97.0993C26.8609 97.2193 26.7509 97.3393 26.6509 97.4393C26.2609 97.8393 25.5109 98.4793 25.6109 99.0993C25.6309 99.2193 25.7309 99.3493 25.8509 99.3793C26.2809 99.4793 26.5609 99.4293 26.9709 99.2893C27.4609 99.1093 27.9509 98.9393 28.4409 98.7693C28.9009 99.2993 29.3509 99.8393 29.7409 100.419C29.8309 100.549 30.0709 100.539 30.1409 100.399C30.4609 99.8093 30.4409 98.9693 30.3609 98.1693L30.3509 98.1593Z" fill="url(#paint3_linear_57_257)"/>
<path d="M100.021 109.229C100.751 109.539 101.741 109.969 102.351 109.729C103.301 109.349 101.941 107.949 101.681 107.629C101.581 107.499 101.481 107.369 101.381 107.229C101.811 106.629 102.201 105.979 102.241 105.329C102.241 105.179 102.081 105.049 101.941 105.059C101.371 105.109 100.781 105.309 100.211 105.519C99.7809 104.909 99.3109 104.339 98.7409 103.979C98.6609 103.929 98.5209 103.939 98.4409 103.999C97.8309 104.509 97.9309 105.499 97.9609 106.209C97.9609 106.249 97.9609 106.289 97.9609 106.329C97.9609 106.329 97.9409 106.329 97.9309 106.329C97.7809 106.369 97.6309 106.399 97.4809 106.419C96.9209 106.499 95.9409 106.559 95.6509 107.109C95.6009 107.209 95.5909 107.379 95.6709 107.469C95.9509 107.809 96.2009 107.939 96.6209 108.069C97.1209 108.229 97.6109 108.379 98.1109 108.539C98.1609 109.239 98.1909 109.949 98.1509 110.639C98.1509 110.799 98.3409 110.929 98.4809 110.869C99.0909 110.599 99.5809 109.909 100.011 109.229H100.021Z" fill="url(#paint4_linear_57_257)"/>
<path d="M112.671 74.7693C113.401 75.0893 114.391 75.5093 115.001 75.2693C115.951 74.8893 114.601 73.4893 114.331 73.1693C114.231 73.0493 114.131 72.9093 114.031 72.7693C114.461 72.1693 114.851 71.5193 114.891 70.8693C114.891 70.7193 114.731 70.5893 114.591 70.5993C114.021 70.6493 113.431 70.8493 112.861 71.0593C112.431 70.4493 111.961 69.8793 111.391 69.5193C111.311 69.4693 111.171 69.4793 111.101 69.5393C110.491 70.0493 110.591 71.0393 110.621 71.7493C110.621 71.7893 110.621 71.8293 110.621 71.8693C110.621 71.8693 110.601 71.8693 110.591 71.8693C110.441 71.9093 110.291 71.9393 110.141 71.9593C109.581 72.0393 108.601 72.0993 108.311 72.6493C108.261 72.7493 108.251 72.9193 108.331 73.0093C108.611 73.3393 108.861 73.4793 109.281 73.6093C109.781 73.7693 110.271 73.9193 110.761 74.0793C110.811 74.7793 110.841 75.4893 110.801 76.1793C110.801 76.3393 110.991 76.4693 111.131 76.4093C111.741 76.1393 112.231 75.4493 112.661 74.7693H112.671Z" fill="url(#paint5_linear_57_257)"/>
<path d="M16.2409 87.2593C15.6709 87.2593 15.1809 87.3593 14.7409 87.7293C14.3409 88.0693 14.0809 88.5593 14.0309 89.0893C13.9309 90.1093 14.7509 91.2993 15.8609 91.2993C16.4309 91.2993 16.9209 91.2093 17.3609 90.8293C17.7609 90.4893 18.0209 89.9993 18.0709 89.4693C18.1709 88.4493 17.3509 87.2593 16.2409 87.2593Z" fill="url(#paint6_linear_57_257)"/>
<path d="M24.7909 87.9893C23.6409 87.9893 23.4609 89.7793 24.6209 89.7793C25.7809 89.7793 25.9509 87.9893 24.7909 87.9893Z" fill="url(#paint7_linear_57_257)"/>
<path d="M120.091 77.6693C120.121 77.7793 120.151 77.8893 120.201 77.9893C120.351 78.3093 120.571 78.3993 120.781 78.3593C120.991 78.3793 121.201 78.2793 121.361 77.9393C121.391 77.8893 121.411 77.8393 121.421 77.7893C121.791 76.5693 119.791 76.6793 120.091 77.6693Z" fill="url(#paint8_linear_57_257)"/>
<path d="M106.231 88.3993C102.511 88.3993 101.941 94.1893 105.681 94.1893C109.421 94.1893 109.971 88.3993 106.231 88.3993Z" fill="url(#paint9_linear_57_257)"/>
<path d="M109.851 100.579C108.081 100.579 107.811 103.339 109.591 103.339C111.371 103.339 111.641 100.579 109.851 100.579Z" fill="url(#paint10_linear_57_257)"/>
<path d="M29.5909 74.7993C29.5609 74.4293 29.1809 74.1293 28.8309 74.0993C28.3709 74.0593 27.9409 74.4093 27.9009 74.8693C27.9009 74.9593 27.8909 75.0493 27.8809 75.1393C27.8409 75.6193 28.1909 76.0493 28.6709 76.0993C29.2809 76.1493 29.6609 75.6293 29.6209 75.0693L29.6009 74.7993H29.5909Z" fill="url(#paint11_linear_57_257)"/>
<path d="M132.361 53.9793C127.411 53.0693 123.431 50.1693 118.671 48.6293C118.501 48.5793 118.251 48.4993 117.951 48.4293C119.591 47.7393 121.141 46.8093 122.581 45.5793C126.071 42.6093 127.611 37.9793 127.911 33.5893C128.231 28.7693 126.411 24.8893 123.421 21.2093C120.191 17.2293 115.741 14.5993 111.201 12.3993C108.461 11.0693 105.851 9.67926 103.091 8.41926C100.161 7.08926 97.7309 4.05926 98.9409 0.679261C99.1509 0.0892607 98.2609 -0.260739 97.9509 0.239261C97.8809 0.239261 97.8009 0.249261 97.7209 0.289261C95.0309 1.40926 93.2409 3.20926 92.1009 5.93926C90.7009 9.28926 91.9109 12.2493 94.1409 14.8693C96.8509 18.0293 100.611 19.6293 104.201 21.5293C105.291 22.1093 106.411 22.6193 107.521 23.1693C107.501 23.2893 107.521 23.4093 107.591 23.5293C108.651 25.1993 107.201 26.4593 105.331 27.3593C105.101 25.9993 103.811 24.9693 102.621 24.2193C99.9009 22.5093 96.2709 23.0793 93.4409 24.0793C92.4709 24.4193 91.6109 24.8793 90.8509 25.4093C87.6109 24.2093 82.9509 26.4993 80.4609 28.5593C78.6209 28.2993 77.0509 29.6093 75.3409 30.2693C72.6809 31.3093 69.7909 31.9693 66.9209 32.0093C64.0409 31.9693 61.1609 31.2993 58.5009 30.2693C56.7909 29.6093 55.2209 28.2993 53.3809 28.5593C50.8809 26.5093 46.2209 24.2093 42.9909 25.4093C42.2309 24.8793 41.3709 24.4193 40.4009 24.0793C37.5709 23.0793 33.9409 22.5093 31.2209 24.2193C30.0309 24.9693 28.7409 25.9993 28.5109 27.3593C26.6409 26.4593 25.1809 25.1993 26.2509 23.5293C26.3309 23.4093 26.3409 23.2893 26.3209 23.1693C27.4309 22.6293 28.5509 22.1093 29.6409 21.5293C33.2309 19.6293 37.0009 18.0293 39.7009 14.8693C41.9409 12.2593 43.1509 9.29926 41.7409 5.93926C40.6009 3.21926 38.8109 1.41926 36.1209 0.289261C36.0409 0.259261 35.9609 0.239261 35.8909 0.239261C35.5809 -0.260739 34.6909 0.0892607 34.9009 0.679261C36.1109 4.06926 33.6809 7.08926 30.7509 8.41926C27.9809 9.67926 25.3709 11.0793 22.6409 12.3993C18.1009 14.5993 13.6509 17.2293 10.4209 21.2093C7.44088 24.8893 5.61088 28.7593 5.93088 33.5893C6.23088 37.9793 7.77088 42.6093 11.2509 45.5793C12.6909 46.8093 14.2409 47.7393 15.8809 48.4293C15.5809 48.5093 15.3209 48.5793 15.1609 48.6293C10.4009 50.1693 6.42088 53.0693 1.47088 53.9793C0.850881 54.0893 0.930881 54.9593 1.44088 55.1493C1.92088 56.2193 3.04088 56.8493 3.79088 57.8193C4.59088 58.8693 5.27088 60.1493 6.23088 61.0593C8.49088 63.1893 11.2709 65.6893 14.2909 66.6193C17.4409 67.5893 20.6609 67.4893 23.8709 66.8493C25.7909 66.4693 27.7309 65.5593 29.7009 65.7193C29.9409 65.7393 30.1709 65.7693 30.4009 65.7993C31.3609 67.4093 32.4509 68.8993 33.6109 70.3393C34.5409 74.0193 35.1409 78.0993 34.5909 81.7993C34.0809 85.2193 33.5709 89.0893 33.9209 92.5493C34.5409 98.6993 38.5209 103.839 44.0809 106.529C44.0809 106.529 44.0909 106.529 44.1009 106.529C44.7309 109.599 47.2509 112.629 50.1209 114.469C49.2609 117.599 51.1909 121.369 54.1009 122.879C57.7609 124.789 62.5609 127.479 66.9209 126.739C71.2809 127.479 76.0809 124.789 79.7409 122.879C82.6409 121.369 84.5809 117.599 83.7209 114.469C86.5909 112.629 89.1109 109.599 89.7409 106.529H89.7609C95.3209 103.839 99.3009 98.6993 99.9209 92.5493C100.271 89.0993 99.7609 85.2293 99.2509 81.7993C98.7009 78.0993 99.3009 74.0193 100.231 70.3393C101.381 68.8993 102.481 67.4093 103.441 65.7993C103.671 65.7693 103.911 65.7393 104.141 65.7193C106.121 65.5593 108.061 66.4693 109.971 66.8493C113.181 67.4893 116.401 67.5893 119.551 66.6193C122.561 65.6893 125.351 63.1893 127.611 61.0593C128.571 60.1493 129.251 58.8693 130.051 57.8193C130.801 56.8493 131.931 56.2193 132.401 55.1493C132.911 54.9593 132.991 54.0893 132.371 53.9793H132.361ZM109.441 24.1893C109.551 24.2493 109.661 24.3093 109.771 24.3693C113.071 26.3493 114.041 30.7293 112.441 34.1293C112.421 34.1793 112.481 34.2093 112.511 34.1693C116.761 28.3893 111.861 23.8693 106.981 21.1093C103.251 18.9993 99.2209 17.2293 96.1109 14.2193C93.6109 11.7993 92.5509 9.08926 94.1009 5.77926C94.8109 4.25926 96.0109 3.11926 97.2909 2.08926C96.9909 4.18926 97.9209 6.40926 99.3409 7.95926C100.571 9.30926 102.621 10.0393 104.281 10.7093C107.011 11.7993 109.511 13.4493 112.151 14.7493C116.641 16.9593 120.681 20.2393 123.531 24.3693C127.161 29.6193 126.661 35.9093 123.631 41.2393C121.121 45.6493 116.161 47.8493 111.231 47.9793C106.051 48.1093 101.161 45.0793 99.1209 40.2293C97.9109 37.3493 98.2209 34.5293 99.8609 31.9593C101.171 29.8893 105.011 29.5693 107.051 28.2693C108.431 27.3893 109.731 25.6293 109.431 24.1793L109.441 24.1893ZM104.081 27.8893C102.751 28.3893 101.441 28.7293 100.811 28.9193C99.1409 29.4093 97.9309 31.3493 97.3109 32.8293C95.7609 36.5293 96.6709 40.9093 99.1209 43.9893C101.371 46.8193 104.261 48.8593 107.641 49.5793C106.771 50.2793 105.901 50.9293 104.691 51.2793C102.221 51.9893 99.9209 51.8893 97.4309 51.2693C92.2009 49.9493 89.3109 45.1693 87.7809 40.4293C86.4109 36.1893 87.6709 30.4693 90.8709 27.4193C94.6009 23.8593 100.911 23.9993 104.071 27.8993L104.081 27.8893ZM42.9409 27.4093C46.1509 30.4693 47.4109 36.1893 46.0309 40.4193C44.5009 45.1593 41.6109 49.9293 36.3809 51.2593C33.9009 51.8893 31.5909 51.9793 29.1209 51.2693C27.9009 50.9193 27.0409 50.2693 26.1709 49.5693C29.5509 48.8493 32.4409 46.8093 34.6909 43.9793C37.1409 40.8993 38.0509 36.5193 36.5009 32.8193C35.8809 31.3393 34.6709 29.3993 33.0009 28.9093C32.3609 28.7293 31.0609 28.3793 29.7309 27.8793C32.8909 23.9893 39.1909 23.8493 42.9309 27.3993L42.9409 27.4093ZM10.1709 41.2493C7.14088 35.9193 6.65088 29.6293 10.2709 24.3793C13.1209 20.2493 17.1609 16.9693 21.6509 14.7593C24.2909 13.4593 26.7909 11.8093 29.5209 10.7193C31.1709 10.0593 33.2209 9.31926 34.4609 7.96926C35.8809 6.41926 36.8109 4.19926 36.5109 2.08926C37.8009 3.11926 38.9909 4.25926 39.7009 5.77926C41.2509 9.08926 40.2009 11.7993 37.7009 14.2193C34.5909 17.2293 30.5609 18.9993 26.8309 21.1093C21.9509 23.8693 17.0609 28.3793 21.3009 34.1693C21.3309 34.2093 21.3909 34.1693 21.3709 34.1293C19.7709 30.7193 20.7409 26.3493 24.0409 24.3693C24.1509 24.3093 24.2609 24.2493 24.3709 24.1893C24.0709 25.6393 25.3709 27.3993 26.7509 28.2793C28.7809 29.5793 32.6209 29.8993 33.9409 31.9693C35.5709 34.5493 35.8809 37.3693 34.6709 40.2393C32.6309 45.0993 27.7409 48.1293 22.5609 47.9893C17.6309 47.8593 12.6709 45.6593 10.1609 41.2493H10.1709ZM25.1609 64.8593C21.8409 65.5093 18.0209 66.1393 14.7709 64.8093C11.4009 63.4293 7.83088 60.5893 5.91088 57.4693C5.40088 56.6393 4.83088 55.8993 4.16088 55.2993C6.12088 54.9593 8.02088 53.8193 9.70088 52.8693C11.8709 51.6593 14.1709 50.3793 16.5909 49.7493C17.0209 49.6393 17.7009 49.4293 18.4009 49.2693C20.0109 49.6793 21.6909 49.8693 23.4409 49.8693C23.6809 49.8693 23.9209 49.8393 24.1609 49.8293C24.9309 51.4793 26.9309 52.6093 28.6509 52.9493C28.6909 52.9493 28.7209 52.9593 28.7509 52.9693C27.8009 54.4993 27.6009 56.4293 27.8109 58.3893C26.1009 56.7793 23.7809 55.7393 21.5409 55.3593C16.9909 54.5993 12.8709 56.2293 8.39088 56.4093C8.37088 56.3993 8.35088 56.3893 8.33088 56.3693C7.50088 55.8293 6.77088 57.1293 7.56088 57.6893C9.13088 58.7993 11.0509 59.2793 12.5909 60.4493C14.0609 61.5593 15.5209 62.4693 17.1809 63.2693C19.3309 64.2993 21.9409 64.0793 24.0409 63.1493C24.2009 63.0793 24.0809 62.8393 23.9209 62.8693C20.2609 63.6393 16.9809 62.1293 14.2009 59.8693C13.2209 59.0793 12.1709 58.4993 11.1109 57.9393C13.4109 57.6993 15.8309 56.7593 18.0009 56.7993C22.3009 56.8693 25.0709 58.0193 28.1709 60.4093C28.5109 61.8193 29.0309 63.1793 29.5809 64.3293C28.1209 64.1393 26.6209 64.5793 25.1509 64.8693L25.1609 64.8593ZM80.9309 118.609C79.7809 120.099 78.8809 120.949 77.1709 121.859C75.2709 122.869 73.4109 123.559 71.3509 124.159C69.8409 124.599 68.3609 124.569 66.8909 124.739C65.4209 124.569 63.9409 124.599 62.4309 124.159C60.3709 123.559 58.5109 122.869 56.6109 121.859C54.9009 120.949 54.0009 120.099 52.8509 118.609C52.0709 117.599 51.4909 116.529 51.5009 115.269C52.2709 115.639 53.0409 115.929 53.7809 116.089C58.1009 117.029 62.4109 118.659 66.8809 118.259C71.3409 118.659 75.6509 117.029 79.9809 116.089C80.7309 115.929 81.5009 115.639 82.2709 115.269C82.2709 116.529 81.7009 117.599 80.9209 118.609H80.9309ZM83.4509 112.049C81.2809 113.719 78.8409 114.199 76.3009 115.029C73.2409 116.029 70.0809 116.219 66.9109 116.379C63.7409 116.229 60.5809 116.039 57.5209 115.029C54.9809 114.199 52.5409 113.719 50.3709 112.049C48.3609 110.509 44.4709 106.749 46.3209 103.919C47.2809 102.449 48.9909 101.249 49.4809 99.4893C49.4809 99.4593 49.4909 99.4393 49.5009 99.4093C49.9809 100.359 50.8709 101.079 51.9109 101.669C51.9309 101.689 51.9309 101.719 51.9509 101.749C52.9809 102.989 54.0109 104.119 54.7209 105.589C55.1209 106.429 55.6309 107.559 56.5309 108.009C57.8009 108.649 59.6209 108.759 60.5909 107.499C61.9009 105.779 60.4109 103.919 58.9309 102.899C56.8809 101.489 51.1509 100.899 49.8009 98.3493C50.4709 96.0993 51.2809 94.2593 53.5509 92.9393C57.8809 90.4293 62.2909 91.6093 66.9109 91.5693C71.5309 91.6093 75.9409 90.4293 80.2709 92.9393C82.5509 94.2593 83.3509 96.0993 84.0209 98.3493C82.6709 100.899 76.9409 101.489 74.8909 102.899C73.4209 103.909 71.9209 105.779 73.2409 107.499C74.2109 108.769 76.0309 108.649 77.3009 108.009C78.1909 107.559 78.7009 106.429 79.1109 105.589C79.8109 104.119 80.8509 102.989 81.8809 101.749C81.9009 101.729 81.9109 101.699 81.9209 101.669C82.9609 101.079 83.8609 100.349 84.3309 99.3993C84.3309 99.4293 84.3509 99.4493 84.3509 99.4793C84.8409 101.239 86.5509 102.439 87.5109 103.909C89.3609 106.729 85.4709 110.489 83.4609 112.039L83.4509 112.049ZM55.2109 103.129C55.6109 103.279 56.0009 103.419 56.3509 103.559C57.2309 103.909 58.0809 104.349 58.7409 105.049C58.8409 106.859 58.3109 107.299 57.1209 106.379C56.5709 105.729 56.3109 104.989 55.9309 104.239C55.7109 103.829 55.4809 103.459 55.2109 103.119V103.129ZM78.5909 103.129C78.3309 103.469 78.0909 103.839 77.8709 104.249C77.4809 104.989 77.2209 105.729 76.6809 106.389C75.5009 107.309 74.9609 106.869 75.0609 105.059C75.7109 104.359 76.5709 103.919 77.4509 103.569C77.8009 103.429 78.1909 103.289 78.5909 103.139V103.129ZM96.4609 72.4593C95.7409 73.4593 94.7309 74.5093 94.1309 75.5393C93.5809 76.4793 93.4309 77.6893 92.9909 78.6893C92.8209 79.0793 93.3509 79.4193 93.5709 79.0293C94.8409 76.8793 96.3909 74.9593 97.9709 73.0493C96.6509 77.4193 97.3609 82.5993 97.7009 86.8893C98.0309 90.9893 98.0709 94.5493 95.9009 98.2193C94.4309 100.709 92.0209 102.689 89.8509 104.679C89.5609 102.059 86.6609 100.459 85.9809 98.0093C85.6409 96.7693 85.2509 95.4793 84.6109 94.3493C84.0409 91.4693 82.8309 89.0693 81.4409 86.4593C79.5509 82.9093 78.2809 79.2793 77.0709 75.4593C76.5409 73.7793 76.5409 71.9793 76.5209 70.2393C76.5009 67.8793 76.1309 65.6593 76.4209 63.2893C76.4209 63.2493 76.4209 63.2193 76.4309 63.1793C78.0909 59.3193 80.1709 56.1893 84.0409 53.9093C86.7809 52.2893 90.4009 53.2193 92.7109 55.1493C94.7809 56.8793 95.0009 59.0393 95.1109 61.4493C94.7409 61.8293 94.3509 62.1893 93.8409 62.5093C92.8509 63.1393 91.0909 62.9593 89.9409 63.0593C88.1809 63.2093 86.5709 63.8493 85.0809 64.7493C83.8109 65.5193 82.9409 66.7793 82.2909 68.0893C82.0509 68.5893 81.8909 69.1593 81.6909 69.6793C81.4509 70.2893 81.8009 71.1693 81.4309 71.6793C81.2809 71.8893 81.5709 72.1593 81.7809 72.0293C81.8409 71.9893 81.8909 71.9393 81.9409 71.8993C81.9809 71.8993 82.0309 71.9093 82.0709 71.9193C82.2109 71.9393 82.3709 71.9193 82.4409 71.7693C82.3809 71.8893 85.7609 72.4993 86.2309 72.5093C87.4409 72.5393 88.7709 71.7093 89.7109 71.0593C92.0809 69.4093 93.5409 66.4793 94.5109 63.8493C94.5109 63.8293 94.5109 63.8093 94.5109 63.7893C95.1309 63.5393 95.6709 63.1593 96.0709 62.5893C96.1709 62.5193 96.2609 62.4193 96.3009 62.2693C96.3209 62.2193 96.3209 62.1793 96.3309 62.1293C96.4909 61.7993 96.6109 61.4393 96.6909 60.9993C96.7109 60.8693 96.6909 60.7493 96.6209 60.6493C97.1909 55.2093 91.5809 51.2793 86.3309 51.5293C82.2909 51.7193 78.9009 55.0893 76.9009 58.9293C77.2509 56.2593 77.7209 53.6393 78.7209 51.0393C78.7609 50.9493 78.6209 50.8993 78.5709 50.9793C76.5409 54.4993 75.6309 57.8993 75.0809 61.9193C74.8009 63.9493 74.5709 65.8193 74.6409 67.8893C74.7009 69.5693 74.5009 71.6193 74.8109 73.2593C75.5009 76.8793 76.5609 80.3493 78.0709 83.7193C79.3209 86.5093 80.9309 89.1493 82.2409 91.9093C79.8809 90.4693 77.7709 89.9193 75.0009 89.4093C74.3509 89.2893 68.0609 89.5593 66.8609 90.3693C65.6609 89.5693 59.3709 89.2993 58.7209 89.4093C55.9509 89.9193 53.8409 90.4693 51.4809 91.9093C52.7909 89.1393 54.4009 86.4993 55.6509 83.7193C57.1609 80.3493 58.2209 76.8893 58.9109 73.2593C59.2209 71.6193 59.0209 69.5693 59.0809 67.8893C59.1509 65.8193 58.9209 63.9593 58.6409 61.9193C58.0909 57.8993 57.1809 54.4993 55.1509 50.9793C55.1009 50.8993 54.9609 50.9493 55.0009 51.0393C56.0009 53.6493 56.4709 56.2593 56.8209 58.9393C54.8209 55.0993 51.4309 51.7293 47.3909 51.5293C42.1409 51.2793 36.5309 55.2093 37.1009 60.6493C37.0409 60.7493 37.0109 60.8693 37.0309 60.9993C37.1109 61.4393 37.2309 61.8093 37.3909 62.1293C37.4009 62.1793 37.4109 62.2193 37.4209 62.2693C37.4709 62.4093 37.5509 62.5093 37.6509 62.5793C38.0509 63.1493 38.5909 63.5293 39.2209 63.7793C39.2209 63.7993 39.2209 63.8193 39.2209 63.8393C40.1909 66.4593 41.6509 69.3993 44.0209 71.0493C44.9609 71.6993 46.3009 72.5293 47.5009 72.4993C47.9709 72.4893 51.3509 71.8793 51.2909 71.7593C51.3609 71.8993 51.5209 71.9293 51.6509 71.9093C51.6909 71.9093 51.7409 71.8993 51.7809 71.8893C51.8309 71.9293 51.8809 71.9793 51.9409 72.0193C52.1509 72.1493 52.4409 71.8793 52.2909 71.6693C51.9209 71.1493 52.2809 70.2793 52.0309 69.6693C51.8209 69.1493 51.6709 68.5693 51.4309 68.0793C50.7909 66.7693 49.9209 65.5093 48.6409 64.7393C47.1509 63.8293 45.5409 63.1993 43.7809 63.0493C42.6409 62.9493 40.8709 63.1293 39.8809 62.4993C39.3809 62.1793 38.9909 61.8193 38.6109 61.4393C38.7309 59.0293 38.9509 56.8593 41.0109 55.1293C43.3209 53.1993 46.9409 52.2693 49.6809 53.8893C53.5509 56.1793 55.6209 59.3093 57.2909 63.1693C57.2909 63.1993 57.2909 63.2393 57.3009 63.2693C57.5909 65.6393 57.2209 67.8593 57.1909 70.2193C57.1709 71.9593 57.1809 73.7593 56.6509 75.4393C55.4409 79.2593 54.1709 82.8893 52.2809 86.4393C50.8909 89.0493 49.6809 91.4493 49.1109 94.3293C48.4809 95.4593 48.0909 96.7493 47.7409 97.9893C47.0609 100.439 44.1709 102.039 43.8709 104.659C41.7009 102.669 39.2909 100.699 37.8209 98.1993C35.6509 94.5393 35.6909 90.9693 36.0209 86.8693C36.3609 82.5693 37.0709 77.3993 35.7509 73.0293C37.3309 74.9393 38.8709 76.8593 40.1509 79.0093C40.3809 79.3893 40.9109 79.0593 40.7409 78.6693C40.3009 77.6793 40.1509 76.4693 39.6009 75.5193C39.0009 74.4893 38.0009 73.4393 37.2709 72.4393C35.9409 70.6093 34.4009 69.0093 33.2209 67.0593C30.5909 62.7493 28.7709 58.2693 30.1909 53.2493C31.3509 53.4693 32.4009 53.6093 33.7609 53.4793C35.4509 53.3193 37.0109 52.8293 38.5809 52.1993C44.0209 50.0293 47.7809 43.3493 47.9209 37.6893C48.0209 33.7493 47.1709 29.7993 44.7509 27.0293C48.2409 27.7493 51.4109 28.6693 54.1009 31.5093C56.2909 33.8093 58.2809 36.5493 60.8009 38.4693C60.8909 38.5393 61.0309 38.4193 60.9909 38.3193C60.3209 36.5793 58.6809 34.9893 57.6009 33.4693C56.9709 32.5893 56.3309 31.7193 55.6409 30.8993C57.3309 31.7393 59.1209 32.4893 60.8309 32.7993C62.5109 33.1093 64.9009 33.8193 66.8309 33.5493C68.7609 33.8193 71.1609 33.0993 72.8309 32.7993C74.5509 32.4893 76.3309 31.7393 78.0209 30.8993C77.3309 31.7193 76.6909 32.5893 76.0609 33.4693C74.9709 34.9893 73.3309 36.5693 72.6709 38.3193C72.6309 38.4193 72.7709 38.5393 72.8609 38.4693C75.3909 36.5593 77.3809 33.8193 79.5609 31.5093C82.2509 28.6693 85.4209 27.7393 88.9109 27.0293C86.4909 29.7993 85.6409 33.7493 85.7409 37.6893C85.8809 43.3593 89.6409 50.0293 95.0809 52.1993C96.6509 52.8293 98.2009 53.3193 99.9009 53.4793C101.261 53.6093 102.311 53.4693 103.471 53.2493C104.891 58.2693 103.061 62.7493 100.441 67.0593C99.2509 69.0093 97.7109 70.6093 96.3809 72.4393L96.4609 72.4593ZM92.7109 64.2593C91.6009 65.6893 91.0709 67.5693 89.8009 68.9693C88.6609 70.2293 87.1309 71.0693 85.4209 71.1693C84.3509 71.2293 83.5409 70.9493 82.5409 71.0493C82.7209 70.5493 82.8209 69.9893 83.0709 69.4893C84.3809 66.8393 86.2509 65.4393 89.1309 64.7393C90.2209 64.4693 91.5009 64.4393 92.7109 64.2693V64.2593ZM41.1009 64.2593C42.3109 64.4293 43.5909 64.4593 44.6809 64.7293C47.5609 65.4293 49.4309 66.8393 50.7409 69.4793C50.9909 69.9793 51.0809 70.5393 51.2709 71.0393C50.2709 70.9393 49.4609 71.2193 48.3909 71.1593C46.6809 71.0593 45.1509 70.2293 44.0109 68.9593C42.7409 67.5593 42.2209 65.6793 41.1009 64.2493V64.2593ZM127.891 57.4693C125.971 60.5893 122.411 63.4393 119.031 64.8093C115.781 66.1393 111.971 65.4993 108.641 64.8593C107.171 64.5693 105.671 64.1393 104.211 64.3193C104.771 63.1693 105.281 61.8093 105.621 60.3993C108.721 58.0093 111.481 56.8493 115.791 56.7893C117.961 56.7593 120.381 57.6993 122.681 57.9293C121.621 58.4893 120.571 59.0693 119.591 59.8593C116.811 62.1293 113.531 63.6293 109.871 62.8593C109.711 62.8293 109.591 63.0593 109.751 63.1393C111.851 64.0793 114.461 64.2993 116.611 63.2593C118.271 62.4593 119.731 61.5493 121.201 60.4393C122.741 59.2693 124.661 58.7893 126.231 57.6793C127.021 57.1193 126.291 55.8193 125.461 56.3593C125.441 56.3693 125.421 56.3793 125.401 56.3993C120.921 56.2293 116.791 54.5893 112.251 55.3493C110.011 55.7193 107.691 56.7693 105.981 58.3793C106.201 56.4193 105.981 54.4893 105.041 52.9593C105.081 52.9593 105.111 52.9493 105.141 52.9393C106.861 52.5993 108.861 51.4793 109.631 49.8193C109.871 49.8293 110.101 49.8693 110.351 49.8593C112.101 49.8593 113.781 49.6593 115.391 49.2593C116.081 49.4093 116.761 49.6193 117.201 49.7393C119.621 50.3693 121.921 51.6493 124.091 52.8593C125.771 53.7993 127.671 54.9493 129.631 55.2893C128.961 55.8893 128.391 56.6293 127.881 57.4593L127.891 57.4693Z" fill="#897EB3"/>
</g>
<defs>
<linearGradient id="paint0_linear_57_257" x1="1.02091" y1="63.4393" x2="132.871" y2="63.4393" gradientUnits="userSpaceOnUse">
<stop stop-color="#C0CBD8"/>
<stop offset="0.54" stop-color="white"/>
<stop offset="0.87" stop-color="white"/>
<stop offset="0.99" stop-color="#C0CBD8"/>
</linearGradient>
<linearGradient id="paint1_linear_57_257" x1="0.998922" y1="63.4191" x2="133.076" y2="63.4191" gradientUnits="userSpaceOnUse">
<stop stop-color="#C0CBD8"/>
<stop offset="0.54" stop-color="white"/>
<stop offset="0.87" stop-color="white"/>
<stop offset="0.99" stop-color="#C0CBD8"/>
</linearGradient>
<linearGradient id="paint2_linear_57_257" x1="1.44709" y1="63.6162" x2="133.562" y2="63.6162" gradientUnits="userSpaceOnUse">
<stop stop-color="#C0CBD8"/>
<stop offset="0.54" stop-color="white"/>
<stop offset="0.87" stop-color="white"/>
<stop offset="0.99" stop-color="#C0CBD8"/>
</linearGradient>
<linearGradient id="paint3_linear_57_257" x1="0.766398" y1="63.1764" x2="132.783" y2="63.1764" gradientUnits="userSpaceOnUse">
<stop stop-color="#C0CBD8"/>
<stop offset="0.54" stop-color="white"/>
<stop offset="0.87" stop-color="white"/>
<stop offset="0.99" stop-color="#C0CBD8"/>
</linearGradient>
<linearGradient id="paint4_linear_57_257" x1="1.13641" y1="63.3195" x2="132.76" y2="63.3195" gradientUnits="userSpaceOnUse">
<stop stop-color="#C0CBD8"/>
<stop offset="0.54" stop-color="white"/>
<stop offset="0.87" stop-color="white"/>
<stop offset="0.99" stop-color="#C0CBD8"/>
</linearGradient>
<linearGradient id="paint5_linear_57_257" x1="0.949944" y1="63.3195" x2="132.733" y2="63.3195" gradientUnits="userSpaceOnUse">
<stop stop-color="#C0CBD8"/>
<stop offset="0.54" stop-color="white"/>
<stop offset="0.87" stop-color="white"/>
<stop offset="0.99" stop-color="#C0CBD8"/>
</linearGradient>
<linearGradient id="paint6_linear_57_257" x1="0.915251" y1="63.4374" x2="132.867" y2="63.4374" gradientUnits="userSpaceOnUse">
<stop stop-color="#C0CBD8"/>
<stop offset="0.54" stop-color="white"/>
<stop offset="0.87" stop-color="white"/>
<stop offset="0.99" stop-color="#C0CBD8"/>
</linearGradient>
<linearGradient id="paint7_linear_57_257" x1="1.44024" y1="63.7918" x2="132.836" y2="63.7918" gradientUnits="userSpaceOnUse">
<stop stop-color="#C0CBD8"/>
<stop offset="0.54" stop-color="white"/>
<stop offset="0.87" stop-color="white"/>
<stop offset="0.99" stop-color="#C0CBD8"/>
</linearGradient>
<linearGradient id="paint8_linear_57_257" x1="1.04616" y1="62.9991" x2="133.199" y2="62.9991" gradientUnits="userSpaceOnUse">
<stop stop-color="#C0CBD8"/>
<stop offset="0.54" stop-color="white"/>
<stop offset="0.87" stop-color="white"/>
<stop offset="0.99" stop-color="#C0CBD8"/>
</linearGradient>
<linearGradient id="paint9_linear_57_257" x1="0.929874" y1="63.547" x2="132.69" y2="63.547" gradientUnits="userSpaceOnUse">
<stop stop-color="#C0CBD8"/>
<stop offset="0.54" stop-color="white"/>
<stop offset="0.87" stop-color="white"/>
<stop offset="0.99" stop-color="#C0CBD8"/>
</linearGradient>
<linearGradient id="paint10_linear_57_257" x1="0.414064" y1="63.4374" x2="132.51" y2="63.4374" gradientUnits="userSpaceOnUse">
<stop stop-color="#C0CBD8"/>
<stop offset="0.54" stop-color="white"/>
<stop offset="0.87" stop-color="white"/>
<stop offset="0.99" stop-color="#C0CBD8"/>
</linearGradient>
<linearGradient id="paint11_linear_57_257" x1="0.451888" y1="62.7982" x2="131.837" y2="62.7982" gradientUnits="userSpaceOnUse">
<stop stop-color="#C0CBD8"/>
<stop offset="0.54" stop-color="white"/>
<stop offset="0.87" stop-color="white"/>
<stop offset="0.99" stop-color="#C0CBD8"/>
</linearGradient>
</defs>
</svg>
