<svg width="117" height="107" viewBox="0 0 117 107" fill="none" xmlns="http://www.w3.org/2000/svg">
<g id="10">
<path d="M106.311 22.6593C106.671 22.0793 107.151 21.2893 107.021 20.7393C106.811 19.8893 105.461 20.8593 105.161 21.0493C105.041 21.1193 104.921 21.1893 104.791 21.2593C104.341 20.8193 103.831 20.4093 103.281 20.2893C103.151 20.2593 103.021 20.3893 103.021 20.5093C102.991 20.9893 103.081 21.5193 103.191 22.0293C102.611 22.3193 102.081 22.6493 101.701 23.0793C101.651 23.1393 101.641 23.2593 101.681 23.3293C102.041 23.9093 102.891 23.9393 103.491 24.0193C103.521 24.0193 103.561 24.0193 103.591 24.0193C103.591 24.0193 103.591 24.0393 103.591 24.0493C103.591 24.1793 103.611 24.3193 103.611 24.4393C103.611 24.9193 103.541 25.7593 103.971 26.0793C104.051 26.1393 104.191 26.1593 104.281 26.1093C104.601 25.9093 104.751 25.7193 104.911 25.3793C105.111 24.9793 105.301 24.5793 105.491 24.1793C106.091 24.2293 106.691 24.2893 107.281 24.3993C107.411 24.4293 107.551 24.2793 107.511 24.1493C107.361 23.5993 106.831 23.0993 106.311 22.6493V22.6593Z" fill="url(#paint0_linear_57_428)"/>
<path d="M45.4009 71.2993C45.6909 70.8193 46.0909 70.1693 45.9909 69.7093C45.8209 69.0093 44.7009 69.8193 44.4509 69.9693C44.3509 70.0293 44.2409 70.0893 44.1409 70.1393C43.7709 69.7793 43.3409 69.4393 42.8909 69.3393C42.7909 69.3193 42.6809 69.4193 42.6709 69.5193C42.6509 69.9193 42.7209 70.3593 42.8209 70.7793C42.3409 71.0193 41.9009 71.2893 41.5909 71.6493C41.5409 71.6993 41.5409 71.7993 41.5709 71.8593C41.8609 72.3393 42.5709 72.3693 43.0709 72.4293C43.1009 72.4293 43.1309 72.4293 43.1509 72.4293C43.1509 72.4293 43.1509 72.4393 43.1509 72.4493C43.1509 72.5593 43.1709 72.6693 43.1709 72.7793C43.1709 73.1793 43.1109 73.8693 43.4709 74.1293C43.5409 74.1793 43.6609 74.1993 43.7309 74.1493C43.9909 73.9893 44.1209 73.8193 44.2509 73.5493C44.4109 73.2193 44.5709 72.8893 44.7309 72.5593C45.2309 72.5993 45.7209 72.6493 46.2009 72.7493C46.3109 72.7693 46.4209 72.6493 46.4009 72.5393C46.2709 72.0793 45.8409 71.6693 45.4109 71.2993H45.4009Z" fill="url(#paint1_linear_57_428)"/>
<path d="M73.0509 7.29932C71.9009 7.29932 71.7209 9.08932 72.8809 9.08932C74.0409 9.08932 74.2109 7.29932 73.0509 7.29932Z" fill="url(#paint2_linear_57_428)"/>
<path d="M68.0609 87.3293C68.0909 87.4393 68.1209 87.5493 68.1709 87.6593C68.3209 87.9793 68.5409 88.0693 68.7509 88.0293C68.9509 88.0593 69.1709 87.9493 69.3309 87.6093C69.3609 87.5593 69.3809 87.5093 69.3909 87.4593C69.7609 86.2393 67.7609 86.3393 68.0609 87.3393V87.3293Z" fill="url(#paint3_linear_57_428)"/>
<path d="M115.001 67.4893C113.401 66.6493 111.261 66.7093 110.001 67.9493C109.251 67.2793 108.191 66.9393 107.301 67.2693C106.131 67.6993 105.381 68.3893 104.671 69.3893C104.221 70.0193 103.591 72.0693 102.261 71.3693C101.761 71.1093 101.631 70.7693 101.271 70.4993C102.961 66.0793 102.671 60.9693 102.291 56.3193C101.841 50.8193 100.101 45.1093 97.0009 40.4593C93.8609 35.7493 89.2209 33.1393 83.9609 31.5493C83.0809 31.2793 82.2709 31.1893 81.4709 31.2093C81.8609 25.2893 78.7109 19.8593 75.6109 16.8893C71.3409 12.8093 65.4009 11.3393 59.9809 14.0893C59.7309 14.2193 59.5009 14.3693 59.2909 14.5393C59.2309 14.2793 59.1709 14.0193 59.0909 13.7493C58.5609 11.8893 56.8809 8.72932 54.7109 7.60932C53.5309 6.01932 50.7809 6.57932 49.0309 8.32932C48.4209 7.63932 47.7709 6.96932 47.1109 6.30932C43.9909 3.14932 40.1109 1.36932 35.7709 0.499319C26.9509 -1.26068 16.6009 1.84932 10.0009 7.82932C3.10089 14.0993 1.00089 22.3993 1.88089 31.4393C2.15089 34.2193 2.95089 36.9393 3.91089 39.6093C3.90089 39.6493 3.88089 39.6893 3.88089 39.7393C3.69089 42.6093 4.92089 45.3593 5.01089 48.2593C5.14089 52.3193 2.31089 56.0293 1.21089 59.7793C-0.659111 66.1793 -0.559111 73.1093 3.27089 78.8493C7.83089 85.6593 14.0609 87.4593 21.8409 88.6493C26.5809 89.3793 30.0709 90.7493 31.8509 95.4493C33.1309 98.8193 34.1909 101.299 37.3509 103.259C42.9909 106.749 50.0409 106.519 56.3409 105.539C60.2509 104.929 64.1709 103.999 68.0809 105.229C70.9609 106.129 72.7009 106.209 75.4909 104.879C77.3809 103.979 78.0009 101.919 76.9909 100.239C75.6209 97.9493 72.7509 97.1993 70.2709 97.0293C66.9709 96.8193 63.5509 98.1393 60.3409 97.0993C55.3109 95.4693 59.8309 88.9393 59.3209 85.6993C58.7809 82.2793 55.5809 80.3293 52.5309 79.1993C47.7609 77.4193 42.4409 78.2193 37.6109 76.6993C36.1109 76.2193 34.7809 75.5793 33.5809 74.7993C35.8609 73.9493 37.6709 71.6593 38.1209 69.2893C39.1109 64.0493 36.1709 59.9293 33.4509 55.7693C31.8409 53.2993 29.4409 51.3893 27.9809 48.8293C26.4909 46.2193 25.1109 43.7793 24.2009 40.8993C23.4509 38.4993 24.0009 35.4493 25.8509 33.6793C25.8509 33.7593 25.8509 33.8393 25.8509 33.9193C25.4309 36.7093 30.8909 38.9093 32.8309 39.2393C33.4509 39.3493 34.0809 39.4593 34.7009 39.5693C34.1909 39.9193 33.7709 40.3793 33.4709 40.9593C30.7109 46.3793 32.1909 52.3193 36.2709 56.5893C39.2009 59.6493 44.5309 62.7693 50.3609 62.4693C50.3709 62.9793 50.4009 63.4993 50.4709 64.0193C51.2409 69.9393 54.7709 74.1893 59.6109 77.4293C64.5509 80.7393 71.0609 82.3993 76.8509 83.4193C81.5409 84.2393 86.3909 83.6793 90.6509 81.6593C90.8909 81.8993 91.1509 82.0593 91.3609 82.4693C92.0609 83.7993 90.0209 84.4293 89.3909 84.8693C88.3809 85.5893 87.7009 86.3393 87.2709 87.4993C86.9409 88.3893 87.2709 89.4493 87.9509 90.1993C86.7109 91.4593 86.6609 93.5893 87.5009 95.1993C88.6809 97.4493 91.8609 97.4893 93.9309 96.6993C99.1609 94.7093 104.561 91.7893 107.861 87.1793C111.981 83.8493 114.661 78.7993 116.531 73.8993C117.321 71.8293 117.281 68.6493 115.031 67.4693L115.001 67.4893Z" fill="url(#paint4_linear_57_428)"/>
<path d="M113.941 59.0793C114.231 58.5993 114.631 57.9493 114.521 57.4993C114.351 56.7993 113.231 57.5993 112.981 57.7493C112.881 57.8093 112.781 57.8693 112.671 57.9193C112.301 57.5593 111.881 57.2193 111.431 57.1193C111.321 57.0993 111.211 57.1993 111.211 57.2993C111.191 57.6993 111.261 58.1393 111.351 58.5593C110.881 58.7993 110.431 59.0693 110.121 59.4293C110.081 59.4793 110.071 59.5793 110.101 59.6393C110.391 60.1193 111.101 60.1493 111.601 60.2093C111.631 60.2093 111.661 60.2093 111.691 60.2093C111.691 60.2093 111.691 60.2193 111.691 60.2293C111.691 60.3393 111.701 60.4493 111.701 60.5493C111.701 60.9493 111.651 61.6393 112.001 61.8993C112.061 61.9493 112.181 61.9693 112.261 61.9193C112.521 61.7593 112.651 61.5893 112.781 61.3193C112.941 60.9893 113.101 60.6593 113.261 60.3293C113.761 60.3693 114.261 60.4193 114.741 60.5093C114.851 60.5293 114.961 60.4093 114.931 60.2993C114.801 59.8393 114.371 59.4293 113.941 59.0593V59.0793Z" fill="url(#paint5_linear_57_428)"/>
<path d="M94.2809 22.7093C95.0509 22.5193 96.0909 22.2593 96.4409 21.6993C96.9709 20.8193 95.0409 20.5293 94.6409 20.4293C94.4809 20.3893 94.3209 20.3493 94.1609 20.2993C94.1409 19.5693 94.0609 18.7993 93.7009 18.2593C93.6209 18.1293 93.4109 18.1293 93.3009 18.2193C92.8809 18.5993 92.5209 19.1193 92.2009 19.6293C91.4909 19.4093 90.7709 19.2393 90.1009 19.2893C90.0109 19.2893 89.9009 19.3893 89.8809 19.4793C89.7009 20.2593 90.3809 20.9793 90.8309 21.5293C90.8609 21.5593 90.8809 21.5893 90.9109 21.6193C90.9109 21.6193 90.9009 21.6393 90.8909 21.6393C90.7909 21.7593 90.6909 21.8793 90.5809 21.9893C90.1909 22.3893 89.4509 23.0293 89.5409 23.6393C89.5609 23.7593 89.6509 23.8893 89.7809 23.9193C90.2109 24.0093 90.4909 23.9693 90.9009 23.8293C91.3909 23.6593 91.8809 23.4793 92.3709 23.3093C92.8309 23.8393 93.2809 24.3793 93.6709 24.9593C93.7609 25.0893 94.0009 25.0793 94.0709 24.9393C94.3909 24.3493 94.3709 23.5093 94.3009 22.7093H94.2809Z" fill="url(#paint6_linear_57_428)"/>
<path d="M78.0909 93.7793C78.8609 93.5893 79.9109 93.3293 80.2509 92.7693C80.7809 91.8893 78.8509 91.5893 78.4509 91.4993C78.2909 91.4593 78.1309 91.4193 77.9709 91.3693C77.9509 90.6393 77.8709 89.8793 77.5109 89.3293C77.4309 89.2093 77.2209 89.1993 77.1109 89.2993C76.6909 89.6793 76.3309 90.1993 76.0109 90.7093C75.2909 90.4893 74.5809 90.3193 73.9109 90.3693C73.8209 90.3693 73.7109 90.4693 73.6909 90.5593C73.5109 91.3293 74.1909 92.0593 74.6409 92.6093C74.6709 92.6393 74.6909 92.6693 74.7209 92.6993C74.7209 92.6993 74.7209 92.7193 74.7109 92.7293C74.6109 92.8493 74.5009 92.9693 74.4009 93.0693C74.0109 93.4693 73.2609 94.1093 73.3609 94.7293C73.3809 94.8493 73.4809 94.9793 73.6009 94.9993C74.0309 95.0893 74.3109 95.0493 74.7209 94.9093C75.2109 94.7393 75.7009 94.5593 76.1909 94.3893C76.6509 94.9193 77.1009 95.4593 77.4909 96.0393C77.5809 96.1693 77.8209 96.1593 77.8909 96.0193C78.2109 95.4293 78.1909 94.5893 78.1109 93.7893L78.0909 93.7793Z" fill="url(#paint7_linear_57_428)"/>
<path d="M45.9109 64.1993C44.7609 64.1993 44.5809 65.9893 45.7409 65.9893C46.9009 65.9893 47.0709 64.1993 45.9109 64.1993Z" fill="url(#paint8_linear_57_428)"/>
<path d="M90.1909 7.84932C86.4709 7.84932 85.9009 13.6393 89.6409 13.6393C93.3809 13.6393 93.9309 7.84932 90.1909 7.84932Z" fill="url(#paint9_linear_57_428)"/>
<path d="M108.341 38.5693C106.571 38.5693 106.301 41.3293 108.081 41.3293C109.861 41.3293 110.121 38.5693 108.341 38.5693Z" fill="url(#paint10_linear_57_428)"/>
<path d="M114.311 50.1593C112.541 50.1593 112.271 52.9193 114.051 52.9193C115.831 52.9193 116.101 50.1593 114.311 50.1593Z" fill="url(#paint11_linear_57_428)"/>
<path d="M106.851 54.7593C105.081 54.7593 104.811 57.5193 106.591 57.5193C108.371 57.5193 108.631 54.7593 106.851 54.7593Z" fill="url(#paint12_linear_57_428)"/>
<path d="M26.4609 94.5893C26.4309 94.2093 26.0509 93.9193 25.7009 93.8893C25.2409 93.8393 24.8109 94.1993 24.7709 94.6593C24.7709 94.7493 24.7509 94.8393 24.7509 94.9293C24.7109 95.4093 25.0609 95.8393 25.5409 95.8893C26.1509 95.9493 26.5309 95.4193 26.4909 94.8693L26.4709 94.5993L26.4609 94.5893Z" fill="url(#paint13_linear_57_428)"/>
<path d="M115.001 67.4893C113.391 66.6493 111.271 66.7193 110.011 67.9693C109.261 67.2893 108.201 66.9393 107.311 67.2693C106.141 67.6993 105.391 68.3893 104.681 69.3893C104.231 70.0193 103.601 72.0693 102.271 71.3693C101.771 71.1093 101.631 70.7693 101.281 70.4993C102.971 66.0793 102.691 60.9693 102.311 56.3193C101.861 50.8193 100.121 45.1093 97.0209 40.4593C93.8809 35.7493 89.2409 33.1393 83.9809 31.5493C83.1009 31.2793 82.2909 31.1993 81.4909 31.2093C81.8809 25.2893 78.7309 19.8493 75.6309 16.8893C71.3609 12.8093 65.4209 11.3393 60.0009 14.0893C59.7509 14.2193 59.5209 14.3693 59.3109 14.5493C59.2509 14.2893 59.1909 14.0193 59.1109 13.7593C58.5809 11.8993 56.9009 8.73932 54.7309 7.61932C53.5609 6.02932 50.8009 6.58932 49.0509 8.33932C48.4409 7.64932 47.7909 6.97932 47.1309 6.31932C44.0109 3.15932 40.1309 1.37932 35.7909 0.509319C26.9709 -1.25068 16.6209 1.85932 10.0209 7.83932C3.10089 14.0993 1.00089 22.3993 1.88089 31.4393C2.15089 34.2193 2.96089 36.9393 3.91089 39.5993C3.89089 39.6393 3.88089 39.6793 3.88089 39.7393C3.69089 42.6093 4.92089 45.3593 5.01089 48.2593C5.14089 52.3193 2.31089 56.0293 1.21089 59.7793C-0.659111 66.1793 -0.559111 73.1093 3.27089 78.8493C7.83089 85.6593 14.0609 87.4593 21.8409 88.6493C26.5809 89.3793 30.0709 90.7493 31.8509 95.4493C33.1309 98.8193 34.1909 101.299 37.3509 103.259C42.9909 106.749 50.0409 106.519 56.3409 105.539C60.2509 104.929 64.1709 103.999 68.0809 105.229C70.9609 106.139 72.7009 106.209 75.4909 104.879C77.3809 103.979 78.0009 101.919 76.9909 100.229C75.6209 97.9393 72.7509 97.1893 70.2709 97.0193C66.9709 96.8093 63.5509 98.1293 60.3409 97.0893C55.3109 95.4593 59.8309 88.9293 59.3209 85.6893C58.7809 82.2693 55.5809 80.3193 52.5309 79.1893C47.7609 77.4093 42.4409 78.2093 37.6109 76.6893C36.1109 76.2193 34.7909 75.5593 33.5909 74.7793C35.8709 73.9193 37.6709 71.6393 38.1209 69.2693C39.1109 64.0293 36.1709 59.9093 33.4509 55.7493C31.8409 53.2793 29.4409 51.3693 27.9809 48.8093C26.4909 46.1993 25.1109 43.7593 24.2009 40.8793C23.4509 38.4893 24.0109 35.4593 25.8509 33.6893C25.8509 33.7593 25.8509 33.8293 25.8509 33.8993C25.4409 36.6893 30.8909 38.8893 32.8209 39.2193C33.4509 39.3293 34.0809 39.4393 34.7109 39.5593C34.2009 39.9093 33.7609 40.3593 33.4609 40.9393C30.7009 46.3593 32.1809 52.2993 36.2609 56.5693C39.1909 59.6293 44.5209 62.7493 50.3509 62.4493C50.3609 62.9593 50.3909 63.4793 50.4609 63.9993C51.2309 69.9193 54.7609 74.1693 59.6009 77.4093C64.5409 80.7193 71.0509 82.3793 76.8409 83.3993C81.5309 84.2193 86.3709 83.6393 90.6209 81.6293C90.8609 81.8793 91.1309 82.0393 91.3509 82.4493C92.0509 83.7793 90.0109 84.4093 89.3809 84.8493C88.3709 85.5693 87.6909 86.3193 87.2609 87.4793C86.9309 88.3793 87.2809 89.4393 87.9609 90.1793C86.7209 91.4393 86.6509 93.5593 87.4909 95.1693C88.6709 97.4193 91.8509 97.4593 93.9209 96.6693C99.1409 94.6793 104.551 91.7593 107.851 87.1593C111.971 83.8293 114.651 78.7693 116.521 73.8793C117.311 71.8093 117.271 68.6293 115.021 67.4493L115.001 67.4893ZM60.6609 16.2493C61.4809 15.0593 64.4109 14.5893 65.7309 14.6093C67.2009 14.6393 68.6009 15.1393 70.0009 15.5693C76.2209 17.4893 79.2709 25.4393 79.7809 31.3793C78.8509 31.5393 77.9109 31.7793 76.8909 31.9993C76.5609 32.0693 76.2309 32.1393 75.9009 32.2093C76.2809 30.1593 74.6109 27.0293 73.8909 25.6993C72.6309 23.3393 69.8009 20.7893 66.9709 20.8793C66.8609 20.1493 66.4609 19.4193 65.6709 18.7893C65.3709 18.5493 64.9609 18.9293 65.1109 19.2593C66.6909 22.5993 62.1809 24.8393 60.4009 21.4493C60.2809 21.2193 60.1809 20.9793 60.0909 20.7393C59.9909 19.9493 59.9209 19.1593 59.8509 18.3793C59.9509 17.6293 60.2109 16.9093 60.6609 16.2593V16.2493ZM61.7609 26.4293C61.5809 26.0093 61.4109 25.5893 61.2509 25.1593C63.5609 25.9893 66.1909 24.3493 66.8509 22.2893C69.3509 23.1793 71.3109 24.7393 72.5809 27.1893C73.2409 28.4593 73.6509 29.8093 73.9309 31.2093C74.0309 31.7093 73.9809 32.1493 74.0009 32.5493C73.0909 32.6893 72.1809 32.7793 71.2409 32.8093C69.7909 32.8493 68.5909 32.1893 67.2809 31.7193C66.5909 29.1293 64.4209 27.0793 61.7509 26.4293H61.7609ZM50.5709 54.9093C49.1809 54.6293 47.8209 54.2193 46.5509 53.5593C44.1109 52.2793 42.5409 50.3293 41.6509 47.8293C43.8009 47.1393 45.5109 44.2993 44.4109 41.9193C44.2409 41.5493 43.9809 41.1993 43.6909 40.8793C44.8309 41.1893 45.9009 41.6293 47.0109 42.0793C47.5709 43.9593 48.9909 45.3893 50.8309 46.0993C52.0809 48.5393 51.4309 52.3693 51.0809 54.9593C50.9109 54.9593 50.7409 54.9393 50.5609 54.8993L50.5709 54.9093ZM49.3509 43.1693C49.1809 43.0493 49.0509 42.9393 48.9309 42.8093C49.1509 42.8393 49.3309 42.7793 49.4709 42.6493C55.9609 44.7293 65.0109 36.0093 62.9609 29.5593C64.5309 30.6593 65.1709 32.1193 65.1809 34.1693C65.1809 36.9893 63.3509 39.8893 61.3309 41.7093C59.1009 43.7193 56.4509 44.6893 53.4709 44.5893C51.9109 44.5393 50.6209 44.0293 49.3509 43.1493V43.1693ZM53.1109 9.33932C53.1409 10.9293 52.5909 12.2493 51.8009 13.5393C51.5709 12.0693 50.9209 10.7793 50.0609 9.59932C51.2009 9.17932 53.0809 8.52932 53.1009 9.33932H53.1109ZM22.6109 43.1693C23.6009 45.8593 24.9809 48.1293 26.4009 50.6093C27.7809 53.0193 30.1009 54.9793 31.7309 57.2393C35.1909 62.0393 39.1109 70.0793 31.8609 73.3393C31.8009 73.3393 31.7509 73.3593 31.6909 73.3693C29.5509 71.4693 27.9009 69.0693 26.5409 66.3093C24.1209 61.4093 24.1109 56.2193 23.0609 50.9993C23.0109 50.7793 22.6409 50.7693 22.6409 51.0193C22.6409 57.5593 23.7309 65.0093 27.4209 70.5893C28.4709 72.1793 29.6909 73.5493 31.0809 74.7393C31.1909 74.9293 31.3509 75.0693 31.5509 75.1293C32.6109 75.9793 33.7609 76.7393 35.0209 77.4093C38.4209 79.2093 42.0909 79.3793 45.8309 79.7793C49.9209 80.2293 53.6709 81.0993 56.6409 84.1093C59.0609 86.5793 54.8909 92.1693 56.2309 95.4193C58.9209 101.989 66.2409 98.3393 71.4809 99.1793C74.0509 99.5893 77.7909 102.429 73.6509 104.349C71.5309 105.339 69.8009 104.349 67.8309 103.609C64.7809 102.469 60.8709 102.699 57.7309 103.269C50.6809 104.549 41.0409 105.299 35.8309 99.1893C33.6009 96.5693 33.6209 92.6893 31.2109 90.0493C28.9609 87.5793 25.1509 86.9693 22.0309 86.4293C17.6709 85.6793 13.6209 85.0893 9.82089 82.6693C6.25089 80.3993 4.05089 76.2793 2.87089 72.3293C0.850888 65.5693 3.69089 60.0293 6.04089 53.9193C6.86089 51.7893 7.14089 49.5493 6.91089 47.3093C8.73089 51.4493 11.0109 55.5693 11.5909 60.0293C11.6109 60.1893 11.8909 60.1893 11.8909 60.0193C11.9109 56.6993 10.7309 53.9993 9.54089 50.9693C7.88089 46.7393 6.56089 42.3393 5.38089 37.9493C3.12089 29.5693 3.03089 20.8193 8.14089 13.4693C13.0809 6.39932 21.9609 2.35932 30.5109 2.37932C39.2909 2.39932 47.0209 7.09932 50.4609 15.3093C50.4709 15.3393 50.4909 15.3593 50.5109 15.3793C48.5609 18.0093 46.2909 20.4293 43.7709 22.4993C41.1509 24.6493 38.6709 26.9393 35.9309 28.9393C35.0509 29.5793 34.1409 30.1693 33.2509 30.7793C30.9609 28.8893 26.8509 30.2293 24.8009 31.8193C21.2709 34.5593 21.2209 39.3493 22.6209 43.1693H22.6109ZM27.5809 32.5693C28.8109 32.0093 30.1109 31.6793 31.4909 31.9993C31.5009 31.9993 31.5209 31.9993 31.5309 31.9993C31.0509 32.3693 30.5809 32.7293 30.0309 33.0593C28.9709 33.7093 27.6909 33.3893 27.5809 32.5493V32.5693ZM32.2809 37.3993C30.5709 36.9893 29.5209 36.2193 28.5409 35.2593C29.4709 35.1693 30.3509 34.7093 31.4009 34.1293C36.5809 31.2493 41.2409 27.0393 45.8309 23.3393C48.1309 21.4893 50.0009 19.1793 51.9509 16.9893C53.7109 15.0093 55.0409 12.7993 55.2509 10.1293C55.4709 10.3193 55.6809 10.5293 55.8709 10.7593C57.5709 12.9193 57.2509 15.1293 57.7609 17.5393C57.5309 19.0593 57.7909 20.7693 58.4209 22.1993C58.5309 23.0693 58.6809 23.9393 58.9409 24.7993C59.3309 26.0893 59.8909 27.0093 60.5709 27.9193C60.5509 27.9993 60.5509 28.0993 60.5709 28.1893C61.3409 31.6093 60.2909 35.0993 58.0009 37.7093C56.8409 39.0293 55.0109 39.8893 53.4209 40.5093C52.1309 41.0193 50.5909 40.8693 49.3109 41.2293C47.2009 38.5393 42.4709 38.1793 39.3509 38.3093C37.0909 38.3893 34.4609 37.9293 32.2709 37.3993H32.2809ZM34.9309 50.9793C34.5009 49.5793 33.9909 48.1893 33.9709 46.7093C33.9509 45.3893 34.4209 42.4593 35.6109 41.6393C37.1509 40.5793 39.1209 40.4893 40.8109 41.3693C44.2109 43.1493 41.9709 47.6593 38.6209 46.0893C38.2909 45.9293 37.9109 46.3393 38.1509 46.6493C38.7809 47.4493 39.5109 47.8393 40.2409 47.9493C40.1509 50.7793 42.7009 53.6193 45.0609 54.8693C46.2409 55.4993 48.8209 56.8693 50.8209 56.9293C50.6409 58.1893 50.4609 59.4593 50.3709 60.7193C44.4809 60.1293 36.8109 57.0693 34.9309 50.9793ZM89.2909 87.1193C89.7709 86.5993 90.3209 86.1893 90.9609 85.8993C92.8509 84.7693 93.9709 82.0893 92.1209 80.8893C92.6709 80.5693 93.2209 80.2393 93.7509 79.8693C94.2409 79.5193 93.7109 78.8493 93.2209 79.0393C90.3709 80.0993 87.7209 81.2793 84.6609 81.6093C81.8209 81.9193 78.8609 81.7193 76.0609 81.1893C70.1009 80.0693 63.6109 77.8293 58.7809 74.1093C56.2409 72.1493 54.0809 69.4893 53.0809 66.4093C52.0809 63.3193 52.3709 60.3893 52.8309 57.2493C52.8909 56.8793 52.9609 56.4293 53.0409 55.9193C53.0509 55.8993 53.0709 55.8793 53.0909 55.8593C53.1409 55.7693 53.1309 55.6793 53.0909 55.5893C53.5009 52.8993 53.9509 48.9393 52.7609 46.5693C56.5309 46.9893 59.7909 45.7093 62.6909 43.3193C65.6609 40.8893 67.5109 37.3193 67.5209 33.4993C67.5209 33.4993 67.5209 33.4893 67.5209 33.4793C70.5409 35.4793 74.5709 34.4293 78.0809 33.6593C79.5409 33.3393 80.6709 32.8293 82.2209 33.0693C83.5209 33.2693 85.0109 33.6593 86.2409 34.1093C89.1209 35.1593 91.7809 37.4993 93.7909 39.7293C97.1809 43.4893 99.6009 49.7393 100.101 54.7193C100.431 58.0493 100.571 61.4293 100.381 64.7693C100.211 67.7293 99.3909 70.5993 98.8209 73.4893C98.7409 73.8893 99.3209 74.0493 99.5309 73.7493C99.9309 73.1893 100.271 72.6093 100.581 72.0093C101.741 74.0293 104.521 72.8793 105.661 70.9593C105.961 70.3293 106.371 69.7693 106.891 69.2893C109.401 68.0493 109.791 71.5493 108.861 73.3593C108.461 74.9193 107.901 76.3993 107.231 77.8693C106.201 80.0993 104.151 81.6093 102.851 83.5793C101.211 84.8593 99.8209 86.5293 97.8709 87.4293C96.4109 88.1093 94.9309 88.6593 93.3609 89.0693C91.5409 89.9893 88.0409 89.5993 89.2909 87.0893V87.1193ZM114.541 73.1993C113.891 75.4093 112.661 77.6793 111.441 79.6093C110.351 81.3293 109.251 83.0393 108.031 84.6793C106.841 86.2893 105.191 87.3893 103.831 88.8393C102.441 89.8293 101.021 90.7593 99.5709 91.6793C97.6509 92.8993 95.3709 94.1293 93.1609 94.7793C92.1609 95.1793 91.1409 95.2193 90.1009 94.8993C88.6509 94.8193 87.8909 92.8393 89.1709 91.5593C89.2809 91.3793 89.3609 91.2393 89.4309 91.1293C89.5409 91.1493 89.6409 91.1893 89.7509 91.1893C95.2309 91.4193 101.261 88.5093 104.311 83.8593C108.551 80.6893 111.161 74.9893 110.941 69.7993C110.941 69.6893 110.901 69.5893 110.881 69.4793C111.001 69.4193 111.131 69.3293 111.311 69.2293C112.591 67.9493 114.571 68.7093 114.651 70.1593C114.971 71.2093 114.931 72.2293 114.531 73.2193L114.541 73.1993Z" fill="#897EB3"/>
</g>
<defs>
<linearGradient id="paint0_linear_57_428" x1="-0.0810422" y1="53.0533" x2="117.058" y2="53.0533" gradientUnits="userSpaceOnUse">
<stop stop-color="#C0CBD8"/>
<stop offset="0.54" stop-color="white"/>
<stop offset="0.87" stop-color="white"/>
<stop offset="0.99" stop-color="#C0CBD8"/>
</linearGradient>
<linearGradient id="paint1_linear_57_428" x1="-0.204533" y1="53.1289" x2="116.94" y2="53.1289" gradientUnits="userSpaceOnUse">
<stop stop-color="#C0CBD8"/>
<stop offset="0.54" stop-color="white"/>
<stop offset="0.87" stop-color="white"/>
<stop offset="0.99" stop-color="#C0CBD8"/>
</linearGradient>
<linearGradient id="paint2_linear_57_428" x1="0.440596" y1="53.3858" x2="117.02" y2="53.3858" gradientUnits="userSpaceOnUse">
<stop stop-color="#C0CBD8"/>
<stop offset="0.54" stop-color="white"/>
<stop offset="0.87" stop-color="white"/>
<stop offset="0.99" stop-color="#C0CBD8"/>
</linearGradient>
<linearGradient id="paint3_linear_57_428" x1="0.0909547" y1="52.8592" x2="117.342" y2="52.8592" gradientUnits="userSpaceOnUse">
<stop stop-color="#C0CBD8"/>
<stop offset="0.54" stop-color="white"/>
<stop offset="0.87" stop-color="white"/>
<stop offset="0.99" stop-color="#C0CBD8"/>
</linearGradient>
<linearGradient id="paint4_linear_57_428" x1="0.0208886" y1="53.0893" x2="116.971" y2="53.0893" gradientUnits="userSpaceOnUse">
<stop stop-color="#C0CBD8"/>
<stop offset="0.54" stop-color="white"/>
<stop offset="0.87" stop-color="white"/>
<stop offset="0.99" stop-color="#C0CBD8"/>
</linearGradient>
<linearGradient id="paint5_linear_57_428" x1="0.204513" y1="53.4585" x2="117.117" y2="53.4585" gradientUnits="userSpaceOnUse">
<stop stop-color="#C0CBD8"/>
<stop offset="0.54" stop-color="white"/>
<stop offset="0.87" stop-color="white"/>
<stop offset="0.99" stop-color="#C0CBD8"/>
</linearGradient>
<linearGradient id="paint6_linear_57_428" x1="-0.183505" y1="53.0248" x2="116.973" y2="53.0248" gradientUnits="userSpaceOnUse">
<stop stop-color="#C0CBD8"/>
<stop offset="0.54" stop-color="white"/>
<stop offset="0.87" stop-color="white"/>
<stop offset="0.99" stop-color="#C0CBD8"/>
</linearGradient>
<linearGradient id="paint7_linear_57_428" x1="-0.492185" y1="52.9094" x2="116.806" y2="52.9094" gradientUnits="userSpaceOnUse">
<stop stop-color="#C0CBD8"/>
<stop offset="0.54" stop-color="white"/>
<stop offset="0.87" stop-color="white"/>
<stop offset="0.99" stop-color="#C0CBD8"/>
</linearGradient>
<linearGradient id="paint8_linear_57_428" x1="0.440596" y1="52.7927" x2="117.02" y2="52.7927" gradientUnits="userSpaceOnUse">
<stop stop-color="#C0CBD8"/>
<stop offset="0.54" stop-color="white"/>
<stop offset="0.87" stop-color="white"/>
<stop offset="0.99" stop-color="#C0CBD8"/>
</linearGradient>
<linearGradient id="paint9_linear_57_428" x1="-0.0122225" y1="53.181" x2="116.891" y2="53.181" gradientUnits="userSpaceOnUse">
<stop stop-color="#C0CBD8"/>
<stop offset="0.54" stop-color="white"/>
<stop offset="0.87" stop-color="white"/>
<stop offset="0.99" stop-color="#C0CBD8"/>
</linearGradient>
<linearGradient id="paint10_linear_57_428" x1="-0.0342667" y1="53.0893" x2="116.906" y2="53.0893" gradientUnits="userSpaceOnUse">
<stop stop-color="#C0CBD8"/>
<stop offset="0.54" stop-color="white"/>
<stop offset="0.87" stop-color="white"/>
<stop offset="0.99" stop-color="#C0CBD8"/>
</linearGradient>
<linearGradient id="paint11_linear_57_428" x1="-0.0341782" y1="53.0893" x2="116.731" y2="53.0893" gradientUnits="userSpaceOnUse">
<stop stop-color="#C0CBD8"/>
<stop offset="0.54" stop-color="white"/>
<stop offset="0.87" stop-color="white"/>
<stop offset="0.99" stop-color="#C0CBD8"/>
</linearGradient>
<linearGradient id="paint12_linear_57_428" x1="-0.0342667" y1="53.0893" x2="116.906" y2="53.0893" gradientUnits="userSpaceOnUse">
<stop stop-color="#C0CBD8"/>
<stop offset="0.54" stop-color="white"/>
<stop offset="0.87" stop-color="white"/>
<stop offset="0.99" stop-color="#C0CBD8"/>
</linearGradient>
<linearGradient id="paint13_linear_57_428" x1="-0.436312" y1="52.5607" x2="116.134" y2="52.5607" gradientUnits="userSpaceOnUse">
<stop stop-color="#C0CBD8"/>
<stop offset="0.54" stop-color="white"/>
<stop offset="0.87" stop-color="white"/>
<stop offset="0.99" stop-color="#C0CBD8"/>
</linearGradient>
</defs>
</svg>
