<svg width="120" height="126" viewBox="0 0 120 126" fill="none" xmlns="http://www.w3.org/2000/svg">
<g id="2">
<path d="M31.7709 110.939C32.1309 110.359 32.6109 109.579 32.4809 109.019C32.2709 108.169 30.9209 109.139 30.6109 109.329C30.4909 109.399 30.3709 109.469 30.2409 109.539C29.7909 109.109 29.2809 108.689 28.7309 108.569C28.6009 108.539 28.4709 108.669 28.4709 108.789C28.4409 109.279 28.5409 109.799 28.6409 110.309C28.0709 110.599 27.5309 110.929 27.1509 111.359C27.1009 111.419 27.0909 111.539 27.1309 111.609C27.4909 112.189 28.3409 112.219 28.9409 112.299C28.9709 112.299 29.0109 112.299 29.0409 112.299C29.0409 112.299 29.0409 112.319 29.0409 112.329C29.0509 112.459 29.0609 112.599 29.0609 112.719C29.0609 113.199 28.9909 114.039 29.4209 114.359C29.5009 114.419 29.6409 114.439 29.7309 114.389C30.0509 114.189 30.2009 113.989 30.3609 113.659C30.5609 113.259 30.7509 112.859 30.9409 112.459C31.5409 112.509 32.1409 112.569 32.7309 112.679C32.8609 112.709 33.0009 112.549 32.9609 112.429C32.8109 111.879 32.2809 111.379 31.7609 110.929L31.7709 110.939Z" fill="url(#paint0_linear_57_283)"/>
<path d="M111.201 89.6193C111.491 89.1393 111.891 88.4893 111.781 88.0393C111.611 87.3393 110.491 88.1393 110.241 88.2893C110.141 88.3493 110.031 88.4093 109.931 88.4593C109.561 88.0993 109.141 87.7493 108.681 87.6593C108.581 87.6393 108.471 87.7393 108.461 87.8393C108.441 88.2393 108.511 88.6793 108.611 89.0993C108.131 89.3393 107.691 89.6093 107.381 89.9693C107.341 90.0193 107.331 90.1193 107.361 90.1793C107.651 90.6593 108.361 90.6893 108.861 90.7493C108.891 90.7493 108.911 90.7493 108.941 90.7493C108.941 90.7493 108.941 90.7593 108.941 90.7693C108.941 90.8793 108.961 90.9893 108.961 91.0893C108.961 91.4893 108.901 92.1793 109.261 92.4393C109.331 92.4893 109.441 92.5093 109.521 92.4593C109.781 92.2893 109.911 92.1293 110.041 91.8593C110.201 91.5293 110.361 91.1993 110.521 90.8693C111.021 90.9093 111.511 90.9593 111.991 91.0593C112.101 91.0793 112.211 90.9593 112.191 90.8493C112.061 90.3893 111.631 89.9793 111.201 89.6093V89.6193Z" fill="url(#paint1_linear_57_283)"/>
<path d="M16.5609 99.9493C17.3309 99.7593 18.3809 99.4993 18.7209 98.9393C19.2509 98.0593 17.3209 97.7693 16.9209 97.6693C16.7609 97.6293 16.6009 97.5893 16.4409 97.5393C16.4209 96.8093 16.3409 96.0393 15.9809 95.4993C15.9009 95.3693 15.6909 95.3693 15.5809 95.4593C15.1609 95.8393 14.8009 96.3593 14.4809 96.8693C13.7709 96.6493 13.0509 96.4793 12.3809 96.5293C12.2909 96.5293 12.1809 96.6293 12.1609 96.7193C11.9809 97.4893 12.6609 98.2193 13.1109 98.7693C13.1309 98.7993 13.1609 98.8293 13.1909 98.8593C13.1909 98.8593 13.1809 98.8793 13.1709 98.8793C13.0709 98.9993 12.9709 99.1193 12.8609 99.2293C12.4709 99.6293 11.7209 100.269 11.8209 100.889C11.8409 100.999 11.9409 101.139 12.0609 101.159C12.4909 101.259 12.7709 101.209 13.1809 101.069C13.6709 100.889 14.1609 100.719 14.6509 100.549C15.1109 101.079 15.5609 101.619 15.9509 102.199C16.0409 102.329 16.2809 102.319 16.3509 102.179C16.6709 101.599 16.6509 100.749 16.5709 99.9493H16.5609Z" fill="url(#paint2_linear_57_283)"/>
<path d="M115.591 42.7693C116.361 42.5793 117.411 42.3193 117.751 41.7593C118.281 40.8793 116.351 40.5893 115.951 40.4893C115.791 40.4493 115.631 40.4093 115.471 40.3593C115.451 39.6293 115.361 38.8593 115.011 38.3193C114.931 38.1993 114.721 38.1893 114.611 38.2893C114.191 38.6693 113.831 39.1893 113.511 39.6993C112.801 39.4793 112.081 39.3093 111.411 39.3593C111.311 39.3593 111.211 39.4593 111.181 39.5493C111.001 40.3193 111.681 41.0493 112.131 41.5993C112.161 41.6293 112.181 41.6593 112.211 41.6893C112.211 41.6893 112.211 41.7093 112.191 41.7093C112.091 41.8293 111.991 41.9493 111.881 42.0493C111.491 42.4493 110.741 43.0893 110.841 43.7093C110.861 43.8193 110.961 43.9593 111.081 43.9793C111.511 44.0793 111.801 44.0293 112.201 43.8893C112.691 43.7193 113.181 43.5393 113.671 43.3693C114.141 43.8993 114.581 44.4393 114.971 45.0193C115.061 45.1493 115.301 45.1393 115.371 44.9993C115.691 44.4193 115.671 43.5693 115.591 42.7693Z" fill="url(#paint3_linear_57_283)"/>
<path d="M90.0409 112.319C90.7709 112.639 91.7609 113.059 92.3709 112.819C93.3209 112.439 91.9709 111.039 91.7009 110.719C91.6009 110.599 91.5009 110.459 91.4009 110.319C91.8309 109.719 92.2209 109.069 92.2609 108.419C92.2609 108.269 92.1009 108.139 91.9709 108.149C91.4009 108.199 90.8109 108.399 90.2409 108.609C89.8109 107.999 89.3409 107.429 88.7709 107.069C88.6909 107.019 88.5509 107.029 88.4809 107.089C87.8709 107.599 87.9709 108.589 87.9909 109.299C87.9909 109.339 87.9909 109.379 87.9909 109.419C87.9909 109.419 87.9709 109.419 87.9609 109.419C87.8109 109.449 87.6609 109.489 87.5109 109.509C86.9609 109.589 85.9709 109.649 85.6809 110.199C85.6309 110.299 85.6209 110.469 85.7009 110.559C85.9809 110.889 86.2409 111.029 86.6509 111.159C87.1509 111.319 87.6409 111.469 88.1409 111.629C88.1909 112.339 88.2209 113.039 88.1809 113.729C88.1709 113.889 88.3709 114.019 88.5109 113.959C89.1209 113.689 89.6109 112.999 90.0409 112.319Z" fill="url(#paint4_linear_57_283)"/>
<path d="M4.87086 48.9393C5.60086 49.2593 6.59086 49.6793 7.20086 49.4393C8.15086 49.0593 6.80086 47.6593 6.54086 47.3393C6.43086 47.2193 6.33086 47.0793 6.24086 46.9393C6.67086 46.3393 7.06086 45.6893 7.10086 45.0393C7.10086 44.8893 6.94086 44.7593 6.80086 44.7693C6.23086 44.8193 5.64086 45.0093 5.07086 45.2193C4.64086 44.6093 4.17086 44.0393 3.60086 43.6793C3.52086 43.6293 3.38086 43.6393 3.30086 43.6993C2.69086 44.2093 2.79086 45.1993 2.81086 45.9093C2.81086 45.9493 2.81086 45.9893 2.81086 46.0293C2.80086 46.0293 2.79086 46.0293 2.78086 46.0293C2.63086 46.0593 2.47086 46.0893 2.33086 46.1193C1.77086 46.1993 0.790857 46.2593 0.500857 46.8093C0.450857 46.9093 0.450857 47.0793 0.530857 47.1693C0.810857 47.5093 1.07086 47.6393 1.48086 47.7793C1.98086 47.9393 2.47086 48.0893 2.97086 48.2493C3.02086 48.9593 3.05086 49.6593 3.01086 50.3493C3.01086 50.5093 3.20086 50.6393 3.34086 50.5793C3.95086 50.3093 4.44086 49.6193 4.87086 48.9393Z" fill="url(#paint5_linear_57_283)"/>
<path d="M10.0109 87.5493C9.45086 87.5493 8.95086 87.6493 8.51086 88.0193C8.11086 88.3593 7.85086 88.8493 7.80086 89.3793C7.70086 90.3993 8.52086 91.5893 9.63086 91.5893C10.2009 91.5893 10.6909 91.4993 11.1409 91.1193C11.5409 90.7793 11.8009 90.2893 11.8509 89.7593C11.9409 88.7393 11.1309 87.5493 10.0209 87.5493H10.0109Z" fill="url(#paint6_linear_57_283)"/>
<path d="M16.3109 88.1193C15.1609 88.1193 14.9809 89.9093 16.1409 89.9093C17.3009 89.9093 17.4709 88.1193 16.3109 88.1193Z" fill="url(#paint7_linear_57_283)"/>
<path d="M114.821 77.8393C114.851 77.9493 114.881 78.0593 114.931 78.1693C115.081 78.4893 115.301 78.5793 115.511 78.5393C115.721 78.5593 115.931 78.4593 116.091 78.1193C116.121 78.0693 116.141 78.0193 116.151 77.9693C116.521 76.7493 114.511 76.8593 114.821 77.8493V77.8393Z" fill="url(#paint8_linear_57_283)"/>
<path d="M6.99086 39.9093C7.02086 40.0193 7.05086 40.1293 7.10086 40.2393C7.25086 40.5593 7.47086 40.6493 7.68086 40.6093C7.88086 40.6293 8.10086 40.5293 8.26086 40.1893C8.29086 40.1393 8.31086 40.0893 8.32086 40.0393C8.69086 38.8193 6.69086 38.9293 6.99086 39.9193V39.9093Z" fill="url(#paint9_linear_57_283)"/>
<path d="M100.811 89.9193C97.0909 89.9193 96.5209 95.7093 100.261 95.7093C104.001 95.7093 104.551 89.9193 100.811 89.9193Z" fill="url(#paint10_linear_57_283)"/>
<path d="M105.541 98.1893C103.771 98.1893 103.501 100.949 105.281 100.949C107.061 100.949 107.331 98.1893 105.541 98.1893Z" fill="url(#paint11_linear_57_283)"/>
<path d="M1.49086 76.1493C-0.279143 76.1493 -0.549143 78.9093 1.23086 78.9093C3.01086 78.9093 3.28086 76.1493 1.49086 76.1493Z" fill="url(#paint12_linear_57_283)"/>
<path d="M8.11086 59.5993C8.25086 60.1693 8.58086 60.6893 8.83086 61.2393C9.69086 63.1093 8.67086 64.0393 7.37086 64.9993C6.56086 65.5993 7.83086 67.9693 8.20086 68.5793C8.33086 68.7993 8.57086 68.9793 8.84086 68.9093C9.19086 68.8193 9.56086 68.8893 9.94086 69.0293C8.87086 69.4693 7.95086 70.4993 8.22086 71.5693C8.43086 72.4293 8.94086 73.3193 9.67086 73.8393C9.96086 74.0493 10.3409 74.0593 10.7109 74.0993C10.8809 74.4893 11.0409 74.8693 11.2409 75.2493C12.6009 77.7493 10.8309 78.2193 10.6609 80.0593C10.5309 81.4193 12.6709 82.8393 13.6709 83.2593C16.3909 84.3993 20.5209 85.0193 23.4809 83.6693C22.5909 87.0993 22.4309 90.6393 23.5309 94.1893C24.7509 98.1593 27.1209 101.569 30.5209 103.949C33.7309 106.189 38.8609 107.169 42.7009 105.979C43.2409 106.949 43.7209 107.939 44.0109 109.019C44.7309 111.679 43.9609 114.389 43.2709 116.949C43.1709 117.319 43.3509 117.619 43.6109 117.739C43.6109 117.739 43.6109 117.739 43.6209 117.749C45.0009 118.399 48.0709 117.629 49.9109 116.209C49.9109 116.829 49.9509 117.439 50.0409 118.069C50.6409 122.189 55.3109 125.999 59.5209 125.349C63.7309 125.999 68.3909 122.189 68.9909 118.069C69.0809 117.449 69.1209 116.829 69.1209 116.209C70.9709 117.619 74.0409 118.389 75.4109 117.749C75.4109 117.749 75.4109 117.749 75.4209 117.739C75.6809 117.619 75.8609 117.319 75.7609 116.949C75.0709 114.379 74.3009 111.669 75.0209 109.019C75.3109 107.929 75.8009 106.939 76.3309 105.979C80.1609 107.159 85.2909 106.189 88.5109 103.949C91.9109 101.579 94.2909 98.1593 95.5009 94.1893C96.5909 90.6293 96.4309 87.0993 95.5509 83.6693C98.5109 85.0193 102.651 84.3993 105.361 83.2593C106.371 82.8393 108.501 81.4193 108.371 80.0593C108.191 78.2093 106.431 77.7493 107.791 75.2493C107.991 74.8693 108.161 74.4893 108.321 74.0993C108.691 74.0693 109.071 74.0493 109.361 73.8393C110.091 73.3093 110.601 72.4293 110.811 71.5693C111.081 70.4993 110.161 69.4593 109.091 69.0293C109.471 68.8893 109.841 68.8193 110.191 68.9093C110.461 68.9793 110.701 68.7893 110.831 68.5793C111.201 67.9693 112.471 65.5993 111.651 64.9993C110.351 64.0393 109.341 63.1093 110.191 61.2393C110.451 60.6893 110.771 60.1693 110.911 59.5993C112.971 59.2493 115.181 57.7193 114.371 55.5393C113.671 53.6493 110.631 52.6293 109.501 50.8693C108.761 49.7293 107.831 48.5793 107.391 47.2893C106.851 45.7193 107.041 44.5893 106.971 42.9993C106.901 41.5493 106.841 40.1293 106.751 38.7293C106.841 38.6993 106.941 38.6593 107.021 38.5593C111.411 33.4193 115.101 25.5893 111.881 18.8693C109.331 13.5393 103.631 8.48926 97.3909 9.12926C97.3909 9.12926 97.3809 9.12926 97.3709 9.12926C97.2209 8.80926 96.9409 8.28926 96.7909 8.13926C95.4109 6.66926 94.0309 5.26926 92.3809 4.08926C89.3109 1.88926 85.1009 0.499258 81.3609 0.139258C77.2709 -0.250742 73.4609 0.179258 69.5909 1.53926C66.0909 2.76926 62.9109 4.68926 59.4909 6.09926C56.0709 4.69926 52.8809 2.76926 49.3909 1.53926C45.5309 0.179258 41.7109 -0.250742 37.6209 0.139258C33.8809 0.499258 29.6709 1.88926 26.6009 4.08926C24.9509 5.26926 23.5809 6.65926 22.1909 8.13926C22.0409 8.29926 21.7609 8.81926 21.6109 9.12926C21.6109 9.12926 21.6009 9.12926 21.5909 9.12926C15.3509 8.48926 9.65086 13.5393 7.10086 18.8693C3.88086 25.5893 7.57086 33.4293 11.9609 38.5593C12.0509 38.6593 12.1409 38.7093 12.2309 38.7293C12.1309 40.1193 12.0709 41.5393 12.0109 42.9993C11.9409 44.5893 12.1209 45.7093 11.5909 47.2893C11.1509 48.5893 10.2109 49.7393 9.48086 50.8693C8.34086 52.6293 5.31086 53.6593 4.61086 55.5393C3.80086 57.7193 6.01086 59.2493 8.07086 59.5993H8.11086Z" fill="url(#paint13_linear_57_283)"/>
<path d="M117.891 61.3793C116.741 61.3793 116.561 63.1693 117.721 63.1693C118.881 63.1693 119.051 61.3793 117.891 61.3793Z" fill="url(#paint14_linear_57_283)"/>
<path d="M118.731 70.0293C116.961 70.0293 116.681 72.7893 118.471 72.7893C120.261 72.7893 120.511 70.0293 118.731 70.0293Z" fill="url(#paint15_linear_57_283)"/>
<path d="M8.11086 59.5993C8.25086 60.1693 8.57086 60.6793 8.83086 61.2393C9.69086 63.1093 8.67086 64.0393 7.37086 64.9993C6.56086 65.5993 7.83086 67.9693 8.20086 68.5793C8.33086 68.7993 8.57086 68.9793 8.84086 68.9093C9.18086 68.8193 9.55086 68.8893 9.93086 69.0293C8.87086 69.4693 7.95086 70.4993 8.22086 71.5693C8.43086 72.4293 8.94086 73.3193 9.67086 73.8393C9.96086 74.0493 10.3409 74.0593 10.7109 74.0993C10.8809 74.4893 11.0409 74.8693 11.2409 75.2493C12.6009 77.7493 10.8309 78.2193 10.6609 80.0593C10.5309 81.4193 12.6709 82.8393 13.6709 83.2593C16.3909 84.3993 20.5309 85.0293 23.4909 83.6693C22.6009 87.0993 22.4409 90.6393 23.5309 94.1993C24.7509 98.1693 27.1209 101.579 30.5209 103.959C33.7409 106.199 38.8709 107.179 42.7009 105.989C43.2409 106.959 43.7209 107.949 44.0109 109.039C44.7309 111.699 43.9509 114.409 43.2709 116.969C43.1709 117.339 43.3509 117.639 43.6109 117.759C43.6109 117.759 43.6109 117.759 43.6209 117.769C45.0009 118.419 48.0809 117.639 49.9309 116.219C49.9309 116.839 49.9609 117.459 50.0509 118.089C50.6609 122.209 55.3209 126.019 59.5309 125.359C63.7309 126.019 68.4009 122.209 69.0009 118.089C69.0909 117.459 69.1209 116.839 69.1209 116.219C70.9709 117.639 74.0509 118.419 75.4309 117.769C75.4309 117.769 75.4309 117.769 75.4409 117.769C75.7009 117.639 75.8809 117.349 75.7809 116.979C75.0909 114.409 74.3209 111.699 75.0409 109.049C75.3309 107.959 75.8209 106.969 76.3509 105.999C80.1809 107.179 85.3109 106.209 88.5309 103.969C91.9309 101.599 94.3109 98.1793 95.5209 94.2093C96.6109 90.6493 96.4509 87.1193 95.5609 83.6793C98.5209 85.0393 102.661 84.4093 105.381 83.2693C106.391 82.8493 108.521 81.4293 108.391 80.0693C108.211 78.2193 106.451 77.7593 107.811 75.2593C108.021 74.8793 108.181 74.4993 108.341 74.1093C108.701 74.0793 109.081 74.0693 109.381 73.8493C110.111 73.3193 110.621 72.4393 110.831 71.5793C111.101 70.5093 110.181 69.4793 109.121 69.0393C109.501 68.8993 109.861 68.8293 110.211 68.9193C110.481 68.9893 110.721 68.7993 110.861 68.5893C111.231 67.9793 112.501 65.6093 111.681 65.0093C110.381 64.0493 109.371 63.1193 110.221 61.2493C110.471 60.6993 110.801 60.1793 110.941 59.6093C113.001 59.2593 115.211 57.7293 114.401 55.5493C113.701 53.6593 110.661 52.6393 109.531 50.8793C108.791 49.7393 107.861 48.5893 107.421 47.2993C106.881 45.7293 107.071 44.5993 107.001 43.0093C106.931 41.5593 106.871 40.1393 106.781 38.7393C106.871 38.7093 106.971 38.6593 107.051 38.5593C111.441 33.4193 115.131 25.5893 111.911 18.8693C109.361 13.5393 103.661 8.48926 97.4209 9.12926C97.4209 9.12926 97.4109 9.12926 97.4009 9.12926C97.2509 8.81926 96.9709 8.29926 96.8209 8.13926C95.4409 6.66926 94.0609 5.26926 92.4109 4.08926C89.3409 1.88926 85.1309 0.499258 81.3909 0.139258C77.3009 -0.250742 73.4909 0.179258 69.6209 1.53926C66.1209 2.76926 62.9409 4.68926 59.5209 6.09926C56.1009 4.69926 52.9109 2.76926 49.4209 1.53926C45.5609 0.179258 41.7409 -0.250742 37.6509 0.139258C33.9109 0.499258 29.7009 1.88926 26.6309 4.08926C24.9809 5.26926 23.6109 6.65926 22.2209 8.13926C22.0709 8.29926 21.7909 8.81926 21.6409 9.12926C21.6409 9.12926 21.6309 9.12926 21.6209 9.12926C15.3809 8.48926 9.68086 13.5393 7.13086 18.8693C3.91086 25.5893 7.60086 33.4293 11.9909 38.5593C12.0809 38.6593 12.1709 38.7093 12.2609 38.7393C12.1609 40.1293 12.1009 41.5493 12.0409 43.0093C11.9709 44.5993 12.1509 45.7193 11.6209 47.2993C11.1809 48.5993 10.2409 49.7493 9.51086 50.8793C8.37086 52.6393 5.34086 53.6693 4.64086 55.5493C3.83086 57.7293 6.04086 59.2593 8.10086 59.6093L8.11086 59.5993ZM107.751 51.0593C108.771 52.6393 110.061 53.9093 111.551 55.0493C113.541 56.5693 111.711 57.5593 110.141 58.1293C110.291 57.9593 110.451 57.8193 110.611 57.7093C110.771 57.5993 110.681 57.2793 110.471 57.3293C109.371 57.5693 108.641 58.3493 107.841 59.0893C107.291 59.5893 106.591 60.3193 105.901 59.4893C105.761 59.3293 105.631 59.1693 105.511 58.9993C105.241 58.5993 104.991 58.1893 104.731 57.7793C104.601 57.5693 104.201 57.5793 104.121 57.8293C103.691 59.1593 105.071 60.7093 106.301 61.0393C107.441 61.3393 108.291 60.4793 109.041 59.5293C109.051 59.5293 109.061 59.5393 109.081 59.5493C109.241 59.5993 109.421 59.6293 109.601 59.6493C108.781 60.7293 108.391 62.4693 108.691 63.5393C109.001 64.6493 109.631 65.0893 110.531 65.7193C110.671 65.8193 110.251 67.0193 109.991 67.6793C109.121 67.6393 108.741 68.1593 107.771 68.4793C105.751 69.1393 103.531 69.7293 101.421 69.2193C100.981 69.1093 100.701 69.7393 101.051 70.0093C102.641 71.2293 104.541 70.6993 106.381 70.3493C106.761 70.2793 107.161 70.0793 107.571 69.8593C108.141 70.1593 108.751 70.3793 109.271 70.7593C109.821 71.1593 109.861 71.2693 109.511 71.9493C109.371 72.2193 109.061 72.9193 108.671 72.9393C108.291 72.9593 107.901 72.9993 107.531 73.0993C106.741 73.3093 106.111 73.5993 105.491 74.1393C105.091 74.4993 105.391 75.1593 105.941 74.9893C106.121 74.9293 106.301 74.8593 106.481 74.7893C105.891 76.2093 106.131 78.3293 106.561 79.3693C107.711 82.1193 101.381 82.9993 99.9509 82.9993C98.0809 82.9993 96.6509 82.5593 95.0609 81.8793C93.2609 76.4693 89.8509 71.3593 86.8809 66.8893C80.6809 57.5393 74.0009 47.2893 79.5409 36.0093C82.2309 30.5193 86.2409 26.7793 91.0309 23.1193C92.7309 21.8193 94.6909 20.2993 95.8509 18.4093C96.1709 19.2493 96.8809 19.8893 97.4809 20.5993C98.8609 22.2293 100.031 24.0393 101.111 25.8793C102.311 27.9393 103.651 30.1293 104.241 32.4693C104.951 35.2793 105.121 37.8093 105.251 40.6693C105.341 42.6993 105.161 44.8693 105.601 46.8493C105.961 48.4293 106.901 49.7693 107.761 51.0993L107.751 51.0593ZM8.48086 20.2793C9.49086 17.2593 11.7709 14.9993 14.2409 13.1293C16.6609 11.2993 19.1009 11.1393 21.8309 10.2193C21.9609 10.1793 22.0409 10.0993 22.0909 10.0093C22.1409 10.0093 22.1809 9.98926 22.2209 9.96926C24.5209 8.72926 26.2209 6.59926 28.5109 5.29926C32.2709 3.18926 36.5209 1.98926 40.8309 1.98926C44.5209 1.98926 48.0109 2.89926 51.3809 4.38926C53.8709 5.48926 56.6309 8.14926 59.5209 7.60926C62.4109 8.15926 65.1709 5.48926 67.6609 4.38926C71.0309 2.89926 74.5109 1.98926 78.2109 1.98926C82.5209 1.98926 86.7709 3.18926 90.5309 5.29926C92.8209 6.58926 94.5209 8.72926 96.8209 9.96926C96.8609 9.98926 96.9109 9.99926 96.9509 10.0093C97.0009 10.0993 97.0809 10.1793 97.2109 10.2193C99.9509 11.1393 102.381 11.2893 104.801 13.1293C107.271 14.9993 109.551 17.2593 110.561 20.2793C112.601 26.3993 109.851 32.1293 106.621 37.1693C106.301 33.8593 105.631 30.6793 103.941 27.5093C102.621 25.0293 101.261 22.4193 99.3509 20.3193C98.4809 19.3593 97.5109 17.9793 96.3409 17.3393C96.5009 16.9493 96.6209 16.5393 96.7009 16.1193C96.7209 16.0893 96.7409 16.0593 96.7609 16.0293C97.1909 16.4293 97.7709 16.5893 98.4209 17.0993C99.9109 18.2693 101.281 19.4293 102.371 21.0093C104.801 24.5393 106.171 28.2493 106.891 32.4693C106.911 32.6293 107.171 32.6593 107.191 32.4793C107.691 25.0093 103.301 18.5293 97.3709 14.6193C97.3009 14.3893 96.9809 14.2593 96.7709 14.4093C96.7609 14.4193 96.7409 14.4293 96.7309 14.4393C96.5309 14.4793 96.3609 14.5893 96.2709 14.7693C91.1209 18.4693 85.4009 21.6693 80.5409 25.7393C75.7309 29.7893 73.1409 35.0593 71.3709 40.9993C71.3409 41.0893 71.4909 41.1293 71.5209 41.0493C72.6909 37.7893 74.1109 33.6893 76.6809 31.2793C78.0309 29.9993 79.1609 28.5593 80.5809 27.3393C81.8609 26.2493 83.2609 25.4293 84.6109 24.4493C87.3209 22.4693 90.2509 20.3993 93.1709 18.7493C93.9209 18.3293 94.7909 17.8293 95.5509 17.2293C93.1509 21.2393 88.0909 23.3493 84.5909 26.3293C81.4009 29.0393 78.8809 32.1793 77.1209 35.9793C76.3209 37.7093 75.7909 39.4193 75.4709 41.1093C73.9509 46.8993 73.6309 53.6393 76.0709 58.9293C79.3909 66.1593 84.9509 72.1493 88.9809 78.9893C89.0209 79.0493 89.1109 78.9893 89.0709 78.9293C85.4009 72.4493 80.1309 66.3293 77.4809 59.3493C76.4809 56.7093 76.0709 53.8893 76.0109 51.0293C76.7309 53.6293 77.8409 56.2093 79.2309 58.7793C83.7309 67.1493 90.8209 74.4893 93.0809 83.8993C94.3909 89.3493 94.0509 95.0293 90.1609 99.4193C86.4609 103.589 82.4209 103.769 77.4809 103.969C77.8209 103.369 78.1509 102.759 78.4409 102.129C80.3509 97.8493 80.6709 92.9693 78.9209 88.5393C77.0209 83.7393 73.8509 79.7793 71.1009 75.4593C67.4509 69.7093 65.2409 64.1493 65.9609 57.2593C65.9809 57.1193 65.7609 57.0793 65.7409 57.2193C64.7809 63.2093 66.0309 67.7493 68.7709 73.1093C71.3809 78.2193 74.7109 82.9093 76.7709 88.2893C78.0309 91.5693 78.6109 95.2993 77.5609 98.7193C76.7309 101.419 75.1009 103.459 73.9109 105.959C73.8809 106.009 73.8609 106.069 73.8409 106.129C74.4409 103.499 75.4009 100.869 75.7809 98.1993C76.0609 96.1693 76.6509 93.3193 76.1509 91.3293C75.4409 88.5193 74.3109 85.9493 73.0209 83.3593C72.9809 83.2693 72.8309 83.3193 72.8709 83.4193C73.4709 84.8293 74.1709 86.2593 74.5309 87.7593C75.1009 90.1693 75.1409 91.7693 75.0209 94.2193C74.8609 97.5793 73.9809 100.489 72.7909 103.619C72.1209 105.369 71.7709 108.139 71.7409 110.029C71.7009 112.269 71.8109 114.179 72.9609 116.029C72.4309 115.809 71.9009 115.579 71.4009 115.289C70.4309 114.729 69.7609 113.829 68.8709 113.229C68.0509 108.089 65.6409 103.089 67.9709 97.9893C67.9909 97.9493 67.9309 97.9293 67.9109 97.9593C65.1709 102.349 66.2709 106.689 67.1009 111.479C67.6209 114.479 67.4509 117.419 65.7509 119.979C64.1809 122.339 62.0009 122.869 59.5209 123.309C57.0409 122.869 54.8709 122.339 53.2909 119.979C51.5909 117.429 51.4209 114.479 51.9409 111.479C52.7709 106.689 53.8709 102.349 51.1309 97.9593C51.1109 97.9193 51.0509 97.9493 51.0709 97.9893C53.4009 103.089 50.9909 108.089 50.1709 113.229C49.2809 113.819 48.6109 114.729 47.6409 115.289C47.1409 115.579 46.6109 115.809 46.0809 116.029C47.2309 114.179 47.3309 112.279 47.3009 110.029C47.2709 108.129 46.9209 105.369 46.2509 103.619C45.0509 100.489 44.1709 97.5793 44.0209 94.2193C43.9009 91.7593 43.9409 90.1693 44.5109 87.7593C44.8709 86.2593 45.5709 84.8293 46.1709 83.4193C46.2109 83.3193 46.0609 83.2693 46.0209 83.3593C44.7309 85.9493 43.6009 88.5193 42.8909 91.3293C42.3909 93.3193 42.9809 96.1693 43.2609 98.1993C43.6309 100.859 44.5909 103.499 45.2009 106.129C45.1709 106.079 45.1509 106.019 45.1309 105.959C43.9409 103.459 42.3109 101.419 41.4809 98.7193C40.4209 95.2993 41.0109 91.5693 42.2709 88.2893C44.3309 82.8993 47.6609 78.2193 50.2709 73.1093C53.0109 67.7493 54.2609 63.2093 53.3009 57.2193C53.2709 57.0693 53.0609 57.1193 53.0809 57.2593C53.8009 64.1393 51.5909 69.7093 47.9409 75.4593C45.1909 79.7793 42.0209 83.7393 40.1309 88.5393C38.3809 92.9693 38.6909 97.8493 40.6109 102.129C40.8909 102.759 41.2209 103.369 41.5709 103.969C36.6309 103.779 32.5809 103.599 28.8909 99.4193C25.0009 95.0293 24.6609 89.3493 25.9709 83.8993C28.2309 74.4893 35.3209 67.1393 39.8209 58.7793C41.2009 56.2093 42.3209 53.6293 43.0409 51.0193C42.9809 53.8893 42.5709 56.7093 41.5709 59.3393C38.9209 66.3193 33.6609 72.4393 29.9809 78.9193C29.9409 78.9793 30.0409 79.0493 30.0809 78.9793C34.1109 72.1493 39.6709 66.1593 42.9909 58.9193C45.4209 53.6193 45.1009 46.8793 43.5909 41.0893C43.2709 39.3993 42.7509 37.6893 41.9409 35.9593C40.1809 32.1593 37.6609 29.0093 34.4709 26.3093C30.9609 23.3393 25.9109 21.2193 23.5109 17.2093C24.2709 17.8093 25.1409 18.2993 25.8909 18.7293C28.8109 20.3793 31.7409 22.4493 34.4509 24.4293C35.8009 25.4193 37.2009 26.2293 38.4809 27.3193C39.9009 28.5393 41.0309 29.9793 42.3809 31.2593C44.9509 33.6793 46.3809 37.7693 47.5409 41.0293C47.5709 41.1193 47.7209 41.0693 47.6909 40.9793C45.9109 35.0393 43.3309 29.7593 38.5209 25.7193C33.6709 21.6393 27.9409 18.4493 22.7909 14.7393C22.7009 14.5693 22.5309 14.4493 22.3309 14.4193C22.3209 14.4093 22.3009 14.3993 22.2909 14.3893C22.0809 14.2393 21.7709 14.3693 21.6909 14.5993C15.7709 18.5093 11.3709 24.9893 11.8709 32.4593C11.8809 32.6393 12.1409 32.6093 12.1709 32.4493C12.8909 28.2393 14.2609 24.5293 16.6909 20.9893C17.7809 19.4093 19.1509 18.2393 20.6409 17.0793C21.2909 16.5693 21.8709 16.4093 22.3009 16.0093C22.3209 16.0393 22.3409 16.0693 22.3609 16.0993C22.4409 16.5193 22.5609 16.9293 22.7209 17.3193C21.5509 17.9693 20.5809 19.3393 19.7109 20.2993C17.8009 22.3993 16.4509 25.0093 15.1209 27.4893C13.4309 30.6593 12.7709 33.8393 12.4509 37.1393C9.22086 32.0993 6.47086 26.3693 8.51086 20.2493L8.48086 20.2793ZM7.53086 55.0493C9.02086 53.9093 10.3109 52.6293 11.3309 51.0593C12.1909 49.7293 13.1409 48.3893 13.4909 46.8093C13.9309 44.8293 13.7509 42.6593 13.8509 40.6293C13.9809 37.7693 14.1509 35.2393 14.8609 32.4293C15.4509 30.0893 16.7809 27.8993 17.9909 25.8393C19.0709 23.9993 20.2309 22.1893 21.6209 20.5593C22.2209 19.8493 22.9309 19.2093 23.2509 18.3693C24.4109 20.2593 26.3709 21.7793 28.0709 23.0793C32.8609 26.7393 36.8709 30.4893 39.5609 35.9693C45.1009 47.2493 38.4209 57.4993 32.2209 66.8493C29.2509 71.3193 25.8409 76.4293 24.0409 81.8393C22.4609 82.5193 21.0309 82.9693 19.1509 82.9593C17.7209 82.9593 11.3909 82.0793 12.5409 79.3293C12.9809 78.2793 13.2109 76.1693 12.6209 74.7493C12.8009 74.8293 12.9709 74.8993 13.1609 74.9493C13.7109 75.1193 14.0109 74.4593 13.6109 74.0993C13.0009 73.5593 12.3609 73.2693 11.5709 73.0593C11.1909 72.9593 10.8109 72.9193 10.4309 72.8993C10.0409 72.8793 9.73086 72.1793 9.59086 71.9093C9.24086 71.2293 9.27086 71.1293 9.83086 70.7193C10.3509 70.3393 10.9709 70.1293 11.5309 69.8193C11.9409 70.0393 12.3409 70.2393 12.7209 70.3093C14.5609 70.6593 16.4609 71.1893 18.0509 69.9693C18.4009 69.6993 18.1109 69.0693 17.6809 69.1793C15.5709 69.6893 13.3509 69.0993 11.3309 68.4393C10.3609 68.1193 9.99086 67.5993 9.12086 67.6393C8.86086 66.9893 8.44086 65.7793 8.58086 65.6793C9.48086 65.0493 10.1109 64.6093 10.4209 63.4993C10.7209 62.4293 10.3309 60.6893 9.51086 59.6093C9.69086 59.5893 9.87086 59.5593 10.0309 59.5093C10.0409 59.5093 10.0509 59.4993 10.0709 59.4893C10.8309 60.4393 11.6809 61.2993 12.8109 60.9993C14.0409 60.6793 15.4209 59.1193 14.9909 57.7893C14.9009 57.5393 14.5109 57.5293 14.3709 57.7393C14.1109 58.1493 13.8609 58.5593 13.5909 58.9593C13.4709 59.1293 13.3409 59.2893 13.2009 59.4493C12.5109 60.2793 11.8109 59.5493 11.2609 59.0493C10.4609 58.3193 9.73086 57.5293 8.63086 57.2893C8.41086 57.2393 8.33086 57.5593 8.49086 57.6693C8.65086 57.7793 8.80086 57.9293 8.96086 58.0893C7.39086 57.5193 5.56086 56.5293 7.55086 55.0093L7.53086 55.0493Z" fill="#897EB3"/>
<path d="M22.3809 50.3593C20.1409 50.1793 18.3309 49.2893 16.3309 48.3593C16.1509 48.2693 16.0009 48.5693 16.1709 48.6693C18.3409 50.0293 19.6309 51.2493 22.2709 51.5693C23.6209 51.7393 25.0609 51.5393 26.3209 50.9793C26.4009 50.9793 26.4809 50.9893 26.5609 50.9793C27.0409 50.9393 27.5009 51.1393 27.9709 51.2293C28.0709 51.2493 28.1009 51.0893 28.0109 51.0493C27.6709 50.9293 27.3309 50.7393 26.9809 50.6393C27.0309 50.6093 27.0809 50.5693 27.1309 50.5393C28.0109 50.5493 28.9109 50.5493 29.6709 50.9593C29.6809 50.9593 29.6909 50.9593 29.6809 50.9393C29.3409 50.6193 28.8209 50.3593 28.3609 50.2793C28.2309 50.2593 28.1009 50.2293 27.9709 50.1993C28.2309 50.1593 28.4909 50.1393 28.7609 50.0893C29.6309 49.9293 30.5509 50.3893 31.3309 50.6793C31.4309 50.7193 31.5009 50.5793 31.4209 50.5193C30.9009 50.1593 30.4109 49.7593 29.8909 49.4293C29.5209 49.1893 29.3409 48.8393 28.9009 48.6693C28.4909 48.5193 27.9409 48.6693 27.3909 48.9093C25.7309 49.5193 24.2409 50.4893 22.3909 50.3493L22.3809 50.3593Z" fill="#897EB3"/>
<path d="M15.8209 37.4093C15.6409 42.4693 24.3309 40.8593 27.3409 41.0893C27.3509 41.0893 27.3609 41.0893 27.3709 41.0893C27.5409 41.1893 27.7009 41.2893 27.8709 41.3993C27.9909 41.4793 28.1509 41.3193 28.0409 41.2093C26.4009 39.4893 24.4809 38.1393 22.2609 37.2793C20.2809 36.5193 18.4409 36.8793 16.4809 36.5093C15.9609 36.4093 15.7209 36.9793 15.8309 37.3893C15.8309 37.3893 15.8309 37.3893 15.8309 37.3993L15.8209 37.4093ZM26.8209 40.7393C23.8809 39.9393 20.0409 40.2093 17.6509 38.2793C18.1509 38.2993 18.6509 38.2793 18.9909 38.3093C22.0509 38.5393 24.3409 39.2593 26.8209 40.7393Z" fill="#897EB3"/>
<path d="M23.2309 45.7393C24.6709 46.1693 25.8509 46.8093 27.2009 47.4293C27.6709 47.6393 28.1309 46.9793 27.7809 46.6093C24.9909 43.6893 20.7309 44.5093 17.6909 46.5193C17.6209 46.5593 17.6909 46.6693 17.7609 46.6293C19.3809 45.7693 21.4309 45.1893 23.2409 45.7293L23.2309 45.7393Z" fill="#897EB3"/>
<path d="M102.741 48.3593C100.741 49.2793 98.9309 50.1793 96.6909 50.3593C94.8309 50.5093 93.3309 49.5293 91.6809 48.9193C91.1309 48.6793 90.5909 48.5293 90.1809 48.6893C89.7409 48.8493 89.5609 49.2093 89.1809 49.4493C88.6509 49.7793 88.1609 50.1893 87.6509 50.5393C87.5609 50.5993 87.6409 50.7393 87.7409 50.6993C88.5209 50.4093 89.4409 49.9493 90.3109 50.1093C90.5809 50.1593 90.8409 50.1893 91.1009 50.2193C90.9709 50.2493 90.8409 50.2693 90.7109 50.2993C90.2509 50.3893 89.7309 50.6393 89.3909 50.9593C89.3909 50.9693 89.3909 50.9793 89.4109 50.9793C90.1709 50.5693 91.0709 50.5693 91.9509 50.5593C92.0009 50.5893 92.0509 50.6293 92.1009 50.6593C91.7509 50.7493 91.4109 50.9393 91.0709 51.0693C90.9809 51.0993 91.0109 51.2693 91.1109 51.2493C91.5809 51.1493 92.0409 50.9593 92.5209 50.9993C92.6009 50.9993 92.6809 50.9993 92.7609 50.9993C94.0209 51.5593 95.4509 51.7493 96.8009 51.5893C99.4409 51.2693 100.731 50.0493 102.901 48.6893C103.071 48.5793 102.921 48.2893 102.741 48.3793V48.3593Z" fill="#897EB3"/>
<path d="M102.591 36.5193C100.631 36.8893 98.8009 36.5193 96.8109 37.2893C94.5909 38.1393 92.6709 39.4993 91.0309 41.2193C90.9209 41.3293 91.0809 41.4893 91.2009 41.4093C91.3709 41.2993 91.5309 41.1993 91.7009 41.0993C91.7109 41.0993 91.7209 41.1093 91.7309 41.0993C94.7409 40.8593 103.421 42.4793 103.251 37.4193C103.251 37.4193 103.251 37.4093 103.251 37.3993C103.361 36.9893 103.121 36.4193 102.601 36.5193H102.591ZM92.2509 40.7493C94.7309 39.2693 97.0109 38.5393 100.081 38.3193C100.421 38.2893 100.921 38.3193 101.421 38.2893C99.0309 40.2193 95.1909 39.9493 92.2509 40.7493Z" fill="#897EB3"/>
<path d="M91.8709 47.4393C93.2209 46.8193 94.4009 46.1793 95.8409 45.7493C97.6509 45.2093 99.6909 45.7793 101.321 46.6493C101.391 46.6893 101.461 46.5793 101.391 46.5393C98.3409 44.5293 94.0909 43.7093 91.2909 46.6293C90.9409 46.9993 91.4009 47.6693 91.8709 47.4493V47.4393Z" fill="#897EB3"/>
</g>
<defs>
<linearGradient id="paint0_linear_57_283" x1="0.118002" y1="62.8896" x2="120.213" y2="62.8896" gradientUnits="userSpaceOnUse">
<stop stop-color="#C0CBD8"/>
<stop offset="0.54" stop-color="white"/>
<stop offset="0.87" stop-color="white"/>
<stop offset="0.99" stop-color="#C0CBD8"/>
</linearGradient>
<linearGradient id="paint1_linear_57_283" x1="-0.0410034" y1="62.8945" x2="119.888" y2="62.8945" gradientUnits="userSpaceOnUse">
<stop stop-color="#C0CBD8"/>
<stop offset="0.54" stop-color="white"/>
<stop offset="0.87" stop-color="white"/>
<stop offset="0.99" stop-color="#C0CBD8"/>
</linearGradient>
<linearGradient id="paint2_linear_57_283" x1="-0.164736" y1="62.8236" x2="119.922" y2="62.8236" gradientUnits="userSpaceOnUse">
<stop stop-color="#C0CBD8"/>
<stop offset="0.54" stop-color="white"/>
<stop offset="0.87" stop-color="white"/>
<stop offset="0.99" stop-color="#C0CBD8"/>
</linearGradient>
<linearGradient id="paint3_linear_57_283" x1="0.00659391" y1="62.5961" x2="119.922" y2="62.5961" gradientUnits="userSpaceOnUse">
<stop stop-color="#C0CBD8"/>
<stop offset="0.54" stop-color="white"/>
<stop offset="0.87" stop-color="white"/>
<stop offset="0.99" stop-color="#C0CBD8"/>
</linearGradient>
<linearGradient id="paint4_linear_57_283" x1="0.00222321" y1="62.6012" x2="119.876" y2="62.6012" gradientUnits="userSpaceOnUse">
<stop stop-color="#C0CBD8"/>
<stop offset="0.54" stop-color="white"/>
<stop offset="0.87" stop-color="white"/>
<stop offset="0.99" stop-color="#C0CBD8"/>
</linearGradient>
<linearGradient id="paint5_linear_57_283" x1="0.0969486" y1="62.8722" x2="119.874" y2="62.8722" gradientUnits="userSpaceOnUse">
<stop stop-color="#C0CBD8"/>
<stop offset="0.54" stop-color="white"/>
<stop offset="0.87" stop-color="white"/>
<stop offset="0.99" stop-color="#C0CBD8"/>
</linearGradient>
<linearGradient id="paint6_linear_57_283" x1="0.265784" y1="62.7178" x2="119.745" y2="62.7178" gradientUnits="userSpaceOnUse">
<stop stop-color="#C0CBD8"/>
<stop offset="0.54" stop-color="white"/>
<stop offset="0.87" stop-color="white"/>
<stop offset="0.99" stop-color="#C0CBD8"/>
</linearGradient>
<linearGradient id="paint7_linear_57_283" x1="-0.238694" y1="62.3675" x2="119.283" y2="62.3675" gradientUnits="userSpaceOnUse">
<stop stop-color="#C0CBD8"/>
<stop offset="0.54" stop-color="white"/>
<stop offset="0.87" stop-color="white"/>
<stop offset="0.99" stop-color="#C0CBD8"/>
</linearGradient>
<linearGradient id="paint8_linear_57_283" x1="0.246489" y1="62.2845" x2="120.317" y2="62.2845" gradientUnits="userSpaceOnUse">
<stop stop-color="#C0CBD8"/>
<stop offset="0.54" stop-color="white"/>
<stop offset="0.87" stop-color="white"/>
<stop offset="0.99" stop-color="#C0CBD8"/>
</linearGradient>
<linearGradient id="paint9_linear_57_283" x1="0.0897484" y1="62.2845" x2="120.3" y2="62.2845" gradientUnits="userSpaceOnUse">
<stop stop-color="#C0CBD8"/>
<stop offset="0.54" stop-color="white"/>
<stop offset="0.87" stop-color="white"/>
<stop offset="0.99" stop-color="#C0CBD8"/>
</linearGradient>
<linearGradient id="paint10_linear_57_283" x1="-0.0160327" y1="62.6095" x2="119.838" y2="62.6095" gradientUnits="userSpaceOnUse">
<stop stop-color="#C0CBD8"/>
<stop offset="0.54" stop-color="white"/>
<stop offset="0.87" stop-color="white"/>
<stop offset="0.99" stop-color="#C0CBD8"/>
</linearGradient>
<linearGradient id="paint11_linear_57_283" x1="-0.0385426" y1="62.7179" x2="119.674" y2="62.7179" gradientUnits="userSpaceOnUse">
<stop stop-color="#C0CBD8"/>
<stop offset="0.54" stop-color="white"/>
<stop offset="0.87" stop-color="white"/>
<stop offset="0.99" stop-color="#C0CBD8"/>
</linearGradient>
<linearGradient id="paint12_linear_57_283" x1="-0.0385426" y1="62.7179" x2="119.674" y2="62.7179" gradientUnits="userSpaceOnUse">
<stop stop-color="#C0CBD8"/>
<stop offset="0.54" stop-color="white"/>
<stop offset="0.87" stop-color="white"/>
<stop offset="0.99" stop-color="#C0CBD8"/>
</linearGradient>
<linearGradient id="paint13_linear_57_283" x1="0.0674489" y1="62.7253" x2="119.999" y2="62.7253" gradientUnits="userSpaceOnUse">
<stop stop-color="#C0CBD8"/>
<stop offset="0.54" stop-color="white"/>
<stop offset="0.87" stop-color="white"/>
<stop offset="0.99" stop-color="#C0CBD8"/>
</linearGradient>
<linearGradient id="paint14_linear_57_283" x1="-0.238694" y1="63.0682" x2="119.97" y2="63.0682" gradientUnits="userSpaceOnUse">
<stop stop-color="#C0CBD8"/>
<stop offset="0.54" stop-color="white"/>
<stop offset="0.87" stop-color="white"/>
<stop offset="0.99" stop-color="#C0CBD8"/>
</linearGradient>
<linearGradient id="paint15_linear_57_283" x1="0.140336" y1="62.7179" x2="119.698" y2="62.7179" gradientUnits="userSpaceOnUse">
<stop stop-color="#C0CBD8"/>
<stop offset="0.54" stop-color="white"/>
<stop offset="0.87" stop-color="white"/>
<stop offset="0.99" stop-color="#C0CBD8"/>
</linearGradient>
</defs>
</svg>
