<svg width="126" height="123" viewBox="0 0 126 123" fill="none" xmlns="http://www.w3.org/2000/svg">
<g id="3">
<path d="M56.8808 113.879C57.4808 112.909 58.2908 111.579 58.0708 110.649C57.7308 109.219 55.4408 110.859 54.9308 111.169C54.7308 111.289 54.5208 111.409 54.3008 111.519C53.5408 110.789 52.6808 110.079 51.7608 109.889C51.5508 109.839 51.3308 110.049 51.3208 110.259C51.2708 111.079 51.4308 111.969 51.6108 112.819C50.6508 113.309 49.7408 113.859 49.1108 114.589C49.0208 114.689 49.0008 114.899 49.0808 115.009C49.6808 115.989 51.1108 116.039 52.1308 116.159C52.1908 116.159 52.2408 116.169 52.3008 116.179C52.3008 116.199 52.3008 116.209 52.3008 116.219C52.3208 116.449 52.3308 116.669 52.3308 116.889C52.3308 117.699 52.2108 119.109 52.9408 119.639C53.0708 119.739 53.3108 119.779 53.4608 119.689C54.0008 119.349 54.2508 119.019 54.5208 118.459C54.8508 117.779 55.1708 117.109 55.5008 116.439C56.5208 116.519 57.5308 116.619 58.5108 116.819C58.7308 116.859 58.9608 116.609 58.9008 116.389C58.6408 115.459 57.7608 114.619 56.8808 113.869V113.879Z" fill="url(#paint0_linear_57_299)"/>
<path d="M97.2708 54.3993C97.7508 53.6193 98.4008 52.5693 98.2208 51.8293C97.9508 50.6893 96.1308 51.9993 95.7208 52.2393C95.5608 52.3393 95.3908 52.4293 95.2208 52.5193C94.6108 51.9293 93.9308 51.3793 93.2008 51.2193C93.0308 51.1793 92.8608 51.3493 92.8508 51.5093C92.8108 52.1593 92.9408 52.8693 93.0808 53.5493C92.3108 53.9393 91.5908 54.3793 91.0808 54.9593C91.0108 55.0393 91.0008 55.2093 91.0508 55.2993C91.5308 56.0793 92.6708 56.1193 93.4808 56.2193C93.5308 56.2193 93.5808 56.2193 93.6208 56.2293C93.6208 56.2393 93.6208 56.2493 93.6208 56.2693C93.6308 56.4493 93.6408 56.6293 93.6408 56.7993C93.6408 57.4493 93.5408 58.5693 94.1208 58.9893C94.2308 59.0693 94.4208 59.0993 94.5408 59.0193C94.9708 58.7493 95.1708 58.4893 95.3808 58.0393C95.6408 57.4993 95.9008 56.9593 96.1608 56.4293C96.9708 56.4893 97.7708 56.5693 98.5508 56.7293C98.7308 56.7693 98.9108 56.5593 98.8708 56.3893C98.6708 55.6493 97.9608 54.9793 97.2608 54.3793L97.2708 54.3993Z" fill="url(#paint1_linear_57_299)"/>
<path d="M74.4008 46.3493C75.1708 46.1593 76.2208 45.8993 76.5608 45.3393C77.0908 44.4593 75.1608 44.1593 74.7608 44.0693C74.6008 44.0293 74.4408 43.9893 74.2808 43.9393C74.2608 43.2093 74.1808 42.4493 73.8108 41.8993C73.7308 41.7793 73.5208 41.7693 73.4108 41.8693C72.9908 42.2493 72.6308 42.7693 72.3108 43.2793C71.5908 43.0593 70.8808 42.8893 70.2108 42.9393C70.1208 42.9393 70.0108 43.0393 69.9908 43.1293C69.8108 43.8993 70.4908 44.6293 70.9408 45.1793C70.9708 45.2093 70.9908 45.2393 71.0208 45.2693C71.0208 45.2693 71.0108 45.2893 71.0008 45.2993C70.9008 45.4193 70.8008 45.5393 70.6908 45.6393C70.3008 46.0393 69.5508 46.6793 69.6508 47.2993C69.6708 47.4193 69.7708 47.5493 69.8908 47.5693C70.3208 47.6693 70.6008 47.6193 71.0108 47.4793C71.5008 47.3093 71.9908 47.1293 72.4708 46.9593C72.9308 47.4893 73.3808 48.0293 73.7708 48.6093C73.8608 48.7393 74.1008 48.7193 74.1708 48.5893C74.4908 48.0093 74.4708 47.1593 74.3908 46.3593L74.4008 46.3493Z" fill="url(#paint2_linear_57_299)"/>
<path d="M64.3508 25.0893C65.0808 25.4093 66.0708 25.8293 66.6808 25.5893C67.6308 25.2093 66.2708 23.8093 66.0108 23.4893C65.9108 23.3693 65.8108 23.2293 65.7108 23.0893C66.1408 22.4893 66.5308 21.8393 66.5708 21.1893C66.5708 21.0393 66.4108 20.9093 66.2708 20.9193C65.7008 20.9693 65.1108 21.1693 64.5408 21.3793C64.1108 20.7693 63.6408 20.1993 63.0708 19.8393C62.9908 19.7893 62.8508 19.7993 62.7808 19.8593C62.1708 20.3693 62.2708 21.3593 62.2908 22.0693C62.2908 22.1093 62.2908 22.1493 62.2908 22.1893C62.2908 22.1893 62.2708 22.1893 62.2608 22.1893C62.1108 22.2293 61.9608 22.2593 61.8108 22.2793C61.2608 22.3593 60.2708 22.4193 59.9808 22.9693C59.9308 23.0693 59.9208 23.2393 60.0008 23.3293C60.2808 23.6593 60.5408 23.7993 60.9508 23.9293C61.4508 24.0893 61.9408 24.2393 62.4308 24.3993C62.4808 25.0993 62.5108 25.8093 62.4708 26.4993C62.4708 26.6593 62.6608 26.7893 62.8008 26.7293C63.4108 26.4593 63.9008 25.7693 64.3308 25.0893H64.3508Z" fill="url(#paint3_linear_57_299)"/>
<path d="M49.8408 47.8093C50.5708 48.1193 51.5608 48.5493 52.1708 48.2993C53.1208 47.9193 51.7708 46.5193 51.5008 46.1993C51.4008 46.0793 51.3008 45.9393 51.2008 45.7993C51.6308 45.1993 52.0208 44.5493 52.0608 43.8993C52.0608 43.7493 51.9008 43.6193 51.7608 43.6293C51.1908 43.6793 50.6008 43.8793 50.0308 44.0893C49.6008 43.4793 49.1308 42.9093 48.5608 42.5493C48.4808 42.4993 48.3408 42.5093 48.2708 42.5693C47.6608 43.0793 47.7608 44.0693 47.7808 44.7793C47.7808 44.8193 47.7808 44.8593 47.7808 44.8993C47.7808 44.8993 47.7608 44.8993 47.7508 44.8993C47.6008 44.9393 47.4408 44.9693 47.2908 44.9893C46.7408 45.0693 45.7608 45.1293 45.4608 45.6793C45.4108 45.7793 45.4008 45.9493 45.4808 46.0393C45.7608 46.3693 46.0208 46.5093 46.4308 46.6393C46.9308 46.7993 47.4208 46.9493 47.9108 47.1093C47.9608 47.8093 47.9908 48.5193 47.9508 49.2093C47.9508 49.3693 48.1408 49.4993 48.2808 49.4393C48.8908 49.1693 49.3808 48.4793 49.8108 47.7993L49.8408 47.8093Z" fill="url(#paint4_linear_57_299)"/>
<path d="M76.5208 110.929C75.9508 110.929 75.4608 111.019 75.0208 111.399C74.6208 111.739 74.3608 112.229 74.3108 112.759C74.2108 113.779 75.0308 114.969 76.1408 114.969C76.7108 114.969 77.2008 114.869 77.6408 114.499C78.0408 114.159 78.3008 113.669 78.3508 113.139C78.4508 112.119 77.6308 110.929 76.5208 110.929Z" fill="url(#paint5_linear_57_299)"/>
<path d="M70.1108 115.369C68.9608 115.369 68.7808 117.159 69.9408 117.159C71.1008 117.159 71.2708 115.369 70.1108 115.369Z" fill="url(#paint6_linear_57_299)"/>
<path d="M37.6408 49.1993C37.6708 49.3093 37.7008 49.4193 37.7508 49.5293C37.9008 49.8493 38.1208 49.9393 38.3308 49.8993C38.5408 49.9193 38.7508 49.8193 38.9108 49.4793C38.9408 49.4293 38.9608 49.3793 38.9708 49.3293C39.3408 48.1093 37.3408 48.2193 37.6408 49.2093V49.1993Z" fill="url(#paint7_linear_57_299)"/>
<path d="M84.4708 40.9993C80.7508 40.9993 80.1808 46.7893 83.9208 46.7893C87.6608 46.7893 88.2108 40.9993 84.4708 40.9993Z" fill="url(#paint8_linear_57_299)"/>
<path d="M63.5908 30.0293C61.8208 30.0293 61.5508 32.7893 63.3308 32.7893C65.1108 32.7893 65.3708 30.0293 63.5908 30.0293Z" fill="url(#paint9_linear_57_299)"/>
<path d="M55.7908 33.3393C55.7608 32.9593 55.3808 32.6693 55.0308 32.6393C54.5708 32.5993 54.1408 32.9493 54.1008 33.4093C54.1008 33.4993 54.0808 33.5893 54.0808 33.6793C54.0408 34.1593 54.3908 34.5893 54.8708 34.6393C55.4808 34.6993 55.8608 34.1693 55.8208 33.6093L55.8008 33.3393H55.7908Z" fill="url(#paint10_linear_57_299)"/>
<path d="M123.991 59.6293C122.941 60.7793 122.121 62.2493 121.361 63.5993C120.851 64.4993 119.761 65.8893 119.591 67.0393C117.671 67.4393 114.571 70.7693 113.971 71.8093C113.101 71.9593 112.201 72.3693 111.471 72.7793C110.291 73.4293 109.111 74.6793 108.151 75.6193C107.951 75.8193 107.711 76.0493 107.551 76.3193C105.521 75.9493 103.411 76.4793 101.361 76.3893C101.171 76.2193 100.941 76.0893 100.701 75.9993C100.781 75.6293 100.851 75.2593 100.911 74.8793C104.571 73.9193 107.001 70.3893 108.821 67.2793C114.371 66.0193 118.581 60.2593 120.201 55.1593C120.881 53.0193 120.851 50.9393 120.401 48.9093C121.101 46.8293 121.761 44.9093 121.701 42.6293C121.641 40.1193 120.541 37.7393 119.371 35.5793C116.851 30.9293 112.271 27.1393 108.031 24.0893C106.931 23.2993 105.781 22.6293 104.581 22.0893C103.701 19.3993 101.471 16.1993 99.8208 14.1893C97.2508 11.0593 94.2908 8.5793 91.2108 6.0293C85.6208 1.3893 77.1908 -0.720704 70.0208 0.219296C69.8108 0.249296 69.6908 0.379296 69.6508 0.519296C69.4608 0.649296 69.4008 0.939296 69.6508 1.1093C72.2208 2.7793 74.9108 4.0193 77.2908 6.0093C79.3508 7.7293 81.2508 9.6693 83.0208 11.6893C84.5608 13.4393 89.9908 20.4393 87.6508 23.1093C86.4008 23.4293 85.0908 23.6493 83.5908 23.6393C80.3708 23.6293 75.8808 20.8993 73.6908 18.6193C73.6108 18.5393 73.5108 18.5393 73.4308 18.5893C73.3408 18.5393 73.2208 18.5493 73.1608 18.6693C71.4408 21.7693 73.6508 25.5993 75.5408 28.1793C76.7508 29.8293 78.5108 31.1193 80.1308 32.3393C80.9608 32.9693 82.5008 33.1493 83.4908 33.3693C85.0408 33.7093 85.2408 34.8993 85.8008 36.1293C87.5908 39.9993 90.4708 43.1993 94.0308 45.5093C95.8408 46.6893 97.9008 47.4993 99.9408 48.1593C102.491 48.9793 105.741 49.4393 107.491 51.6893C107.121 52.8893 106.871 54.0993 106.941 55.3093C103.011 56.9593 99.7608 59.9993 96.5608 62.7793C96.3508 62.6293 96.1408 62.4793 95.9108 62.3493C95.5508 62.1393 95.2008 62.3293 95.0508 62.6193C92.6808 62.9193 90.6508 62.9693 88.5908 62.4693C89.4808 59.5493 87.8108 56.3593 84.9508 55.2293C82.2308 54.1593 77.7508 53.1293 75.4208 55.6593C71.3408 53.9493 67.1308 53.3693 62.5808 53.4193C58.0308 53.3693 53.8208 53.9493 49.7408 55.6593C47.4108 53.1293 42.9308 54.1593 40.2108 55.2293C37.3508 56.3493 35.6808 59.5393 36.5708 62.4693C34.5208 62.9693 32.4808 62.9193 30.1108 62.6193C29.9608 62.3193 29.6208 62.1393 29.2608 62.3493C29.0308 62.4893 28.8208 62.6293 28.6108 62.7793C25.4208 60.0093 22.1608 56.9593 18.2308 55.3093C18.3008 54.0993 18.0508 52.8893 17.6808 51.6893C19.4308 49.4393 22.6808 48.9793 25.2208 48.1593C27.2708 47.4993 29.3208 46.6893 31.1308 45.5093C34.6808 43.1993 37.5708 39.9993 39.3608 36.1293C39.9308 34.9093 40.1308 33.7193 41.6708 33.3693C42.6608 33.1493 44.2008 32.9593 45.0308 32.3393C46.6508 31.1193 48.4108 29.8393 49.6208 28.1793C51.5108 25.5993 53.7208 21.7693 52.0008 18.6693C51.9308 18.5493 51.8208 18.5393 51.7308 18.5893C51.6508 18.5393 51.5408 18.5393 51.4708 18.6193C49.2808 20.8993 44.7908 23.6293 41.5708 23.6393C40.0708 23.6393 38.7608 23.4293 37.5108 23.1093C35.1808 20.4393 40.6108 13.4393 42.1508 11.6893C43.9208 9.6793 45.8208 7.7393 47.8808 6.0093C50.2608 4.0193 52.9508 2.7793 55.5208 1.1093C55.7708 0.949296 55.7108 0.649296 55.5208 0.519296C55.4808 0.369296 55.3608 0.239296 55.1508 0.219296C47.9808 -0.720704 39.5508 1.3893 33.9608 6.0293C30.8808 8.5893 27.9208 11.0693 25.3508 14.1893C23.7008 16.1893 21.4808 19.3993 20.6008 22.0893C19.4008 22.6293 18.2508 23.2993 17.1508 24.0893C12.9108 27.1293 8.34082 30.9293 5.81082 35.5793C4.64082 37.7393 3.54082 40.1193 3.48082 42.6293C3.42082 44.9093 4.08082 46.8393 4.78082 48.9093C4.33082 50.9493 4.30082 53.0193 4.98082 55.1593C6.60082 60.2593 10.8108 66.0193 16.3608 67.2793C18.1808 70.3893 20.6108 73.9093 24.2708 74.8793C24.3208 75.2593 24.4008 75.6293 24.4808 75.9993C24.2308 76.0893 24.0108 76.2193 23.8108 76.3893C21.7608 76.4793 19.6508 75.9493 17.6208 76.3193C17.4608 76.0493 17.2208 75.8093 17.0208 75.6193C16.0608 74.6893 14.8808 73.4293 13.7008 72.7793C12.9608 72.3693 12.0708 71.9693 11.2008 71.8093C10.6108 70.7693 7.50082 67.4393 5.58082 67.0393C5.42082 65.8893 4.33082 64.4993 3.82082 63.5993C3.06082 62.2493 2.24082 60.7693 1.19082 59.6293C0.870816 59.2793 0.250816 59.4593 0.140816 59.9093C-0.369184 61.9693 0.820816 64.1193 1.52082 65.9993C2.05082 67.4193 2.90082 69.1193 4.24082 69.9293C4.48082 70.7593 4.91082 71.5693 5.34082 72.2193C5.88082 73.0293 6.67082 73.5693 7.38082 74.1993C7.92082 74.6793 8.20082 75.1793 8.78082 75.4993C9.43082 76.5793 10.4808 77.5893 11.0808 78.0893C11.5908 78.5093 12.1108 78.9093 12.6208 79.3293C13.1308 79.7493 13.8108 79.8893 14.3408 80.2993C14.7908 80.6393 15.1808 80.8493 15.6208 80.9393C16.1808 81.3293 16.9008 81.5293 17.5808 81.6293C19.8408 81.9893 22.3808 82.4693 24.6808 82.2793C25.4108 82.7693 26.2608 83.0093 27.0308 82.7093C27.4808 83.5993 27.9608 84.4793 28.4608 85.3393C28.1908 85.3993 27.9508 85.5093 27.7708 85.8393C27.5608 86.2393 27.4208 86.6593 27.3908 87.1193C27.3908 87.1593 27.3908 87.2093 27.3908 87.2493C26.6208 87.5093 25.8608 88.1093 25.1708 88.3993C24.1408 88.8293 22.9208 89.3993 22.0108 90.0493C21.1308 90.6893 20.0408 91.6193 19.7008 92.6693C19.2608 92.9893 18.9008 93.3893 18.4008 93.7593C17.6908 94.2793 16.9108 94.7993 16.4108 95.5293C15.6508 96.6493 14.5208 98.0493 15.0408 99.4793C14.9708 99.8193 15.0008 100.159 14.9708 100.599C14.9008 101.479 14.6908 102.279 14.8108 103.169C14.9008 103.849 14.9708 104.679 15.4408 105.169C15.7308 106.449 16.8808 107.779 17.6508 108.729C18.1008 109.279 19.1508 111.069 20.0708 110.139C20.3908 109.819 20.3808 109.349 20.2308 108.939C20.0008 108.299 19.9108 107.559 19.5508 106.979C19.1208 106.289 18.7408 105.589 18.3408 104.879C18.1708 104.569 18.1008 104.309 17.9208 104.079C17.9808 103.939 18.0308 103.809 18.0708 103.679C18.5408 102.279 19.0008 100.839 19.0608 99.3593C19.1108 99.3193 19.1608 99.2793 19.2008 99.2493C20.5408 98.0893 21.9508 96.9193 22.8408 95.3693C23.6908 95.2193 24.5408 94.8693 25.1608 94.5293C26.6708 93.6993 29.0808 92.9193 30.2908 91.4893C30.5908 91.5893 30.9008 91.6393 31.2208 91.6093C31.5908 91.5693 31.9608 91.4893 32.2608 91.3193C32.7508 92.0593 33.2508 92.7993 33.7308 93.5293C33.8408 93.6993 33.9608 93.8793 34.0708 94.0593C33.3108 94.5293 32.9608 95.2993 32.9008 96.1493C32.0208 96.6293 31.2308 97.4393 30.5308 98.1493C29.9708 98.7093 29.4008 99.3193 29.0108 100.019C28.9308 100.169 28.8508 100.319 28.7908 100.489C28.7508 100.509 28.7108 100.529 28.6708 100.559C27.4208 101.549 26.1508 103.659 25.8608 105.259C25.7608 105.819 25.5408 106.619 25.5008 107.379C25.1308 108.039 25.2308 108.659 25.2308 109.409C25.2208 110.269 25.2108 111.129 25.3008 111.989C25.3708 112.699 25.5608 113.769 26.2008 114.209C26.7708 115.369 27.9908 116.209 28.9508 116.999C29.4108 117.379 30.6308 118.379 31.3108 118.109C32.5508 117.629 31.4608 116.219 30.9808 115.579C30.3208 114.699 29.6908 113.799 28.9508 112.989C29.5108 111.649 29.3508 109.659 29.2908 108.289C30.4008 106.969 31.2208 104.899 31.6608 103.749C32.3408 103.599 33.0008 103.239 33.6708 102.809C34.6208 102.189 35.8708 101.499 36.5508 100.509C37.0808 100.549 37.5908 100.459 38.0408 100.219C38.8108 101.279 39.6308 102.289 40.5308 103.199C40.1508 103.729 39.9108 104.379 39.8608 104.989C39.8608 105.029 39.8608 105.059 39.8608 105.089C38.6908 105.829 36.9608 107.359 36.7908 108.829C35.8808 110.609 34.9908 114.529 36.6108 116.019C37.0708 117.179 38.0508 118.199 39.0108 118.949C39.3108 119.179 39.6808 119.489 40.0808 119.699C40.2708 120.839 42.1608 120.879 42.9808 121.329C43.7808 121.769 45.3908 122.549 46.2508 121.889C46.5008 121.689 46.6208 121.409 46.4608 121.099C45.9808 120.219 44.9908 119.619 44.1408 119.139C43.5308 118.799 42.7408 118.379 41.9908 118.209C41.7308 117.039 40.6508 115.629 39.7508 114.959C39.9008 114.649 40.0008 114.339 40.0608 114.079C40.2408 113.209 40.7508 111.839 40.6608 110.809C41.7908 110.289 42.8508 109.309 43.5808 108.459C44.9308 108.539 46.2408 108.019 46.9608 106.839C51.8408 108.089 57.6008 108.629 62.6108 107.689C67.6108 108.629 73.3808 108.089 78.2608 106.839C78.9808 108.019 80.3008 108.539 81.6408 108.459C82.3708 109.309 83.4308 110.289 84.5508 110.809C84.4708 111.839 84.9708 113.209 85.1508 114.079C85.2008 114.339 85.3108 114.659 85.4608 114.959C84.5508 115.629 83.4708 117.039 83.2208 118.209C82.4808 118.389 81.6808 118.799 81.0708 119.139C80.2208 119.619 79.2308 120.219 78.7508 121.099C78.5908 121.399 78.7008 121.689 78.9608 121.889C79.8208 122.549 81.4308 121.769 82.2308 121.329C83.0508 120.879 84.9408 120.839 85.1308 119.699C85.5308 119.489 85.9108 119.179 86.2008 118.949C87.1508 118.199 88.1308 117.189 88.6008 116.019C90.2208 114.529 89.3308 110.609 88.4208 108.829C88.2508 107.349 86.5208 105.819 85.3508 105.089C85.3508 105.059 85.3508 105.019 85.3508 104.989C85.3008 104.379 85.0608 103.729 84.6808 103.199C85.5808 102.289 86.4108 101.279 87.1708 100.219C87.6108 100.459 88.1308 100.539 88.6608 100.509C89.3408 101.499 90.5908 102.189 91.5508 102.809C92.2108 103.249 92.8708 103.599 93.5508 103.749C93.9808 104.899 94.8108 106.969 95.9208 108.289C95.8608 109.659 95.7008 111.649 96.2608 112.989C95.5208 113.799 94.9008 114.699 94.2308 115.579C93.7508 116.219 92.6608 117.639 93.8908 118.109C94.5808 118.369 95.7908 117.369 96.2608 116.999C97.2208 116.219 98.4408 115.369 99.0108 114.209C99.6508 113.759 99.8408 112.699 99.9108 111.989C100.001 111.139 99.9908 110.269 99.9808 109.409C99.9808 108.659 100.081 108.029 99.7008 107.379C99.6608 106.619 99.4508 105.819 99.3408 105.259C99.0508 103.659 97.7808 101.549 96.5308 100.559C96.4908 100.529 96.4508 100.509 96.4108 100.489C96.3408 100.329 96.2708 100.169 96.1908 100.019C95.8008 99.3193 95.2308 98.7093 94.6708 98.1493C93.9708 97.4393 93.1808 96.6393 92.3008 96.1493C92.2408 95.2993 91.8908 94.5293 91.1308 94.0593C91.2408 93.8793 91.3608 93.6993 91.4708 93.5293C91.9508 92.7993 92.4508 92.0593 92.9408 91.3193C93.2508 91.4893 93.6108 91.5693 93.9808 91.6093C94.3008 91.6393 94.6108 91.5893 94.9108 91.4893C96.1308 92.9193 98.5308 93.6893 100.041 94.5293C100.661 94.8693 101.501 95.2193 102.361 95.3693C103.251 96.9193 104.661 98.0893 106.001 99.2493C106.041 99.2893 106.091 99.3193 106.141 99.3593C106.201 100.839 106.661 102.279 107.131 103.679C107.171 103.809 107.221 103.939 107.281 104.079C107.101 104.309 107.031 104.569 106.861 104.879C106.471 105.589 106.081 106.289 105.651 106.979C105.291 107.569 105.201 108.299 104.971 108.939C104.831 109.349 104.811 109.819 105.141 110.139C106.061 111.059 107.111 109.279 107.561 108.729C108.341 107.779 109.481 106.449 109.771 105.169C110.231 104.679 110.311 103.849 110.401 103.169C110.521 102.279 110.311 101.479 110.241 100.599C110.201 100.159 110.241 99.8093 110.171 99.4793C110.691 98.0493 109.561 96.6593 108.801 95.5293C108.301 94.7893 107.521 94.2793 106.811 93.7593C106.311 93.3893 105.951 92.9893 105.511 92.6693C105.171 91.6193 104.091 90.6893 103.201 90.0493C102.291 89.3893 101.081 88.8293 100.041 88.3993C99.3408 88.1093 98.5908 87.4993 97.8208 87.2493C97.8208 87.2093 97.8208 87.1593 97.8208 87.1193C97.8008 86.6593 97.6608 86.2393 97.4408 85.8393C97.2608 85.5093 97.0208 85.3893 96.7508 85.3393C97.2508 84.4793 97.7308 83.5993 98.1808 82.7093C98.9508 83.0093 99.7908 82.7693 100.531 82.2793C102.831 82.4693 105.381 81.9793 107.631 81.6293C108.311 81.5193 109.031 81.3193 109.591 80.9393C110.031 80.8493 110.421 80.6493 110.871 80.2993C111.401 79.8893 112.081 79.7493 112.591 79.3293C113.101 78.9093 113.621 78.5093 114.131 78.0893C114.731 77.5893 115.781 76.5793 116.431 75.4993C117.011 75.1793 117.291 74.6793 117.831 74.1993C118.541 73.5693 119.331 73.0293 119.871 72.2193C120.301 71.5693 120.741 70.7593 120.971 69.9293C122.321 69.1193 123.161 67.4193 123.691 65.9993C124.381 64.1293 125.571 61.9693 125.071 59.9093C124.961 59.4593 124.331 59.2793 124.021 59.6293H123.991Z" fill="url(#paint11_linear_57_299)"/>
<path d="M4.24082 69.9293C4.48082 70.7593 4.91082 71.5593 5.34082 72.2193C5.88082 73.0293 6.67082 73.5693 7.38082 74.1993C7.91082 74.6693 8.21082 75.1493 8.76082 75.4693C9.41082 76.5593 10.4708 77.5793 11.0808 78.0793C11.5908 78.4993 12.1108 78.8993 12.6208 79.3193C13.1308 79.7393 13.8108 79.8793 14.3408 80.2893C14.7808 80.6293 15.1708 80.8193 15.6008 80.9093C16.1608 81.3093 16.9008 81.5093 17.5808 81.6193C19.8408 81.9793 22.3808 82.4593 24.6808 82.2693C25.4108 82.7593 26.2608 82.9993 27.0308 82.6993C27.4808 83.5893 27.9508 84.4693 28.4508 85.3393C28.1808 85.3993 27.9408 85.5093 27.7608 85.8393C27.5508 86.2393 27.4108 86.6593 27.3808 87.1193C27.3808 87.1593 27.3808 87.1993 27.3808 87.2493C26.6108 87.4993 25.8508 88.1093 25.1508 88.3993C24.1208 88.8293 22.9008 89.3993 21.9908 90.0493C21.1008 90.6893 20.0108 91.6293 19.6808 92.6893C19.2408 93.0093 18.8808 93.3993 18.3908 93.7593C17.6808 94.2793 16.9008 94.7993 16.4008 95.5293C15.6408 96.6493 14.5308 98.0293 15.0308 99.4493C14.9608 99.7893 14.9908 100.149 14.9508 100.599C14.8808 101.479 14.6708 102.279 14.7908 103.169C14.8808 103.849 14.9508 104.679 15.4208 105.169C15.7108 106.449 16.8608 107.779 17.6308 108.729C18.0808 109.279 19.1308 111.069 20.0508 110.139C20.3708 109.819 20.3608 109.349 20.2108 108.939C19.9808 108.299 19.8908 107.559 19.5308 106.979C19.1008 106.289 18.7208 105.589 18.3208 104.879C18.1508 104.569 18.0808 104.309 17.9008 104.079C17.9608 103.939 18.0108 103.809 18.0508 103.679C18.5208 102.289 18.9608 100.849 19.0208 99.3693C19.0708 99.3293 19.1308 99.2893 19.1708 99.2493C20.5108 98.0793 21.9308 96.9193 22.8208 95.3593C23.6708 95.2093 24.5208 94.8693 25.1308 94.5293C26.6408 93.6993 29.0408 92.9193 30.2608 91.4893C30.5608 91.5893 30.8808 91.6393 31.1908 91.6093C31.5608 91.5693 31.9308 91.4893 32.2308 91.3193C32.7208 92.0593 33.2208 92.7993 33.7008 93.5293C33.8108 93.6993 33.9308 93.8793 34.0408 94.0593C33.2808 94.5293 32.9308 95.2993 32.8708 96.1493C31.9908 96.6293 31.2008 97.4393 30.5008 98.1493C29.9408 98.7093 29.3708 99.3193 28.9808 100.019C28.9008 100.159 28.8308 100.319 28.7608 100.479C28.7208 100.499 28.6808 100.519 28.6408 100.549C27.3908 101.539 26.1208 103.649 25.8308 105.249C25.7308 105.809 25.5108 106.619 25.4808 107.389C25.1208 108.039 25.2108 108.659 25.2008 109.409C25.1908 110.269 25.1808 111.129 25.2708 111.989C25.3408 112.699 25.5308 113.759 26.1708 114.199C26.7408 115.359 27.9608 116.209 28.9308 116.989C29.3908 117.369 30.6108 118.369 31.2908 118.099C32.5308 117.619 31.4408 116.209 30.9608 115.569C30.3008 114.689 29.6808 113.789 28.9308 112.979C29.4908 111.639 29.3308 109.639 29.2708 108.269C30.3708 106.949 31.2008 104.889 31.6408 103.739C32.3208 103.589 32.9808 103.229 33.6508 102.799C34.6008 102.179 35.8608 101.489 36.5408 100.499C37.0708 100.529 37.5808 100.449 38.0208 100.209C38.7908 101.269 39.6108 102.279 40.5108 103.189C40.1308 103.719 39.8908 104.369 39.8408 104.979C39.8408 105.019 39.8408 105.049 39.8408 105.079C38.6708 105.819 36.9408 107.349 36.7708 108.819C35.8608 110.599 34.9708 114.519 36.5908 115.999C37.0508 117.159 38.0408 118.179 38.9908 118.929C39.2908 119.169 39.6808 119.479 40.0908 119.689C40.3108 120.799 42.1508 120.859 42.9608 121.309C43.7608 121.749 45.3708 122.529 46.2308 121.869C46.4808 121.669 46.6008 121.389 46.4408 121.079C45.9608 120.199 44.9708 119.599 44.1208 119.119C43.5108 118.779 42.7208 118.369 41.9808 118.199C41.7308 117.029 40.6408 115.609 39.7308 114.939C39.8808 114.629 39.9808 114.319 40.0408 114.049C40.2208 113.179 40.7308 111.809 40.6408 110.779C41.7708 110.259 42.8408 109.269 43.5708 108.409C44.9208 108.479 46.2308 107.969 46.9408 106.789C51.8208 108.039 57.5808 108.579 62.5908 107.649C67.6008 108.589 73.3508 108.049 78.2308 106.799C78.9508 107.979 80.2608 108.489 81.6008 108.419C82.3308 109.279 83.3908 110.269 84.5308 110.789C84.4508 111.819 84.9508 113.189 85.1308 114.059C85.1808 114.329 85.2908 114.639 85.4408 114.949C84.5308 115.619 83.4408 117.039 83.1908 118.209C82.4508 118.379 81.6608 118.789 81.0508 119.129C80.2008 119.609 79.2108 120.209 78.7308 121.089C78.5708 121.389 78.6808 121.679 78.9408 121.879C79.8008 122.539 81.4108 121.759 82.2108 121.319C83.0208 120.869 84.8708 120.809 85.0908 119.699C85.5008 119.489 85.8808 119.179 86.1808 118.939C87.1308 118.189 88.1208 117.179 88.5808 116.009C90.2008 114.519 89.3108 110.599 88.4008 108.829C88.2308 107.349 86.5008 105.819 85.3308 105.089C85.3308 105.049 85.3308 105.019 85.3308 104.989C85.2808 104.379 85.0408 103.729 84.6608 103.199C85.5608 102.289 86.3808 101.279 87.1508 100.219C87.5908 100.459 88.1108 100.539 88.6308 100.509C89.3108 101.499 90.5608 102.189 91.5208 102.809C92.1908 103.249 92.8408 103.599 93.5308 103.749C93.9608 104.899 94.7908 106.959 95.9008 108.279C95.8408 109.649 95.6808 111.649 96.2408 112.989C95.5008 113.799 94.8808 114.699 94.2108 115.579C93.7308 116.219 92.6408 117.639 93.8708 118.109C94.5608 118.369 95.7708 117.369 96.2408 116.999C97.2008 116.209 98.4308 115.369 98.9908 114.209C99.6308 113.759 99.8208 112.709 99.8908 111.999C99.9808 111.149 99.9708 110.279 99.9608 109.419C99.9508 108.669 100.041 108.059 99.6808 107.399C99.6508 106.639 99.4308 105.829 99.3208 105.259C99.0308 103.659 97.7608 101.549 96.5108 100.559C96.4708 100.529 96.4308 100.509 96.3908 100.489C96.3208 100.329 96.2508 100.169 96.1708 100.029C95.7808 99.3293 95.2108 98.7193 94.6508 98.1593C93.9408 97.4493 93.1608 96.6393 92.2808 96.1593C92.2208 95.3093 91.8708 94.5393 91.1108 94.0693C91.2208 93.8893 91.3408 93.7193 91.4508 93.5393C91.9308 92.8093 92.4308 92.0693 92.9208 91.3293C93.2308 91.4993 93.5908 91.5793 93.9608 91.6193C94.2808 91.6493 94.5908 91.5993 94.8908 91.4993C96.1008 92.9293 98.5108 93.7093 100.021 94.5393C100.641 94.8793 101.481 95.2193 102.331 95.3693C103.221 96.9293 104.641 98.0993 105.981 99.2593C106.031 99.2993 106.081 99.3393 106.131 99.3793C106.191 100.849 106.631 102.289 107.101 103.689C107.141 103.819 107.191 103.949 107.251 104.089C107.071 104.319 107.001 104.579 106.831 104.879C106.441 105.589 106.051 106.289 105.621 106.979C105.261 107.559 105.171 108.299 104.941 108.939C104.801 109.349 104.781 109.819 105.111 110.139C106.031 111.059 107.081 109.279 107.531 108.729C108.311 107.779 109.451 106.449 109.741 105.169C110.201 104.679 110.281 103.849 110.371 103.169C110.491 102.279 110.281 101.479 110.211 100.599C110.171 100.149 110.211 99.7893 110.131 99.4493C110.631 98.0293 109.521 96.6493 108.761 95.5293C108.261 94.7893 107.481 94.2793 106.771 93.7593C106.281 93.3893 105.911 93.0093 105.471 92.6793C105.141 91.6293 104.051 90.6793 103.161 90.0493C102.251 89.3893 101.041 88.8293 100.001 88.3993C99.3008 88.1093 98.5408 87.4993 97.7708 87.2493C97.7708 87.2093 97.7708 87.1693 97.7708 87.1193C97.7508 86.6593 97.6108 86.2393 97.3908 85.8393C97.2108 85.5093 96.9808 85.3893 96.7008 85.3393C97.2008 84.4693 97.6708 83.5893 98.1208 82.6993C98.8908 82.9993 99.7408 82.7593 100.471 82.2693C102.771 82.4593 105.311 81.9693 107.571 81.6193C108.261 81.5093 108.991 81.3093 109.551 80.9093C109.971 80.8193 110.361 80.6193 110.801 80.2893C111.331 79.8793 112.011 79.7393 112.521 79.3193C113.031 78.8993 113.551 78.4993 114.061 78.0793C114.671 77.5793 115.721 76.5593 116.381 75.4693C116.941 75.1493 117.241 74.6693 117.771 74.1893C118.481 73.5593 119.271 73.0193 119.811 72.2093C120.241 71.5493 120.681 70.7493 120.911 69.9193C122.261 69.1093 123.111 67.4093 123.631 65.9793C124.321 64.1093 125.511 61.9493 125.011 59.8893C124.901 59.4393 124.271 59.2593 123.961 59.6093C122.911 60.7593 122.091 62.2293 121.331 63.5793C120.821 64.4793 119.721 65.8693 119.561 67.0193C117.641 67.4193 114.531 70.7493 113.951 71.7793C113.081 71.9293 112.181 72.3393 111.441 72.7493C110.261 73.3993 109.081 74.6493 108.121 75.5893C107.921 75.7893 107.681 76.0193 107.521 76.2893C105.491 75.9193 103.381 76.4493 101.321 76.3593C101.131 76.1893 100.901 76.0593 100.661 75.9693C100.741 75.5993 100.811 75.2293 100.871 74.8493C104.531 73.8793 106.961 70.3593 108.781 67.2493C114.331 65.9893 118.531 60.2393 120.161 55.1293C120.841 52.9893 120.811 50.9193 120.361 48.8793C121.061 46.7993 121.721 44.8793 121.661 42.5993C121.601 40.0893 120.501 37.7093 119.331 35.5493C116.811 30.8993 112.231 27.1093 107.991 24.0593C106.891 23.2693 105.731 22.5993 104.531 22.0593C103.651 19.3693 101.431 16.1693 99.7808 14.1693C97.2108 11.0393 94.2508 8.5593 91.1708 6.0093C85.6208 1.3893 77.1908 -0.720704 70.0208 0.219296C69.8208 0.249296 69.7208 0.369296 69.6808 0.509296C69.4808 0.629296 69.4008 0.939296 69.6608 1.1093C72.2308 2.7793 74.9208 4.0193 77.3008 6.0093C79.3608 7.7293 81.2608 9.6693 83.0308 11.6893C84.5708 13.4493 90.0108 20.4693 87.6208 23.1193C86.3808 23.4393 85.0808 23.6493 83.6008 23.6393C80.3808 23.6293 75.8908 20.8993 73.7008 18.6193C73.6208 18.5393 73.5208 18.5393 73.4408 18.5893C73.3508 18.5393 73.2408 18.5493 73.1708 18.6693C71.4508 21.7693 73.6608 25.5993 75.5508 28.1793C76.7608 29.8293 78.5208 31.1193 80.1408 32.3393C80.9708 32.9693 82.5108 33.1493 83.5008 33.3693C85.0508 33.7093 85.2508 34.8993 85.8108 36.1293C87.6008 39.9993 90.4808 43.1993 94.0408 45.5093C95.8508 46.6893 97.9108 47.4993 99.9508 48.1593C102.501 48.9793 105.751 49.4493 107.491 51.7093C107.131 52.8993 106.881 54.0993 106.951 55.3093C103.011 56.9593 99.7608 59.9993 96.5708 62.7793C96.3608 62.6293 96.1508 62.4793 95.9208 62.3493C95.5608 62.1393 95.2108 62.3293 95.0608 62.6193C92.6908 62.9193 90.6508 62.9593 88.6008 62.4693C89.4808 59.5493 87.8208 56.3693 84.9608 55.2393C82.2408 54.1693 77.7408 53.1293 75.4208 55.6893C71.3408 53.9793 67.1308 53.3893 62.5908 53.4393C58.0508 53.3893 53.8408 53.9793 49.7608 55.6893C47.4308 53.1393 42.9408 54.1693 40.2208 55.2393C37.3608 56.3593 35.7008 59.5493 36.5808 62.4693C34.5308 62.9693 32.4908 62.9293 30.1208 62.6193C29.9708 62.3293 29.6308 62.1393 29.2708 62.3493C29.0408 62.4793 28.8308 62.6293 28.6208 62.7893C25.4308 60.0093 22.1708 56.9693 18.2308 55.3193C18.3008 54.1093 18.0608 52.9093 17.6908 51.7193C19.4408 49.4593 22.6808 48.9893 25.2408 48.1593C27.2908 47.4993 29.3408 46.6893 31.1508 45.5093C34.7008 43.1993 37.5908 39.9993 39.3808 36.1293C39.9508 34.9093 40.1508 33.7193 41.6908 33.3693C42.6808 33.1493 44.2208 32.9593 45.0508 32.3393C46.6708 31.1193 48.4308 29.8293 49.6408 28.1793C51.5308 25.5993 53.7408 21.7693 52.0208 18.6693C51.9508 18.5493 51.8408 18.5393 51.7508 18.5893C51.6708 18.5393 51.5608 18.5393 51.4908 18.6193C49.3008 20.8993 44.8108 23.6293 41.5908 23.6393C40.1108 23.6393 38.8208 23.4393 37.5708 23.1193C35.1808 20.4693 40.6208 13.4393 42.1608 11.6893C43.9308 9.6793 45.8308 7.7393 47.8908 6.0093C50.2708 4.0193 52.9608 2.7793 55.5308 1.1093C55.7908 0.939296 55.7108 0.629296 55.5108 0.509296C55.4708 0.369296 55.3708 0.249296 55.1708 0.219296C48.0008 -0.720704 39.5708 1.3893 33.9808 6.0293C30.9008 8.5893 27.9408 11.0693 25.3708 14.1893C23.7208 16.1893 21.5108 19.3893 20.6208 22.0793C19.4208 22.6193 18.2608 23.2893 17.1608 24.0793C12.9208 27.1193 8.35082 30.9193 5.82082 35.5693C4.65082 37.7293 3.55082 40.1093 3.49082 42.6193C3.43082 44.8993 4.09082 46.8293 4.79082 48.8993C4.34082 50.9393 4.31082 53.0093 4.99082 55.1493C6.61082 60.2493 10.8208 65.9993 16.3708 67.2693C18.1908 70.3793 20.6208 73.9093 24.2808 74.8693C24.3408 75.2493 24.4108 75.6193 24.4908 75.9893C24.2408 76.0793 24.0208 76.2093 23.8308 76.3793C21.7808 76.4693 19.6608 75.9393 17.6308 76.3093C17.4708 76.0393 17.2308 75.8093 17.0308 75.6093C16.0708 74.6793 14.8908 73.4193 13.7108 72.7693C12.9708 72.3593 12.0708 71.9493 11.2008 71.7993C10.6208 70.7693 7.51082 67.4393 5.59082 67.0393C5.43082 65.8893 4.34082 64.4993 3.83082 63.5993C3.07082 62.2493 2.25082 60.7693 1.20082 59.6293C0.880816 59.2793 0.260816 59.4593 0.150816 59.9093C-0.359184 61.9693 0.830816 64.1193 1.53082 65.9993C2.06082 67.4193 2.91082 69.1193 4.25082 69.9393L4.24082 69.9293ZM26.1808 81.5793C25.4208 81.3493 24.8708 80.8793 24.5208 80.1393C24.1708 79.3993 24.2608 78.6093 24.5308 77.8493C24.5708 77.7293 24.7508 77.6193 24.9408 77.5293C25.3708 78.9293 25.9008 80.2893 26.5208 81.6093C26.4108 81.6093 26.3008 81.6093 26.1808 81.5693V81.5793ZM18.1208 107.189C18.0208 107.049 17.9208 106.909 17.8208 106.759C17.5408 106.329 17.2808 105.839 16.9708 105.399C17.0708 105.339 17.1608 105.269 17.2508 105.189C17.4108 105.869 17.7608 106.539 18.1208 107.189ZM17.5008 101.049C17.2308 101.929 17.0608 103.249 16.5408 104.019C16.2508 104.449 16.1808 103.429 16.1608 103.329C16.0408 102.709 16.0608 102.179 16.1608 101.559C16.2208 101.199 16.2608 100.829 16.2708 100.459C16.7408 100.489 17.2808 100.339 17.7808 100.119C17.6808 100.439 17.5908 100.759 17.5108 101.039L17.5008 101.049ZM19.9608 96.8093C18.9908 97.6293 17.7908 98.8693 16.4608 99.0593C15.9008 99.1393 16.7608 97.5593 16.8708 97.3993C17.3108 96.7593 17.6808 96.1293 18.2908 95.6293C18.8108 95.2093 19.4208 94.8193 19.9108 94.3593C19.9608 94.4293 20.0008 94.5093 20.0508 94.5793C20.4208 95.0593 20.9308 95.2893 21.4908 95.3893C20.9808 95.8593 20.4908 96.3593 19.9508 96.8193L19.9608 96.8093ZM25.8508 92.4793C25.1508 92.8593 24.4508 93.2693 23.7108 93.5393C23.3908 93.6593 23.0708 93.7693 22.7308 93.8493C21.7508 94.2293 21.3608 93.7493 21.5708 92.3993C23.1908 90.6093 25.6708 90.0793 27.6008 88.7593C27.7608 89.2493 28.0108 89.7193 28.3708 90.1293C28.6508 90.4593 29.0108 90.7893 29.4108 91.0593C28.3108 91.6493 26.8808 91.9293 25.8508 92.4893V92.4793ZM29.2708 88.6593C29.0608 88.2193 28.9008 87.5893 29.0208 87.0993C29.0508 86.9893 29.1208 86.7593 29.2008 86.5493C29.9608 87.7993 30.7508 89.0193 31.5508 90.2393C30.6308 90.2793 29.6608 89.4793 29.2708 88.6693V88.6593ZM27.0908 106.619C27.3508 105.429 27.6208 104.399 28.2908 103.349C28.4408 103.109 28.5808 102.879 28.7108 102.649C28.8708 102.989 29.1308 103.289 29.5608 103.489C29.9208 103.659 30.2608 103.749 30.6008 103.789C30.1108 104.479 29.8108 105.259 29.2608 105.959C28.9608 106.339 28.6908 106.739 28.4208 107.139C28.1108 107.999 27.6408 107.979 27.0008 107.079C27.0308 106.929 27.0708 106.769 27.1008 106.619H27.0908ZM28.1608 109.839C28.0008 110.939 27.9308 111.919 27.5208 112.969C27.3008 113.529 26.8008 112.779 26.7708 112.599C26.6908 112.269 26.6508 111.929 26.6408 111.589C26.6408 111.099 26.6408 110.619 26.6408 110.129C26.6408 109.879 26.6408 109.639 26.6408 109.379C27.1908 109.569 27.7108 109.499 28.2008 109.229C28.1908 109.439 28.1808 109.649 28.1508 109.839H28.1608ZM28.9408 114.829C29.3108 115.249 29.5908 115.739 29.9308 116.179C29.9708 116.229 30.0108 116.279 30.0508 116.329C29.6208 116.049 29.2008 115.739 28.8208 115.389C28.4408 115.049 28.1108 114.629 27.7608 114.229C27.9708 114.149 28.1508 114.049 28.3108 113.909C28.4908 114.259 28.7408 114.589 28.9408 114.829ZM33.3508 101.359C32.4508 101.829 31.7508 102.269 30.7308 102.189C29.0608 102.059 31.7608 99.2193 32.0608 98.9893C32.4908 98.6493 32.8508 98.2693 33.1508 97.8493C33.3008 98.2693 33.5008 98.6693 33.7408 99.0193C34.1208 99.5393 34.7208 99.9693 35.3808 100.229C34.7308 100.669 33.9808 101.039 33.3508 101.369V101.359ZM34.9408 97.9693C34.6608 97.4693 34.1408 96.5393 34.5308 95.9593C34.6608 95.7793 34.8108 95.6193 34.9708 95.4793C35.6908 96.6393 36.4308 97.8393 37.2208 99.0093C36.3608 99.1293 35.3608 98.7093 34.9408 97.9693ZM44.7208 120.829C44.5208 120.769 44.3408 120.709 44.2508 120.669C43.7708 120.459 43.3408 120.139 42.8508 119.949C42.4808 119.799 42.1108 119.659 41.7408 119.519C41.8308 119.419 41.9008 119.299 41.9508 119.179C42.7908 119.819 43.9108 120.179 44.7308 120.829H44.7208ZM39.9308 116.999C40.2008 117.409 40.4508 117.809 40.6208 118.279C40.7408 118.609 40.8808 118.709 40.4908 118.459C40.0308 118.159 39.4508 117.779 39.0908 117.359C38.8408 117.069 38.6308 116.749 38.4108 116.419C38.7008 116.289 38.9708 116.069 39.1908 115.799C39.4308 116.199 39.6708 116.599 39.9208 116.999H39.9308ZM38.2508 114.699C37.4908 115.719 37.2308 113.209 37.2308 113.129C37.2708 112.369 37.3708 111.639 37.6808 110.929C37.7108 110.859 37.7308 110.799 37.7508 110.729C38.2908 111.099 38.8708 111.219 39.4608 111.149C39.1008 112.259 38.9308 113.789 38.2508 114.709V114.699ZM40.8308 109.129C40.2108 109.509 37.9208 110.409 38.4108 108.739C38.6408 107.979 39.3708 107.539 39.8808 106.949C40.0008 106.809 40.1008 106.679 40.2008 106.549C40.5008 107.089 40.9608 107.539 41.5408 107.859C41.7908 107.999 42.0508 108.109 42.3108 108.199C41.8208 108.509 41.3208 108.829 40.8308 109.139V109.129ZM42.3508 106.459C41.3408 105.749 41.5108 105.099 41.8708 104.389C42.9708 105.269 44.1908 105.969 45.5608 106.419C44.6208 107.079 43.4108 107.199 42.3508 106.459ZM80.9208 120.659C80.8308 120.699 80.6508 120.759 80.4508 120.819C81.2708 120.169 82.3808 119.809 83.2308 119.169C83.2808 119.289 83.3508 119.409 83.4408 119.509C83.0708 119.659 82.7008 119.799 82.3308 119.939C81.8408 120.129 81.4108 120.449 80.9308 120.659H80.9208ZM86.0708 117.349C85.7108 117.759 85.1408 118.149 84.6708 118.449C84.2908 118.699 84.4208 118.609 84.5508 118.269C84.7208 117.809 84.9708 117.399 85.2408 116.989C85.5008 116.599 85.7408 116.199 85.9808 115.799C86.2108 116.069 86.4708 116.289 86.7608 116.409C86.5508 116.739 86.3308 117.059 86.0808 117.349H86.0708ZM87.4108 110.719C87.4408 110.789 87.4508 110.859 87.4808 110.919C87.7908 111.629 87.8908 112.359 87.9308 113.119C87.9308 113.199 87.6808 115.709 86.9108 114.689C86.2308 113.779 86.0508 112.239 85.7008 111.129C86.2908 111.199 86.8808 111.089 87.4108 110.709V110.719ZM85.2808 106.949C85.7808 107.539 86.5208 107.969 86.7508 108.739C87.2408 110.409 84.9508 109.509 84.3308 109.129C83.8308 108.819 83.3408 108.509 82.8508 108.189C83.1208 108.099 83.3808 107.989 83.6208 107.849C84.2008 107.529 84.6608 107.079 84.9508 106.539C85.0608 106.669 85.1608 106.809 85.2808 106.939V106.949ZM82.8008 106.459C81.7408 107.199 80.5308 107.079 79.5908 106.419C80.9608 105.969 82.1808 105.279 83.2808 104.389C83.6408 105.099 83.8008 105.749 82.7908 106.459H82.8008ZM98.5208 110.119C98.5208 110.609 98.5408 111.089 98.5208 111.579C98.5108 111.919 98.4608 112.259 98.3908 112.589C98.3508 112.769 97.8608 113.529 97.6408 112.959C97.2308 111.909 97.1608 110.939 97.0108 109.829C96.9808 109.639 96.9708 109.429 96.9608 109.219C97.4508 109.489 97.9708 109.559 98.5208 109.369C98.5208 109.619 98.5208 109.869 98.5208 110.109V110.119ZM95.1108 116.329C95.1508 116.279 95.1908 116.229 95.2308 116.179C95.5708 115.729 95.8508 115.249 96.2308 114.829C96.4408 114.599 96.6808 114.269 96.8608 113.909C97.0208 114.039 97.2008 114.149 97.4108 114.229C97.0608 114.629 96.7308 115.049 96.3508 115.389C95.9608 115.739 95.5508 116.049 95.1208 116.329H95.1108ZM96.4608 102.649C96.5908 102.879 96.7308 103.109 96.8808 103.349C97.5408 104.399 97.8108 105.429 98.0808 106.619C98.1208 106.769 98.1508 106.929 98.1808 107.079C97.5408 107.989 97.0708 108.009 96.7608 107.139C96.4908 106.739 96.2208 106.339 95.9208 105.959C95.3708 105.249 95.0708 104.479 94.5808 103.789C94.9208 103.749 95.2608 103.659 95.6208 103.489C96.0508 103.289 96.3108 102.989 96.4708 102.649H96.4608ZM91.4308 98.9993C91.6808 98.6593 91.8808 98.2593 92.0208 97.8293C92.3208 98.2493 92.6808 98.6293 93.1108 98.9693C93.4108 99.1993 96.1108 102.049 94.4408 102.169C93.4208 102.249 92.7108 101.799 91.8208 101.339C91.1908 101.009 90.4308 100.649 89.7908 100.199C90.4608 99.9393 91.0608 99.5093 91.4308 98.9893V98.9993ZM90.6308 95.9493C91.0208 96.5193 90.5108 97.4593 90.2308 97.9593C89.8108 98.6993 88.8108 99.1193 87.9508 98.9993C88.7408 97.8293 89.4808 96.6193 90.2008 95.4693C90.3608 95.6193 90.5108 95.7693 90.6408 95.9493H90.6308ZM109.021 101.559C109.121 102.179 109.131 102.709 109.021 103.329C109.001 103.429 108.931 104.449 108.641 104.019C108.121 103.249 107.951 101.929 107.681 101.049C107.591 100.759 107.511 100.439 107.411 100.129C107.911 100.349 108.451 100.489 108.921 100.469C108.931 100.839 108.971 101.209 109.031 101.569L109.021 101.559ZM107.361 106.759C107.261 106.909 107.161 107.049 107.061 107.189C107.411 106.529 107.761 105.869 107.931 105.189C108.021 105.269 108.111 105.339 108.211 105.399C107.911 105.849 107.651 106.329 107.361 106.759ZM106.881 95.6293C107.491 96.1293 107.861 96.7593 108.301 97.3993C108.411 97.5593 109.261 99.1493 108.711 99.0593C107.391 98.8693 106.191 97.6193 105.211 96.8093C104.661 96.3493 104.171 95.8593 103.671 95.3793C104.231 95.2893 104.741 95.0593 105.111 94.5693C105.171 94.4993 105.211 94.4193 105.251 94.3493C105.741 94.8093 106.351 95.1993 106.871 95.6193L106.881 95.6293ZM103.601 92.3993C103.811 93.7493 103.421 94.2293 102.441 93.8493C102.111 93.7693 101.791 93.6593 101.471 93.5393C100.721 93.2693 100.021 92.8593 99.3308 92.4793C98.3008 91.9193 96.8708 91.6393 95.7708 91.0493C96.1708 90.7793 96.5208 90.4493 96.8108 90.1193C97.1708 89.7093 97.4208 89.2493 97.5808 88.7493C99.5108 90.0793 101.991 90.5993 103.611 92.3893L103.601 92.3993ZM96.1608 87.1093C96.2708 87.5993 96.1208 88.2293 95.9108 88.6693C95.5208 89.4793 94.5608 90.2893 93.6308 90.2393C94.4308 89.0293 95.2208 87.7993 95.9808 86.5493C96.0608 86.7693 96.1308 86.9993 96.1608 87.0993V87.1093ZM98.6708 81.6193C99.2908 80.2893 99.8208 78.9293 100.251 77.5293C100.441 77.6193 100.611 77.7293 100.661 77.8493C100.931 78.6093 101.031 79.3993 100.661 80.1393C100.311 80.8793 99.7608 81.3393 99.0008 81.5793C98.8808 81.6193 98.7708 81.6193 98.6608 81.6193H98.6708ZM122.481 64.2693C122.891 63.5393 123.321 62.7793 123.791 62.0393C123.551 63.1093 123.011 64.1793 122.691 65.0893C122.291 66.2393 121.681 67.1693 121.041 68.0993C121.021 67.9993 121.011 67.8993 120.971 67.7993C120.871 67.4993 120.711 67.3093 120.521 67.1793C121.141 66.1993 121.901 65.2893 122.481 64.2593V64.2693ZM117.531 70.0793C117.961 69.7593 118.361 69.3893 118.761 69.0293C119.171 68.6693 119.691 68.1393 119.671 68.9193C119.631 70.7693 118.131 71.9293 116.881 73.1893C116.851 73.1193 116.831 73.0593 116.801 72.9893C116.411 72.3093 115.881 71.9493 115.281 71.8193C116.001 71.1993 116.811 70.6093 117.531 70.0793ZM111.371 74.9593C112.111 74.3993 112.781 73.8693 113.651 73.5293C114.361 73.1693 114.881 73.3793 115.231 74.1593C115.091 74.4093 114.931 74.6493 114.761 74.8793C113.571 76.5693 111.971 77.5693 110.381 78.6293C110.151 77.8793 109.561 77.2093 108.881 76.7893C109.101 76.6293 109.321 76.4493 109.411 76.3893C110.081 75.9293 110.731 75.4493 111.371 74.9593ZM105.331 77.7293C105.771 77.6893 106.221 77.6793 106.661 77.7093C108.031 77.6793 108.551 78.3993 108.241 79.8593C107.151 80.2993 105.761 80.2593 104.601 80.4193C103.721 80.5393 102.731 80.7293 101.791 81.0093C101.881 80.8693 101.971 80.7293 102.051 80.5893C102.481 79.7693 102.521 78.6193 102.191 77.6693C102.551 77.7093 102.921 77.7293 103.281 77.7593C103.961 77.7993 104.661 77.7793 105.341 77.7493L105.331 77.7293ZM86.9508 13.8693C83.7208 7.9393 77.3108 4.1693 71.4408 1.2093C78.3108 2.1193 84.8908 3.1993 90.3708 7.9293C92.9508 10.1593 95.5108 12.2193 97.7908 14.8093C99.4508 16.6893 100.511 19.0893 101.951 21.1393C99.1108 20.3793 96.1308 20.3593 93.1908 21.2993C92.1508 21.6293 91.1808 21.9793 90.2408 22.3093C90.4708 19.4893 87.7308 15.2693 86.9608 13.8593L86.9508 13.8693ZM102.161 46.7793C97.4408 45.2893 93.2608 43.4793 90.1508 39.4193C88.7008 37.5193 87.5508 35.5093 86.5808 33.3293C86.2208 32.5193 85.3208 31.6893 84.3908 31.6293C79.5008 31.2993 73.5108 24.9493 73.5308 19.7093C73.9908 20.7093 75.1408 21.3893 75.9708 22.1093C77.8908 23.7993 79.8708 24.6293 82.3108 25.3293C87.7108 26.8793 92.9508 22.5693 98.1908 22.2493C101.041 22.0793 104.781 24.1593 107.071 25.7293C109.701 27.5293 112.031 29.7893 114.281 32.0293C116.761 34.5093 118.541 37.5593 119.511 40.9193C120.031 42.7193 119.761 44.2893 119.431 45.8693C119.351 45.6793 119.281 45.4893 119.201 45.2993C118.131 42.7993 115.401 39.0393 112.331 39.0393C111.911 39.0393 111.651 39.3093 111.501 39.6693C110.631 41.7493 109.621 44.3193 109.161 46.5293C108.931 47.6193 108.531 48.7293 108.131 49.8393C106.841 48.1093 104.141 47.3893 102.161 46.7693V46.7793ZM112.891 40.8293C115.621 41.3493 117.521 45.5893 118.301 47.7493C119.471 50.9893 118.951 54.2293 117.441 57.2593C116.191 59.7693 114.411 61.6493 112.411 63.5593C111.691 64.2493 110.851 64.6693 109.991 65.0593C111.521 61.7793 112.041 58.4493 110.411 54.8793C110.251 54.5393 109.801 54.4093 109.461 54.4993C109.051 54.5993 108.661 54.7093 108.261 54.8393C109.831 50.2093 111.071 45.3693 112.881 40.8393L112.891 40.8293ZM109.191 56.3093C110.471 59.9393 108.901 63.4093 107.081 66.6193C107.011 66.6793 106.971 66.7593 106.951 66.8393C106.921 66.8993 106.891 66.9493 106.861 67.0093C106.021 68.4593 104.951 69.8193 103.841 71.0793C103.061 71.9593 102.011 72.4493 101.071 73.0793C101.181 69.6193 100.131 66.0393 97.6608 63.6693C99.2908 62.6393 100.771 61.2293 102.341 60.1093C104.511 58.5593 106.651 57.0893 109.201 56.3193L109.191 56.3093ZM83.1808 56.4593C85.7308 57.1793 87.5408 59.3193 86.8808 61.9193C86.3608 61.7193 85.8408 61.4893 85.3008 61.1993C82.9108 59.9393 80.6508 58.3993 78.2908 57.0693C77.9408 56.8793 77.6008 56.7093 77.2508 56.5393C79.2008 55.7593 81.0308 55.8593 83.1808 56.4593ZM62.5908 54.7193C65.7008 55.2193 68.8008 55.2993 71.9008 56.1093C75.2908 56.9993 78.5908 58.9993 81.5208 60.9093C82.1108 61.2993 82.7308 61.6793 83.3708 62.0593C83.6108 62.3493 83.8208 62.6093 83.9708 62.7793C84.9008 63.8793 85.9008 64.6893 86.7508 65.8893C88.3708 68.1893 89.0608 71.2293 88.9308 73.9993C88.6708 79.3393 86.3908 84.4193 83.8108 88.9893C81.3008 93.4193 77.8208 97.5293 73.2408 99.8493C71.1208 100.919 68.7208 101.249 66.3708 101.449C65.9308 101.489 65.5008 101.469 65.0708 101.449C65.0408 101.429 65.0108 101.409 64.9608 101.399C64.1508 101.169 63.3608 101.149 62.5908 101.199C61.8108 101.149 61.0308 101.169 60.2208 101.399C60.1808 101.409 60.1508 101.429 60.1208 101.449C59.6908 101.479 59.2608 101.489 58.8208 101.449C56.4708 101.249 54.0708 100.919 51.9508 99.8493C47.3708 97.5393 43.8908 93.4293 41.3808 88.9893C38.7908 84.4193 36.5208 79.3393 36.2608 73.9993C36.1308 71.2293 36.8108 68.1793 38.4408 65.8893C39.2908 64.6793 40.2908 63.8693 41.2208 62.7793C41.3608 62.6093 41.5808 62.3493 41.8108 62.0593C42.4508 61.6793 43.0708 61.2993 43.6608 60.9093C46.5908 58.9993 49.8908 56.9993 53.2708 56.1093C56.3808 55.2893 59.4808 55.2193 62.5908 54.7193ZM42.0008 56.4593C44.1508 55.8593 45.9808 55.7593 47.9308 56.5393C47.5808 56.7193 47.2308 56.8793 46.8908 57.0693C44.5308 58.3993 42.2708 59.9393 39.8808 61.1993C39.3408 61.4893 38.8208 61.7093 38.3008 61.9193C37.6408 59.3193 39.4508 57.1793 42.0008 56.4593ZM38.4008 63.7893C38.2308 63.9593 38.0608 64.1293 37.9108 64.3193C36.1308 66.5693 35.2608 68.7893 34.6108 71.5693C33.9608 74.3693 34.8608 78.0193 35.6308 80.7093C36.4008 83.3793 37.4808 85.7493 38.7608 88.2093C41.5908 93.6493 45.4808 98.6493 50.9608 101.549C54.3308 103.339 58.7008 103.759 62.5908 103.119C66.4808 103.759 70.8508 103.339 74.2308 101.549C79.7008 98.6493 83.6008 93.6493 86.4308 88.2093C87.7108 85.7493 88.7908 83.3793 89.5608 80.7093C90.3408 78.0193 91.2408 74.3693 90.5808 71.5693C89.9308 68.7893 89.0608 66.5693 87.2808 64.3193C87.1308 64.1293 86.9608 63.9593 86.7908 63.7893C89.6708 64.9693 92.7508 65.4293 95.7208 63.9893C97.1208 65.6393 98.2308 67.3393 99.0008 69.4293C100.261 72.8393 98.6408 77.1493 97.2008 80.2093C95.0208 84.8493 92.1508 89.0393 89.3408 93.2993C85.9908 98.3693 83.2608 103.679 76.9108 105.199C74.3108 105.819 71.6208 106.049 68.9608 106.049C66.8608 106.049 64.7008 105.719 62.5908 105.799C60.4808 105.719 58.3208 106.049 56.2208 106.049C53.5608 106.049 50.8708 105.819 48.2708 105.199C41.9308 103.679 39.1908 98.3693 35.8408 93.2993C33.0308 89.0393 30.1608 84.8493 27.9808 80.2093C26.5408 77.1493 24.9308 72.8493 26.1808 69.4293C26.9508 67.3393 28.0608 65.6293 29.4608 63.9893C32.4208 65.4193 35.5108 64.9693 38.3908 63.7893H38.4008ZM27.4108 14.8093C29.6908 12.2193 32.2508 10.1693 34.8308 7.9293C40.3108 3.1893 46.8908 2.1093 53.7608 1.2093C47.8908 4.1693 41.4808 7.9393 38.2508 13.8693C37.4808 15.2793 34.7408 19.4993 34.9708 22.3193C34.0208 21.9893 33.0608 21.6393 32.0208 21.3093C29.0808 20.3693 26.1008 20.3793 23.2608 21.1493C24.7008 19.0993 25.7708 16.6993 27.4208 14.8193L27.4108 14.8093ZM5.68082 40.9193C6.65082 37.5493 8.43082 34.5093 10.9108 32.0293C13.1608 29.7893 15.4908 27.5193 18.1208 25.7293C20.4108 24.1593 24.1408 22.0793 27.0008 22.2493C32.2408 22.5693 37.4908 26.8793 42.8908 25.3293C45.3308 24.6293 47.3108 23.7893 49.2308 22.1093C50.0608 21.3893 51.2108 20.7093 51.6608 19.7093C51.6708 24.9493 45.6808 31.2993 40.8008 31.6293C39.8808 31.6893 38.9808 32.5193 38.6208 33.3293C37.6508 35.5093 36.5108 37.5193 35.0508 39.4193C31.9408 43.4793 27.7608 45.2793 23.0408 46.7793C21.0608 47.4093 18.3608 48.1193 17.0708 49.8493C16.6708 48.7393 16.2708 47.6293 16.0408 46.5393C15.5808 44.3293 14.5608 41.7693 13.7008 39.6793C13.5508 39.3193 13.2908 39.0493 12.8708 39.0493C9.81082 39.0493 7.07082 42.8093 6.00082 45.3093C5.92082 45.4993 5.85082 45.6893 5.77082 45.8793C5.44082 44.2993 5.17082 42.7293 5.69082 40.9293L5.68082 40.9193ZM7.75082 57.2493C6.25082 54.2193 5.73082 50.9793 6.90082 47.7393C7.68082 45.5793 9.58082 41.3393 12.3108 40.8193C14.1208 45.3493 15.3608 50.1893 16.9308 54.8193C16.5408 54.6893 16.1408 54.5793 15.7308 54.4793C15.3908 54.3993 14.9408 54.5193 14.7808 54.8593C13.1508 58.4293 13.6708 61.7593 15.2008 65.0393C14.3508 64.6593 13.5108 64.2293 12.7808 63.5393C10.7808 61.6293 9.00082 59.7493 7.75082 57.2393V57.2493ZM21.3608 71.0693C20.2608 69.8093 19.1808 68.4593 18.3408 66.9993C18.3108 66.9393 18.2708 66.8793 18.2408 66.8293C18.2208 66.7493 18.1808 66.6793 18.1208 66.6193C16.2908 63.3993 14.7208 59.9293 16.0008 56.2993C18.5508 57.0693 20.6908 58.5393 22.8608 60.0893C24.4308 61.2093 25.9108 62.6193 27.5408 63.6493C25.0608 66.0293 24.0208 69.5993 24.1208 73.0593C23.1808 72.4293 22.1308 71.9393 21.3508 71.0593L21.3608 71.0693ZM19.8608 77.7193C20.5508 77.7493 21.2408 77.7793 21.9208 77.7293C22.2808 77.7093 22.6508 77.6893 23.0108 77.6393C22.6808 78.5993 22.7208 79.7393 23.1508 80.5593C23.2208 80.6993 23.3108 80.8393 23.4008 80.9793C22.4608 80.7093 21.4708 80.5193 20.5808 80.3893C19.4208 80.2293 18.0308 80.2693 16.9408 79.8293C16.6308 78.3693 17.1508 77.6493 18.5208 77.6793C18.9708 77.6593 19.4108 77.6693 19.8508 77.6993L19.8608 77.7193ZM13.8208 74.9493C14.4708 75.4393 15.1208 75.9193 15.7808 76.3793C15.8808 76.4493 16.1008 76.6193 16.3108 76.7793C15.6308 77.1993 15.0408 77.8693 14.8108 78.6193C13.2108 77.5493 11.6108 76.5593 10.4208 74.8693C10.2508 74.6393 10.0908 74.3993 9.95082 74.1493C10.2908 73.3693 10.8208 73.1593 11.5308 73.5193C12.4008 73.8593 13.0808 74.3893 13.8108 74.9493H13.8208ZM6.44082 69.0193C6.84082 69.3793 7.23082 69.7493 7.67082 70.0693C8.39082 70.6093 9.20082 71.1893 9.92082 71.8093C9.32082 71.9493 8.79082 72.2993 8.40082 72.9793C8.36082 73.0393 8.34082 73.1093 8.32082 73.1793C7.06082 71.9093 5.57082 70.7493 5.53082 68.9093C5.51082 68.1293 6.03082 68.6593 6.44082 69.0193ZM2.71082 64.2593C3.28082 65.2893 4.05082 66.1993 4.67082 67.1793C4.48082 67.3093 4.32082 67.4993 4.22082 67.7993C4.19082 67.8993 4.17082 67.9993 4.15082 68.0993C3.51082 67.1593 2.89082 66.2393 2.49082 65.0893C2.18082 64.1793 1.64082 63.1093 1.39082 62.0393C1.86082 62.7693 2.30082 63.5393 2.70082 64.2693L2.71082 64.2593Z" fill="#897EB3"/>
</g>
<defs>
<linearGradient id="paint0_linear_57_299" x1="0.018816" y1="61.3033" x2="125.321" y2="61.3033" gradientUnits="userSpaceOnUse">
<stop stop-color="#C0CBD8"/>
<stop offset="0.54" stop-color="white"/>
<stop offset="0.87" stop-color="white"/>
<stop offset="0.99" stop-color="#C0CBD8"/>
</linearGradient>
<linearGradient id="paint1_linear_57_299" x1="-0.122068" y1="61.2187" x2="125.419" y2="61.2187" gradientUnits="userSpaceOnUse">
<stop stop-color="#C0CBD8"/>
<stop offset="0.54" stop-color="white"/>
<stop offset="0.87" stop-color="white"/>
<stop offset="0.99" stop-color="#C0CBD8"/>
</linearGradient>
<linearGradient id="paint2_linear_57_299" x1="0.00102735" y1="61.073" x2="125.165" y2="61.073" gradientUnits="userSpaceOnUse">
<stop stop-color="#C0CBD8"/>
<stop offset="0.54" stop-color="white"/>
<stop offset="0.87" stop-color="white"/>
<stop offset="0.99" stop-color="#C0CBD8"/>
</linearGradient>
<linearGradient id="paint3_linear_57_299" x1="0.35051" y1="60.9585" x2="125.32" y2="60.9585" gradientUnits="userSpaceOnUse">
<stop stop-color="#C0CBD8"/>
<stop offset="0.54" stop-color="white"/>
<stop offset="0.87" stop-color="white"/>
<stop offset="0.99" stop-color="#C0CBD8"/>
</linearGradient>
<linearGradient id="paint4_linear_57_299" x1="0.349972" y1="61.1346" x2="125.294" y2="61.1346" gradientUnits="userSpaceOnUse">
<stop stop-color="#C0CBD8"/>
<stop offset="0.54" stop-color="white"/>
<stop offset="0.87" stop-color="white"/>
<stop offset="0.99" stop-color="#C0CBD8"/>
</linearGradient>
<linearGradient id="paint5_linear_57_299" x1="-0.0364737" y1="61.0721" x2="125.244" y2="61.0721" gradientUnits="userSpaceOnUse">
<stop stop-color="#C0CBD8"/>
<stop offset="0.54" stop-color="white"/>
<stop offset="0.87" stop-color="white"/>
<stop offset="0.99" stop-color="#C0CBD8"/>
</linearGradient>
<linearGradient id="paint6_linear_57_299" x1="-0.254996" y1="60.7309" x2="125.215" y2="60.7309" gradientUnits="userSpaceOnUse">
<stop stop-color="#C0CBD8"/>
<stop offset="0.54" stop-color="white"/>
<stop offset="0.87" stop-color="white"/>
<stop offset="0.99" stop-color="#C0CBD8"/>
</linearGradient>
<linearGradient id="paint7_linear_57_299" x1="0.0878212" y1="60.6501" x2="125.56" y2="60.6501" gradientUnits="userSpaceOnUse">
<stop stop-color="#C0CBD8"/>
<stop offset="0.54" stop-color="white"/>
<stop offset="0.87" stop-color="white"/>
<stop offset="0.99" stop-color="#C0CBD8"/>
</linearGradient>
<linearGradient id="paint8_linear_57_299" x1="-0.0225895" y1="61.1775" x2="125.077" y2="61.1775" gradientUnits="userSpaceOnUse">
<stop stop-color="#C0CBD8"/>
<stop offset="0.54" stop-color="white"/>
<stop offset="0.87" stop-color="white"/>
<stop offset="0.99" stop-color="#C0CBD8"/>
</linearGradient>
<linearGradient id="paint9_linear_57_299" x1="-0.0461793" y1="60.6295" x2="125.092" y2="60.6295" gradientUnits="userSpaceOnUse">
<stop stop-color="#C0CBD8"/>
<stop offset="0.54" stop-color="white"/>
<stop offset="0.87" stop-color="white"/>
<stop offset="0.99" stop-color="#C0CBD8"/>
</linearGradient>
<linearGradient id="paint10_linear_57_299" x1="-0.476412" y1="61.0253" x2="124.267" y2="61.0253" gradientUnits="userSpaceOnUse">
<stop stop-color="#C0CBD8"/>
<stop offset="0.54" stop-color="white"/>
<stop offset="0.87" stop-color="white"/>
<stop offset="0.99" stop-color="#C0CBD8"/>
</linearGradient>
<linearGradient id="paint11_linear_57_299" x1="0.020816" y1="61.0593" x2="125.171" y2="61.0593" gradientUnits="userSpaceOnUse">
<stop stop-color="#C0CBD8"/>
<stop offset="0.54" stop-color="white"/>
<stop offset="0.87" stop-color="white"/>
<stop offset="0.99" stop-color="#C0CBD8"/>
</linearGradient>
</defs>
</svg>
