<svg width="126" height="125" viewBox="0 0 126 125" fill="none" xmlns="http://www.w3.org/2000/svg">
<g id="4">
<path d="M27.2309 110.959C27.7709 111.259 28.4109 110.739 28.3609 110.169C28.1509 107.789 27.0209 105.529 26.6509 103.149C26.5209 102.299 26.4909 101.429 26.5009 100.549C26.6209 101.119 26.7509 101.679 26.8909 102.209C27.6909 105.319 28.9509 108.459 31.0009 110.969C32.1709 112.389 38.9009 118.909 41.0109 116.829C41.0909 116.759 41.0709 116.639 41.0109 116.559C41.0809 116.419 41.1109 116.259 41.0709 116.089C40.6609 114.499 40.6709 112.729 41.0409 111.139C41.1309 110.729 41.3009 110.349 41.4709 109.979C41.4709 109.989 41.4709 109.999 41.4809 110.009C43.3509 113.819 46.6409 115.359 50.0609 117.489C50.3209 117.819 50.5809 118.139 50.8609 118.449C51.9409 119.639 53.2909 120.479 54.4209 121.619C54.8509 122.059 55.7809 121.619 55.6409 120.979C55.4009 119.919 55.3609 118.879 55.2209 117.839C55.4309 118.199 55.6609 118.539 55.9309 118.849C57.7309 120.939 60.3909 123.489 62.8309 124.779C62.8509 124.789 62.8809 124.799 62.9009 124.809C62.9109 124.809 62.9309 124.809 62.9509 124.819C62.9609 124.819 62.9809 124.819 62.9909 124.819C62.9909 124.819 63.0009 124.819 63.0109 124.819C63.1009 124.819 63.1709 124.779 63.2409 124.719C65.6609 123.409 68.5909 120.909 70.3709 118.849C70.3909 118.829 70.4109 118.799 70.4309 118.779C70.3609 119.509 70.2909 120.239 70.1209 120.979C69.9809 121.609 70.9009 122.049 71.3409 121.619C72.4709 120.479 73.8209 119.639 74.9009 118.449C75.1809 118.139 75.4509 117.819 75.7009 117.489C79.1209 115.359 82.4209 113.819 84.2809 110.009C84.2809 110.009 84.2809 109.989 84.2909 109.979C84.4609 110.349 84.6309 110.729 84.7209 111.139C85.0909 112.729 85.1009 114.499 84.6909 116.089C84.6509 116.249 84.6809 116.419 84.7509 116.559C84.6909 116.639 84.6709 116.749 84.7509 116.829C86.8709 118.909 93.6009 112.389 94.7609 110.969C96.8209 108.459 98.0809 105.319 98.8709 102.209C99.0109 101.669 99.1509 101.109 99.2609 100.549C99.2809 101.419 99.2409 102.289 99.1109 103.149C98.7509 105.539 97.6109 107.789 97.4009 110.169C97.3509 110.739 97.9909 111.269 98.5309 110.959C101.531 109.259 104.911 105.659 106.401 102.569C107.201 100.909 107.631 99.1893 107.851 97.4493C108.041 99.2893 108.151 101.139 108.301 102.929C107.921 103.369 107.911 104.069 108.441 104.419C108.511 104.469 108.591 104.519 108.671 104.559C109.221 104.879 110.121 104.589 110.161 103.919C112.681 101.609 114.201 98.3193 114.781 94.9193C116.581 91.5093 119.601 88.8793 121.881 85.7893C124.261 82.5693 125.681 78.3993 125.731 74.3993C125.791 70.6293 124.991 67.3393 123.091 64.2393C123.091 64.2193 123.091 64.1993 123.091 64.1793C122.581 57.7593 120.061 50.6293 115.531 45.5893C115.871 45.7093 116.201 45.8093 116.541 45.8293C117.851 45.9293 119.271 46.3893 120.461 45.6093C120.531 45.5593 120.561 45.4993 120.581 45.4193C120.891 45.2793 121.091 44.8393 120.801 44.5693C119.571 43.4193 118.211 42.4093 117.111 41.1293C115.801 39.6093 115.081 37.5293 113.951 35.8693C113.041 34.5393 111.471 32.7593 109.741 31.8993C109.891 31.8393 110.041 31.7793 110.191 31.7093C111.831 30.9993 113.591 30.2993 115.421 30.3793C116.511 30.4293 117.571 30.6193 118.641 30.3693C119.281 30.5493 119.881 29.8693 119.411 29.2593C115.451 24.1593 110.471 19.2193 104.471 16.6193C101.761 15.4393 98.8909 15.2293 95.9809 15.3193C96.3909 15.1593 96.8209 15.0093 97.2909 14.8893C98.2709 14.6293 99.1809 14.2393 100.201 14.1493C101.201 14.0593 102.211 14.2693 103.191 14.0393C103.291 14.0193 103.371 13.9693 103.431 13.8993C103.941 14.1893 104.471 13.4893 104.111 13.0193C100.961 8.78928 97.4209 5.89928 92.1809 4.65928C89.8409 4.10928 87.3909 3.94928 85.0309 4.40928C80.2609 1.55928 75.0609 0.239277 69.5109 1.39928C68.7609 1.55928 64.6609 2.43928 62.8409 3.76928C61.0309 2.44928 56.9209 1.55928 56.1709 1.39928C50.6209 0.229277 45.4309 1.55928 40.6509 4.40928C38.2909 3.93928 35.8409 4.10928 33.5009 4.65928C28.2609 5.88928 24.7109 8.77928 21.5709 13.0193C21.2209 13.4893 21.7409 14.1893 22.2509 13.8993C22.3109 13.9593 22.3909 14.0093 22.4909 14.0393C23.4609 14.2693 24.4709 14.0493 25.4809 14.1493C26.5009 14.2493 27.4109 14.6293 28.3909 14.8893C28.8609 15.0193 29.2909 15.1693 29.7009 15.3193C26.7909 15.2193 23.9209 15.4393 21.2109 16.6193C15.2209 19.2193 10.2309 24.1593 6.27088 29.2593C5.80088 29.8693 6.40088 30.5393 7.04088 30.3693C8.11088 30.6193 9.17088 30.4293 10.2609 30.3793C12.0909 30.2993 13.8509 30.9993 15.4909 31.7093C15.6409 31.7693 15.7909 31.8393 15.9409 31.8993C14.2109 32.7593 12.6409 34.5393 11.7309 35.8693C10.5909 37.5293 9.88088 39.6093 8.57088 41.1293C7.47088 42.4093 6.11088 43.4193 4.88088 44.5693C4.59088 44.8393 4.79088 45.2793 5.10088 45.4193C5.12088 45.4893 5.16088 45.5593 5.22088 45.6093C6.41088 46.3993 7.84088 45.9393 9.14088 45.8293C9.48088 45.7993 9.82088 45.7093 10.1509 45.5893C5.62088 50.6193 3.10088 57.7593 2.59088 64.1793C2.59088 64.1993 2.59088 64.2193 2.59088 64.2393C0.770878 67.3393 -0.0291217 70.6293 0.0208783 74.3993C0.0808783 78.3993 1.50088 82.5593 3.87088 85.7893C6.15088 88.8793 9.18088 91.5093 10.9809 94.9193C11.5609 98.3193 13.0809 101.599 15.6009 103.919C15.6409 104.589 16.5409 104.879 17.0909 104.559C17.1709 104.519 17.2509 104.469 17.3209 104.419C17.8509 104.069 17.8409 103.369 17.4609 102.929C17.6109 101.139 17.7109 99.2893 17.9009 97.4493C18.1209 99.1993 18.5609 100.909 19.3509 102.569C20.8309 105.659 24.2209 109.259 27.2209 110.959H27.2309Z" fill="url(#paint0_linear_57_303)"/>
<path d="M3.88088 85.7893C6.17088 88.8893 9.21088 91.5393 11.0109 94.9693C11.6009 98.3493 13.1009 101.609 15.6109 103.909C15.6509 104.579 16.5509 104.869 17.1009 104.549C17.1809 104.509 17.2609 104.459 17.3309 104.409C17.8609 104.059 17.8509 103.359 17.4709 102.919C17.6209 101.119 17.7309 99.2593 17.9209 97.4093C18.1409 99.1693 18.5709 100.889 19.3709 102.569C20.8509 105.659 24.2409 109.259 27.2409 110.959C27.7809 111.259 28.4209 110.739 28.3709 110.169C28.1609 107.789 27.0309 105.529 26.6609 103.149C26.5309 102.289 26.4909 101.419 26.5109 100.539C26.6309 101.109 26.7609 101.679 26.9009 102.219C27.7009 105.329 28.9609 108.469 31.0109 110.979C32.1809 112.399 38.9109 118.919 41.0209 116.839C41.1009 116.769 41.0709 116.659 41.0209 116.579C41.0909 116.439 41.1209 116.269 41.0809 116.109C40.6709 114.519 40.6809 112.749 41.0509 111.159C41.1509 110.749 41.3109 110.379 41.4809 110.009C41.4809 110.009 41.4809 110.029 41.4909 110.039C43.3609 113.849 46.6509 115.399 50.0709 117.519C50.3209 117.839 50.5909 118.159 50.8709 118.479C51.9509 119.669 53.3009 120.509 54.4309 121.649C54.8609 122.089 55.7909 121.649 55.6509 121.009C55.4109 119.939 55.3609 118.899 55.2209 117.849C55.4309 118.219 55.6709 118.559 55.9409 118.879C57.7409 120.969 60.4009 123.519 62.8409 124.809C62.8709 124.819 62.8909 124.829 62.9109 124.829C62.9209 124.829 62.9409 124.839 62.9509 124.839C62.9609 124.839 62.9809 124.839 62.9909 124.839C62.9909 124.839 63.0009 124.839 63.0109 124.839C63.1009 124.839 63.1709 124.799 63.2309 124.739C65.6509 123.429 68.5809 120.929 70.3609 118.869C70.3809 118.849 70.4009 118.819 70.4209 118.789C70.3509 119.519 70.2809 120.249 70.1109 120.999C69.9709 121.629 70.8909 122.069 71.3309 121.639C72.4609 120.499 73.8109 119.659 74.8909 118.469C75.1709 118.159 75.4409 117.839 75.6909 117.519C79.1109 115.389 82.4109 113.849 84.2709 110.039C84.2709 110.039 84.2709 110.019 84.2809 110.009C84.4509 110.379 84.6209 110.749 84.7109 111.159C85.0809 112.749 85.0909 114.519 84.6809 116.109C84.6409 116.279 84.6709 116.439 84.7409 116.579C84.6809 116.659 84.6609 116.769 84.7409 116.839C86.8609 118.919 93.5909 112.399 94.7509 110.979C96.8109 108.469 98.0709 105.329 98.8609 102.219C99.0009 101.679 99.1309 101.109 99.2509 100.539C99.2709 101.419 99.2309 102.289 99.1009 103.149C98.7409 105.539 97.6009 107.789 97.3909 110.169C97.3409 110.739 97.9809 111.269 98.5209 110.959C101.521 109.259 104.901 105.659 106.391 102.569C107.191 100.899 107.621 99.1693 107.841 97.4193C108.031 99.2693 108.141 101.129 108.291 102.929C107.911 103.369 107.901 104.079 108.431 104.419C108.501 104.469 108.581 104.519 108.661 104.559C109.211 104.879 110.111 104.589 110.151 103.919C112.661 101.619 114.161 98.3593 114.741 94.9793C116.541 91.5493 119.581 88.8993 121.871 85.7993C124.251 82.5793 125.671 78.4093 125.721 74.4093C125.781 70.6393 124.971 67.3493 123.081 64.2593C123.081 64.2393 123.081 64.2193 123.081 64.1993C122.571 57.7693 120.041 50.6393 115.501 45.6093C115.841 45.7393 116.191 45.8293 116.531 45.8593C117.841 45.9593 119.261 46.4193 120.451 45.6393C120.521 45.5893 120.551 45.5293 120.571 45.4493C120.881 45.3093 121.081 44.8693 120.791 44.5993C119.561 43.4493 118.201 42.4393 117.101 41.1593C115.791 39.6393 115.071 37.5593 113.941 35.8993C113.031 34.5693 111.461 32.7893 109.731 31.9293C109.881 31.8693 110.031 31.7993 110.181 31.7393C111.821 31.0293 113.581 30.3293 115.411 30.4093C116.491 30.4593 117.561 30.6393 118.621 30.3893C119.261 30.5793 119.871 29.8993 119.401 29.2893C115.441 24.1893 110.461 19.2493 104.461 16.6493C101.751 15.4693 98.8809 15.2493 95.9709 15.3493C96.3809 15.1893 96.8109 15.0393 97.2809 14.9193C98.2609 14.6593 99.1709 14.2693 100.191 14.1793C101.191 14.0893 102.201 14.2993 103.181 14.0693C103.281 14.0493 103.361 13.9893 103.421 13.9293C103.931 14.2293 104.461 13.5193 104.111 13.0493C100.961 8.81928 97.4209 5.92928 92.1809 4.68928C89.8409 4.13928 87.3909 3.97928 85.0309 4.43928C80.2609 1.58928 75.0709 0.269277 69.5109 1.42928C68.7609 1.58928 64.6509 2.47928 62.8409 3.80928C61.0309 2.47928 56.9209 1.58928 56.1709 1.42928C50.6209 0.259277 45.4309 1.58928 40.6509 4.43928C38.2909 3.96928 35.8409 4.13928 33.5009 4.68928C28.2609 5.91928 24.7109 8.80928 21.5709 13.0493C21.2209 13.5293 21.7509 14.2293 22.2609 13.9293C22.3209 13.9893 22.3909 14.0493 22.5009 14.0693C23.4709 14.2993 24.4809 14.0793 25.4909 14.1793C26.5109 14.2793 27.4209 14.6593 28.4009 14.9193C28.8709 15.0493 29.3009 15.1993 29.7109 15.3493C26.8009 15.2493 23.9309 15.4693 21.2209 16.6493C15.2309 19.2493 10.2409 24.1893 6.28088 29.2893C5.81088 29.8993 6.42088 30.5793 7.06088 30.3893C8.12088 30.6393 9.19088 30.4493 10.2709 30.4093C12.1009 30.3293 13.8609 31.0293 15.5009 31.7393C15.6509 31.7993 15.8009 31.8693 15.9509 31.9293C14.2209 32.7893 12.6509 34.5693 11.7409 35.8993C10.6009 37.5593 9.89088 39.6393 8.58088 41.1593C7.48088 42.4393 6.12088 43.4493 4.89088 44.5993C4.60088 44.8693 4.80088 45.3093 5.11088 45.4493C5.13088 45.5193 5.16088 45.5893 5.23088 45.6393C6.42088 46.4293 7.85088 45.9693 9.15088 45.8593C9.50088 45.8293 9.84088 45.7393 10.1809 45.6093C5.64088 50.6393 3.11088 57.7793 2.60088 64.1993C2.60088 64.2193 2.60088 64.2393 2.60088 64.2593C0.770878 67.3393 -0.0291217 70.6293 0.0208783 74.3993C0.0808783 78.3993 1.50088 82.5593 3.87088 85.7893H3.88088ZM78.0709 113.679C79.4109 110.869 79.6709 107.299 78.4509 104.469C78.3609 104.259 78.0509 104.369 78.0809 104.589C78.8609 110.579 76.1309 115.179 72.0809 119.009C72.0909 118.189 71.9409 117.359 71.7009 116.489C72.4909 114.179 72.3709 111.409 71.8109 109.269C71.7509 109.039 71.4209 109.099 71.4509 109.329C71.9709 113.479 70.4209 116.879 67.3409 119.609C66.0209 120.779 63.9409 121.449 63.1609 123.019C62.3909 121.449 60.3009 120.779 58.9809 119.609C55.9009 116.879 54.3609 113.479 54.8809 109.329C54.9109 109.099 54.5809 109.039 54.5209 109.269C54.0009 111.249 53.8709 113.759 54.4709 115.959C54.3209 115.999 54.1809 116.099 54.1409 116.259C53.8609 117.219 53.6809 118.119 53.7009 119.009C49.6509 115.179 46.9209 110.579 47.7009 104.589C47.7309 104.379 47.4209 104.259 47.3309 104.469C46.1109 107.299 46.3709 110.869 47.7109 113.679C46.2009 112.599 44.6609 111.559 43.5909 109.899C41.1709 106.159 41.4509 102.169 42.0709 97.9593C42.1209 97.6293 41.6409 97.5493 41.5609 97.8693C41.1309 99.7093 40.6809 101.719 40.5309 103.719C40.1309 102.449 39.8209 101.169 39.7809 99.8893C39.6709 96.5993 40.0309 93.4993 41.1109 90.3993C41.9209 88.0493 43.1909 85.4993 43.5009 83.0193C43.6209 82.0493 43.5909 81.2593 43.4609 80.4793C43.8709 80.9293 44.2709 81.3893 44.6609 81.8493C44.6909 82.2293 44.7009 82.5993 44.6809 82.9293C44.4709 86.3493 46.1809 91.0293 48.7909 93.3193C49.3309 93.7893 49.9609 94.2293 50.6409 94.6093C49.8509 97.7793 49.8109 101.449 52.4009 103.909C53.8609 105.289 55.8409 106.229 57.8609 106.249C59.3209 106.249 61.5409 106.449 62.9009 105.639C64.2609 106.449 66.4709 106.259 67.9409 106.249C69.9609 106.239 71.9409 105.289 73.4009 103.909C76.0009 101.459 75.9609 97.7893 75.1609 94.6093C75.8409 94.2293 76.4709 93.7893 77.0009 93.3193C79.6109 91.0293 81.3209 86.3393 81.1109 82.9293C81.0909 82.5893 81.1109 82.2293 81.1309 81.8493C81.5209 81.3893 81.9209 80.9293 82.3309 80.4793C82.2009 81.2493 82.1709 82.0493 82.2909 83.0193C82.5909 85.4993 83.8609 88.0493 84.6809 90.3993C85.7509 93.5093 86.1209 96.6093 86.0109 99.8893C85.9709 101.159 85.6609 102.449 85.2609 103.719C85.1009 101.709 84.6509 99.7093 84.2309 97.8693C84.1509 97.5493 83.6809 97.6293 83.7209 97.9593C84.3409 102.179 84.6209 106.159 82.2009 109.899C81.1309 111.559 79.5909 112.599 78.0709 113.679ZM62.8909 27.0893C64.9809 27.2893 67.0109 27.0593 69.1509 27.5993C72.3109 28.3893 74.9809 29.7093 77.6209 31.6293C80.2809 33.5593 82.0309 36.1193 83.3609 39.0793C84.7509 42.1793 86.1409 44.8593 88.1809 47.5893C90.3309 50.4593 92.3209 53.2593 93.1909 56.8093C94.1709 60.7693 92.5309 64.6393 90.6309 68.0393C89.1909 70.6193 86.6909 72.6793 84.6009 74.7193C83.4709 75.8193 82.5609 76.8693 81.8109 78.0193C81.8409 77.8893 81.8709 77.7593 81.9009 77.6393C82.4209 75.4893 83.1109 73.3593 83.3809 71.1593C83.4109 70.9393 83.0709 70.8593 83.0009 71.0793C82.0509 74.2193 80.7609 77.2793 79.8909 80.4693C79.1709 83.0893 78.6609 85.8593 77.5409 88.4093C76.8609 89.9693 75.5409 91.5593 74.1209 92.4693C73.2109 93.0493 70.8309 94.0093 69.7409 93.5093C68.8409 93.0993 67.8209 93.0893 66.8909 92.6393C65.3909 91.9193 64.6409 90.3193 63.8009 88.9193C64.1409 88.7093 64.4009 88.3393 64.7009 88.0493C65.3009 87.4793 65.8909 86.9093 66.4009 86.2593C67.1409 85.3093 67.7109 84.0893 68.2209 82.9093C70.5509 82.7293 72.4609 80.4893 73.5609 78.5593C75.0909 75.8793 73.2009 71.4893 72.4609 68.8693C71.2909 64.7193 69.9309 61.2093 69.9809 56.7793C70.0009 55.1693 70.0609 53.5393 70.1509 51.9093C71.1109 49.2993 72.3409 46.9593 74.5509 45.0993C76.1709 43.7293 78.1409 43.4793 80.1109 44.1393C82.1909 44.8393 82.6809 46.8793 82.6709 48.8093C81.4009 47.9493 79.2009 48.0793 78.1109 48.9593C77.1809 49.7193 76.3909 50.6793 76.1209 51.8693C75.8109 53.2493 76.3109 55.0093 75.8009 56.2793C75.7209 56.4693 76.0009 56.6093 76.1209 56.4493C76.2109 56.3193 76.3009 56.1793 76.3709 56.0393L76.4509 56.0893C76.5209 56.1293 76.6209 56.1293 76.6709 56.0493C76.7709 55.8893 76.7609 56.1093 77.0809 56.1393C77.5409 56.1793 77.8909 55.8193 78.3409 55.8393C79.5309 55.8793 80.5809 55.7793 81.6109 55.1193C82.4509 54.5893 83.1409 53.5893 83.5309 52.6893C83.7909 52.0693 83.8609 51.2393 83.7709 50.4693C86.4209 46.2493 82.4909 41.8493 78.0309 41.7293C74.3809 41.6393 71.7009 44.8393 70.4409 48.2993C70.6009 46.5993 70.7809 44.9093 71.0409 43.2393C71.0709 43.0293 70.7609 42.9693 70.6909 43.1593C68.3409 49.2293 68.2309 56.5793 69.0209 62.9593C69.4409 66.4093 72.0109 71.8193 71.9209 76.0593C69.9809 74.4393 65.3109 74.8093 62.8909 75.5193C60.4709 74.8093 55.8009 74.4393 53.8609 76.0593C53.7709 71.8193 56.3309 66.4093 56.7609 62.9593C57.5509 56.5793 57.4409 49.2193 55.0909 43.1593C55.0209 42.9693 54.7109 43.0293 54.7409 43.2393C55.0009 44.9093 55.1909 46.5993 55.3409 48.2893C54.0809 44.8293 51.4009 41.6293 47.7509 41.7193C43.2909 41.8293 39.3609 46.2393 42.0109 50.4593C41.9109 51.2193 41.9809 52.0493 42.2509 52.6693C42.6309 53.5793 43.3309 54.5693 44.1709 55.0993C45.2009 55.7593 46.2509 55.8593 47.4409 55.8193C47.8809 55.7993 48.2409 56.1693 48.7009 56.1193C49.0209 56.0893 49.0109 55.8593 49.1109 56.0293C49.1609 56.1093 49.2609 56.1093 49.3309 56.0693L49.4109 56.0193C49.4809 56.1593 49.5709 56.2893 49.6609 56.4193C49.7809 56.5793 50.0609 56.4493 49.9809 56.2493C49.4709 54.9793 49.9709 53.2193 49.6609 51.8393C49.3909 50.6493 48.6009 49.6893 47.6709 48.9293C46.5809 48.0493 44.3809 47.9193 43.1109 48.7793C43.1009 46.8493 43.5809 44.8093 45.6709 44.1093C47.6409 43.4493 49.6209 43.7093 51.2309 45.0693C53.4309 46.9293 54.6709 49.2693 55.6309 51.8793C55.7209 53.5093 55.7809 55.1393 55.8009 56.7493C55.8509 61.1793 54.4909 64.6893 53.3209 68.8393C52.5809 71.4593 50.6909 75.8493 52.2209 78.5293C53.3209 80.4593 55.2309 82.6993 57.5609 82.8793C58.0709 84.0593 58.6409 85.2793 59.3809 86.2293C59.8909 86.8893 60.4809 87.4493 61.0809 88.0193C61.3909 88.3093 61.6409 88.6693 61.9809 88.8893C61.1409 90.2893 60.3909 91.8893 58.8909 92.6093C57.9509 93.0593 56.9309 93.0693 56.0409 93.4793C54.9509 93.9793 52.5709 93.0093 51.6609 92.4393C50.2409 91.5393 48.9209 89.9393 48.2409 88.3793C47.1209 85.8393 46.6209 83.0693 45.8909 80.4393C45.0109 77.2493 43.7309 74.1893 42.7809 71.0493C42.7109 70.8293 42.3709 70.9193 42.4009 71.1293C42.6609 73.3293 43.3609 75.4593 43.8809 77.6093C43.9109 77.7293 43.9409 77.8593 43.9709 77.9893C43.2109 76.8393 42.3109 75.7893 41.1809 74.6893C39.0909 72.6493 36.5909 70.5893 35.1509 68.0093C33.2609 64.6093 31.6209 60.7493 32.5909 56.7793C33.4609 53.2393 35.4509 50.4393 37.6009 47.5593C39.6509 44.8293 41.0309 42.1493 42.4209 39.0493C43.7509 36.0893 45.5009 33.5293 48.1609 31.5993C50.8009 29.6793 53.4709 28.3693 56.6309 27.5693C58.7709 27.0293 60.8109 27.2593 62.8909 27.0593V27.0893ZM72.3909 102.139C70.9509 104.219 68.0909 104.469 65.8209 104.329C64.8209 104.269 63.8409 104.089 62.8809 104.349C61.9209 104.089 60.9409 104.269 59.9409 104.329C57.6709 104.469 54.8209 104.219 53.3709 102.139C51.7809 99.8493 52.1409 97.7693 52.3909 95.4193C54.2609 96.0893 56.3209 96.2893 58.0709 95.6593C60.1409 94.9093 61.9609 93.5693 62.8809 91.7393C63.8009 93.5793 65.6209 94.9193 67.6909 95.6593C69.4409 96.2893 71.5009 96.0893 73.3709 95.4193C73.6209 97.7693 73.9809 99.8493 72.3909 102.139ZM57.8309 80.8293C57.6709 80.6693 57.5109 80.5193 57.3509 80.3693C57.0909 80.1293 55.7909 78.7993 56.8609 79.3493C57.6109 79.7293 58.4709 80.2793 58.7309 81.1193C58.7909 81.3193 58.8209 81.5193 58.8609 81.7193C58.5909 81.3293 58.2509 81.0193 57.8309 80.8193V80.8293ZM59.9909 80.6593C59.5009 79.3693 58.2209 78.2093 56.8609 77.8493C55.5709 77.5093 54.5909 78.7493 55.2809 79.9293C55.4909 80.2793 55.7509 80.5493 56.0309 80.8093C55.2909 80.2593 54.7709 79.5893 54.4309 78.8393C55.7109 75.9093 58.8709 76.0293 61.7309 76.4193C61.8009 76.5893 61.9709 76.7193 62.2009 76.6893C62.4209 76.6593 62.6509 76.6193 62.8809 76.5893C63.1109 76.6293 63.3409 76.6593 63.5609 76.6893C63.7909 76.7193 63.9609 76.5893 64.0309 76.4193C66.8909 76.0293 70.0509 75.9093 71.3309 78.8393C70.9809 79.5993 70.4609 80.2693 69.7209 80.8193C70.0009 80.5693 70.2709 80.2893 70.4809 79.9293C71.1709 78.7593 70.2009 77.5193 68.9009 77.8493C67.5409 78.2093 66.2609 79.3593 65.7709 80.6593C65.5609 81.2093 65.3209 83.1893 65.8109 84.0593C65.7909 84.1193 65.7609 84.1793 65.7409 84.2293C65.3009 85.2293 64.6009 85.8693 63.9209 86.6893C63.6109 87.0593 63.1809 87.4893 62.9609 87.9693C62.9309 87.9693 62.9109 87.9693 62.8809 87.9693C62.8809 87.9693 62.8309 87.9693 62.8009 87.9693C62.5809 87.4893 62.1609 87.0593 61.8409 86.6893C61.1609 85.8693 60.4609 85.2293 60.0209 84.2293C60.0009 84.1793 59.9709 84.1093 59.9509 84.0593C60.4409 83.1893 60.2009 81.2093 59.9909 80.6593ZM68.4209 80.3693C68.2609 80.5193 68.1009 80.6693 67.9409 80.8293C67.5109 81.0293 67.1709 81.3393 66.9009 81.7293C66.9409 81.5293 66.9609 81.3293 67.0309 81.1193C67.3009 80.2793 68.1609 79.7293 68.9109 79.3493C69.9809 78.7993 68.6809 80.1293 68.4209 80.3693ZM82.0409 51.1393C82.1209 52.2593 81.7309 53.1793 80.9009 53.9993C80.3109 54.5793 79.2209 54.8893 78.4309 54.9193C77.7709 54.9393 77.2509 55.2893 76.6209 55.4793C76.9709 54.5293 77.0509 53.4693 77.3309 52.4993C77.9109 50.5393 80.3609 49.0793 82.0309 50.6093C82.0209 50.7793 82.0109 50.9593 82.0309 51.1493L82.0409 51.1393ZM43.7209 50.5993C45.4009 49.0693 47.8409 50.5393 48.4209 52.4993C48.7109 53.4693 48.7809 54.5293 49.1309 55.4793C48.5109 55.2993 47.9809 54.9493 47.3309 54.9193C46.5409 54.8893 45.4509 54.5793 44.8609 53.9993C44.0309 53.1793 43.6409 52.2593 43.7209 51.1393C43.7309 50.9493 43.7309 50.7693 43.7209 50.5993ZM9.29088 49.8493C11.6509 45.9893 15.0509 43.0893 18.5409 40.3093C18.6909 40.1893 18.5709 39.9493 18.3909 40.0193C15.9809 40.8593 13.8509 42.1693 11.9909 43.8193C11.1709 44.0793 10.3709 44.3893 9.53088 44.5993C8.62088 44.8293 7.73088 44.7393 6.83088 44.6993C11.5309 41.6393 12.6809 35.4793 17.6709 32.5293C18.3709 32.7493 19.0909 32.9193 19.8109 32.9893C19.2909 34.7593 19.1509 36.6293 19.5709 38.4993C19.8209 39.6593 20.7009 41.1493 21.8309 42.2793C21.7609 42.2793 21.6909 42.2793 21.6209 42.2793C20.9509 42.2393 20.5209 42.8493 20.8709 43.4593C21.7909 45.0593 24.8809 44.8293 26.3709 44.2493C29.0209 43.2093 30.7409 41.4293 32.5409 39.2893C34.8909 36.4893 36.3809 32.9693 39.0109 30.4393C41.9209 27.6393 44.6409 25.7893 48.5109 24.5793C48.7109 24.5093 48.6009 24.2093 48.3909 24.2693C45.4309 25.1693 42.6209 26.5093 40.1409 28.3093C39.5409 26.0993 35.4709 24.5993 33.6409 24.2393C30.0709 23.5193 25.6509 24.4993 23.1409 27.2593C22.0409 28.4693 21.1009 29.8493 20.4409 31.3393C16.6309 30.8193 13.2909 28.4593 9.53088 28.8193C14.0109 25.3293 17.1109 20.0493 22.6709 17.9093C28.1209 15.8093 34.0509 16.9593 39.7309 16.1393C39.8109 16.1293 39.8009 16.0193 39.7209 16.0193C37.6309 16.0093 35.4909 15.7793 33.3309 15.5893C30.4909 14.0993 27.0709 12.1093 23.8009 12.7593C27.5009 9.73928 30.7409 6.95928 35.8809 6.26928C39.2109 5.81928 41.8009 6.30928 44.9809 7.31928C46.5009 7.79928 48.0309 8.07928 49.6209 8.07928C49.8109 8.07928 49.8209 7.77928 49.6309 7.74928C47.3009 7.42928 45.2909 6.12928 43.1409 5.21928C45.8009 4.27928 48.3809 2.98928 51.2609 3.01928C54.2309 3.03928 60.0209 3.12928 62.2209 5.64928C62.2809 5.73928 62.3509 5.81928 62.4509 5.87928C62.5909 5.97928 62.7409 5.99928 62.8809 5.99928C63.0309 5.99928 63.1709 5.97928 63.3209 5.87928C63.4209 5.80928 63.4909 5.72928 63.5509 5.63928C65.7509 3.11928 71.5409 3.03928 74.5109 3.01928C77.4009 2.99928 79.9809 4.27928 82.6309 5.21928C80.4809 6.12928 78.4709 7.42928 76.1409 7.74928C75.9609 7.77928 75.9609 8.07928 76.1509 8.07928C77.7509 8.07928 79.2709 7.79928 80.7909 7.31928C83.9709 6.30928 86.5609 5.81928 89.8909 6.26928C95.0309 6.95928 98.2609 9.73928 101.971 12.7593C98.7009 12.1093 95.2809 14.0993 92.4409 15.5893C90.2909 15.7793 88.1409 16.0093 86.0509 16.0193C85.9709 16.0193 85.9609 16.1293 86.0409 16.1393C91.7209 16.9593 97.6509 15.8093 103.101 17.9093C108.661 20.0493 111.761 25.3293 116.241 28.8193C112.481 28.4493 109.141 30.8093 105.331 31.3393C104.661 29.8593 103.731 28.4793 102.631 27.2593C100.121 24.4993 95.7109 23.5193 92.1309 24.2393C90.3009 24.6093 86.2309 26.0993 85.6309 28.3193C83.1509 26.5293 80.3409 25.1793 77.3709 24.2793C77.1609 24.2193 77.0509 24.5293 77.2609 24.5893C81.1309 25.8093 83.8509 27.6593 86.7609 30.4493C89.4009 32.9793 90.8909 36.4993 93.2309 39.2993C95.0209 41.4293 96.7409 43.2093 99.4009 44.2593C100.891 44.8493 103.981 45.0693 104.901 43.4693C105.251 42.8693 104.821 42.2593 104.151 42.2893C104.081 42.2893 104.011 42.2893 103.941 42.2893C105.071 41.1593 105.941 39.6593 106.201 38.5093C106.611 36.6293 106.481 34.7593 105.961 32.9993C106.681 32.9293 107.401 32.7693 108.101 32.5393C113.101 35.4893 114.241 41.6493 118.941 44.7093C118.041 44.7493 117.161 44.8393 116.241 44.6093C115.401 44.3993 114.601 44.0893 113.781 43.8293C111.921 42.1793 109.791 40.8593 107.381 40.0193C107.191 39.9593 107.081 40.1893 107.221 40.3093C110.711 43.0893 114.111 45.9993 116.471 49.8493C117.741 51.9193 118.941 53.9493 119.881 56.1993C120.611 57.9493 120.971 59.8693 121.341 61.7693C118.581 58.3593 115.151 55.6493 112.161 52.4393C112.051 52.3293 111.881 52.4693 111.981 52.5993C114.301 55.8293 117.331 58.4293 119.631 61.6693C122.661 65.9593 123.921 70.7293 123.531 75.9593C123.211 80.2693 120.661 84.2893 117.871 87.4193C116.741 88.6793 115.811 89.8793 115.051 91.1393C115.041 90.7493 115.041 90.3493 115.001 89.9693C114.311 82.7693 111.101 76.2493 109.831 69.1893C109.781 68.8993 109.351 68.9793 109.391 69.2693C110.711 79.3993 117.211 91.9493 109.971 101.109C110.181 97.8793 109.601 94.4193 108.631 91.4293C107.351 87.4593 103.591 83.7993 101.281 80.4093C101.251 80.3593 101.181 80.4093 101.211 80.4593C102.991 83.8593 105.041 87.0693 106.421 90.6593C106.591 91.1193 106.751 91.5793 106.891 92.0493C106.551 94.8793 106.281 97.7493 105.351 100.449C104.711 102.319 103.261 103.709 102.131 105.279C101.401 106.279 100.521 107.439 99.5209 108.359C100.021 106.709 100.621 105.109 100.721 103.309C100.871 100.779 100.481 98.3793 99.9709 95.8993C99.3909 93.0693 98.4709 90.3293 97.8109 87.5293C97.1609 84.7693 96.3309 81.7893 96.7009 78.9593C96.7609 78.4793 96.0309 78.4093 95.9509 78.8893C95.2109 83.3093 96.8709 88.0493 97.9809 92.4393C97.5109 94.3093 97.5609 98.2593 97.2209 100.009C96.6309 103.039 95.6709 105.829 94.0809 108.479C92.2709 111.479 89.2209 113.059 86.5809 115.049C86.8409 114.259 86.9609 113.439 86.8709 112.449C86.7009 110.629 85.9509 109.519 85.0309 108.079C87.6909 103.959 88.2209 99.6193 87.7709 94.6493C87.5209 91.9493 86.5609 89.3793 85.6109 86.8593C85.0909 85.4793 84.4309 84.1393 84.0209 82.7093C83.6109 81.3093 84.0009 79.9693 84.1109 78.5993C87.6909 74.9393 91.5509 71.4893 93.7409 66.8293C97.0109 59.8793 95.5009 53.6593 91.0409 47.6493C89.7909 45.9593 88.4709 44.3293 87.3709 42.5293C86.3609 40.8593 85.7709 38.9993 84.9709 37.2393C83.6109 34.2293 81.4709 31.8493 78.8909 29.8193C74.4509 26.3193 68.4609 24.8293 62.8909 25.5193C57.3309 24.8293 51.3409 26.3093 46.8909 29.8193C44.3109 31.8493 42.1709 34.2293 40.8109 37.2393C40.0109 39.0093 39.4209 40.8693 38.4109 42.5293C37.3209 44.3293 35.9909 45.9693 34.7409 47.6493C30.2809 53.6593 28.7709 59.8793 32.0409 66.8293C34.2309 71.4793 38.0909 74.9393 41.6709 78.5893C41.7809 79.9593 42.1709 81.2993 41.7609 82.6993C41.3509 84.1293 40.6909 85.4593 40.1709 86.8493C39.2209 89.3693 38.2509 91.9293 38.0109 94.6393C37.5609 99.6093 38.0909 103.939 40.7509 108.069C39.8409 109.509 39.0809 110.619 38.9109 112.439C38.8209 113.429 38.9309 114.239 39.2009 115.039C36.5609 113.049 33.5109 111.469 31.7009 108.469C30.1109 105.819 29.1509 103.029 28.5609 99.9993C28.2209 98.2493 28.2609 94.3093 27.8009 92.4293C28.9209 88.0393 30.5809 83.2993 29.8409 78.8793C29.7609 78.3993 29.0309 78.4693 29.0909 78.9493C29.4609 81.7793 28.6309 84.7493 27.9809 87.5193C27.3209 90.3193 26.4009 93.0593 25.8209 95.8893C25.3109 98.3793 24.9209 100.769 25.0709 103.299C25.1809 105.099 25.7709 106.699 26.2709 108.349C25.2609 107.429 24.3809 106.269 23.6609 105.269C22.5309 103.699 21.0709 102.309 20.4309 100.439C19.5109 97.7393 19.2309 94.8693 18.8909 92.0393C19.0309 91.5693 19.1809 91.0993 19.3609 90.6493C20.7409 87.0593 22.7809 83.8493 24.5709 80.4493C24.5909 80.3993 24.5209 80.3593 24.5009 80.3993C22.1909 83.7893 18.4309 87.4493 17.1509 91.4193C16.1909 94.4193 15.6109 97.8693 15.8109 101.099C8.57088 91.9393 15.0709 79.3893 16.4009 69.2593C16.4409 68.9693 16.0109 68.8893 15.9509 69.1793C14.6909 76.2393 11.4809 82.7593 10.7809 89.9593C10.7409 90.3493 10.7409 90.7393 10.7309 91.1293C9.97088 89.8593 9.03088 88.6693 7.91088 87.4093C5.12088 84.2793 2.57088 80.2593 2.25088 75.9493C1.86088 70.7193 3.12088 65.9493 6.15088 61.6593C8.45088 58.4093 11.4809 55.8193 13.8009 52.5893C13.8909 52.4593 13.7209 52.3193 13.6209 52.4293C10.6309 55.6393 7.19088 58.3493 4.44088 61.7593C4.81088 59.8593 5.18088 57.9393 5.90088 56.1893C6.83088 53.9493 8.04088 51.9093 9.31088 49.8393L9.29088 49.8493ZM28.0309 41.0693C27.8609 40.6993 27.7009 40.2293 27.6009 39.9593C27.3809 39.3493 27.5109 38.8893 27.7909 38.3593C28.2209 37.5393 28.8709 36.7093 29.7609 36.3593C30.6209 36.0193 31.6709 36.0293 32.5709 36.2493C32.6209 36.2593 32.6709 36.2693 32.7209 36.2793C31.6609 37.6093 30.5509 38.9093 29.3109 40.1093C28.9109 40.4993 28.4809 40.7993 28.0409 41.0693H28.0309ZM33.6409 35.0993C31.8909 33.7593 28.9109 34.4593 27.4709 35.8893C25.8009 37.5493 25.2609 39.7993 26.3609 41.8393C25.8309 42.0093 25.2909 42.1293 24.7409 42.2093C23.0709 40.7693 21.3609 39.4193 21.3609 36.8593C21.3609 33.6893 22.4009 30.2593 24.9909 28.1693C27.2009 26.3893 30.4509 25.3593 33.3309 26.0293C34.9809 26.4093 38.2409 27.2993 39.2509 28.9593C37.7609 30.1393 36.4109 31.4893 35.2309 33.0293C34.7009 33.7193 34.1809 34.4193 33.6509 35.0993H33.6409ZM101.031 42.1993C100.471 42.1293 99.9309 41.9993 99.4109 41.8293C100.511 39.7893 99.9709 37.5493 98.3009 35.8793C96.8609 34.4493 93.8809 33.7493 92.1309 35.0893C91.6009 34.3993 91.0709 33.7093 90.5509 33.0193C89.3809 31.4793 88.0209 30.1293 86.5309 28.9493C87.5409 27.2893 90.8109 26.3993 92.4509 26.0093C95.3309 25.3393 98.5809 26.3693 100.791 28.1493C103.371 30.2393 104.421 33.6593 104.411 36.8393C104.411 39.3993 102.701 40.7493 101.031 42.1893V42.1993ZM98.1709 39.9593C98.0709 40.2293 97.9109 40.6993 97.7409 41.0693C97.3009 40.7993 96.8709 40.4993 96.4709 40.1093C95.2309 38.9093 94.1209 37.6193 93.0609 36.2793C93.1109 36.2793 93.1609 36.2693 93.2109 36.2493C94.1109 36.0293 95.1509 36.0193 96.0209 36.3593C96.9109 36.7093 97.5609 37.5393 97.9909 38.3593C98.2709 38.8893 98.4009 39.3493 98.1809 39.9593H98.1709Z" fill="#897EB3"/>
</g>
<defs>
<linearGradient id="paint0_linear_57_303" x1="0.0208783" y1="62.9293" x2="125.771" y2="62.9293" gradientUnits="userSpaceOnUse">
<stop stop-color="#C0CBD8"/>
<stop offset="0.54" stop-color="white"/>
<stop offset="0.87" stop-color="white"/>
<stop offset="0.99" stop-color="#C0CBD8"/>
</linearGradient>
</defs>
</svg>
