<svg width="133" height="125" viewBox="0 0 133 125" fill="none" xmlns="http://www.w3.org/2000/svg">
<g id="8">
<path d="M46.9909 112.499C47.3509 111.919 47.8309 111.139 47.7009 110.589C47.4909 109.739 46.1409 110.709 45.8409 110.889C45.7209 110.959 45.6009 111.029 45.4609 111.099C45.0109 110.659 44.5009 110.249 43.9509 110.129C43.8209 110.099 43.6909 110.229 43.6909 110.349C43.6609 110.839 43.7509 111.359 43.8609 111.869C43.2909 112.159 42.7509 112.489 42.3709 112.929C42.3209 112.989 42.3109 113.109 42.3509 113.179C42.7109 113.769 43.5609 113.789 44.1609 113.869C44.1909 113.869 44.2309 113.869 44.2609 113.869C44.2609 113.869 44.2609 113.889 44.2609 113.899C44.2609 114.039 44.2809 114.169 44.2809 114.299C44.2809 114.779 44.2109 115.619 44.6409 115.939C44.7209 115.999 44.8609 116.019 44.9509 115.969C45.2709 115.769 45.4209 115.569 45.5809 115.239C45.7809 114.839 45.9709 114.439 46.1609 114.039C46.7609 114.089 47.3609 114.149 47.9409 114.269C48.0709 114.299 48.2109 114.139 48.1809 114.009C48.0309 113.459 47.5009 112.959 46.9809 112.509L46.9909 112.499Z" fill="url(#paint0_linear_57_386)"/>
<path d="M14.7209 75.8093C15.0209 75.3293 15.4109 74.6793 15.3109 74.2293C15.1409 73.5293 14.0209 74.3293 13.7709 74.4793C13.6709 74.5393 13.5709 74.5993 13.4609 74.6493C13.0809 74.2893 12.6609 73.9393 12.2109 73.8493C12.1109 73.8193 12.0009 73.9293 11.9909 74.0293C11.9609 74.4293 12.0409 74.8693 12.1309 75.2893C11.6609 75.5293 11.2109 75.7993 10.9009 76.1593C10.8609 76.2093 10.8509 76.3093 10.8809 76.3593C11.1709 76.8393 11.8809 76.8693 12.3809 76.9293C12.4109 76.9293 12.4409 76.9293 12.4709 76.9293V76.9493C12.4709 77.0593 12.4809 77.1693 12.4809 77.2793C12.4809 77.6793 12.4309 78.3693 12.7809 78.6293C12.8509 78.6793 12.9609 78.6993 13.0409 78.6493C13.3009 78.4893 13.4309 78.3193 13.5609 78.0493C13.7209 77.7193 13.8809 77.3893 14.0409 77.0593C14.5409 77.0993 15.0309 77.1493 15.5109 77.2493C15.6209 77.2693 15.7309 77.1393 15.7009 77.0393C15.5809 76.5793 15.1409 76.1693 14.7109 75.7993L14.7209 75.8093Z" fill="url(#paint1_linear_57_386)"/>
<path d="M99.4409 98.9593C99.7409 98.4793 100.141 97.8393 100.031 97.3793C99.8609 96.6793 98.7409 97.4793 98.4909 97.6293C98.3909 97.6893 98.2909 97.7493 98.1809 97.7993C97.8109 97.4393 97.3909 97.0993 96.9409 96.9993C96.8409 96.9793 96.7309 97.0793 96.7209 97.1793C96.7009 97.5793 96.7709 98.0193 96.8609 98.4393C96.3909 98.6793 95.9409 98.9493 95.6309 99.3093C95.5909 99.3593 95.5809 99.4593 95.6109 99.5193C95.9009 99.9993 96.6109 100.029 97.1109 100.089C97.1409 100.089 97.1709 100.089 97.1909 100.089V100.109C97.1909 100.219 97.2009 100.329 97.2009 100.439C97.2009 100.839 97.1409 101.529 97.5009 101.789C97.5709 101.839 97.6809 101.859 97.7609 101.809C98.0209 101.639 98.1509 101.479 98.2809 101.209C98.4409 100.879 98.6009 100.549 98.7609 100.219C99.2609 100.259 99.7509 100.309 100.231 100.409C100.341 100.429 100.451 100.299 100.431 100.199C100.301 99.7493 99.8709 99.3293 99.4409 98.9593Z" fill="url(#paint2_linear_57_386)"/>
<path d="M44.6209 15.0393C44.9209 14.5593 45.3109 13.9093 45.2109 13.4593C45.0409 12.7593 43.9209 13.5593 43.6709 13.7093C43.5709 13.7693 43.4709 13.8293 43.3609 13.8793C42.9809 13.5193 42.5609 13.1793 42.1109 13.0793C42.0109 13.0593 41.9009 13.1593 41.8909 13.2593C41.8709 13.6593 41.9409 14.0993 42.0309 14.5193C41.5609 14.7593 41.1109 15.0293 40.8009 15.3893C40.7509 15.4393 40.7509 15.5393 40.7809 15.5993C41.0709 16.0793 41.7809 16.1093 42.2809 16.1693C42.3109 16.1693 42.3409 16.1693 42.3709 16.1693V16.1893C42.3709 16.2993 42.3809 16.4093 42.3809 16.5193C42.3809 16.9193 42.3309 17.6093 42.6809 17.8693C42.7509 17.9193 42.8609 17.9393 42.9409 17.8893C43.2109 17.7293 43.3309 17.5593 43.4609 17.2893C43.6209 16.9593 43.7809 16.6293 43.9409 16.2993C44.4409 16.3393 44.9309 16.3893 45.4209 16.4893C45.5309 16.5093 45.6409 16.3893 45.6109 16.2793C45.4909 15.8193 45.0509 15.4093 44.6209 15.0393Z" fill="url(#paint3_linear_57_386)"/>
<path d="M91.8709 19.7693C92.6409 19.5793 93.6909 19.3193 94.0309 18.7493C94.5609 17.8793 92.6309 17.5793 92.2309 17.4793C92.0709 17.4393 91.9109 17.3893 91.7509 17.3393C91.7309 16.6093 91.6509 15.8493 91.2909 15.2993C91.2109 15.1693 91.0009 15.1693 90.8909 15.2693C90.4709 15.6493 90.1109 16.1693 89.7909 16.6793C89.0709 16.4493 88.3609 16.2893 87.6909 16.3393C87.6009 16.3393 87.4909 16.4393 87.4709 16.5293C87.2909 17.3093 87.9809 18.0293 88.4209 18.5793C88.4409 18.6093 88.4709 18.6393 88.4909 18.6693C88.4909 18.6693 88.4909 18.6893 88.4809 18.6893C88.3809 18.8093 88.2709 18.9293 88.1709 19.0393C87.7809 19.4393 87.0309 20.0793 87.1309 20.6993C87.1509 20.8193 87.2509 20.9493 87.3709 20.9693C87.8009 21.0693 88.0809 21.0193 88.4909 20.8793C88.9809 20.6993 89.4709 20.5193 89.9609 20.3493C90.4209 20.8793 90.8709 21.4193 91.2609 21.9993C91.3509 22.1293 91.5909 22.1193 91.6609 21.9793C91.9809 21.3993 91.9609 20.5493 91.8809 19.7493L91.8709 19.7693Z" fill="url(#paint4_linear_57_386)"/>
<path d="M112.391 39.7493C113.161 39.5593 114.211 39.2993 114.551 38.7293C115.081 37.8593 113.151 37.5593 112.751 37.4593C112.591 37.4193 112.431 37.3793 112.271 37.3293C112.251 36.5993 112.171 35.8293 111.811 35.2893C111.731 35.1593 111.521 35.1593 111.411 35.2493C110.991 35.6293 110.631 36.1493 110.311 36.6593C109.601 36.4393 108.881 36.2693 108.211 36.3193C108.121 36.3193 108.011 36.4193 107.991 36.5093C107.811 37.2893 108.491 38.0093 108.941 38.5593C108.971 38.5893 108.991 38.6193 109.021 38.6493C109.021 38.6493 109.021 38.6693 109.001 38.6793C108.901 38.7993 108.801 38.9193 108.691 39.0193C108.301 39.4193 107.551 40.0593 107.651 40.6693C107.671 40.7893 107.771 40.9193 107.891 40.9493C108.321 41.0393 108.601 40.9993 109.011 40.8593C109.501 40.6893 109.991 40.5093 110.481 40.3393C110.941 40.8693 111.391 41.4093 111.781 41.9893C111.871 42.1193 112.111 42.1093 112.181 41.9693C112.501 41.3793 112.481 40.5393 112.401 39.7393L112.391 39.7493Z" fill="url(#paint5_linear_57_386)"/>
<path d="M109.811 98.0793C110.541 98.3893 111.531 98.8193 112.141 98.5693C113.091 98.1893 111.731 96.7893 111.471 96.4693C111.371 96.3493 111.271 96.2093 111.171 96.0693C111.601 95.4793 111.991 94.8193 112.031 94.1693C112.031 94.0193 111.871 93.8893 111.731 93.8993C111.161 93.9493 110.571 94.1493 110.001 94.3593C109.571 93.7493 109.101 93.1793 108.531 92.8193C108.451 92.7693 108.311 92.7793 108.231 92.8393C107.621 93.3493 107.721 94.3393 107.751 95.0493C107.751 95.0893 107.751 95.1293 107.751 95.1693C107.751 95.1693 107.731 95.1693 107.721 95.1693C107.571 95.2093 107.411 95.2393 107.271 95.2593C106.711 95.3393 105.731 95.3993 105.441 95.9493C105.391 96.0493 105.381 96.2193 105.461 96.3093C105.741 96.6493 106.001 96.7893 106.411 96.9093C106.911 97.0693 107.401 97.2193 107.901 97.3793C107.951 98.0793 107.981 98.7893 107.941 99.4793C107.941 99.6393 108.131 99.7693 108.271 99.7093C108.881 99.4393 109.371 98.7493 109.801 98.0693L109.811 98.0793Z" fill="url(#paint6_linear_57_386)"/>
<path d="M88.6509 113.539C89.3809 113.859 90.3709 114.279 90.9809 114.029C91.9309 113.649 90.5709 112.249 90.3109 111.929C90.2109 111.809 90.1109 111.669 90.0109 111.529C90.4409 110.939 90.8309 110.279 90.8709 109.629C90.8709 109.479 90.7209 109.349 90.5809 109.359C90.0109 109.409 89.4209 109.609 88.8509 109.819C88.4209 109.209 87.9509 108.639 87.3809 108.279C87.3009 108.229 87.1609 108.239 87.0909 108.299C86.4809 108.799 86.5809 109.799 86.6009 110.509C86.6009 110.549 86.6009 110.589 86.6009 110.629C86.6009 110.629 86.5809 110.629 86.5709 110.629C86.4209 110.659 86.2609 110.689 86.1209 110.719C85.5609 110.799 84.5809 110.859 84.2909 111.409C84.2409 111.509 84.2309 111.679 84.3109 111.769C84.5909 112.099 84.8409 112.239 85.2609 112.369C85.7609 112.529 86.2509 112.679 86.7509 112.839C86.8009 113.539 86.8309 114.249 86.7909 114.939C86.7809 115.099 86.9809 115.229 87.1209 115.169C87.7309 114.899 88.2209 114.209 88.6509 113.529V113.539Z" fill="url(#paint7_linear_57_386)"/>
<path d="M33.3409 106.739C32.7709 106.739 32.2809 106.839 31.8309 107.219C31.4309 107.559 31.1709 108.049 31.1209 108.569C31.0209 109.589 31.8409 110.779 32.9509 110.779C33.5209 110.779 34.0109 110.689 34.4609 110.309C34.8609 109.969 35.1209 109.479 35.1709 108.949C35.2709 107.929 34.4509 106.739 33.3409 106.739Z" fill="url(#paint8_linear_57_386)"/>
<path d="M50.7009 116.609C49.5509 116.609 49.3709 118.399 50.5309 118.399C51.6909 118.399 51.8609 116.609 50.7009 116.609Z" fill="url(#paint9_linear_57_386)"/>
<path d="M14.5009 85.9193C13.3509 85.9193 13.1709 87.7093 14.3309 87.7093C15.4909 87.7093 15.6609 85.9193 14.5009 85.9193Z" fill="url(#paint10_linear_57_386)"/>
<path d="M113.611 74.9593C113.651 75.0693 113.671 75.1793 113.721 75.2893C113.871 75.6093 114.091 75.6893 114.301 75.6593C114.511 75.6793 114.721 75.5793 114.881 75.2393C114.911 75.1893 114.931 75.1393 114.941 75.0793C115.311 73.8593 113.311 73.9693 113.611 74.9593Z" fill="url(#paint11_linear_57_386)"/>
<path d="M101.521 26.7393C101.551 26.8493 101.581 26.9593 101.631 27.0693C101.781 27.3893 102.001 27.4793 102.211 27.4393C102.421 27.4593 102.631 27.3593 102.791 27.0193C102.821 26.9693 102.841 26.9193 102.851 26.8593C103.221 25.6393 101.221 25.7493 101.521 26.7393Z" fill="url(#paint12_linear_57_386)"/>
<path d="M88.4809 101.229C88.5109 101.339 88.5509 101.449 88.5909 101.549C88.7409 101.869 88.9609 101.959 89.1709 101.919C89.3809 101.939 89.5909 101.839 89.7509 101.499C89.7809 101.449 89.8009 101.399 89.8109 101.349C90.1809 100.129 88.1809 100.239 88.4809 101.229Z" fill="url(#paint13_linear_57_386)"/>
<path d="M114.651 81.6193C110.931 81.6193 110.361 87.4093 114.101 87.4093C117.841 87.4093 118.391 81.6193 114.651 81.6193Z" fill="url(#paint14_linear_57_386)"/>
<path d="M119.041 45.7493C117.271 45.7493 117.001 48.5093 118.781 48.5093C120.561 48.5093 120.821 45.7493 119.041 45.7493Z" fill="url(#paint15_linear_57_386)"/>
<path d="M106.311 84.9293C104.541 84.9293 104.271 87.6893 106.051 87.6893C107.831 87.6893 108.091 84.9293 106.311 84.9293Z" fill="url(#paint16_linear_57_386)"/>
<path d="M108.591 24.5593C106.821 24.5593 106.551 27.3193 108.331 27.3193C110.111 27.3193 110.371 24.5593 108.591 24.5593Z" fill="url(#paint17_linear_57_386)"/>
<path d="M13.5809 47.7193C11.8109 47.7193 11.5409 50.4793 13.3209 50.4793C15.1009 50.4793 15.3609 47.7193 13.5809 47.7193Z" fill="url(#paint18_linear_57_386)"/>
<path d="M15.6609 38.3893C15.6309 38.0193 15.2509 37.7193 14.9009 37.6893C14.4409 37.6493 14.0109 37.9893 13.9709 38.4593C13.9709 38.5493 13.9509 38.6393 13.9509 38.7293C13.9109 39.2093 14.2609 39.6393 14.7409 39.6893C15.3509 39.7493 15.7309 39.2193 15.6909 38.6693L15.6709 38.3993L15.6609 38.3893Z" fill="url(#paint19_linear_57_386)"/>
<path d="M132.661 55.4193C132.351 55.0393 131.791 55.0893 131.361 55.1493C130.671 55.2393 130.501 55.8893 130.011 56.1993C128.421 57.1893 127.381 58.9393 126.311 60.4293C126.231 60.5393 126.201 60.6693 126.201 60.7993C125.881 60.7993 125.571 60.7993 125.251 60.7993C125.891 59.9793 126.441 59.0393 126.921 58.1793C127.341 57.4193 128.051 56.2293 127.391 55.4193C127.071 55.0393 126.511 55.0893 126.081 55.1493C125.391 55.2393 125.221 55.8893 124.731 56.1993C123.141 57.1893 122.101 58.9393 121.031 60.4293C120.911 60.5893 120.901 60.7793 120.931 60.9393C120.561 60.9493 120.191 60.9693 119.821 60.9793C120.521 60.1093 121.121 59.1093 121.631 58.1793C122.051 57.4193 122.761 56.2293 122.101 55.4193C121.791 55.0393 121.231 55.0893 120.801 55.1493C120.111 55.2393 119.941 55.8893 119.451 56.1993C118.011 57.0993 117.021 58.6193 116.051 60.0093C114.991 58.9493 113.971 57.6993 113.031 56.7193C111.151 54.7693 109.371 52.7593 107.501 50.7993C103.041 46.0993 98.8309 41.1493 94.4509 36.3793C90.2709 31.8293 86.2309 27.0993 81.8709 22.7093C77.9109 18.7293 74.4409 13.6493 69.9709 10.1893C70.1009 7.92928 69.5909 5.74928 67.8009 3.86928C65.2609 1.19928 60.8109 -0.0107226 57.5709 2.01928C54.5409 3.91928 53.4209 7.97928 55.2509 11.0693C56.3309 12.8793 58.9409 14.1193 61.2109 13.9393C60.6109 14.7393 59.9009 15.4693 59.1809 16.1393C56.0909 19.0393 51.7109 19.2993 47.8609 20.4593C44.8809 21.3593 41.6809 21.6193 38.6709 22.5493C35.1409 23.6393 31.9809 24.5893 28.7109 26.3993C23.0809 29.5093 19.4809 34.3793 18.0809 40.6093C17.2609 44.2493 17.0909 47.5793 17.6809 51.2593C18.0209 53.3393 18.5809 55.3993 19.0609 57.4493C19.2309 58.1793 19.4709 58.8293 19.7309 59.5293C19.5209 58.9493 20.3609 60.7393 20.5509 60.9393C19.9209 60.9693 19.2909 61.0193 18.6509 61.0593C18.6909 60.9493 18.7409 60.8393 18.7709 60.7293C18.9209 60.2293 18.6309 59.7093 18.0909 59.6393C15.7509 59.3793 13.4509 58.8093 11.6709 57.0993C11.0609 56.5093 10.1009 55.6893 9.18087 56.1293C8.75087 56.3293 8.43087 56.8993 8.15087 57.2493C7.10087 58.5593 5.26087 59.4493 3.87087 60.3293C2.79087 61.0093 1.31087 61.5493 0.400865 62.5093C0.320865 62.5093 0.250865 62.5093 0.170865 62.5093C0.0308654 62.5093 -0.0291346 62.6793 0.0408654 62.7893C0.0608654 62.8193 0.0908654 62.8393 0.100865 62.8793C0.0808654 62.9093 0.0508654 62.9293 0.0408654 62.9593C-0.0291346 63.0693 0.0408654 63.2293 0.170865 63.2393C0.250865 63.2393 0.320865 63.2393 0.400865 63.2393C1.30087 64.1993 2.79087 64.7493 3.87087 65.4193C5.26087 66.2993 7.09087 67.1893 8.15087 68.4993C8.43087 68.8493 8.75087 69.4193 9.18087 69.6193C10.1009 70.0593 11.0609 69.2393 11.6709 68.6493C13.4509 66.9393 15.7409 66.3693 18.0909 66.1093C18.6409 66.0493 18.9209 65.5293 18.7709 65.0193C18.7409 64.8993 18.6909 64.7993 18.6509 64.6893C19.2809 64.7293 19.9109 64.7793 20.5509 64.8093C20.3609 65.0093 19.5209 66.7993 19.7309 66.2193C19.4809 66.9193 19.2309 67.5693 19.0609 68.2993C18.5709 70.3493 18.0109 72.4093 17.6809 74.4893C17.0909 78.1693 17.2609 81.4993 18.0809 85.1393C19.4809 91.3593 23.0809 96.2293 28.7109 99.3393C31.9809 101.149 35.1409 102.099 38.6709 103.189C41.6809 104.109 44.8709 104.379 47.8609 105.279C51.7109 106.439 56.0909 106.699 59.1809 109.599C59.8909 110.269 60.6009 110.999 61.2109 111.799C58.9409 111.619 56.3309 112.849 55.2509 114.669C53.4209 117.749 54.5409 121.819 57.5709 123.719C60.8109 125.749 65.2609 124.539 67.8009 121.869C69.5909 119.989 70.1009 117.809 69.9709 115.539C74.4409 112.079 77.9109 106.999 81.8709 103.019C86.2309 98.6293 90.2609 93.9093 94.4509 89.3593C98.8409 84.5893 103.041 79.6393 107.501 74.9393C109.371 72.9693 111.151 70.9593 113.031 69.0193C113.971 68.0393 114.991 66.7993 116.051 65.7293C117.021 67.1193 118.011 68.6393 119.451 69.5393C119.951 69.8493 120.121 70.4993 120.801 70.5893C121.231 70.6393 121.791 70.6993 122.101 70.3193C122.771 69.5193 122.051 68.3193 121.631 67.5593C121.121 66.6293 120.521 65.6193 119.821 64.7593C120.191 64.7593 120.551 64.7793 120.931 64.7993C120.891 64.9693 120.911 65.1493 121.031 65.3093C122.101 66.7993 123.141 68.5493 124.731 69.5393C125.231 69.8493 125.401 70.4993 126.081 70.5893C126.511 70.6393 127.071 70.6993 127.391 70.3193C128.051 69.5193 127.341 68.3193 126.921 67.5593C126.441 66.6893 125.891 65.7593 125.251 64.9393C125.571 64.9393 125.881 64.9393 126.201 64.9393C126.201 65.0693 126.231 65.1993 126.311 65.3093C127.381 66.7993 128.421 68.5493 130.011 69.5393C130.511 69.8493 130.681 70.4993 131.361 70.5893C131.791 70.6393 132.351 70.6993 132.661 70.3193C133.331 69.5193 132.611 68.3193 132.191 67.5593C131.661 66.5993 131.041 65.5593 130.311 64.6693C130.661 64.6193 131.011 64.5793 131.341 64.5093C131.541 64.4693 131.681 64.3393 131.751 64.1893C131.791 64.1693 131.821 64.1493 131.861 64.1293C132.271 63.7893 132.271 63.1793 132.221 62.7093C132.161 62.1593 132.071 61.7493 131.651 61.3693C131.631 61.3493 131.601 61.3293 131.571 61.3193C131.511 61.2693 131.431 61.2293 131.341 61.2093C131.001 61.1393 130.651 61.0993 130.311 61.0493C131.041 60.1693 131.661 59.1193 132.191 58.1593C132.611 57.3993 133.321 56.2093 132.661 55.3993V55.4193Z" fill="url(#paint20_linear_57_386)"/>
<path d="M132.661 55.4193C132.351 55.0393 131.791 55.0893 131.361 55.1493C130.671 55.2393 130.501 55.8893 130.011 56.1993C128.421 57.1893 127.381 58.9393 126.311 60.4293C126.231 60.5493 126.201 60.6693 126.201 60.7993C125.881 60.7993 125.561 60.7993 125.241 60.7993C125.881 59.9693 126.441 59.0393 126.921 58.1693C127.341 57.4093 128.051 56.2193 127.391 55.4093C127.071 55.0293 126.511 55.0793 126.081 55.1393C125.391 55.2293 125.221 55.8793 124.731 56.1893C123.141 57.1793 122.101 58.9293 121.031 60.4193C120.911 60.5793 120.901 60.7593 120.931 60.9293C120.561 60.9393 120.191 60.9593 119.821 60.9593C120.521 60.0893 121.121 59.0893 121.641 58.1593C122.061 57.3993 122.771 56.2093 122.111 55.3993C121.801 55.0193 121.241 55.0693 120.811 55.1293C120.121 55.2193 119.951 55.8693 119.461 56.1793C118.021 57.0793 117.031 58.5993 116.061 59.9893C115.001 58.9293 113.981 57.6793 113.041 56.6993C111.161 54.7493 109.381 52.7393 107.511 50.7793C103.051 46.0793 98.8409 41.1293 94.4609 36.3593C90.2809 31.8093 86.2409 27.0793 81.8809 22.6893C77.9209 18.7093 74.4409 13.6493 69.9809 10.1893C70.1209 7.91928 69.6109 5.72928 67.8109 3.83928C65.2709 1.16928 60.8209 -0.0407226 57.5809 1.98928C54.5509 3.88928 53.4309 7.94928 55.2609 11.0393C56.3409 12.8593 58.9509 14.0893 61.2109 13.9093C60.6109 14.7093 59.9009 15.4393 59.1809 16.1093C56.0909 19.0093 51.7109 19.2693 47.8609 20.4293C44.8809 21.3293 41.6809 21.5893 38.6709 22.5193C35.1409 23.6093 31.9809 24.5593 28.7109 26.3693C23.0809 29.4793 19.4809 34.3493 18.0809 40.5793C17.2609 44.2193 17.0909 47.5493 17.6809 51.2293C18.0209 53.3093 18.5809 55.3693 19.0609 57.4193C19.2309 58.1493 19.4709 58.7993 19.7309 59.4993C19.5209 58.9193 20.3709 60.7193 20.5509 60.9093C19.9109 60.9393 19.2709 60.9893 18.6309 61.0293C18.6809 60.9193 18.7409 60.8193 18.7709 60.6993C18.9209 60.1993 18.6309 59.6793 18.0909 59.6093C15.7509 59.3493 13.4509 58.7793 11.6709 57.0693C11.0609 56.4793 10.1009 55.6593 9.18087 56.0993C8.75087 56.2993 8.43087 56.8693 8.15087 57.2193C7.10087 58.5293 5.26087 59.4193 3.87087 60.2993C2.79087 60.9793 1.30087 61.5193 0.390865 62.4893C0.310865 62.4893 0.250865 62.4893 0.170865 62.4893C0.0308654 62.4893 -0.0291346 62.6593 0.0408654 62.7693C0.0608654 62.7993 0.0908654 62.8293 0.110865 62.8593C0.0908654 62.8893 0.0608654 62.9193 0.0408654 62.9493C-0.0291346 63.0593 0.0408654 63.2193 0.170865 63.2293C0.250865 63.2293 0.320865 63.2293 0.390865 63.2293C1.29087 64.1993 2.78087 64.7393 3.87087 65.4193C5.26087 66.2993 7.09087 67.1893 8.15087 68.4993C8.43087 68.8493 8.75087 69.4193 9.18087 69.6193C10.1009 70.0593 11.0609 69.2393 11.6709 68.6493C13.4509 66.9393 15.7409 66.3693 18.0909 66.1093C18.6409 66.0493 18.9209 65.5293 18.7709 65.0193C18.7309 64.8993 18.6709 64.7993 18.6209 64.6893C19.2609 64.7293 19.9009 64.7793 20.5409 64.8093C20.3509 65.0093 19.5109 66.7993 19.7209 66.2193C19.4709 66.9193 19.2209 67.5693 19.0509 68.2993C18.5609 70.3493 18.0009 72.4093 17.6709 74.4893C17.0809 78.1693 17.2509 81.4993 18.0709 85.1393C19.4709 91.3593 23.0709 96.2293 28.7009 99.3393C31.9709 101.149 35.1309 102.099 38.6609 103.189C41.6709 104.109 44.8609 104.379 47.8509 105.279C51.7009 106.439 56.0809 106.699 59.1709 109.599C59.8809 110.269 60.6009 110.999 61.2009 111.799C58.9309 111.619 56.3209 112.849 55.2409 114.669C53.4109 117.749 54.5309 121.819 57.5609 123.719C60.8009 125.749 65.2509 124.539 67.7909 121.869C69.5909 119.979 70.0909 117.789 69.9609 115.519C74.4209 112.059 77.9109 106.999 81.8609 103.019C86.2209 98.6293 90.2509 93.9093 94.4409 89.3593C98.8309 84.5893 103.031 79.6393 107.491 74.9393C109.361 72.9693 111.141 70.9593 113.021 69.0193C113.961 68.0493 114.981 66.7993 116.041 65.7293C117.011 67.1193 118.001 68.6393 119.441 69.5393C119.941 69.8493 120.111 70.4993 120.791 70.5893C121.221 70.6393 121.781 70.6993 122.091 70.3193C122.761 69.5193 122.041 68.3193 121.621 67.5593C121.111 66.6293 120.501 65.6193 119.801 64.7593C120.171 64.7593 120.541 64.7793 120.911 64.7893C120.871 64.9593 120.891 65.1393 121.011 65.3093C122.081 66.7993 123.121 68.5493 124.711 69.5393C125.211 69.8493 125.381 70.4993 126.061 70.5893C126.491 70.6393 127.051 70.6993 127.371 70.3193C128.031 69.5193 127.321 68.3193 126.901 67.5593C126.421 66.6893 125.861 65.7593 125.221 64.9293C125.541 64.9293 125.861 64.9293 126.181 64.9293C126.181 65.0493 126.211 65.1793 126.291 65.2993C127.361 66.7893 128.401 68.5393 129.991 69.5293C130.491 69.8393 130.661 70.4893 131.341 70.5793C131.771 70.6293 132.331 70.6893 132.641 70.3093C133.311 69.5093 132.591 68.3093 132.171 67.5493C131.641 66.5893 131.021 65.5493 130.291 64.6593C130.641 64.6093 130.991 64.5693 131.331 64.4993C131.531 64.4593 131.671 64.3293 131.741 64.1793C131.781 64.1593 131.821 64.1393 131.851 64.1193C132.261 63.7793 132.261 63.1693 132.211 62.6993C132.151 62.1493 132.061 61.7393 131.641 61.3593C131.621 61.3393 131.591 61.3193 131.561 61.3093C131.491 61.2593 131.421 61.2193 131.331 61.1993C130.991 61.1293 130.641 61.0893 130.291 61.0393C131.021 60.1593 131.641 59.1093 132.171 58.1493C132.591 57.3893 133.301 56.1993 132.641 55.3893L132.661 55.4193ZM130.521 62.4193C130.511 62.4993 130.501 62.5893 130.491 62.6693C130.461 62.8893 130.461 63.1093 130.491 63.3293C126.571 62.7393 122.201 63.2393 118.291 63.2393H45.4009C36.2509 63.2393 26.8609 62.6493 17.7309 63.3493C17.5609 63.1793 17.3909 63.0193 17.2009 62.8693C17.3909 62.7193 17.5609 62.5593 17.7309 62.3893C26.8609 63.0993 36.2509 62.4993 45.4009 62.4993H118.281C122.211 62.4993 126.591 63.0093 130.521 62.4093V62.4193ZM42.6409 64.7793C42.5309 64.9593 42.4109 65.1493 42.2709 65.3493C41.4809 66.4593 40.4909 67.3693 39.4509 68.2493C37.9209 69.5293 36.2209 70.2993 34.4409 71.0293C35.0209 68.8593 36.1209 66.7693 37.8309 64.8593C39.4409 64.8293 41.0409 64.7993 42.6409 64.7793ZM44.7109 64.7693C44.9909 64.7693 45.2709 64.7693 45.5509 64.7693H47.1309C46.7309 65.1693 46.3909 65.6393 45.9009 65.9593C45.1909 66.4193 44.4709 66.6893 43.6409 66.7793C44.1809 66.1293 44.5809 65.4493 44.7009 64.7793L44.7109 64.7693ZM44.7109 60.9993C44.5909 60.3293 44.1909 59.6493 43.6609 58.9993C44.4809 59.0993 45.2009 59.3593 45.9209 59.8193C46.4009 60.1293 46.7409 60.5993 47.1409 60.9993H45.5609C45.2809 60.9993 45.0009 60.9993 44.7209 60.9993H44.7109ZM42.2709 60.4193C42.4109 60.6193 42.5309 60.8093 42.6409 60.9793C41.0409 60.9593 39.4409 60.9393 37.8309 60.8993C36.1209 58.9893 35.0309 56.8993 34.4509 54.7293C36.2209 55.4593 37.9309 56.2293 39.4609 57.5093C40.5009 58.3893 41.4909 59.2993 42.2809 60.4093L42.2709 60.4193ZM124.291 58.7593C124.641 58.2893 125.131 57.8693 125.551 57.4793C125.761 57.2893 125.921 57.2093 126.031 56.9493C126.081 56.8693 126.121 56.7793 126.171 56.6893C126.241 56.6693 126.301 56.6493 126.351 56.6293C126.201 57.1993 125.771 57.7893 125.491 58.2493C124.951 59.1593 124.231 59.9493 123.661 60.8393C123.311 60.8493 122.971 60.8593 122.631 60.8793C123.281 60.2693 123.761 59.4593 124.291 58.7593ZM119.011 58.7593C119.361 58.2893 119.851 57.8693 120.271 57.4793C120.481 57.2893 120.641 57.2093 120.751 56.9493C120.791 56.8693 120.841 56.7793 120.891 56.6893C120.961 56.6693 121.021 56.6493 121.071 56.6293C120.911 57.1993 120.481 57.7893 120.211 58.2493C119.641 59.2093 118.871 60.0393 118.291 60.9993H117.201C117.921 60.3793 118.451 59.5093 119.011 58.7593ZM74.5209 17.3893C76.7309 19.8493 78.9909 22.2593 81.3209 24.6093C85.9109 29.2493 90.1509 34.2893 94.5509 39.1093C98.8409 43.8193 102.981 48.6293 107.191 53.3893C109.021 55.4593 110.921 57.3793 112.861 59.3493C113.401 59.8993 114.001 60.4793 114.651 60.9793H48.8809C48.9409 60.7993 48.9409 60.6093 48.8309 60.4293C48.2809 59.5493 47.4109 58.8193 46.5309 58.2893C45.4309 57.6193 43.6109 57.1093 42.3309 57.6293C41.6409 56.9993 40.9509 56.4493 40.4709 56.0393C38.9509 54.7393 36.3309 53.0293 34.0709 52.8493C33.0709 45.2893 37.8209 37.2193 44.4509 33.0293C49.3109 29.9593 54.6409 27.7493 59.5909 24.8293C63.1309 22.7393 67.5809 19.3593 68.9009 15.2293C69.2109 14.2493 69.4909 13.2693 69.6909 12.2893C71.2209 14.0493 72.9909 15.6893 74.5209 17.3893ZM56.7409 9.53928C55.2609 6.63928 57.6209 3.38928 60.4909 2.87928C62.9409 2.43928 65.3609 3.90928 66.9309 5.63928C68.0909 6.91928 68.2509 8.63928 68.0309 10.3393C67.1009 10.7193 66.1409 10.6193 65.2309 10.3293C65.3609 8.21928 64.6209 6.01928 62.6909 5.15928C59.8909 3.90928 57.0709 5.42928 57.3209 8.66928C57.4209 9.88928 59.2009 10.8593 60.1509 11.2093C61.1409 11.5793 61.9809 11.2493 62.6809 10.6793C62.5809 11.3093 62.3709 11.9093 62.1009 12.4693C60.0209 12.7293 57.6009 11.2293 56.7309 9.52928L56.7409 9.53928ZM62.7109 8.66928C62.6509 8.66928 62.5809 8.68928 62.5209 8.71928C61.8409 9.22928 61.0809 9.30928 60.2509 8.95928C58.7309 7.91928 59.4809 6.03928 61.1509 6.93928C61.9809 7.40928 62.5009 7.97928 62.7209 8.66928H62.7109ZM20.4009 55.2293C19.8209 52.1093 19.0509 49.0693 19.1509 45.8793C19.3409 39.9293 21.6109 34.7393 25.8809 30.7093C33.3109 23.6993 45.0809 23.3993 54.4309 20.9893C58.6609 19.8993 62.2309 17.0693 64.3709 13.3093C64.5609 12.9693 64.7209 12.5893 64.8509 12.1893C65.6609 12.3993 66.7009 12.3993 67.6109 12.2493C67.4809 12.7493 67.3309 13.2193 67.1809 13.6693C64.3309 22.3193 53.2309 25.4793 46.1009 29.5093C39.4309 33.2893 34.3009 38.2893 32.1909 45.8693C31.3109 49.0393 31.8809 52.4493 32.5509 55.5693C32.8909 57.1893 34.0009 59.3293 35.3309 60.8593C30.9309 60.7693 26.5209 60.7193 22.1509 60.8793C22.1109 60.4293 21.9409 60.2293 21.6009 59.6793C20.8109 58.3893 20.6409 56.6993 20.3709 55.2293H20.4009ZM12.8609 65.8793C12.2909 66.1493 11.4609 66.6293 11.0209 67.0593C9.63087 68.3893 10.0309 68.2493 9.13087 67.1093C7.89087 65.5593 5.32087 64.5093 3.67087 63.4993C3.26087 63.2493 2.85087 63.0493 2.44087 62.8893C2.86087 62.7293 3.26087 62.5293 3.67087 62.2793C5.32087 61.2693 7.89087 60.2193 9.13087 58.6693C10.0309 57.5393 9.63087 57.3893 11.0209 58.7193C11.4609 59.1493 12.3009 59.6193 12.8609 59.8993C14.1909 60.5493 15.3409 60.8693 16.6309 61.0793C16.3809 61.3193 16.0909 61.5193 15.7409 61.6593C15.2209 61.9193 15.1609 62.4593 15.3309 62.8793C15.1509 63.2993 15.2209 63.8393 15.7409 64.0993C16.0809 64.2493 16.3809 64.4393 16.6309 64.6893C15.3409 64.8993 14.2009 65.2193 12.8609 65.8693V65.8793ZM54.4509 104.789C45.0909 102.389 33.3309 102.089 25.9009 95.0793C21.6209 91.0393 19.3509 85.8593 19.1709 79.9093C19.0709 76.7093 19.8409 73.6693 20.4209 70.5593C20.6909 69.0893 20.8609 67.3993 21.6509 66.1093C21.9909 65.5593 22.1609 65.3593 22.2009 64.9093C26.5709 65.0693 30.9809 65.0193 35.3809 64.9293C34.0509 66.4593 32.9409 68.6093 32.6009 70.2293C31.9409 73.3393 31.3609 76.7493 32.2409 79.9193C34.3509 87.4993 39.4809 92.5093 46.1509 96.2793C53.2809 100.309 64.3809 103.469 67.2309 112.119C67.3809 112.559 67.5209 113.039 67.6609 113.539C66.7409 113.389 65.7109 113.389 64.9009 113.599C64.7709 113.199 64.6109 112.819 64.4209 112.479C62.2809 108.709 58.7109 105.879 54.4809 104.789H54.4509ZM66.9209 120.129C65.3509 121.859 62.9309 123.339 60.4809 122.899C57.6209 122.389 55.2509 119.139 56.7309 116.239C57.6009 114.539 60.0209 113.039 62.1009 113.299C62.3709 113.859 62.5809 114.459 62.6809 115.089C61.9809 114.519 61.1309 114.189 60.1509 114.559C59.2009 114.909 57.4109 115.879 57.3209 117.099C57.0709 120.329 59.8909 121.859 62.6909 120.609C64.6209 119.749 65.3609 117.549 65.2309 115.439C66.1409 115.139 67.1009 115.039 68.0309 115.429C68.2509 117.129 68.0909 118.849 66.9309 120.129H66.9209ZM62.7109 117.099C62.5009 117.789 61.9809 118.359 61.1409 118.829C59.4709 119.729 58.7209 117.849 60.2409 116.809C61.0709 116.459 61.8309 116.539 62.5109 117.049C62.5709 117.079 62.6409 117.089 62.7009 117.099H62.7109ZM112.861 66.3993C110.921 68.3693 109.021 70.2893 107.191 72.3593C102.981 77.1293 98.8309 81.9393 94.5509 86.6393C90.1509 91.4693 85.9109 96.4993 81.3209 101.139C78.9909 103.489 76.7409 105.909 74.5209 108.369C72.9909 110.069 71.2209 111.709 69.6909 113.469C69.4909 112.489 69.2109 111.509 68.9009 110.529C67.5909 106.399 63.1309 103.019 59.5909 100.929C54.6409 97.9993 49.3109 95.7993 44.4509 92.7193C37.8309 88.5293 33.0709 80.4593 34.0709 72.8993C36.3309 72.7193 38.9509 71.0093 40.4709 69.7093C40.9509 69.2993 41.6409 68.7493 42.3309 68.1193C43.6109 68.6393 45.4409 68.1193 46.5309 67.4593C47.4009 66.9193 48.2709 66.1893 48.8309 65.3093C48.9409 65.1293 48.9409 64.9293 48.8809 64.7493H114.641C113.991 65.2493 113.391 65.8293 112.851 66.3793L112.861 66.3993ZM121.081 69.1393C121.031 69.1193 120.971 69.0993 120.901 69.0793C120.851 68.9893 120.811 68.9093 120.761 68.8193C120.641 68.5693 120.481 68.4793 120.281 68.2893C119.851 67.8993 119.371 67.4693 119.021 67.0093C118.461 66.2593 117.931 65.3893 117.211 64.7693H118.301C118.881 65.7293 119.661 66.5593 120.231 67.5193C120.511 67.9893 120.941 68.5693 121.091 69.1393H121.081ZM125.501 67.5193C125.781 67.9893 126.211 68.5693 126.361 69.1393C126.311 69.1193 126.251 69.0993 126.181 69.0793C126.131 68.9893 126.091 68.9093 126.041 68.8193C125.921 68.5693 125.761 68.4793 125.561 68.2893C125.131 67.8993 124.651 67.4693 124.301 67.0093C123.771 66.3093 123.291 65.4993 122.641 64.8893C122.981 64.8993 123.331 64.9193 123.671 64.9293C124.241 65.8193 124.961 66.6093 125.501 67.5193ZM130.781 67.5193C131.061 67.9893 131.491 68.5693 131.641 69.1393C131.591 69.1193 131.531 69.0993 131.461 69.0793C131.411 68.9893 131.371 68.9093 131.321 68.8193C131.201 68.5693 131.041 68.4793 130.841 68.2893C130.411 67.8993 129.931 67.4693 129.581 67.0093C129.071 66.3293 128.591 65.5393 127.961 64.9293C128.281 64.9093 128.601 64.8893 128.921 64.8593C129.501 65.7793 130.241 66.5793 130.791 67.5093L130.781 67.5193ZM130.781 58.2593C130.231 59.1893 129.491 59.9993 128.911 60.9093C128.591 60.8793 128.271 60.8593 127.951 60.8393C128.581 60.2393 129.061 59.4493 129.571 58.7593C129.921 58.2893 130.411 57.8693 130.831 57.4793C131.041 57.2893 131.201 57.2093 131.311 56.9493C131.361 56.8693 131.401 56.7793 131.451 56.6893C131.521 56.6693 131.581 56.6493 131.631 56.6293C131.481 57.1993 131.051 57.7893 130.771 58.2493L130.781 58.2593Z" fill="#897EB3"/>
</g>
<defs>
<linearGradient id="paint0_linear_57_386" x1="-0.109123" y1="62.8125" x2="133.068" y2="62.8125" gradientUnits="userSpaceOnUse">
<stop stop-color="#C0CBD8"/>
<stop offset="0.54" stop-color="white"/>
<stop offset="0.87" stop-color="white"/>
<stop offset="0.99" stop-color="#C0CBD8"/>
</linearGradient>
<linearGradient id="paint1_linear_57_386" x1="0.215851" y1="63.0599" x2="133.346" y2="63.0599" gradientUnits="userSpaceOnUse">
<stop stop-color="#C0CBD8"/>
<stop offset="0.54" stop-color="white"/>
<stop offset="0.87" stop-color="white"/>
<stop offset="0.99" stop-color="#C0CBD8"/>
</linearGradient>
<linearGradient id="paint2_linear_57_386" x1="-0.333326" y1="62.9004" x2="133.144" y2="62.9004" gradientUnits="userSpaceOnUse">
<stop stop-color="#C0CBD8"/>
<stop offset="0.54" stop-color="white"/>
<stop offset="0.87" stop-color="white"/>
<stop offset="0.99" stop-color="#C0CBD8"/>
</linearGradient>
<linearGradient id="paint3_linear_57_386" x1="0.298263" y1="63.1561" x2="133.071" y2="63.1561" gradientUnits="userSpaceOnUse">
<stop stop-color="#C0CBD8"/>
<stop offset="0.54" stop-color="white"/>
<stop offset="0.87" stop-color="white"/>
<stop offset="0.99" stop-color="#C0CBD8"/>
</linearGradient>
<linearGradient id="paint4_linear_57_386" x1="-0.195681" y1="63.1241" x2="132.907" y2="63.1241" gradientUnits="userSpaceOnUse">
<stop stop-color="#C0CBD8"/>
<stop offset="0.54" stop-color="white"/>
<stop offset="0.87" stop-color="white"/>
<stop offset="0.99" stop-color="#C0CBD8"/>
</linearGradient>
<linearGradient id="paint5_linear_57_386" x1="-0.195681" y1="62.9586" x2="132.907" y2="62.9586" gradientUnits="userSpaceOnUse">
<stop stop-color="#C0CBD8"/>
<stop offset="0.54" stop-color="white"/>
<stop offset="0.87" stop-color="white"/>
<stop offset="0.99" stop-color="#C0CBD8"/>
</linearGradient>
<linearGradient id="paint6_linear_57_386" x1="0.365341" y1="63.096" x2="133.072" y2="63.096" gradientUnits="userSpaceOnUse">
<stop stop-color="#C0CBD8"/>
<stop offset="0.54" stop-color="white"/>
<stop offset="0.87" stop-color="white"/>
<stop offset="0.99" stop-color="#C0CBD8"/>
</linearGradient>
<linearGradient id="paint7_linear_57_386" x1="-0.0106296" y1="62.9176" x2="132.884" y2="62.9176" gradientUnits="userSpaceOnUse">
<stop stop-color="#C0CBD8"/>
<stop offset="0.54" stop-color="white"/>
<stop offset="0.87" stop-color="white"/>
<stop offset="0.99" stop-color="#C0CBD8"/>
</linearGradient>
<linearGradient id="paint8_linear_57_386" x1="0.281409" y1="62.8543" x2="132.991" y2="62.8543" gradientUnits="userSpaceOnUse">
<stop stop-color="#C0CBD8"/>
<stop offset="0.54" stop-color="white"/>
<stop offset="0.87" stop-color="white"/>
<stop offset="0.99" stop-color="#C0CBD8"/>
</linearGradient>
<linearGradient id="paint9_linear_57_386" x1="-0.277655" y1="63.2" x2="132.961" y2="63.2" gradientUnits="userSpaceOnUse">
<stop stop-color="#C0CBD8"/>
<stop offset="0.54" stop-color="white"/>
<stop offset="0.87" stop-color="white"/>
<stop offset="0.99" stop-color="#C0CBD8"/>
</linearGradient>
<linearGradient id="paint10_linear_57_386" x1="0.483706" y1="62.5086" x2="132.961" y2="62.5086" gradientUnits="userSpaceOnUse">
<stop stop-color="#C0CBD8"/>
<stop offset="0.54" stop-color="white"/>
<stop offset="0.87" stop-color="white"/>
<stop offset="0.99" stop-color="#C0CBD8"/>
</linearGradient>
<linearGradient id="paint11_linear_57_386" x1="0.086387" y1="62.9765" x2="133.327" y2="62.9765" gradientUnits="userSpaceOnUse">
<stop stop-color="#C0CBD8"/>
<stop offset="0.54" stop-color="white"/>
<stop offset="0.87" stop-color="white"/>
<stop offset="0.99" stop-color="#C0CBD8"/>
</linearGradient>
<linearGradient id="paint12_linear_57_386" x1="0.086387" y1="62.8484" x2="133.327" y2="62.8484" gradientUnits="userSpaceOnUse">
<stop stop-color="#C0CBD8"/>
<stop offset="0.54" stop-color="white"/>
<stop offset="0.87" stop-color="white"/>
<stop offset="0.99" stop-color="#C0CBD8"/>
</linearGradient>
<linearGradient id="paint13_linear_57_386" x1="-0.858579" y1="62.4267" x2="132.382" y2="62.4267" gradientUnits="userSpaceOnUse">
<stop stop-color="#C0CBD8"/>
<stop offset="0.54" stop-color="white"/>
<stop offset="0.87" stop-color="white"/>
<stop offset="0.99" stop-color="#C0CBD8"/>
</linearGradient>
<linearGradient id="paint14_linear_57_386" x1="-0.0308597" y1="62.7474" x2="132.814" y2="62.7474" gradientUnits="userSpaceOnUse">
<stop stop-color="#C0CBD8"/>
<stop offset="0.54" stop-color="white"/>
<stop offset="0.87" stop-color="white"/>
<stop offset="0.99" stop-color="#C0CBD8"/>
</linearGradient>
<linearGradient id="paint15_linear_57_386" x1="-0.05591" y1="62.8543" x2="132.83" y2="62.8543" gradientUnits="userSpaceOnUse">
<stop stop-color="#C0CBD8"/>
<stop offset="0.54" stop-color="white"/>
<stop offset="0.87" stop-color="white"/>
<stop offset="0.99" stop-color="#C0CBD8"/>
</linearGradient>
<linearGradient id="paint16_linear_57_386" x1="-0.05591" y1="62.8543" x2="132.83" y2="62.8543" gradientUnits="userSpaceOnUse">
<stop stop-color="#C0CBD8"/>
<stop offset="0.54" stop-color="white"/>
<stop offset="0.87" stop-color="white"/>
<stop offset="0.99" stop-color="#C0CBD8"/>
</linearGradient>
<linearGradient id="paint17_linear_57_386" x1="-0.05591" y1="62.8543" x2="132.83" y2="62.8543" gradientUnits="userSpaceOnUse">
<stop stop-color="#C0CBD8"/>
<stop offset="0.54" stop-color="white"/>
<stop offset="0.87" stop-color="white"/>
<stop offset="0.99" stop-color="#C0CBD8"/>
</linearGradient>
<linearGradient id="paint18_linear_57_386" x1="-0.05591" y1="62.8543" x2="132.83" y2="62.8543" gradientUnits="userSpaceOnUse">
<stop stop-color="#C0CBD8"/>
<stop offset="0.54" stop-color="white"/>
<stop offset="0.87" stop-color="white"/>
<stop offset="0.99" stop-color="#C0CBD8"/>
</linearGradient>
<linearGradient id="paint19_linear_57_386" x1="-0.51278" y1="63.4257" x2="132.715" y2="63.4257" gradientUnits="userSpaceOnUse">
<stop stop-color="#C0CBD8"/>
<stop offset="0.54" stop-color="white"/>
<stop offset="0.87" stop-color="white"/>
<stop offset="0.99" stop-color="#C0CBD8"/>
</linearGradient>
<linearGradient id="paint20_linear_57_386" x1="0.0208654" y1="62.8643" x2="132.931" y2="62.8643" gradientUnits="userSpaceOnUse">
<stop stop-color="#C0CBD8"/>
<stop offset="0.54" stop-color="white"/>
<stop offset="0.87" stop-color="white"/>
<stop offset="0.99" stop-color="#C0CBD8"/>
</linearGradient>
</defs>
</svg>
