<svg xmlns="http://www.w3.org/2000/svg" width="89" height="97" viewBox="0 0 89 97" fill="none">
  <path d="M72.3879 36.795C71.9066 32.2521 70.3346 28.0383 67.9524 24.4024L73.7033 6.69648C75.2272 2.00111 69.8533 -1.90768 65.859 0.997828L50.2749 12.3309C48.4141 11.9376 46.4811 11.737 44.508 11.737C42.5349 11.737 40.602 11.9457 38.7412 12.3309L23.149 0.997828C19.1547 -1.90768 13.7808 2.00111 15.3048 6.69648L21.0556 24.4024C18.6734 28.0383 17.1014 32.2521 16.6201 36.795L2.11074 47.3415C-1.88355 50.247 0.16974 56.5637 5.10245 56.5637H21.4085C29.4612 74.6308 44.5 97 44.5 97C44.5 97 59.5388 74.6228 67.5915 56.5637H83.8975C88.8303 56.5637 90.8835 50.239 86.8893 47.3415L72.3799 36.795H72.3879ZM44.508 54.6374C36.3109 54.6374 29.6698 47.9916 29.6698 39.7888C29.6698 31.5859 36.3109 24.9402 44.508 24.9402C52.7051 24.9402 59.3463 31.5859 59.3463 39.7888C59.3463 47.9916 52.7051 54.6374 44.508 54.6374Z" fill="url(#paint0_linear_15_3472)"/>
  <defs>
    <linearGradient id="paint0_linear_15_3472" x1="0.00133037" y1="48.5053" x2="89.0067" y2="48.5053" gradientUnits="userSpaceOnUse">
      <stop stop-color="white"/>
      <stop offset="0.54" stop-color="white"/>
      <stop offset="0.87" stop-color="white"/>
      <stop offset="0.99" stop-color="#C0CBD8"/>
    </linearGradient>
  </defs>
</svg>