<svg width="114" height="120" viewBox="0 0 114 120" fill="none" xmlns="http://www.w3.org/2000/svg">
<g id="6">
<path d="M112.761 30.4692C109.031 33.3392 104.721 36.5392 99.8109 36.7192C94.3909 36.9292 88.9709 36.0892 84.5409 32.6892C78.2009 27.8292 68.2409 25.5992 61.7909 31.3792C61.7909 30.7892 61.5209 30.2692 60.9709 30.0092C61.1109 28.3792 61.2809 26.8792 61.9009 25.2792C62.4609 23.8192 63.6309 22.8392 64.4309 21.5492C64.6609 21.1892 64.3909 20.8392 64.0709 20.7992C64.0209 20.7792 63.9709 20.7692 63.9209 20.7592C62.6409 20.6792 59.4709 21.1192 60.2109 18.9592C60.8609 17.0292 61.8109 15.3092 62.2409 13.2892C62.5409 11.9192 62.1109 8.43924 60.5609 7.55924C60.9309 6.86924 61.1509 6.11924 61.1409 5.47924C61.1209 3.40924 59.1909 0.659237 56.9109 1.00924C54.6409 0.659237 52.7009 3.40924 52.6809 5.47924C52.6809 6.11924 52.8909 6.86924 53.2609 7.55924C51.7209 8.43924 51.2909 11.9192 51.5809 13.2892C52.0209 15.3092 52.9609 17.0292 53.6209 18.9592C54.3509 21.1192 51.1909 20.6792 49.9009 20.7592C49.8509 20.7592 49.7909 20.7792 49.7509 20.7992C49.4309 20.8392 49.1609 21.1892 49.3909 21.5492C50.1909 22.8292 51.3609 23.8192 51.9209 25.2792C52.5409 26.8792 52.7009 28.3792 52.8509 30.0092C52.3009 30.2792 52.0409 30.7992 52.0309 31.3792C45.5809 25.5992 35.6309 27.8292 29.2909 32.6892C24.8609 36.0792 19.4309 36.9192 14.0109 36.7192C9.1009 36.5392 4.8009 33.3392 1.0609 30.4692C0.490902 30.0392 -0.299098 30.7092 0.120902 31.3192C0.120902 31.3292 0.140902 31.3392 0.150902 31.3592C-0.049098 35.3092 2.4409 38.3092 5.3309 40.7892C8.9509 43.9092 12.6309 45.2292 17.4509 44.9292C18.8709 44.8392 20.2209 44.6192 21.5309 44.2992C21.5309 44.5092 21.5509 44.7092 21.6009 44.9092C19.8009 46.3292 18.2009 47.8192 16.7809 49.6592C15.2509 51.6492 13.4209 53.4892 11.9609 55.5192C10.4009 57.6992 8.8009 59.8292 6.9909 61.8092C6.3809 62.4792 5.6009 63.1792 4.9709 63.9392C4.1509 64.4892 3.6609 65.1392 3.6409 65.9292C2.4709 66.8492 2.5909 69.4192 2.6909 70.6692C2.9009 73.3692 3.8509 76.5092 5.7009 78.5892C7.7009 80.8392 9.0209 82.6392 11.9709 83.7992C14.8009 84.9192 17.6709 86.0892 20.7809 86.0792C27.3809 86.0492 34.0009 84.6892 39.0309 80.1592C41.0209 78.3692 42.1909 75.8492 42.9409 73.3292C43.3609 71.8892 43.7309 70.2392 44.0009 68.7892C44.1409 68.0392 44.1309 67.8992 43.9009 67.2192C43.9009 67.1892 43.8809 67.1692 43.8609 67.1492C43.8309 67.0092 43.7509 66.8892 43.6209 66.8392C43.9709 66.9892 43.4309 66.2292 43.3409 66.0992C43.1709 65.8892 42.9009 65.6992 42.6109 65.5392C41.8309 64.1592 40.8409 62.8292 40.0209 61.5892C38.6609 59.5392 37.2609 57.4692 36.0109 55.3492C34.5609 52.8992 33.2409 50.3992 31.5109 48.1192C30.7509 47.1092 29.9809 45.6192 29.1409 44.8992C29.3409 44.2992 29.3409 43.6592 29.0309 43.0292C28.8509 42.6692 28.5909 42.1892 28.2609 41.8392C29.2809 41.3692 30.3109 40.8792 31.3509 40.3792C34.9109 38.6692 38.4109 37.7392 42.2709 37.6692C41.2809 40.6192 42.9809 42.7992 46.1909 43.9092C46.8109 44.1192 47.4109 44.2192 47.9709 44.2292C47.6109 46.3992 49.9409 49.1192 51.1509 50.4692C51.4809 50.8392 51.8109 51.1892 52.1509 51.5592C51.4309 54.6692 51.8809 58.2892 51.8809 61.4192C51.8809 65.2992 51.8809 69.1792 51.8809 73.0592C51.8809 76.9392 51.9409 80.8192 51.8709 84.7092C51.8209 87.6592 51.3609 90.9292 51.7409 93.9192C51.2409 93.7592 50.6909 93.7492 50.2409 94.1092C48.9409 95.1592 47.7509 97.4092 48.2309 99.1492C48.4609 99.9692 48.6609 100.759 48.9909 101.489C47.1909 100.799 45.3209 100.459 43.2609 101.059C41.2109 101.659 38.2109 104.169 40.1609 106.499C40.3109 106.679 40.4809 106.839 40.6409 107.009C37.8909 105.779 35.0109 104.919 32.4709 105.959C28.9609 107.409 30.6209 111.179 32.9309 112.839C37.5309 116.139 42.7809 117.429 48.2109 118.599C50.9309 119.189 54.1109 119.899 56.8909 119.279C59.6709 119.899 62.8509 119.179 65.5709 118.599C71.0009 117.429 76.2509 116.139 80.8509 112.839C83.1609 111.179 84.8209 107.409 81.3109 105.959C78.7709 104.919 75.8909 105.779 73.1409 107.009C73.3009 106.839 73.4709 106.679 73.6209 106.499C75.5709 104.179 72.5709 101.659 70.5209 101.059C68.4609 100.459 66.5909 100.799 64.7909 101.489C65.1209 100.749 65.3209 99.9692 65.5509 99.1492C66.0409 97.4092 64.8509 95.1592 63.5509 94.1092C63.1009 93.7492 62.5509 93.7592 62.0509 93.9192C62.4409 90.9292 61.9809 87.6692 61.9209 84.7092C61.8509 80.8292 61.9109 76.9392 61.9109 73.0592C61.9109 69.1792 61.9109 65.2992 61.9109 61.4192C61.9109 58.2992 62.3609 54.6692 61.6409 51.5592C61.9809 51.1992 62.3109 50.8392 62.6409 50.4692C63.8509 49.1092 66.1809 46.3992 65.8209 44.2292C66.3909 44.2292 66.9809 44.1292 67.6009 43.9092C70.8109 42.7992 72.5009 40.6192 71.5209 37.6692C75.3709 37.7392 78.8709 38.6692 82.4409 40.3792C83.4809 40.8792 84.5109 41.3692 85.5309 41.8392C85.2009 42.1792 84.9409 42.6692 84.7609 43.0292C84.4409 43.6692 84.4409 44.3092 84.6409 44.8992C83.8109 45.6192 83.0409 47.0992 82.2709 48.1192C80.5509 50.3992 79.2209 52.8992 77.7709 55.3492C76.5209 57.4692 75.1209 59.5392 73.7609 61.5892C72.9409 62.8292 71.9509 64.1592 71.1709 65.5392C70.8809 65.6992 70.6209 65.8792 70.4409 66.0992C70.3509 66.2292 69.8009 66.9792 70.1609 66.8392C70.0309 66.8892 69.9509 67.0192 69.9209 67.1492C69.9109 67.1692 69.8909 67.1892 69.8809 67.2192C69.6509 67.8992 69.6409 68.0292 69.7809 68.7892C70.0509 70.2492 70.4209 71.8992 70.8509 73.3292C71.6009 75.8492 72.7709 78.3692 74.7609 80.1592C79.7909 84.6892 86.4109 86.0492 93.0109 86.0792C96.1209 86.0892 98.9909 84.9192 101.821 83.7992C104.761 82.6392 106.091 80.8392 108.091 78.5892C109.941 76.5092 110.891 73.3692 111.101 70.6692C111.201 69.4192 111.311 66.8492 110.141 65.9292C110.131 65.1392 109.631 64.4892 108.811 63.9392C108.181 63.1792 107.411 62.4892 106.791 61.8092C104.991 59.8292 103.381 57.6992 101.821 55.5192C100.361 53.4792 98.5409 51.6492 97.0009 49.6592C95.5809 47.8192 93.9809 46.3292 92.1809 44.9092C92.2209 44.7092 92.2509 44.5092 92.2509 44.2992C93.5609 44.6192 94.9109 44.8392 96.3309 44.9292C101.151 45.2292 104.841 43.9092 108.461 40.7892C111.341 38.2992 113.841 35.2992 113.631 31.3592C113.631 31.3492 113.651 31.3392 113.661 31.3192C114.091 30.7092 113.291 30.0292 112.721 30.4692H112.761Z" fill="url(#paint0_linear_57_337)"/>
<path d="M70.4509 66.1192C70.4509 66.1192 70.4509 66.1192 70.4709 66.0992C70.4709 66.0992 70.4642 66.1059 70.4509 66.1192Z" fill="url(#paint1_linear_57_337)"/>
<path d="M43.3709 66.0992C43.3709 66.0992 43.3709 66.0992 43.3809 66.1192C43.3809 66.1192 43.3776 66.1126 43.3709 66.0992Z" fill="url(#paint2_linear_57_337)"/>
<path d="M75.5809 91.3192C75.8709 90.8392 76.2709 90.1892 76.1609 89.7392C75.9909 89.0392 74.8709 89.8392 74.6209 89.9892C74.5209 90.0492 74.4209 90.1092 74.3109 90.1592C73.9409 89.7992 73.5209 89.4492 73.0709 89.3592C72.9609 89.3392 72.8609 89.4392 72.8509 89.5392C72.8209 89.9392 72.9009 90.3792 72.9909 90.7992C72.5109 91.0392 72.0709 91.3092 71.7609 91.6692C71.7209 91.7192 71.7109 91.8192 71.7409 91.8792C72.0309 92.3592 72.7409 92.3892 73.2409 92.4492C73.2709 92.4492 73.3009 92.4492 73.3209 92.4492C73.3209 92.4492 73.3209 92.4592 73.3209 92.4692C73.3309 92.5792 73.3409 92.6892 73.3409 92.7992C73.3409 93.1992 73.2809 93.8892 73.6409 94.1492C73.7109 94.1992 73.8209 94.2192 73.9009 94.1692C74.1609 94.0092 74.2909 93.8392 74.4209 93.5692C74.5809 93.2392 74.7409 92.9092 74.9009 92.5792C75.4009 92.6192 75.8909 92.6592 76.3809 92.7592C76.4909 92.7792 76.6009 92.6592 76.5709 92.5492C76.4509 92.0892 76.0109 91.6792 75.5809 91.3092V91.3192Z" fill="url(#paint3_linear_57_337)"/>
<path d="M85.5809 96.5392C83.8109 96.5392 83.5409 99.2892 85.3209 99.2892C87.1009 99.2892 87.3609 96.5392 85.5809 96.5392Z" fill="url(#paint4_linear_57_337)"/>
<path d="M72.1409 54.8292C72.8709 55.1492 73.8609 55.5692 74.4709 55.3292C75.4209 54.9492 74.0709 53.5492 73.8009 53.2292C73.7009 53.1092 73.6009 52.9692 73.5009 52.8292C73.9309 52.2292 74.3209 51.5792 74.3609 50.9292C74.3609 50.7792 74.2009 50.6492 74.0609 50.6592C73.4909 50.7092 72.9009 50.9092 72.3309 51.1192C71.9009 50.5092 71.4309 49.9392 70.8609 49.5792C70.7809 49.5292 70.6409 49.5392 70.5609 49.5992C69.9509 50.1092 70.0509 51.0992 70.0709 51.8092C70.0709 51.8492 70.0709 51.8892 70.0709 51.9292C70.0709 51.9292 70.0509 51.9292 70.0409 51.9292C69.8909 51.9692 69.7309 51.9992 69.5909 52.0192C69.0309 52.0992 68.0509 52.1592 67.7609 52.7092C67.7109 52.8092 67.7109 52.9792 67.7809 53.0692C68.0609 53.3992 68.3209 53.5392 68.7309 53.6692C69.2309 53.8292 69.7209 53.9792 70.2109 54.1392C70.2609 54.8392 70.2909 55.5492 70.2509 56.2392C70.2509 56.3992 70.4409 56.5292 70.5809 56.4692C71.1909 56.1992 71.6809 55.5092 72.1109 54.8292H72.1409Z" fill="url(#paint5_linear_57_337)"/>
<path d="M24.9609 102.509C24.9909 102.619 25.0309 102.729 25.0709 102.839C25.2209 103.159 25.4409 103.249 25.6509 103.209C25.8609 103.229 26.0709 103.129 26.2309 102.789C26.2609 102.739 26.2809 102.689 26.2909 102.639C26.6609 101.419 24.6609 101.519 24.9609 102.519V102.509Z" fill="url(#paint6_linear_57_337)"/>
<path d="M100.031 93.9792C100.651 92.9692 101.501 91.5992 101.271 90.6292C100.911 89.1392 98.5409 90.8492 98.0209 91.1592C97.8109 91.2892 97.5909 91.3992 97.3709 91.5292C96.5809 90.7692 95.6909 90.0392 94.7509 89.8392C94.5309 89.7892 94.3009 90.0092 94.2909 90.2192C94.2409 91.0692 94.4009 91.9892 94.5909 92.8792C93.5909 93.3892 92.6509 93.9592 92.0009 94.7192C91.9109 94.8292 91.8909 95.0392 91.9609 95.1592C92.5809 96.1692 94.0709 96.2292 95.1209 96.3492C95.1809 96.3492 95.2409 96.3592 95.3009 96.3692C95.3009 96.3792 95.3009 96.3992 95.3009 96.4092C95.3209 96.6492 95.3309 96.8792 95.3409 97.0992C95.3409 97.9392 95.2209 99.3992 95.9709 99.9592C96.1109 100.059 96.3609 100.099 96.5109 100.009C97.0709 99.6592 97.3309 99.3192 97.6109 98.7292C97.9509 98.0292 98.2809 97.3292 98.6309 96.6392C99.6809 96.7192 100.731 96.8192 101.741 97.0292C101.971 97.0792 102.211 96.8092 102.151 96.5892C101.881 95.6292 100.971 94.7492 100.051 93.9792H100.031Z" fill="url(#paint7_linear_57_337)"/>
<path d="M34.8209 94.8592C35.5909 94.6692 36.6409 94.4092 36.9809 93.8492C37.5109 92.9692 35.5809 92.6792 35.1809 92.5792C35.0209 92.5392 34.8609 92.4992 34.7009 92.4492C34.6809 91.7192 34.6009 90.9492 34.2409 90.4092C34.1609 90.2792 33.9509 90.2792 33.8409 90.3692C33.4209 90.7492 33.0609 91.2692 32.7409 91.7792C32.0309 91.5492 31.3109 91.3892 30.6409 91.4392C30.5409 91.4392 30.4409 91.5392 30.4109 91.6292C30.2309 92.3992 30.9109 93.1292 31.3609 93.6792C31.3909 93.7092 31.4109 93.7392 31.4309 93.7692C31.4309 93.7692 31.4309 93.7892 31.4109 93.7992C31.3109 93.9192 31.2109 94.0392 31.1009 94.1492C30.7109 94.5492 29.9609 95.1892 30.0609 95.7992C30.0809 95.9192 30.1809 96.0492 30.3009 96.0692C30.7309 96.1692 31.0109 96.1192 31.4209 95.9792C31.9109 95.7992 32.4009 95.6292 32.8909 95.4592C33.3609 95.9892 33.8009 96.5292 34.1909 97.1092C34.2809 97.2392 34.5209 97.2192 34.5909 97.0892C34.9109 96.4992 34.8909 95.6592 34.8109 94.8592H34.8209Z" fill="url(#paint8_linear_57_337)"/>
<path d="M15.1009 90.4092C14.5409 90.4092 14.0409 90.5092 13.6009 90.8892C13.2009 91.2292 12.9409 91.7192 12.8909 92.2492C12.7909 93.2692 13.6109 94.4592 14.7209 94.4592C15.2909 94.4592 15.7809 94.3592 16.2209 93.9792C16.6209 93.6392 16.8809 93.1492 16.9309 92.6192C17.0309 91.5992 16.2109 90.4092 15.1009 90.4092Z" fill="url(#paint9_linear_57_337)"/>
<path d="M89.9209 102.819C88.7709 102.819 88.5909 104.609 89.7509 104.609C90.9109 104.609 91.0809 102.819 89.9209 102.819Z" fill="url(#paint10_linear_57_337)"/>
<path d="M43.8509 83.3292C42.7009 83.3292 42.5209 85.1192 43.6809 85.1192C44.8409 85.1192 45.0109 83.3292 43.8509 83.3292Z" fill="url(#paint11_linear_57_337)"/>
<path d="M64.2509 65.8192C64.2809 65.9292 64.3109 66.0392 64.3609 66.1492C64.5109 66.4692 64.7309 66.5492 64.9409 66.5192C65.1509 66.5392 65.3609 66.4392 65.5209 66.0992C65.5509 66.0492 65.5709 65.9992 65.5809 65.9392C65.9509 64.7192 63.9509 64.8292 64.2509 65.8192Z" fill="url(#paint12_linear_57_337)"/>
<path d="M46.8709 58.1692C47.6409 57.9792 48.6909 57.7192 49.0309 57.1592C49.5609 56.2792 47.6309 55.9792 47.2309 55.8892C47.0709 55.8492 46.9109 55.8092 46.7509 55.7592C46.7309 55.0292 46.6509 54.2592 46.2909 53.7192C46.2109 53.5892 46.0009 53.5892 45.8909 53.6792C45.4709 54.0592 45.1109 54.5792 44.7909 55.0892C44.0809 54.8592 43.3609 54.6992 42.6909 54.7492C42.6009 54.7492 42.4909 54.8492 42.4709 54.9392C42.2909 55.7092 42.9709 56.4392 43.4209 56.9892C43.4509 57.0192 43.4709 57.0492 43.5009 57.0792C43.5009 57.0792 43.4909 57.0992 43.4809 57.0992C43.3809 57.2192 43.2809 57.3392 43.1709 57.4492C42.7809 57.8492 42.0309 58.4892 42.1309 59.1092C42.1509 59.2192 42.2509 59.3592 42.3709 59.3792C42.8009 59.4792 43.0809 59.4292 43.4909 59.2892C43.9809 59.1192 44.4709 58.9392 44.9609 58.7692C45.4309 59.2992 45.8809 59.8392 46.2609 60.4192C46.3509 60.5492 46.5909 60.5392 46.6609 60.3992C46.9909 59.8092 46.9609 58.9692 46.8909 58.1692H46.8709Z" fill="url(#paint13_linear_57_337)"/>
<path d="M40.6909 44.7792C36.9709 44.7792 36.4009 50.5692 40.1409 50.5692C43.8809 50.5692 44.4309 44.7792 40.6909 44.7792Z" fill="url(#paint14_linear_57_337)"/>
<path d="M70.4509 66.1192C70.4509 66.1192 70.4509 66.1192 70.4709 66.0992C70.4709 66.0992 70.4642 66.1059 70.4509 66.1192Z" fill="#897EB3"/>
<path d="M0.170902 31.3592C-0.029098 35.2992 2.4609 38.3092 5.3509 40.7892C8.9709 43.9092 12.6509 45.2292 17.4709 44.9292C18.8909 44.8392 20.2509 44.6092 21.5609 44.2892C21.5609 44.4992 21.5909 44.6992 21.6309 44.8992C19.8309 46.3192 18.2209 47.8092 16.8009 49.6592C15.2709 51.6492 13.4409 53.4892 11.9809 55.5192C10.4209 57.6992 8.8209 59.8292 7.0109 61.8092C6.3909 62.4892 5.6209 63.1892 4.9809 63.9492C4.1709 64.4992 3.6809 65.1492 3.6709 65.9492C2.5009 66.8692 2.6009 69.4192 2.7009 70.6692C2.9109 73.3692 3.8609 76.5092 5.7109 78.5892C7.7109 80.8392 9.0309 82.6392 11.9809 83.7992C14.8109 84.9192 17.6809 86.0892 20.7909 86.0792C27.3909 86.0492 34.0109 84.6892 39.0409 80.1592C41.0309 78.3692 42.2009 75.8492 42.9509 73.3292C43.3709 71.8892 43.7409 70.2392 44.0109 68.7892C44.1509 68.0392 44.1409 67.8992 43.9109 67.2192C43.9109 67.1992 43.8809 67.1992 43.8809 67.1792C43.8609 67.0292 43.7709 66.8992 43.6309 66.8392C43.9809 66.9892 43.4409 66.2292 43.3509 66.0992C43.1809 65.8892 42.9109 65.7092 42.6309 65.5492C41.8509 64.1692 40.8609 62.8392 40.0309 61.5992C38.6709 59.5492 37.2709 57.4792 36.0209 55.3592C34.5709 52.9092 33.2509 50.4092 31.5209 48.1292C30.7509 47.1092 29.9909 45.6192 29.1509 44.9092C29.3509 44.3092 29.3609 43.6692 29.0409 43.0392C28.8609 42.6792 28.5909 42.1992 28.2609 41.8492C29.2909 41.3792 30.3109 40.8892 31.3609 40.3892C34.9209 38.6792 38.4309 37.7492 42.2809 37.6792C41.2909 40.6192 42.9909 42.8092 46.2009 43.9192C46.8209 44.1292 47.4209 44.2292 47.9809 44.2292C47.6209 46.3992 49.9509 49.1192 51.1609 50.4692C51.4909 50.8392 51.8309 51.1992 52.1609 51.5692C51.4409 54.6792 51.8809 58.2992 51.8809 61.4192C51.8809 65.2992 51.8809 69.1792 51.8809 73.0592C51.8809 76.9392 51.9409 80.8192 51.8709 84.7092C51.8109 87.6592 51.3609 90.9292 51.7509 93.9192C51.2509 93.7592 50.6909 93.7492 50.2509 94.1092C48.9509 95.1592 47.7609 97.4092 48.2409 99.1492C48.4809 99.9792 48.6909 100.759 49.0209 101.499C47.2209 100.809 45.3409 100.459 43.2709 101.059C41.2209 101.659 38.2209 104.169 40.1709 106.499C40.3209 106.679 40.4909 106.849 40.6509 107.019C37.9009 105.789 35.0209 104.919 32.4809 105.959C28.9709 107.409 30.6309 111.179 32.9409 112.839C37.5409 116.139 42.7909 117.429 48.2209 118.599C50.9409 119.189 54.1209 119.889 56.9009 119.269C59.6809 119.889 62.8609 119.179 65.5809 118.599C71.0109 117.429 76.2609 116.139 80.8609 112.839C83.1709 111.179 84.8309 107.409 81.3209 105.959C78.7809 104.909 75.9009 105.779 73.1509 107.009C73.3109 106.839 73.4809 106.679 73.6309 106.499C75.5809 104.179 72.5809 101.659 70.5309 101.059C68.4609 100.459 66.5909 100.799 64.7809 101.499C65.1209 100.759 65.3309 99.9792 65.5609 99.1492C66.0509 97.4092 64.8609 95.1592 63.5609 94.1092C63.1109 93.7492 62.5609 93.7592 62.0509 93.9192C62.4409 90.9292 61.9809 87.6592 61.9309 84.7092C61.8609 80.8292 61.9209 76.9392 61.9209 73.0592C61.9209 69.1792 61.9209 65.2992 61.9209 61.4192C61.9209 58.2992 62.3609 54.6792 61.6409 51.5692C61.9809 51.2092 62.3209 50.8392 62.6409 50.4792C63.8509 49.1192 66.1809 46.4092 65.8209 44.2392C66.3909 44.2392 66.9809 44.1392 67.6009 43.9292C70.8109 42.8192 72.5009 40.6292 71.5209 37.6892C75.3709 37.7592 78.8709 38.6892 82.4409 40.3992C83.4809 40.8992 84.5109 41.3892 85.5409 41.8592C85.2109 42.1992 84.9409 42.6892 84.7609 43.0492C84.4409 43.6792 84.4509 44.3192 84.6509 44.9192C83.8209 45.6292 83.0509 47.1292 82.2809 48.1392C80.5609 50.4192 79.2309 52.9192 77.7809 55.3692C76.5309 57.4892 75.1309 59.5592 73.7709 61.6092C72.9509 62.8492 71.9609 64.1792 71.1809 65.5592C70.9009 65.7192 70.6309 65.8992 70.4609 66.1092C70.3709 66.2392 69.8209 66.9892 70.1809 66.8492C70.0409 66.9092 69.9609 67.0392 69.9309 67.1892C69.9309 67.2092 69.9009 67.2192 69.8909 67.2292C69.6609 67.9092 69.6509 68.0392 69.7909 68.7992C70.0609 70.2592 70.4309 71.9092 70.8609 73.3392C71.6109 75.8592 72.7809 78.3792 74.7709 80.1692C79.8009 84.7092 86.4209 86.0592 93.0209 86.0892C96.1309 86.0992 99.0009 84.9292 101.831 83.8092C104.771 82.6492 106.101 80.8492 108.101 78.5992C109.951 76.5192 110.901 73.3792 111.111 70.6792C111.211 69.4192 111.311 66.8792 110.141 65.9592C110.141 65.1692 109.651 64.5092 108.841 63.9692C108.201 63.1992 107.431 62.5092 106.811 61.8292C105.011 59.8492 103.401 57.7192 101.841 55.5392C100.381 53.4992 98.5609 51.6692 97.0209 49.6792C95.6009 47.8292 93.9909 46.3392 92.1909 44.9192C92.2309 44.7192 92.2609 44.5192 92.2609 44.3092C93.5709 44.6292 94.9209 44.8592 96.3409 44.9492C101.161 45.2492 104.851 43.9292 108.471 40.8092C111.351 38.3192 113.851 35.3192 113.651 31.3792C113.651 31.3692 113.671 31.3592 113.681 31.3392C114.111 30.7292 113.311 30.0492 112.741 30.4892C109.011 33.3592 104.701 36.5592 99.7909 36.7392C94.3709 36.9492 88.9509 36.1092 84.5209 32.7092C78.1809 27.8492 68.2209 25.6192 61.7809 31.4092C61.7809 30.8192 61.5109 30.2992 60.9609 30.0292C61.1009 28.3992 61.2709 26.8992 61.8909 25.2992C62.4509 23.8392 63.6209 22.8592 64.4209 21.5692C64.6709 21.1792 64.3309 20.7892 63.9809 20.8092C63.9509 20.8092 63.9409 20.7792 63.9109 20.7792C62.6309 20.6992 59.4609 21.1392 60.2009 18.9792C60.8509 17.0492 61.8009 15.3292 62.2309 13.3092C62.5309 11.9392 62.0909 8.44924 60.5509 7.57924C60.9209 6.88924 61.1409 6.13924 61.1409 5.49924C61.1209 3.42924 59.1809 0.679237 56.9109 1.02924C54.6409 0.679237 52.7009 3.42924 52.6809 5.49924C52.6809 6.13924 52.9009 6.88924 53.2709 7.57924C51.7209 8.44924 51.2909 11.9392 51.5909 13.3092C52.0309 15.3292 52.9709 17.0492 53.6309 18.9792C54.3609 21.1392 51.2009 20.6992 49.9109 20.7792C49.8809 20.7792 49.8709 20.7992 49.8409 20.8092C49.4909 20.7992 49.1509 21.1792 49.4009 21.5692C50.2009 22.8492 51.3709 23.8392 51.9309 25.2992C52.5409 26.8992 52.7109 28.3992 52.8609 30.0292C52.3009 30.2992 52.0409 30.8192 52.0409 31.4092C45.5909 25.6192 35.6409 27.8492 29.3009 32.7092C24.8709 36.0992 19.4409 36.9392 14.0209 36.7392C9.1109 36.5592 4.8109 33.3592 1.0709 30.4892C0.500902 30.0592 -0.289098 30.7292 0.130902 31.3392C0.130902 31.3492 0.150902 31.3692 0.160902 31.3792L0.170902 31.3592ZM13.8709 55.7992C15.4609 53.8992 16.8109 51.7492 18.4509 49.9092C19.6309 48.5892 20.9409 47.1792 21.9209 45.6792C22.2909 46.3192 22.8909 46.8292 23.6109 47.1592C21.5309 51.0892 20.0609 55.4092 18.5809 59.5892C18.3709 60.1892 18.1409 60.7892 17.9309 61.3792C15.2609 61.4992 11.8809 61.7892 9.0809 62.4192C10.7109 60.2092 12.1809 57.8292 13.8809 55.7992H13.8709ZM26.6209 51.5292C27.1409 54.0092 27.5809 56.5092 28.0609 58.9992C28.2309 59.8792 28.4009 60.7792 28.5709 61.6792C26.4709 61.4492 24.3509 61.3492 22.2009 61.3092C21.8309 61.3092 21.0509 61.2992 20.0109 61.3192C20.3109 60.4392 20.6109 59.5692 20.9109 58.7092C21.6009 56.6992 22.1409 54.6492 22.8309 52.6392C23.4209 50.8892 24.3009 49.2992 24.6609 47.4892C25.1109 47.5692 25.5609 47.5692 26.0209 47.5092C26.0509 48.8592 26.3509 50.2492 26.6209 51.5392V51.5292ZM42.1009 67.7092C41.5209 68.1092 40.6509 68.4192 40.1309 68.5592C38.2309 69.0592 36.3509 69.5192 34.4009 69.7192C33.6909 69.7892 32.9909 69.8492 32.2809 69.8992C31.6409 67.8292 31.1109 65.6692 30.6609 63.4892C31.1509 63.5692 31.6409 63.6392 32.1309 63.7292C34.2509 64.1492 36.4109 64.6392 38.4409 65.3792C38.9609 65.5692 40.0609 65.8392 41.0409 66.2192C41.3609 66.7392 41.7009 67.2392 42.1009 67.6992V67.7092ZM30.5609 70.0192C28.3409 70.1392 26.1309 70.1992 23.8909 70.1892C21.5009 70.1892 19.1809 70.0092 16.8609 69.6892C17.8009 67.5192 18.6409 65.2592 19.4309 62.9892C20.4009 62.9492 21.3709 62.9092 22.3609 62.9092C24.5309 62.9092 26.7209 63.0092 28.8909 63.2592C29.3509 65.5492 29.8609 67.8492 30.5609 70.0292V70.0192ZM6.6109 65.3592C8.1309 64.2692 10.0609 63.7892 12.0809 63.5792C13.8409 63.3992 15.5609 63.2292 17.2809 63.1092C16.8609 64.2692 16.4409 65.4292 16.0109 66.5892C15.6809 67.4892 15.2009 68.4392 15.0509 69.4092C14.5009 69.3092 13.9409 69.2292 13.3909 69.1092C11.3809 68.7092 9.3109 68.2792 7.4709 67.3592C6.8309 67.0392 6.2709 66.6292 5.6909 66.2492C6.0109 65.9592 6.3209 65.6692 6.6209 65.3492L6.6109 65.3592ZM36.8909 79.8392C32.9709 82.6192 28.0009 83.7992 23.2409 83.8892C20.3509 83.9492 17.3109 83.7492 14.6209 82.5392C12.3809 81.5392 9.7809 80.6792 8.3709 78.5292C7.1809 76.7192 5.7909 75.0792 5.2309 72.9192C4.8709 71.5392 4.7109 69.8792 4.9109 68.4492C4.9109 68.4292 4.9109 68.4092 4.9209 68.3792C6.7509 69.9592 10.1809 70.5692 12.0309 70.9292C16.0809 71.7192 19.9509 72.1692 24.0809 72.1592C28.2009 72.1492 32.6409 72.2692 36.6709 71.2992C38.8809 70.7692 40.5709 70.1992 42.4909 69.0292C42.5209 69.0092 42.5609 68.9792 42.6009 68.9392C42.0909 70.4692 41.5809 73.1892 41.3709 73.6992C40.4009 76.0792 39.0109 78.3292 36.8809 79.8392H36.8909ZM31.7609 51.3492C33.1009 53.3792 34.2309 55.5292 35.5009 57.5992C36.8209 59.7292 38.1609 61.8392 39.6109 63.8892C39.7509 64.0792 39.8809 64.2792 40.0009 64.4792C38.3909 63.8792 36.7909 63.3292 35.1109 62.8692C33.5209 62.4392 31.9309 62.1292 30.3309 61.8892C30.0609 60.5392 29.8109 59.1892 29.5609 57.8792C29.1009 55.4392 28.4709 52.9892 28.1009 50.5392C27.9309 49.3692 27.8209 48.1192 27.4709 46.9692C27.4809 46.9692 27.5009 46.9592 27.5109 46.9492C27.9009 46.6992 28.2609 46.3692 28.5609 45.9892C29.7609 47.5892 30.6509 49.6892 31.7509 51.3592L31.7609 51.3492ZM27.9409 44.5892C27.6509 45.1792 27.1109 45.6592 26.4909 45.9292C26.4109 45.9492 26.3409 45.9792 26.2709 46.0192C26.0609 46.0892 25.8509 46.1392 25.6309 46.1492C24.6409 46.1992 23.8609 45.7992 23.3409 44.9392C23.1409 44.6092 23.1209 44.2392 23.1209 43.8692C24.5109 43.4392 25.8609 42.9092 27.2109 42.3192C27.8109 42.8792 28.2909 43.8692 27.9409 44.5892ZM81.2809 107.779C82.6909 109.119 80.4409 110.789 79.6709 111.419C77.8309 112.949 75.4909 113.689 73.3409 114.639C70.1309 116.059 66.4709 116.329 63.0909 117.159C61.1809 117.629 58.9109 117.179 56.9109 117.479C54.9109 117.179 52.6509 117.629 50.7309 117.159C47.3509 116.329 43.6909 116.049 40.4809 114.639C38.3409 113.689 36.0009 112.949 34.1509 111.419C33.3809 110.789 31.1309 109.119 32.5409 107.779C33.6509 106.729 35.1309 106.769 36.4709 107.129C39.2809 107.899 42.0309 109.379 44.8909 110.019C46.1209 110.619 47.4109 111.099 48.7109 111.509C50.4509 112.059 52.1009 112.249 53.8809 112.469C54.8809 112.599 55.9209 112.799 56.9009 112.689C57.8909 112.799 58.9209 112.599 59.9209 112.469C61.7109 112.249 63.3509 112.059 65.1009 111.509C66.4009 111.099 67.6909 110.619 68.9209 110.019C71.7809 109.369 74.5309 107.899 77.3409 107.129C78.6809 106.769 80.1609 106.729 81.2709 107.779H81.2809ZM72.4309 104.309C73.2909 105.819 69.8909 107.609 69.0009 108.069C66.7909 109.229 64.3409 110.049 61.9009 110.559C60.2909 110.899 58.5209 110.649 56.9109 110.969C55.3009 110.649 53.5309 110.899 51.9209 110.559C49.4909 110.049 47.0309 109.229 44.8209 108.069C43.9309 107.599 40.5309 105.819 41.3909 104.309C42.3509 102.619 44.0709 102.279 45.7909 102.329C47.1609 102.359 48.7209 102.469 50.0009 103.019C50.0009 103.019 50.0209 103.019 50.0309 103.029C50.7309 103.739 51.5909 104.129 52.4409 104.659C53.3809 105.249 54.5009 105.199 55.5409 105.479C55.7309 105.529 55.9109 105.579 56.0909 105.619C56.3609 105.729 56.6309 105.769 56.9109 105.759C57.1809 105.769 57.4509 105.729 57.7309 105.619C57.9109 105.579 58.0909 105.529 58.2809 105.479C59.3209 105.199 60.4409 105.239 61.3809 104.659C62.2309 104.129 63.0909 103.739 63.7909 103.029L63.8209 103.019C65.1009 102.469 66.6609 102.359 68.0309 102.329C69.7509 102.279 71.4709 102.619 72.4309 104.309ZM63.7009 97.0292C63.8609 97.6692 64.0109 98.4692 63.8009 99.1092C63.1909 101.039 62.1709 102.699 60.0809 103.299C59.0709 103.589 57.9809 103.809 56.9109 103.939C55.8409 103.809 54.7509 103.589 53.7409 103.299C51.6509 102.699 50.6409 101.039 50.0209 99.1092C49.8109 98.4692 49.9609 97.6692 50.1209 97.0292C50.5809 95.1792 51.7909 95.7392 53.0209 96.1992C54.0909 96.5992 55.0609 96.8192 56.1209 96.9692C56.2409 97.0492 56.3909 97.1092 56.5709 97.0892C56.6909 97.0792 56.7909 97.0592 56.9109 97.0492C57.0209 97.0592 57.1309 97.0792 57.2509 97.0892C57.4309 97.0992 57.5809 97.0492 57.7009 96.9692C58.7509 96.8292 59.7309 96.5992 60.8009 96.1992C62.0309 95.7392 63.2409 95.1792 63.7009 97.0292ZM60.3709 61.2792C60.3709 65.1592 60.3709 69.0392 60.3709 72.9192C60.3709 76.7992 60.3809 80.6792 60.3609 84.5592C60.3309 87.8292 59.7309 91.4792 60.3609 94.7292C59.2609 95.1992 58.1009 95.4592 56.9209 95.6692C55.7409 95.4592 54.5809 95.1992 53.4809 94.7292C54.1209 91.4892 53.5109 87.8292 53.4809 84.5592C53.4509 80.6792 53.4709 76.7992 53.4609 72.9192C53.4609 69.0392 53.4609 65.1592 53.4609 61.2792C53.4609 58.6892 53.7709 55.7192 53.4409 53.0192C53.9409 53.6192 54.4109 54.2492 54.7809 54.9392C55.6409 56.5592 55.6709 58.3392 56.3309 59.9992C56.4209 60.2192 56.7009 60.3292 56.9209 60.2692C57.1409 60.3292 57.4209 60.2192 57.5109 59.9992C58.1709 58.3392 58.2009 56.5492 59.0609 54.9392C59.4309 54.2492 59.9009 53.6292 60.4009 53.0192C60.0709 55.7192 60.3809 58.6892 60.3809 61.2792H60.3709ZM62.6309 47.2992C61.5309 48.9492 60.1209 50.3092 58.8709 51.8292C58.0809 52.7792 57.3809 54.0192 56.9109 55.3392C56.4509 54.0192 55.7409 52.7792 54.9509 51.8292C53.7009 50.3092 52.2909 48.9492 51.1909 47.2992C50.4409 46.1692 49.9409 45.2692 49.7609 43.8892C53.0709 42.5692 54.8709 37.7092 53.7509 34.0892C53.9609 34.1792 54.1809 34.2392 54.4409 34.2692C55.0409 34.3292 55.6509 34.3992 56.2509 34.4592C56.5109 34.4892 56.7109 34.4692 56.9009 34.4292C57.0909 34.4692 57.2909 34.4892 57.5509 34.4592C58.1509 34.3992 58.7509 34.3292 59.3509 34.2692C59.6109 34.2392 59.8309 34.1792 60.0409 34.0892C58.9209 37.7092 60.7209 42.5792 64.0409 43.8892C63.8609 45.2692 63.3609 46.1692 62.6109 47.2892L62.6309 47.2992ZM54.0509 31.2892C54.3609 31.3992 54.6709 31.5292 55.0009 31.5992C55.6509 31.7292 56.2709 31.7292 56.9109 31.6992C57.5509 31.7292 58.1709 31.7292 58.8209 31.5992C59.1509 31.5292 59.4609 31.4092 59.7709 31.2892C59.9309 31.4392 60.1709 31.4692 60.3909 31.4192C60.4109 31.6892 60.2109 32.1292 60.1509 32.3092C59.9309 33.0592 58.9409 33.0492 58.3209 33.0492C58.0109 33.0492 57.7209 33.1292 57.4209 33.1992C57.2209 33.1492 57.0609 33.1792 56.9009 33.2092C56.7409 33.1692 56.5709 33.1492 56.3809 33.1992C56.0809 33.1192 55.7909 33.0492 55.4809 33.0492C54.8609 33.0492 53.8709 33.0492 53.6509 32.3092C53.6009 32.1192 53.4009 31.6892 53.4109 31.4192C53.6309 31.4792 53.8709 31.4392 54.0309 31.2892H54.0509ZM78.3209 57.6092C79.6009 55.5492 80.7209 53.3892 82.0609 51.3592C83.1609 49.6892 84.0509 47.5892 85.2509 45.9892C85.5509 46.3692 85.9109 46.6992 86.3009 46.9492C86.3109 46.9492 86.3309 46.9592 86.3409 46.9692C85.9909 48.1192 85.8809 49.3692 85.7109 50.5392C85.3509 52.9892 84.7109 55.4392 84.2509 57.8792C84.0009 59.1992 83.7509 60.5392 83.4809 61.8892C81.8809 62.1192 80.2909 62.4392 78.7009 62.8692C77.0309 63.3192 75.4209 63.8792 73.8109 64.4792C73.9409 64.2792 74.0709 64.0792 74.2009 63.8892C75.6509 61.8492 76.9909 59.7392 78.3109 57.5992L78.3209 57.6092ZM89.1709 47.4892C89.5309 49.2992 90.4109 50.8892 91.0009 52.6392C91.6809 54.6492 92.2209 56.6992 92.9209 58.7092C93.2209 59.5692 93.5209 60.4492 93.8209 61.3192C92.7809 61.2992 92.0009 61.2992 91.6309 61.3092C89.4909 61.3492 87.3709 61.4492 85.2609 61.6792C85.4309 60.7792 85.6009 59.8792 85.7709 58.9992C86.2609 56.5092 86.6909 54.0192 87.2209 51.5292C87.4909 50.2392 87.7909 48.8492 87.8209 47.4992C88.2709 47.5692 88.7309 47.5592 89.1809 47.4792L89.1709 47.4892ZM108.151 66.2692C107.571 66.6492 107.011 67.0592 106.371 67.3792C104.531 68.2992 102.451 68.7192 100.441 69.1292C99.8809 69.2392 99.3309 69.3292 98.7809 69.4292C98.6209 68.4592 98.1509 67.5192 97.8209 66.6092C97.3909 65.4492 96.9709 64.2892 96.5509 63.1292C98.2709 63.2492 99.9909 63.4192 101.751 63.5992C103.771 63.8092 105.701 64.2792 107.221 65.3792C107.521 65.6892 107.831 65.9892 108.151 66.2692ZM96.9609 69.6992C94.6409 70.0192 92.3209 70.1992 89.9309 70.1992C87.6909 70.1992 85.4809 70.1492 83.2609 70.0292C83.9609 67.8492 84.4809 65.5592 84.9409 63.2592C87.1109 63.0092 89.3009 62.9092 91.4709 62.9092C92.4609 62.9092 93.4309 62.9492 94.4009 62.9892C95.1909 65.2592 96.0309 67.5192 96.9709 69.6892L96.9609 69.6992ZM72.7809 66.2392C73.7609 65.8592 74.8609 65.5892 75.3809 65.3992C77.4109 64.6592 79.5709 64.1692 81.6909 63.7492C82.1809 63.6492 82.6709 63.5792 83.1609 63.5092C82.7009 65.6892 82.1809 67.8492 81.5409 69.9192C80.8409 69.8692 80.1309 69.8092 79.4309 69.7392C77.4709 69.5292 75.5909 69.0792 73.7009 68.5792C73.1809 68.4392 72.3109 68.1292 71.7309 67.7292C72.1309 67.2692 72.4709 66.7692 72.7909 66.2492L72.7809 66.2392ZM108.591 72.9292C108.021 75.0992 106.641 76.7292 105.451 78.5392C104.031 80.6992 101.431 81.5492 99.1909 82.5492C96.5009 83.7592 93.4709 83.9592 90.5809 83.8992C85.8209 83.8092 80.8509 82.6292 76.9309 79.8492C74.8009 78.3392 73.4109 76.0892 72.4409 73.7092C72.2309 73.1992 71.7209 70.4892 71.2209 68.9492C71.2609 68.9792 71.3009 69.0192 71.3309 69.0392C73.2509 70.2192 74.9409 70.7892 77.1509 71.3092C81.1809 72.2792 85.6209 72.1592 89.7409 72.1692C93.8709 72.1692 97.7409 71.7292 101.791 70.9392C103.641 70.5792 107.071 69.9692 108.901 68.3892C108.901 68.4092 108.901 68.4292 108.911 68.4592C109.111 69.8992 108.951 71.5492 108.591 72.9292ZM95.3709 49.9192C97.0109 51.7592 98.3609 53.9092 99.9609 55.8092C101.661 57.8392 103.131 60.2192 104.761 62.4292C101.961 61.7992 98.5709 61.5092 95.9109 61.3892C95.6909 60.7892 95.4709 60.1992 95.2609 59.5992C93.7709 55.4192 92.3009 51.0992 90.2309 47.1692C90.9509 46.8492 91.5509 46.3392 91.9209 45.6992C92.9109 47.2092 94.2109 48.6092 95.3909 49.9292L95.3709 49.9192ZM90.4809 44.9392C89.9509 45.7992 89.1709 46.2092 88.1809 46.1492C87.9609 46.1392 87.7509 46.0892 87.5409 46.0192C87.4709 45.9692 87.4009 45.9492 87.3209 45.9292C86.7009 45.6592 86.1609 45.1792 85.8809 44.5892C85.5309 43.8692 86.0109 42.8792 86.6109 42.3192C87.9609 42.9092 89.3109 43.4392 90.7009 43.8592C90.7009 44.2392 90.6809 44.5992 90.4809 44.9292V44.9392ZM63.1609 32.1792C69.0709 27.2092 78.0109 30.1392 83.5009 34.1492C91.6309 40.0992 104.411 40.9492 111.761 33.5992C110.411 37.1092 107.181 40.0692 104.021 41.8592C99.4309 44.4592 93.2509 42.9392 88.6009 41.3692C84.6909 40.0392 81.4509 37.3692 77.3309 36.5092C76.2109 36.2792 72.4809 35.4292 70.9409 36.3892C69.5709 34.0492 66.2009 34.2592 65.1109 36.4892C64.8209 37.0792 65.6209 37.4492 66.0509 37.1492C67.4309 36.1792 68.9209 36.3092 69.8509 38.0192C71.5609 41.1592 66.8909 43.4992 64.5209 42.5892C60.4709 41.0392 60.0809 34.7392 63.1409 32.1592L63.1609 32.1792ZM54.2509 4.74924C54.4209 3.89924 55.4709 2.65924 56.4809 2.42924C56.5609 2.43924 56.6409 2.43924 56.7309 2.41924C56.7909 2.39924 56.8609 2.41924 56.9209 2.40924C56.9809 2.40924 57.0509 2.40924 57.1109 2.41924C57.2009 2.44924 57.2809 2.44924 57.3609 2.42924C58.3709 2.65924 59.4209 3.89924 59.5909 4.74924C59.9209 6.38924 58.9709 8.10924 57.4109 8.35924C57.3809 8.35924 57.3609 8.33924 57.3309 8.34924C57.2009 8.36924 57.0809 8.38924 56.9609 8.39924C56.9409 8.39924 56.9309 8.39924 56.9109 8.39924C56.8909 8.39924 56.8809 8.39924 56.8609 8.39924C56.7409 8.39924 56.6209 8.37924 56.4909 8.34924C56.4609 8.34924 56.4409 8.35924 56.4109 8.35924C54.8509 8.10924 53.9109 6.38924 54.2309 4.74924H54.2509ZM51.2709 22.2192C52.9209 22.3892 55.0309 21.8092 55.2909 20.3592C55.5809 18.7092 54.4809 16.7992 53.9609 15.3092C53.1109 12.8592 53.2609 11.0892 54.3309 8.96924C55.0909 9.66924 56.0209 9.99924 56.9209 9.53924C57.8209 9.99924 58.7509 9.66924 59.5109 8.96924C60.5909 11.0892 60.7409 12.8592 59.8809 15.3092C59.3609 16.7992 58.2609 18.7092 58.5509 20.3592C58.8009 21.8092 60.9109 22.3892 62.5709 22.2192C61.8709 23.0092 61.1909 23.7892 60.6709 24.8292C59.8809 26.4192 59.5609 28.2192 59.5809 29.9992C59.3409 30.0792 59.1109 30.1692 58.9109 30.2392C58.2809 30.4392 57.5909 30.4792 56.9209 30.5192C56.2509 30.4792 55.5609 30.4292 54.9309 30.2392C54.7209 30.1692 54.4909 30.0792 54.2609 29.9992C54.2809 28.2292 53.9509 26.4292 53.1709 24.8292C52.6609 23.7892 51.9809 23.0092 51.2709 22.2192ZM30.3309 34.1392C35.8209 30.1192 44.7609 27.1992 50.6709 32.1692C53.7309 34.7392 53.3409 41.0492 49.2909 42.5992C46.9309 43.4992 42.2509 41.1692 43.9709 38.0292C44.9009 36.3192 46.3909 36.1892 47.7709 37.1592C48.2109 37.4692 49.0009 37.0892 48.7109 36.4992C47.6309 34.2692 44.2509 34.0492 42.8909 36.3992C41.3609 35.4292 37.6209 36.2792 36.5009 36.5092C32.3909 37.3692 29.1409 40.0392 25.2409 41.3692C20.5909 42.9392 14.4109 44.4592 9.8209 41.8592C6.6609 40.0692 3.4209 37.1092 2.0709 33.5992C9.4209 40.9392 22.2009 40.0892 30.3309 34.1492V34.1392Z" fill="#897EB3"/>
<path d="M43.3709 66.0992C43.3709 66.0992 43.3709 66.0992 43.3809 66.1192C43.3809 66.1192 43.3776 66.1126 43.3709 66.0992Z" fill="#897EB3"/>
</g>
<defs>
<linearGradient id="paint0_linear_57_337" x1="0.0209052" y1="60.2592" x2="113.831" y2="60.2592" gradientUnits="userSpaceOnUse">
<stop stop-color="#C0CBD8"/>
<stop offset="0.54" stop-color="white"/>
<stop offset="0.87" stop-color="white"/>
<stop offset="0.99" stop-color="#C0CBD8"/>
</linearGradient>
<linearGradient id="paint1_linear_57_337" x1="0.00262451" y1="0.978882" x2="170.703" y2="0.978882" gradientUnits="userSpaceOnUse">
<stop stop-color="#C0CBD8"/>
<stop offset="0.54" stop-color="white"/>
<stop offset="0.87" stop-color="white"/>
<stop offset="0.99" stop-color="#C0CBD8"/>
</linearGradient>
<linearGradient id="paint2_linear_57_337" x1="-113.798" y1="0.978882" x2="227.603" y2="0.978882" gradientUnits="userSpaceOnUse">
<stop stop-color="#C0CBD8"/>
<stop offset="0.54" stop-color="white"/>
<stop offset="0.87" stop-color="white"/>
<stop offset="0.99" stop-color="#C0CBD8"/>
</linearGradient>
<linearGradient id="paint3_linear_57_337" x1="-0.0573348" y1="60.2932" x2="113.686" y2="60.2932" gradientUnits="userSpaceOnUse">
<stop stop-color="#C0CBD8"/>
<stop offset="0.54" stop-color="white"/>
<stop offset="0.87" stop-color="white"/>
<stop offset="0.99" stop-color="#C0CBD8"/>
</linearGradient>
<linearGradient id="paint4_linear_57_337" x1="-0.0551184" y1="60.4645" x2="113.714" y2="60.4645" gradientUnits="userSpaceOnUse">
<stop stop-color="#C0CBD8"/>
<stop offset="0.54" stop-color="white"/>
<stop offset="0.87" stop-color="white"/>
<stop offset="0.99" stop-color="#C0CBD8"/>
</linearGradient>
<linearGradient id="paint5_linear_57_337" x1="0.248793" y1="60.3097" x2="113.737" y2="60.3097" gradientUnits="userSpaceOnUse">
<stop stop-color="#C0CBD8"/>
<stop offset="0.54" stop-color="white"/>
<stop offset="0.87" stop-color="white"/>
<stop offset="0.99" stop-color="#C0CBD8"/>
</linearGradient>
<linearGradient id="paint6_linear_57_337" x1="0.0667077" y1="59.9921" x2="114.139" y2="59.9921" gradientUnits="userSpaceOnUse">
<stop stop-color="#C0CBD8"/>
<stop offset="0.54" stop-color="white"/>
<stop offset="0.87" stop-color="white"/>
<stop offset="0.99" stop-color="#C0CBD8"/>
</linearGradient>
<linearGradient id="paint7_linear_57_337" x1="-0.196352" y1="60.2899" x2="113.588" y2="60.2899" gradientUnits="userSpaceOnUse">
<stop stop-color="#C0CBD8"/>
<stop offset="0.54" stop-color="white"/>
<stop offset="0.87" stop-color="white"/>
<stop offset="0.99" stop-color="#C0CBD8"/>
</linearGradient>
<linearGradient id="paint8_linear_57_337" x1="0.149917" y1="60.379" x2="113.78" y2="60.379" gradientUnits="userSpaceOnUse">
<stop stop-color="#C0CBD8"/>
<stop offset="0.54" stop-color="white"/>
<stop offset="0.87" stop-color="white"/>
<stop offset="0.99" stop-color="#C0CBD8"/>
</linearGradient>
<linearGradient id="paint9_linear_57_337" x1="-0.0462945" y1="60.1027" x2="113.852" y2="60.1027" gradientUnits="userSpaceOnUse">
<stop stop-color="#C0CBD8"/>
<stop offset="0.54" stop-color="white"/>
<stop offset="0.87" stop-color="white"/>
<stop offset="0.99" stop-color="#C0CBD8"/>
</linearGradient>
<linearGradient id="paint10_linear_57_337" x1="-0.244963" y1="59.9179" x2="113.826" y2="59.9179" gradientUnits="userSpaceOnUse">
<stop stop-color="#C0CBD8"/>
<stop offset="0.54" stop-color="white"/>
<stop offset="0.87" stop-color="white"/>
<stop offset="0.99" stop-color="#C0CBD8"/>
</linearGradient>
<linearGradient id="paint11_linear_57_337" x1="0.406868" y1="59.9179" x2="113.825" y2="59.9179" gradientUnits="userSpaceOnUse">
<stop stop-color="#C0CBD8"/>
<stop offset="0.54" stop-color="white"/>
<stop offset="0.87" stop-color="white"/>
<stop offset="0.99" stop-color="#C0CBD8"/>
</linearGradient>
<linearGradient id="paint12_linear_57_337" x1="0.0667077" y1="60.3661" x2="114.139" y2="60.3661" gradientUnits="userSpaceOnUse">
<stop stop-color="#C0CBD8"/>
<stop offset="0.54" stop-color="white"/>
<stop offset="0.87" stop-color="white"/>
<stop offset="0.99" stop-color="#C0CBD8"/>
</linearGradient>
<linearGradient id="paint13_linear_57_337" x1="-0.174782" y1="60.177" x2="113.78" y2="60.177" gradientUnits="userSpaceOnUse">
<stop stop-color="#C0CBD8"/>
<stop offset="0.54" stop-color="white"/>
<stop offset="0.87" stop-color="white"/>
<stop offset="0.99" stop-color="#C0CBD8"/>
</linearGradient>
<linearGradient id="paint14_linear_57_337" x1="-0.0336718" y1="60.3514" x2="113.7" y2="60.3514" gradientUnits="userSpaceOnUse">
<stop stop-color="#C0CBD8"/>
<stop offset="0.54" stop-color="white"/>
<stop offset="0.87" stop-color="white"/>
<stop offset="0.99" stop-color="#C0CBD8"/>
</linearGradient>
</defs>
</svg>
