<svg width="133" height="117" viewBox="0 0 133 117" fill="none" xmlns="http://www.w3.org/2000/svg">
<g id="11">
<path d="M26.8009 89.5592C27.1609 88.9792 27.6409 88.1993 27.5109 87.6493C27.3009 86.7993 25.9509 87.7692 25.6509 87.9492C25.5309 88.0192 25.4109 88.0893 25.2709 88.1593C24.8209 87.7193 24.3109 87.3093 23.7609 87.1893C23.6409 87.1593 23.5109 87.2893 23.5009 87.4093C23.4709 87.8893 23.5609 88.4193 23.6709 88.9293C23.0909 89.2193 22.5609 89.5493 22.1809 89.9793C22.1309 90.0393 22.1209 90.1593 22.1609 90.2293C22.5209 90.8093 23.3709 90.8393 23.9709 90.9193C24.0009 90.9193 24.0409 90.9193 24.0709 90.9193C24.0709 90.9193 24.0709 90.9392 24.0709 90.9492C24.0709 91.0792 24.0909 91.2192 24.0909 91.3392C24.0909 91.8192 24.0209 92.6593 24.4509 92.9793C24.5309 93.0393 24.6709 93.0593 24.7609 93.0093C25.0809 92.8093 25.2309 92.6093 25.3909 92.2793C25.5909 91.8793 25.7709 91.4793 25.9709 91.0793C26.5709 91.1293 27.1709 91.1892 27.7609 91.3092C27.8909 91.3392 28.0309 91.1793 27.9909 91.0493C27.8409 90.4993 27.3109 89.9993 26.7909 89.5493L26.8009 89.5592Z" fill="url(#paint0_linear_57_455)"/>
<path d="M71.9109 56.8893C72.2009 56.4093 72.6009 55.7593 72.4909 55.3093C72.3209 54.6093 71.2009 55.4093 70.9509 55.5593C70.8509 55.6193 70.7509 55.6793 70.6409 55.7293C70.2609 55.3693 69.8409 55.0293 69.3909 54.9293C69.2909 54.9093 69.1809 55.0093 69.1709 55.1093C69.1509 55.5093 69.2209 55.9493 69.3109 56.3693C68.8409 56.6093 68.3909 56.8793 68.0809 57.2393C68.0409 57.2893 68.0309 57.3893 68.0609 57.4493C68.3509 57.9293 69.0609 57.9593 69.5609 58.0193C69.5909 58.0193 69.6209 58.0193 69.6509 58.0193C69.6509 58.0193 69.6509 58.0293 69.6509 58.0393C69.6509 58.1493 69.6609 58.2593 69.6609 58.3693C69.6609 58.7693 69.6009 59.4593 69.9609 59.7193C70.0309 59.7693 70.1409 59.7893 70.2209 59.7393C70.4809 59.5793 70.6109 59.4093 70.7409 59.1393C70.9009 58.8093 71.0609 58.4693 71.2209 58.1493C71.7209 58.1893 72.2109 58.2393 72.6909 58.3293C72.8009 58.3493 72.9109 58.2293 72.8909 58.1193C72.7609 57.6593 72.3309 57.2493 71.9009 56.8793L71.9109 56.8893Z" fill="url(#paint1_linear_57_455)"/>
<path d="M37.7909 52.0293C38.5209 52.3493 39.5109 52.7693 40.1209 52.5293C41.0709 52.1493 39.7109 50.7493 39.4509 50.4293C39.3509 50.2993 39.2509 50.1693 39.1509 50.0293C39.5809 49.4293 39.9709 48.7793 40.0109 48.1293C40.0109 47.9793 39.8509 47.8493 39.7209 47.8593C39.1509 47.9093 38.5609 48.1093 37.9909 48.3193C37.5609 47.7093 37.0909 47.1393 36.5209 46.7793C36.4409 46.7293 36.3009 46.7393 36.2309 46.7993C35.6209 47.3093 35.7209 48.2993 35.7409 49.0093C35.7409 49.0493 35.7409 49.0893 35.7409 49.1293C35.7409 49.1293 35.7209 49.1293 35.7109 49.1293C35.5609 49.1693 35.4109 49.1993 35.2609 49.2193C34.7109 49.2993 33.7209 49.3593 33.4309 49.9093C33.3709 50.0093 33.3709 50.1793 33.4509 50.2693C33.7309 50.5993 33.9809 50.7393 34.4009 50.8693C34.9009 51.0293 35.3909 51.1793 35.8809 51.3393C35.9309 52.0393 35.9609 52.7493 35.9209 53.4393C35.9209 53.5993 36.1109 53.7293 36.2509 53.6693C36.8609 53.3993 37.3509 52.7093 37.7809 52.0293H37.7909Z" fill="url(#paint2_linear_57_455)"/>
<path d="M38.2809 101.549C37.1309 101.549 36.9509 103.339 38.1109 103.339C39.2709 103.339 39.4409 101.549 38.2809 101.549Z" fill="url(#paint3_linear_57_455)"/>
<path d="M79.6309 66.6793C79.6609 66.7893 79.6909 66.8993 79.7409 66.9993C79.8909 67.3193 80.1109 67.4093 80.3209 67.3693C80.5209 67.3893 80.7409 67.2892 80.9009 66.9492C80.9309 66.8992 80.9509 66.8493 80.9609 66.7993C81.3309 65.5793 79.3309 65.6893 79.6309 66.6793Z" fill="url(#paint4_linear_57_455)"/>
<path d="M103.821 22.0593C103.851 22.1693 103.891 22.2793 103.931 22.3893C104.081 22.7093 104.301 22.7993 104.511 22.7593C104.711 22.7893 104.931 22.6793 105.091 22.3393C105.121 22.2893 105.141 22.2393 105.151 22.1793C105.521 20.9593 103.521 21.0693 103.821 22.0593Z" fill="url(#paint5_linear_57_455)"/>
<path d="M31.3309 38.1393C34.1809 36.4993 37.1409 35.2793 40.2709 34.2693C41.8009 33.7893 43.4409 33.8193 45.0009 33.4793C46.2909 33.1993 47.3909 33.4693 48.5609 33.5593C48.9909 33.7093 49.4209 33.8793 49.8509 34.0593C51.1309 34.6093 52.5409 35.1593 53.8609 35.8293C51.3609 35.2793 48.5809 35.4493 46.2409 36.0993C43.4109 36.8793 39.2009 37.7893 38.1009 40.9993C38.0709 41.0893 38.1709 41.1893 38.2609 41.1593C38.6309 41.0393 38.9609 40.8593 39.2809 40.6593C42.8009 39.6393 46.5209 39.9693 50.0209 40.9593C52.7809 41.7393 55.6809 43.1593 58.5909 43.0393C58.7409 43.2093 58.8809 43.3693 59.0409 43.5193C60.8109 45.2693 63.1109 45.1293 65.3909 45.3393C65.5609 45.3493 65.7009 45.2693 65.7809 45.1493C66.8409 45.6893 67.7809 46.2893 68.9409 46.6693C68.9509 46.6693 68.9609 46.6693 68.9709 46.6693C69.0309 46.7493 69.0909 46.8293 69.1509 46.9193C70.0509 48.1893 73.3709 50.6993 75.3209 49.9793C75.7209 49.9993 76.1209 49.9093 76.4709 49.6893C77.2909 50.0693 78.0709 50.5693 78.9409 50.8793C80.9409 51.5793 82.5309 51.6293 84.6609 51.4993C84.8709 51.4893 85.0809 51.4593 85.2909 51.4393C85.3909 51.5793 85.4809 51.7093 85.5409 51.7593C86.2909 52.2693 87.2309 52.7493 88.1609 52.7793C90.9709 52.8793 93.2609 51.7493 95.5209 50.1993C97.9009 48.5693 102.171 44.0893 99.5809 41.1493C99.6709 40.9093 99.7609 40.6693 99.8509 40.4093C100.461 38.5893 100.601 35.3293 99.3809 33.5693C99.5009 33.5193 99.6109 33.4493 99.7209 33.3693C100.111 33.0493 100.311 32.6093 100.371 32.1393C101.441 30.3593 99.6009 26.6193 98.5209 25.4993C97.5509 24.4893 96.2309 22.8193 94.6009 22.9993C94.4209 23.0193 94.2409 23.0493 94.0509 23.0793C93.9409 22.6593 93.8009 22.2393 93.6109 21.8193C93.6509 21.7393 93.6709 21.6393 93.6509 21.5393C93.0209 18.5893 91.0209 15.5093 88.2409 14.2093C87.2909 10.0193 81.7109 7.44926 78.1609 6.03926C75.0909 4.81926 71.8009 4.40926 68.5609 3.82926C65.1809 3.22926 62.5909 1.53926 59.6209 0.0392585C59.4509 -0.0507415 59.3009 0.149258 59.4209 0.299258C59.5309 0.429258 59.6509 0.559258 59.7709 0.679258C60.7309 2.62926 61.0409 4.39926 62.9309 5.78926C63.0409 5.86926 63.1509 5.94926 63.2609 6.02926C62.1109 5.86926 60.9509 5.72926 59.7709 5.61926C54.2609 5.07926 48.7509 5.38926 43.2809 6.15926C37.2309 7.01926 32.2109 9.25926 26.8309 12.0393C17.6609 16.7893 12.8709 27.9693 12.0109 37.7693C11.8509 39.6093 11.8309 45.5393 12.8409 50.3493C12.8309 50.3493 12.8209 50.3493 12.8109 50.3493C7.70091 51.6493 0.0409072 54.5893 0.0209072 61.1993C0.0109072 64.8393 0.480907 67.5193 2.36091 70.6593C4.20091 73.7293 6.13091 76.7693 7.86091 79.8993C7.86091 79.9293 7.86091 79.9593 7.85091 79.9793C7.83091 80.1193 7.96091 80.2292 8.07091 80.1992C8.19091 80.2592 8.36091 80.1792 8.37091 80.0192C8.37091 79.9092 8.37091 79.8092 8.37091 79.6992C9.66091 76.9192 9.16091 73.3392 10.0309 70.3792C10.8609 67.5792 13.9409 65.9593 15.3209 63.5593C16.0309 66.0793 18.0409 68.4093 19.1209 70.6693C20.3309 73.1993 20.8009 75.7993 20.2409 78.5693C20.1609 78.9493 19.4709 80.0192 19.1709 80.8092C19.1009 80.8792 19.0309 80.9493 18.9609 81.0293C18.6409 81.3693 19.0709 81.9892 19.4809 81.6992C23.8509 78.4992 26.2409 75.0693 27.8809 69.9093C29.6509 64.3293 27.0109 59.9293 24.2509 55.3793C20.2009 48.6993 25.6509 41.3993 31.3309 38.1293V38.1393Z" fill="url(#paint6_linear_57_455)"/>
<path d="M132.841 55.1993C132.851 51.5593 132.381 48.8793 130.501 45.7393C128.661 42.6693 126.731 39.6293 125.001 36.4993C125.001 36.4693 125.001 36.4493 125.001 36.4193C125.021 36.2793 124.891 36.1693 124.781 36.1993C124.661 36.1393 124.491 36.2193 124.481 36.3693C124.481 36.4793 124.481 36.5793 124.481 36.6893C123.191 39.4693 123.691 43.0393 122.821 46.0093C121.991 48.8093 118.911 50.4293 117.541 52.8293C116.831 50.3093 114.821 47.9793 113.741 45.7193C112.531 43.1893 112.071 40.5893 112.621 37.8193C112.701 37.4393 113.391 36.3693 113.691 35.5793C113.761 35.5093 113.831 35.4393 113.901 35.3593C114.231 35.0193 113.791 34.3993 113.381 34.6893C109.011 37.8793 106.621 41.3193 104.981 46.4793C103.211 52.0593 105.851 56.4593 108.611 61.0093C112.661 67.6893 107.211 74.9893 101.531 78.2593C98.6809 79.8993 95.7209 81.1193 92.5909 82.1193C91.0609 82.6093 89.4209 82.5693 87.8609 82.9193C86.5709 83.1993 85.4709 82.9293 84.3009 82.8393C83.8709 82.6793 83.4409 82.5193 83.0109 82.3393C81.7309 81.7893 80.3209 81.2393 79.0009 80.5693C81.5009 81.1193 84.2809 80.9393 86.6209 80.2993C89.4509 79.5193 93.6609 78.6093 94.7509 75.3993C94.7809 75.3093 94.6809 75.2093 94.5909 75.2393C94.2209 75.3593 93.8909 75.5393 93.5809 75.7393C90.0609 76.7593 86.3409 76.4293 82.8409 75.4393C80.0809 74.6593 77.1909 73.2393 74.2709 73.3693C74.1209 73.1993 73.9809 73.0393 73.8209 72.8893C72.0509 71.1393 69.7509 71.2693 67.4709 71.0693C67.3009 71.0593 67.1609 71.1393 67.0809 71.2593C66.0209 70.7193 65.0809 70.1193 63.9209 69.7393C63.9109 69.7393 63.9009 69.7393 63.8809 69.7393C63.8209 69.6493 63.7609 69.5693 63.7009 69.4893C62.8009 68.2193 59.4809 65.7093 57.5209 66.4293C57.1209 66.4093 56.7209 66.4993 56.3709 66.7193C55.5509 66.3393 54.7709 65.8393 53.9009 65.5393C51.9009 64.8293 50.3109 64.7893 48.1809 64.9193C47.9709 64.9293 47.7609 64.9593 47.5509 64.9793C47.4609 64.8393 47.3609 64.7093 47.3009 64.6593C46.5509 64.1393 45.6209 63.6693 44.6809 63.6393C41.8709 63.5393 39.5809 64.6693 37.3209 66.2193C34.9409 67.8593 30.6709 72.3293 33.2609 75.2693C33.1709 75.5093 33.0809 75.7493 32.9909 76.0093C32.3809 77.8293 32.2409 81.0893 33.4609 82.8493C33.3509 82.8993 33.2309 82.9693 33.1209 83.0493C32.7309 83.3693 32.5309 83.8093 32.4709 84.2693C31.4009 86.0493 33.2409 89.7893 34.3209 90.9093C35.2909 91.9193 36.6209 93.5893 38.2409 93.4093C38.4209 93.3893 38.6109 93.3593 38.7909 93.3193C38.9009 93.7393 39.0409 94.1693 39.2309 94.5893C39.1909 94.6693 39.1709 94.7693 39.1909 94.8693C39.8209 97.8193 41.8209 100.899 44.6009 102.199C45.5509 106.389 51.1309 108.959 54.6809 110.369C57.7509 111.589 61.0409 111.999 64.2809 112.579C67.6709 113.179 70.2509 114.869 73.2309 116.369C73.4009 116.459 73.5509 116.259 73.4309 116.109C73.3209 115.979 73.2009 115.859 73.0809 115.729C72.1209 113.779 71.8109 112.009 69.9209 110.619C69.8109 110.539 69.7009 110.459 69.5909 110.379C70.7409 110.539 71.9009 110.679 73.0809 110.789C78.5909 111.329 84.1009 111.019 89.5709 110.249C95.6109 109.389 100.641 107.149 106.021 104.369C115.191 99.6193 119.981 88.4393 120.841 78.6393C121.001 76.7993 121.021 70.8693 120.001 66.0593C120.011 66.0593 120.021 66.0593 120.031 66.0593C125.171 64.7293 132.831 61.7893 132.851 55.1893L132.841 55.1993Z" fill="url(#paint7_linear_57_455)"/>
<path d="M97.3309 68.9093C97.6309 68.4293 98.0309 67.7793 97.9209 67.3193C97.7509 66.6193 96.6309 67.4193 96.3809 67.5793C96.2809 67.6393 96.1809 67.6993 96.0709 67.7493C95.7009 67.3893 95.2809 67.0493 94.8209 66.9493C94.7209 66.9293 94.6109 67.0293 94.6009 67.1293C94.5809 67.5293 94.6509 67.9693 94.7409 68.3893C94.2709 68.6293 93.8209 68.8993 93.5109 69.2593C93.4709 69.3093 93.4609 69.4093 93.4909 69.4693C93.7809 69.9493 94.4909 69.9793 94.9909 70.0393C95.0209 70.0393 95.0509 70.0393 95.0809 70.0393C95.0809 70.0393 95.0809 70.0493 95.0809 70.0593C95.0809 70.1693 95.0909 70.2793 95.0909 70.3893C95.0909 70.7893 95.0309 71.4793 95.3909 71.7393C95.4609 71.7893 95.5709 71.8093 95.6509 71.7593C95.9109 71.5993 96.0409 71.4293 96.1709 71.1593C96.3309 70.8293 96.4909 70.4993 96.6509 70.1693C97.1509 70.2093 97.6509 70.2593 98.1309 70.3493C98.2409 70.3793 98.3509 70.2493 98.3209 70.1393C98.1909 69.6893 97.7609 69.2693 97.3209 68.9093H97.3309Z" fill="url(#paint8_linear_57_455)"/>
<path d="M110.111 29.5993C110.881 29.4093 111.931 29.1493 112.271 28.5893C112.801 27.7093 110.871 27.4093 110.471 27.3193C110.311 27.2793 110.151 27.2393 109.991 27.1893C109.971 26.4593 109.891 25.6993 109.531 25.1493C109.441 25.0293 109.241 25.0193 109.131 25.1193C108.711 25.4993 108.351 26.0193 108.021 26.5293C107.311 26.2993 106.591 26.1393 105.921 26.1893C105.831 26.1893 105.721 26.2893 105.701 26.3793C105.521 27.1493 106.201 27.8793 106.651 28.4293C106.671 28.4593 106.701 28.4893 106.731 28.5193C106.731 28.5193 106.721 28.5393 106.711 28.5493C106.611 28.6693 106.511 28.7893 106.401 28.8993C106.011 29.2993 105.261 29.9393 105.361 30.5493C105.381 30.6693 105.481 30.7993 105.601 30.8193C106.031 30.9093 106.311 30.8693 106.721 30.7293C107.211 30.5593 107.701 30.3793 108.191 30.2093C108.651 30.7393 109.101 31.2893 109.491 31.8593C109.581 31.9893 109.821 31.9793 109.891 31.8393C110.211 31.2593 110.191 30.4093 110.111 29.6093V29.5993Z" fill="url(#paint9_linear_57_455)"/>
<path d="M68.8609 62.4393C67.7109 62.4393 67.5309 64.2293 68.6909 64.2293C69.8509 64.2293 70.0209 62.4393 68.8609 62.4393Z" fill="url(#paint10_linear_57_455)"/>
<path d="M40.2109 55.4393C40.2409 55.5493 40.2709 55.6593 40.3209 55.7693C40.4709 56.0893 40.6909 56.1793 40.9009 56.1393C41.1109 56.1693 41.3209 56.0593 41.4809 55.7193C41.5109 55.6693 41.5309 55.6193 41.5409 55.5693C41.9109 54.3493 39.9109 54.4493 40.2109 55.4493V55.4393Z" fill="url(#paint11_linear_57_455)"/>
<path d="M49.4009 46.4993C49.4309 46.6093 49.4609 46.7193 49.5109 46.8293C49.6609 47.1493 49.8809 47.2393 50.0909 47.1993C50.3009 47.2193 50.5109 47.1193 50.6709 46.7793C50.7009 46.7293 50.7209 46.6793 50.7309 46.6193C51.1009 45.3993 49.1009 45.5093 49.4009 46.4993Z" fill="url(#paint12_linear_57_455)"/>
<path d="M117.391 37.5593C117.421 37.6693 117.451 37.7793 117.501 37.8893C117.651 38.2093 117.871 38.2993 118.081 38.2593C118.291 38.2893 118.501 38.1793 118.661 37.8393C118.691 37.7893 118.711 37.7393 118.721 37.6793C119.091 36.4593 117.091 36.5693 117.391 37.5593Z" fill="url(#paint13_linear_57_455)"/>
<path d="M47.7809 57.0593C46.0109 57.0593 45.7409 59.8193 47.5209 59.8193C49.3009 59.8193 49.5609 57.0593 47.7809 57.0593Z" fill="url(#paint14_linear_57_455)"/>
<path d="M30.5209 97.9492C28.7509 97.9492 28.4709 100.699 30.2609 100.699C32.0509 100.699 32.3009 97.9492 30.5209 97.9492Z" fill="url(#paint15_linear_57_455)"/>
<path d="M97.7009 59.9793C95.9309 59.9793 95.6609 62.7393 97.4409 62.7393C99.2209 62.7393 99.4809 59.9793 97.7009 59.9793Z" fill="url(#paint16_linear_57_455)"/>
<path d="M90.2409 64.5793C88.4709 64.5793 88.2009 67.3392 89.9809 67.3392C91.7609 67.3392 92.0209 64.5793 90.2409 64.5793Z" fill="url(#paint17_linear_57_455)"/>
<path d="M64.1009 53.7893C64.0709 53.4093 63.6909 53.1193 63.3409 53.0893C62.8809 53.0493 62.4509 53.3993 62.4109 53.8593C62.4109 53.9493 62.3909 54.0393 62.3909 54.1293C62.3509 54.6093 62.7009 55.0393 63.1809 55.0893C63.7909 55.1493 64.1709 54.6193 64.1309 54.0593L64.1109 53.7893H64.1009Z" fill="url(#paint18_linear_57_455)"/>
<path d="M33.9609 19.5893C34.1309 19.4993 34.3109 19.4293 34.4909 19.3493C34.5209 19.3993 34.5709 19.4393 34.6309 19.4193C39.5409 17.9993 45.9609 19.4993 50.7509 20.5993C55.5609 21.6993 60.3309 23.4693 64.5409 26.0193C68.9309 28.6793 72.1909 32.9293 76.7109 35.3193C78.0909 36.0493 80.0009 36.3993 81.5309 35.9793C81.9409 35.8693 82.4409 35.6393 82.6809 35.2693C82.6809 35.2693 83.3109 33.8993 83.0809 34.2993C83.2109 34.0693 83.1509 33.8493 83.0109 33.6993C83.0909 33.5393 83.1109 33.3393 83.0109 33.1493C80.8109 29.2993 78.6209 26.1993 74.8409 23.8093C70.7309 21.2193 66.4709 18.8493 61.7709 17.4893C56.7609 16.0393 51.6909 15.5993 46.4909 15.6693C42.0409 15.7193 37.3809 16.4893 33.7709 19.2793C33.5909 19.4193 33.7409 19.7093 33.9509 19.5993L33.9609 19.5893ZM61.3409 19.0393C65.5009 20.2293 69.7609 22.3593 73.3009 24.8393C74.8209 25.9093 76.3109 26.8693 77.6609 28.1693C79.3209 29.7693 80.4409 32.0393 81.9909 33.7893C80.7209 34.9393 78.9509 34.4893 77.5509 33.8993C75.1009 32.8693 73.0409 30.5693 71.0809 28.8193C67.6609 25.7793 63.6909 23.3593 59.4009 21.7693C55.5509 20.3393 51.3509 18.9893 47.2709 18.4593C44.5709 18.1093 41.0009 17.5593 37.9209 18.0293C45.4109 15.7993 54.1109 16.9693 61.3509 19.0393H61.3409Z" fill="#897EB3"/>
<path d="M31.3309 38.1393C34.1809 36.4993 37.1409 35.2793 40.2709 34.2693C41.8009 33.7893 43.4409 33.8193 45.0009 33.4793C46.2909 33.1993 47.3909 33.4693 48.5609 33.5593C48.9909 33.7093 49.4209 33.8793 49.8509 34.0593C51.1309 34.6093 52.5509 35.1593 53.8709 35.8393C51.3709 35.2893 48.5809 35.4593 46.2409 36.0993C43.4109 36.8793 39.2009 37.7893 38.1009 40.9993C38.0709 41.0893 38.1709 41.1893 38.2609 41.1593C38.6009 41.0493 38.9009 40.8793 39.2009 40.6993C42.7409 39.6493 46.4909 39.9693 50.0209 40.9593C52.7809 41.7293 55.6709 43.1493 58.5809 43.0193C58.7309 43.1893 58.8809 43.3593 59.0409 43.5093C60.8109 45.2593 63.1109 45.1193 65.3909 45.3293C65.5609 45.3493 65.7009 45.2593 65.7809 45.1393C66.8409 45.6793 67.7809 46.2793 68.9409 46.6593C68.9509 46.6593 68.9609 46.6593 68.9809 46.6593C69.0409 46.7393 69.1009 46.8293 69.1609 46.8993C70.0609 48.1693 73.3809 50.6793 75.3309 49.9593C75.7309 49.9793 76.1309 49.8893 76.4809 49.6693C77.3009 50.0493 78.0809 50.5493 78.9509 50.8593C80.9509 51.5593 82.5409 51.6093 84.6709 51.4793C84.8809 51.4693 85.0909 51.4393 85.3009 51.4193C85.3909 51.5593 85.4909 51.6893 85.5509 51.7393C86.3009 52.2493 87.2409 52.7293 88.1709 52.7593C90.9809 52.8593 93.2709 51.7293 95.5309 50.1793C97.9109 48.5493 102.161 44.0793 99.5709 41.1293C99.6709 40.8793 99.7709 40.6493 99.8609 40.3793C100.471 38.5593 100.601 35.2993 99.3809 33.5393C99.5009 33.4893 99.6209 33.4293 99.7309 33.3393C100.121 33.0193 100.321 32.5793 100.381 32.1193C101.451 30.3393 99.6109 26.5993 98.5309 25.4793C97.5609 24.4693 96.2309 22.7993 94.6109 22.9793C94.4309 22.9993 94.2509 23.0293 94.0609 23.0693C93.9509 22.6493 93.8109 22.2293 93.6209 21.7993C93.6609 21.7193 93.6809 21.6193 93.6609 21.5193C93.0309 18.5693 91.0309 15.4793 88.2509 14.1893C87.3009 9.99926 81.7209 7.42926 78.1709 6.01926C75.1009 4.79926 71.8109 4.38926 68.5709 3.80926C65.1909 3.20926 62.6009 1.51926 59.6309 0.0192585C59.4609 -0.0707415 59.3109 0.129258 59.4309 0.279258C59.5409 0.409258 59.6609 0.539258 59.7809 0.659258C60.7409 2.60926 61.0509 4.37926 62.9409 5.76926C63.0509 5.84926 63.1609 5.92926 63.2709 5.99926C62.1209 5.83926 60.9609 5.69926 59.7909 5.58926C54.2809 5.04926 48.7709 5.35926 43.3009 6.12926C37.2509 6.98926 32.2309 9.22926 26.8509 12.0093C17.6809 16.7593 12.8909 27.9393 12.0309 37.7393C11.8709 39.5793 11.8509 45.5093 12.8609 50.3193C12.8509 50.3193 12.8409 50.3193 12.8309 50.3193C7.70091 51.6493 0.0409072 54.5893 0.0209072 61.1993C0.0109072 64.8393 0.480907 67.5193 2.36091 70.6593C4.20091 73.7293 6.13091 76.7693 7.86091 79.8993C7.86091 79.9293 7.86091 79.9593 7.86091 79.9893C7.84091 80.1293 7.97091 80.2393 8.08091 80.2093C8.20091 80.2793 8.37091 80.1893 8.38091 80.0293C8.38091 79.9193 8.38091 79.7993 8.38091 79.6893C9.66091 76.9093 9.18091 73.3493 10.0509 70.3893C10.8809 67.5893 13.9609 65.9793 15.3409 63.5693C16.0509 66.0893 18.0609 68.4193 19.1409 70.6793C20.3509 73.2093 20.8209 75.8093 20.2609 78.5793C20.1809 78.9693 19.4909 80.0293 19.1909 80.8193C19.1209 80.8893 19.0509 80.9593 18.9809 81.0393C18.6609 81.3793 19.0909 81.9993 19.5009 81.7093C23.8709 78.5093 26.2609 75.0793 27.9009 69.9193C29.6709 64.3393 27.0309 59.9393 24.2709 55.3893C20.2209 48.7093 25.6709 41.4093 31.3509 38.1393H31.3309ZM58.0409 37.3693C57.5909 35.2993 55.9709 33.4593 54.3009 32.2593C52.0309 30.6293 49.5109 29.8793 46.9809 29.1293C48.7309 29.3893 50.5109 29.4993 51.9409 29.6893C54.5809 30.0493 57.3509 30.8093 59.3909 32.6293C60.3009 33.4393 61.1209 34.3593 61.9809 35.2293C60.4109 35.2093 58.9509 36.1093 58.0509 37.3693H58.0409ZM40.0509 40.1293C40.3509 39.8993 40.6509 39.6593 40.9709 39.4293C42.6309 38.2193 44.6609 37.8393 46.6109 37.3693C48.2509 36.9693 50.3009 36.7393 51.9909 36.9793C53.4009 37.1793 54.8009 37.5793 56.2209 37.5393C56.2909 37.5393 56.3609 37.5093 56.4209 37.4793C56.5709 37.6093 56.7209 37.7393 56.8709 37.8793C57.0309 38.1893 57.1809 38.5193 57.3409 38.8493C57.1009 39.7793 57.2709 40.7093 57.6709 41.5693C51.8609 39.9893 45.8409 38.0593 40.0609 40.1393L40.0509 40.1293ZM58.9909 41.1193C57.3509 38.2993 60.7309 36.2093 63.4309 36.5393C63.4309 36.5393 63.4509 36.5593 63.4609 36.5593C63.5509 36.6293 63.6509 36.6193 63.7509 36.5893C63.9409 36.6293 64.1309 36.6793 64.3109 36.7493C63.7009 36.7393 63.0709 36.8893 62.3309 37.1193C61.2109 37.4693 59.7909 38.4093 59.7509 39.7293C59.6909 41.5393 61.0909 42.4093 62.4209 43.3493C62.6509 43.5093 62.8809 43.6593 63.1209 43.7993C63.0409 43.7893 62.9609 43.7793 62.8809 43.7693C61.1809 43.4493 59.8609 42.6393 58.9909 41.1293V41.1193ZM69.6909 41.7693C71.4609 41.0393 73.6309 43.5093 74.4709 44.7293C75.1209 45.6593 75.6209 46.7593 75.7709 47.8893C75.1509 46.5793 74.2209 45.5493 73.0609 44.6793C72.1809 44.0193 71.1109 43.0993 69.9409 43.3493C69.5409 43.4393 69.2309 43.6293 69.0409 43.8893C68.7409 42.9593 68.8109 42.1293 69.6909 41.7693ZM73.7209 48.7893C73.7209 48.7893 73.6909 48.7893 73.6809 48.7893C72.9009 48.5093 72.1809 48.0093 71.5509 47.5193C71.0509 47.1393 70.0809 46.0093 69.4609 44.8293C69.5109 43.9393 70.7309 44.4893 71.1409 44.7693C71.7709 45.1793 72.3609 45.7193 72.9109 46.2193C73.7909 47.0193 74.2809 47.8693 74.5909 48.9093C74.2909 48.8593 73.9909 48.7993 73.7209 48.7793V48.7893ZM92.4909 50.5393C90.9709 51.4393 88.8309 51.7293 87.0809 51.1693C89.4409 50.6993 91.7609 49.7393 93.6209 48.2993C95.8409 46.5793 97.4709 45.1193 98.6809 43.0293C98.5409 46.4593 95.4409 48.7893 92.4909 50.5393ZM98.7009 27.9393C99.0609 28.6593 99.4109 29.4593 99.5409 30.2793C99.5409 30.2893 99.5409 30.3093 99.5409 30.3193C99.5109 30.5793 99.5209 30.8893 99.5109 31.1893C98.5409 30.6893 97.8009 30.0493 97.1809 29.0393C96.7909 28.3993 96.3709 27.7193 96.0909 27.0293C95.9009 26.5693 95.5909 25.2693 96.4709 25.3893C97.5109 26.2193 98.4409 27.3893 98.7209 27.9493L98.7009 27.9393ZM95.6009 24.7993C95.3109 24.9393 95.0609 25.1993 94.9009 25.5793C94.4309 26.6793 95.1309 27.9093 95.6209 28.8993C96.2609 30.2093 97.1009 31.3093 98.2709 32.1693C97.1909 31.8093 96.2009 31.0993 95.4009 30.2893C94.3609 29.2293 92.3409 26.6293 93.3909 25.0293C93.9109 24.2293 94.7409 24.3193 95.6009 24.7993ZM90.3909 17.6593C89.3609 16.8693 88.2009 16.3093 87.0209 16.1593C85.3509 15.9393 83.2909 16.9293 82.7709 18.4093C82.7209 18.2793 82.6209 18.1893 82.4809 18.1293C81.6009 15.8193 84.6909 14.6593 86.3909 14.9693C88.1709 15.2993 89.4009 16.3493 90.3909 17.6593ZM81.3209 17.8493C75.3209 16.4593 70.3409 12.8393 64.4709 11.3193C64.6309 11.3193 64.8009 11.3093 64.9609 11.2993C67.6109 11.1993 70.2409 11.5393 72.7809 12.2693C75.2609 12.9793 78.8109 15.2993 81.7909 15.1493C81.4109 15.5993 81.1509 16.1093 81.1509 16.6593C81.1509 17.1193 81.2109 17.5093 81.3209 17.8493ZM63.1309 4.58926C62.0309 3.68926 61.3409 2.52926 60.5509 1.39926C63.7009 4.25926 67.9109 5.17926 72.1009 5.93926C77.4009 6.91926 83.0809 9.28926 86.5009 13.6293C86.1409 13.5693 85.7809 13.5393 85.4009 13.5393C84.7009 12.6093 83.2309 12.1593 82.2509 11.5993C80.0009 10.3093 77.4909 9.65926 75.0609 8.77926C72.0809 7.69926 69.0609 6.94926 65.9909 6.40926C64.9709 5.87926 63.9909 5.27926 63.1409 4.57926L63.1309 4.58926ZM22.8209 44.8293C21.8509 47.2493 21.3309 49.4593 21.6409 51.9893C21.4709 53.1193 21.2809 54.2393 20.7609 55.2993C20.7109 55.3893 20.7909 55.4893 20.8909 55.4693C21.5309 55.3393 21.8709 54.6793 22.1009 54.0793C22.8809 56.3993 24.4309 58.4893 25.6909 60.5493C27.9209 64.1993 26.8109 69.4593 25.1809 73.0793C24.2009 75.2593 22.7609 77.0193 21.1909 78.7093C21.6309 77.1593 21.6509 75.4793 21.4009 73.8893C21.0609 71.7293 20.2609 69.7193 19.0809 67.8693C18.4809 66.9293 17.9509 65.8993 17.3909 64.9393C16.5109 63.4193 16.6009 61.8293 16.2009 60.1893C16.0909 59.7193 15.4309 59.7593 15.3009 60.1893C15.2309 60.4293 15.1709 60.6793 15.1309 60.9093C15.0809 60.9493 15.0409 60.9993 15.0109 61.0593C13.5209 64.1293 10.1609 65.8893 9.02091 69.1093C8.44091 70.7493 8.17091 72.3893 7.98091 74.0993C7.84091 75.3093 7.93091 76.5293 7.95091 77.7393C7.52091 76.6193 6.84091 75.5593 6.28091 74.5493C4.79091 71.8293 2.96091 68.9493 2.00091 65.9993C0.810907 62.3393 2.05091 58.1593 4.78091 55.6193C7.17091 53.3993 10.3709 52.8693 13.1109 51.3293C14.1809 55.5493 16.1709 58.5093 19.7709 56.1993C19.9209 56.0993 19.8209 55.8693 19.6509 55.9093C14.6909 57.1493 13.5409 48.5193 13.5509 45.1093C13.5609 40.5693 13.2709 36.3193 14.5709 31.8693C15.9509 27.1293 17.8909 22.7893 20.9809 18.9093C24.0309 15.0793 28.0509 13.0793 32.3209 10.9393C40.9109 6.63926 51.4509 6.25926 60.8609 7.17926C65.2409 7.60926 69.5209 8.43926 73.6709 9.88926C75.9909 10.6993 78.4409 11.3593 80.6409 12.4693C81.2109 12.7593 82.7009 13.3093 83.5809 13.8693C83.5609 13.8693 83.5409 13.8793 83.5209 13.8893C83.5009 13.8893 83.5009 13.8693 83.4809 13.8593C81.3409 13.4093 78.9709 13.2693 76.9909 12.3093C75.2009 11.4493 73.3609 10.8393 71.4309 10.3993C69.4009 9.92926 67.0209 10.1293 64.9709 10.2993C63.6409 10.4093 62.0309 10.2293 60.7409 10.6493C60.6409 10.6493 60.5409 10.6293 60.4409 10.6193C60.2609 10.6193 60.2209 10.8993 60.4009 10.9293C64.9909 11.7093 68.9909 13.6193 72.9209 16.0593C75.7809 17.8393 78.8109 19.0793 82.2009 19.3093C82.2209 19.3093 82.2309 19.3093 82.2509 19.3093C82.4309 19.5193 82.6309 19.7293 82.8409 19.9593C82.9409 20.2093 83.0709 20.4593 83.2609 20.7093C83.4409 20.9493 83.9009 20.8193 83.7909 20.4893C83.2209 18.7993 84.4609 17.4293 86.0809 17.3093C87.2909 17.2293 88.5109 18.0393 89.4609 18.6893C91.2309 19.8993 91.7009 21.9093 93.0209 23.3893C92.5509 23.6293 92.1709 23.9893 91.9909 24.5393C90.8909 27.8693 93.6809 30.9993 96.2109 32.7493C96.6909 33.0793 97.4009 33.4593 98.1009 33.6093C98.2309 35.7493 98.7709 37.7493 98.3109 39.9393C97.6009 43.3293 95.0509 45.1593 92.5009 47.1393C89.8909 49.1693 86.1809 49.9793 82.9309 50.0793C81.4009 50.1293 80.0409 49.7893 78.5709 49.3893C78.0509 49.2493 77.6109 49.0093 77.1409 48.8293C77.4509 47.9293 77.1109 46.7193 76.7709 45.9593C75.5309 43.1493 72.9709 39.8093 69.5009 40.2693C68.3409 40.4293 67.7609 41.5693 67.4509 42.5693C67.2209 43.3193 67.4209 44.0693 67.7709 44.7793C66.2909 43.7893 64.6809 43.0793 63.1709 42.0393C61.7409 41.0593 60.3009 39.6093 62.3709 38.3193C63.3209 37.7193 64.4109 37.3893 65.5009 37.5093C65.5309 37.5493 65.5709 37.5693 65.6109 37.6093C65.6909 37.6993 65.8309 37.7193 65.9309 37.6993C65.9309 37.6993 65.9309 37.6993 65.9409 37.6993C66.0009 37.7193 66.0709 37.6993 66.1209 37.6593C66.1309 37.6493 66.1509 37.6293 66.1609 37.6193C66.2009 37.6093 66.2209 37.5793 66.2209 37.5393C66.3309 37.3793 66.2509 37.1493 66.0609 37.0893C65.7509 36.9993 65.3409 36.2193 65.0209 35.9893C64.5809 35.6693 64.1709 35.5093 63.7309 35.4193C59.7509 26.6793 48.3309 29.4893 41.0409 26.4693C40.9309 26.4293 40.8709 26.5793 40.9409 26.6493C41.0809 26.7993 41.2309 26.9393 41.3909 27.0693C41.2309 26.9893 41.0609 26.9093 40.9009 26.8093C40.8309 26.7693 40.7809 26.8693 40.8409 26.9093C43.9009 29.0393 47.3609 29.6693 50.6309 31.3193C52.5509 32.2993 53.9109 33.4793 55.0109 34.8893C54.1009 34.3693 53.1109 33.9493 52.3209 33.5393C49.4709 32.0893 46.4409 31.2693 43.2909 30.8493C36.5809 29.9393 30.6909 31.1093 24.6209 33.9493C24.5509 33.9793 24.6009 34.0993 24.6709 34.0693C30.1509 31.9893 35.2409 31.3093 41.0809 31.9393C41.9909 32.0393 42.8809 32.1593 43.7709 32.3093C40.8009 32.7893 38.0109 33.2493 35.1609 34.4693C30.2109 36.5793 24.9009 39.5393 22.8009 44.7893L22.8209 44.8293Z" fill="#897EB3"/>
<path d="M98.9109 96.7993C98.7409 96.8893 98.5609 96.9593 98.3809 97.0493C98.3509 96.9993 98.3009 96.9693 98.2409 96.9893C93.3309 98.4093 86.9109 96.9193 82.1209 95.8093C77.3109 94.6993 72.5309 92.9393 68.3309 90.3893C63.9409 87.7293 60.6809 83.4793 56.1609 81.0893C54.7809 80.3593 52.8609 80.0093 51.3409 80.4293C50.9309 80.5393 50.4309 80.7693 50.1909 81.1393C50.1909 81.1393 49.5609 82.5093 49.7809 82.1093C49.6509 82.3393 49.7109 82.5693 49.8509 82.7193C49.7709 82.8793 49.7509 83.0793 49.8509 83.2693C52.0509 87.1193 54.2409 90.2193 58.0209 92.6093C62.1309 95.1993 66.3909 97.5693 71.0909 98.9293C76.0909 100.379 81.1709 100.819 86.3609 100.749C90.8109 100.689 95.4709 99.9293 99.0809 97.1393C99.2609 96.9993 99.1109 96.7093 98.8909 96.8193L98.9109 96.7993ZM71.5309 97.3493C67.3709 96.1593 63.1109 94.0293 59.5709 91.5493C58.0409 90.4793 56.5609 89.5193 55.2109 88.2193C53.5509 86.6193 52.4309 84.3493 50.8809 82.5993C52.1509 81.4493 53.9209 81.8993 55.3209 82.4993C57.7709 83.5293 59.8309 85.8293 61.7909 87.5793C65.2109 90.6193 69.1809 93.0393 73.4709 94.6293C77.3209 96.0593 81.5209 97.4093 85.6109 97.9393C88.3109 98.2893 91.8609 98.8393 94.9409 98.3693C87.4509 100.599 78.7609 99.4293 71.5309 97.3593V97.3493Z" fill="#897EB3"/>
<path d="M132.841 55.1993C132.851 51.5593 132.381 48.8793 130.501 45.7393C128.661 42.6693 126.731 39.6293 125.001 36.4993C125.001 36.4693 125.001 36.4393 125.001 36.4093C125.021 36.2693 124.891 36.1593 124.781 36.1893C124.661 36.1193 124.491 36.2093 124.481 36.3693C124.481 36.4793 124.481 36.5893 124.481 36.7093C123.201 39.4893 123.681 43.0493 122.801 46.0093C121.971 48.8193 118.891 50.4193 117.511 52.8293C116.801 50.3093 114.791 47.9793 113.711 45.7193C112.501 43.1893 112.041 40.5893 112.591 37.8193C112.671 37.4293 113.371 36.3593 113.671 35.5693C113.741 35.4993 113.811 35.4293 113.871 35.3593C114.201 35.0193 113.761 34.3993 113.351 34.6893C108.981 37.8793 106.591 41.3193 104.951 46.4793C103.181 52.0593 105.821 56.4593 108.581 61.0093C112.641 67.6893 107.181 74.9893 101.501 78.2593C98.6509 79.8993 95.6909 81.1193 92.5609 82.1193C91.0309 82.6093 89.3909 82.5693 87.8309 82.9193C86.5409 83.1993 85.4409 82.9293 84.2809 82.8393C83.8509 82.6793 83.4109 82.5193 82.9809 82.3393C81.7009 81.7893 80.2809 81.2393 78.9509 80.5593C81.4509 81.1093 84.2409 80.9393 86.5809 80.2993C89.4109 79.5193 93.6209 78.6093 94.7109 75.3993C94.7409 75.3093 94.6409 75.2093 94.5509 75.2393C94.2109 75.3593 93.9109 75.5193 93.6109 75.6993C90.0709 76.7493 86.3209 76.4293 82.7909 75.4393C80.0409 74.6693 77.1409 73.2493 74.2309 73.3793C74.0809 73.2093 73.9309 73.0393 73.7809 72.8893C72.0109 71.1393 69.7109 71.2693 67.4309 71.0693C67.2609 71.0493 67.1209 71.1393 67.0409 71.2593C65.9809 70.7193 65.0409 70.1193 63.8809 69.7393C63.8709 69.7393 63.8609 69.7393 63.8509 69.7393C63.7909 69.6593 63.7309 69.5693 63.6709 69.4893C62.7709 68.2193 59.4509 65.7093 57.4909 66.4293C57.0909 66.4093 56.7009 66.4993 56.3409 66.7193C55.5209 66.3393 54.7409 65.8393 53.8709 65.5393C51.8709 64.8293 50.2809 64.7893 48.1509 64.9193C47.9409 64.9293 47.7309 64.9593 47.5209 64.9793C47.4309 64.8393 47.3309 64.6993 47.2709 64.6593C46.5209 64.1393 45.5909 63.6693 44.6509 63.6393C41.8409 63.5393 39.5509 64.6693 37.2909 66.2193C34.9109 67.8493 30.6709 72.3193 33.2509 75.2593C33.1509 75.5093 33.0509 75.7393 32.9609 76.0093C32.3509 77.8293 32.2209 81.0893 33.4409 82.8493C33.3209 82.8993 33.2009 82.9693 33.0909 83.0493C32.7009 83.3693 32.5009 83.8093 32.4409 84.2693C31.3709 86.0493 33.2109 89.7893 34.2909 90.9093C35.2609 91.9193 36.5909 93.5893 38.2109 93.4093C38.3909 93.3893 38.5709 93.3593 38.7609 93.3193C38.8709 93.7393 39.0109 94.1593 39.2009 94.5793C39.1609 94.6593 39.1409 94.7593 39.1609 94.8593C39.7909 97.8093 41.7909 100.899 44.5709 102.189C45.5209 106.379 51.1009 108.949 54.6509 110.359C57.7209 111.579 61.0109 111.989 64.2509 112.569C67.6409 113.169 70.2209 114.859 73.2009 116.359C73.3709 116.449 73.5209 116.249 73.4009 116.099C73.2909 115.969 73.1709 115.849 73.0509 115.719C72.0909 113.769 71.7809 111.999 69.8909 110.609C69.7809 110.529 69.6709 110.449 69.5609 110.369C70.7109 110.529 71.8809 110.669 73.0509 110.779C78.5609 111.319 84.0709 111.009 89.5409 110.239C95.5809 109.379 100.611 107.139 105.991 104.359C115.161 99.6093 119.951 88.4293 120.811 78.6293C120.971 76.7893 120.991 70.8593 119.971 66.0493C119.981 66.0493 119.991 66.0493 120.001 66.0493C125.141 64.7193 132.801 61.7793 132.821 55.1793L132.841 55.1993ZM74.8209 79.0193C75.2709 81.0893 76.8909 82.9293 78.5609 84.1293C80.8309 85.7593 83.3509 86.5093 85.8709 87.2593C84.1209 86.9993 82.3409 86.8893 80.9209 86.6993C78.2809 86.3293 75.5109 85.5693 73.4709 83.7593C72.5609 82.9493 71.7509 82.0293 70.8909 81.1693C72.4609 81.1893 73.9109 80.2893 74.8209 79.0293V79.0193ZM92.8209 76.2593C92.5209 76.4893 92.2209 76.7293 91.9009 76.9593C90.2409 78.1693 88.2109 78.5493 86.2609 79.0293C84.6209 79.4293 82.5609 79.6593 80.8909 79.4093C79.4809 79.2093 78.0809 78.8093 76.6609 78.8493C76.5909 78.8493 76.5209 78.8793 76.4609 78.9093C76.3109 78.7793 76.1609 78.6493 76.0109 78.5093C75.8509 78.1993 75.7009 77.8693 75.5409 77.5493C75.7809 76.6193 75.6109 75.6793 75.2009 74.8293C81.0109 76.4093 87.0309 78.3393 92.8109 76.2593H92.8209ZM73.8809 75.2693C75.5209 78.0893 72.1409 80.1793 69.4409 79.8493C69.4409 79.8493 69.4209 79.8293 69.4109 79.8293C69.3209 79.7593 69.2209 79.7693 69.1209 79.7993C68.9309 79.7593 68.7409 79.7093 68.5609 79.6393C69.1709 79.6493 69.8009 79.4993 70.5409 79.2693C71.6609 78.9193 73.0809 77.9793 73.1209 76.6593C73.1809 74.8593 71.7809 73.9793 70.4509 73.0393C70.2209 72.8793 69.9809 72.7293 69.7409 72.5893C69.8209 72.5993 69.9009 72.6093 69.9809 72.6193C71.6809 72.9393 73.0009 73.7493 73.8709 75.2593L73.8809 75.2693ZM63.1809 74.6193C61.4109 75.3493 59.2409 72.8793 58.4009 71.6593C57.7509 70.7193 57.2509 69.6193 57.0909 68.4893C57.7109 69.7993 58.6409 70.8293 59.8009 71.7093C60.6809 72.3693 61.7509 73.2893 62.9209 73.0393C63.3209 72.9493 63.6309 72.7593 63.8209 72.4993C64.1209 73.4293 64.0509 74.2593 63.1709 74.6193H63.1809ZM59.1409 67.5993C59.1409 67.5993 59.1709 67.5993 59.1809 67.5993C59.9609 67.8693 60.6809 68.3793 61.3209 68.8593C61.8209 69.2393 62.7909 70.3693 63.4109 71.5393C63.3709 72.4293 62.1509 71.8793 61.7309 71.6093C61.1009 71.1993 60.5109 70.6593 59.9609 70.1593C59.0809 69.3593 58.5909 68.5093 58.2809 67.4593C58.5809 67.5093 58.8809 67.5693 59.1409 67.5893V67.5993ZM40.3709 65.8593C41.8909 64.9593 44.0309 64.6693 45.7809 65.2193C43.4109 65.6893 41.0909 66.6493 39.2409 68.0893C37.0209 69.8093 35.3909 71.2693 34.1809 73.3593C34.3209 69.9293 37.4209 67.5993 40.3709 65.8593ZM34.1609 88.4493C33.8009 87.7393 33.4509 86.9293 33.3209 86.1193C33.3209 86.1093 33.3309 86.0893 33.3309 86.0793C33.3609 85.8193 33.3509 85.5093 33.3609 85.2093C34.3209 85.7093 35.0709 86.3493 35.6909 87.3693C36.0809 88.0093 36.5009 88.6893 36.7809 89.3793C36.9709 89.8393 37.2809 91.1393 36.4009 91.0193C35.3609 90.1893 34.4309 89.0193 34.1609 88.4593V88.4493ZM37.2609 91.5893C37.5509 91.4493 37.8009 91.1893 37.9609 90.8093C38.4309 89.7093 37.7309 88.4793 37.2409 87.4893C36.6009 86.1793 35.7609 85.0793 34.5909 84.2193C35.6709 84.5793 36.6609 85.2893 37.4609 86.0993C38.5009 87.1593 40.5209 89.7593 39.4709 91.3493C38.9509 92.1493 38.1209 92.0593 37.2609 91.5893ZM42.4709 98.7293C43.5009 99.5193 44.6609 100.079 45.8409 100.229C47.5109 100.449 49.5709 99.4593 50.0909 97.9793C50.1409 98.1093 50.2409 98.2093 50.3809 98.2693C51.2609 100.579 48.1709 101.729 46.4709 101.419C44.6909 101.089 43.4609 100.039 42.4709 98.7293ZM51.5409 98.5393C57.5409 99.9293 62.5209 103.549 68.3909 105.069C68.2309 105.069 68.0609 105.079 67.9009 105.089C65.2509 105.189 62.6209 104.849 60.0809 104.119C57.6009 103.409 54.0509 101.089 51.0709 101.229C51.4509 100.779 51.7109 100.269 51.7109 99.7293C51.7109 99.2693 51.6509 98.8793 51.5409 98.5393ZM69.7309 111.789C70.8309 112.689 71.5209 113.849 72.3009 114.969C69.1609 112.119 64.9409 111.199 60.7609 110.439C55.4609 109.459 49.7809 107.089 46.3709 102.749C46.7309 102.809 47.0909 102.839 47.4709 102.839C48.1709 103.769 49.6409 104.219 50.6209 104.779C52.8709 106.069 55.3809 106.719 57.8109 107.599C60.7909 108.669 63.8109 109.429 66.8809 109.969C67.9009 110.499 68.8809 111.099 69.7409 111.799L69.7309 111.789ZM113.081 60.1693C112.931 60.2693 113.031 60.4993 113.201 60.4593C118.161 59.2193 119.311 67.8493 119.301 71.2593C119.291 75.7993 119.581 80.0393 118.281 84.4993C116.901 89.2393 114.961 93.5793 111.871 97.4593C108.831 101.289 104.811 103.289 100.531 105.439C91.9409 109.739 81.4009 110.119 71.9909 109.189C67.6209 108.759 63.3409 107.929 59.1809 106.479C56.8609 105.669 54.4109 104.999 52.2109 103.899C51.6409 103.609 50.1509 103.059 49.2709 102.499C49.2909 102.499 49.3109 102.489 49.3209 102.479C49.3409 102.479 49.3409 102.499 49.3609 102.509C51.5009 102.959 53.8709 103.099 55.8509 104.059C57.6409 104.919 59.4809 105.529 61.4109 105.969C63.4409 106.439 65.8209 106.239 67.8709 106.069C69.2109 105.959 70.8109 106.149 72.1009 105.719C72.2009 105.719 72.2909 105.739 72.3909 105.749C72.5609 105.749 72.6109 105.469 72.4309 105.439C67.8409 104.669 63.8409 102.749 59.9109 100.309C57.0509 98.5293 54.0209 97.2893 50.6309 97.0593C50.6109 97.0593 50.6009 97.0593 50.5809 97.0593C50.3909 96.8493 50.2009 96.6393 49.9909 96.4093C49.8909 96.1593 49.7609 95.9093 49.5609 95.6593C49.3809 95.4193 48.9209 95.5493 49.0309 95.8793C49.5909 97.5793 48.3609 98.9393 46.7409 99.0593C45.5309 99.1393 44.3109 98.3293 43.3709 97.6893C41.6009 96.4793 41.1309 94.4593 39.8109 92.9893C40.2809 92.7493 40.6609 92.3893 40.8409 91.8493C41.9409 88.5193 39.1509 85.3893 36.6209 83.6393C36.1409 83.3093 35.4309 82.9293 34.7309 82.7793C34.6009 80.6293 34.0609 78.6393 34.5209 76.4493C35.2309 73.0593 37.7809 71.2293 40.3309 69.2493C42.9409 67.2193 46.6509 66.4093 49.8909 66.3093C51.4309 66.2593 52.7909 66.5993 54.2509 66.9993C54.7709 67.1393 55.2109 67.3793 55.6809 67.5593C55.3709 68.4593 55.7209 69.6793 56.0509 70.4293C57.2909 73.2393 59.8509 76.5693 63.3209 76.1193C64.4809 75.9693 65.0609 74.8293 65.3709 73.8193C65.6009 73.0793 65.4009 72.3293 65.0509 71.6193C66.5309 72.6093 68.1309 73.3193 69.6509 74.3493C71.0809 75.3293 72.5209 76.7793 70.4509 78.0693C69.5009 78.6693 68.4109 78.9993 67.3209 78.8793C67.2909 78.8393 67.2409 78.8193 67.2109 78.7793C67.1309 78.6893 67.0009 78.6693 66.8809 78.6893C66.8809 78.6893 66.8809 78.6893 66.8709 78.6893C66.8109 78.6693 66.7409 78.6893 66.6909 78.7293C66.6809 78.7393 66.6609 78.7593 66.6509 78.7693C66.6109 78.7793 66.5909 78.8093 66.5909 78.8493C66.4809 79.0093 66.5609 79.2393 66.7509 79.2993C67.0609 79.3893 67.4709 80.1693 67.7809 80.3993C68.2209 80.7193 68.6409 80.8793 69.0709 80.9693C73.0609 89.7093 84.4709 86.8993 91.7609 89.9193C91.8609 89.9593 91.9309 89.8093 91.8609 89.7393C91.7209 89.5893 91.5609 89.4493 91.4109 89.3093C91.5809 89.3893 91.7409 89.4793 91.9109 89.5693C91.9809 89.6093 92.0309 89.5093 91.9709 89.4693C88.9109 87.3393 85.4509 86.7093 82.1709 85.0493C80.2509 84.0793 78.8909 82.8893 77.7909 81.4793C78.7009 81.9993 79.6909 82.4193 80.4809 82.8193C83.3309 84.2693 86.3509 85.0893 89.5109 85.5093C96.2209 86.4193 102.111 85.2493 108.171 82.4093C108.241 82.3793 108.191 82.2593 108.121 82.2893C102.641 84.3693 97.5509 85.0493 91.7109 84.4193C90.8009 84.3193 89.9109 84.1993 89.0209 84.0493C91.9909 83.5693 94.7809 83.1093 97.6309 81.8893C102.581 79.7793 107.891 76.8193 109.991 71.5693C110.951 69.1493 111.481 66.9293 111.171 64.4093C111.341 63.2793 111.531 62.1593 112.041 61.0993C112.091 60.9993 112.011 60.8993 111.911 60.9293C111.271 61.0593 110.931 61.7193 110.701 62.3093C109.921 59.9893 108.371 57.8993 107.111 55.8393C104.881 52.1893 105.991 46.9293 107.631 43.3093C108.611 41.1293 110.051 39.3693 111.621 37.6793C111.181 39.2393 111.161 40.9093 111.411 42.4893C111.751 44.6593 112.551 46.6593 113.731 48.5093C114.331 49.4493 114.861 50.4793 115.421 51.4393C116.301 52.9593 116.211 54.5593 116.611 56.1893C116.721 56.6493 117.381 56.6193 117.511 56.1893C117.591 55.9493 117.641 55.6993 117.681 55.4593C117.731 55.4193 117.771 55.3693 117.811 55.3093C119.301 52.2393 122.651 50.4793 123.801 47.2593C124.381 45.6193 124.651 43.9793 124.841 42.2693C124.981 41.0593 124.891 39.8493 124.871 38.6293C125.301 39.7493 125.981 40.8093 126.541 41.8193C128.031 44.5393 129.851 47.4193 130.821 50.3693C132.021 54.0293 130.781 58.2093 128.041 60.7493C125.651 62.9693 122.451 63.4993 119.711 65.0393C118.641 60.8193 116.651 57.8593 113.051 60.1693H113.081Z" fill="#897EB3"/>
</g>
<defs>
<linearGradient id="paint0_linear_57_455" x1="-0.0997636" y1="58.3537" x2="132.92" y2="58.3537" gradientUnits="userSpaceOnUse">
<stop stop-color="#C0CBD8"/>
<stop offset="0.54" stop-color="white"/>
<stop offset="0.87" stop-color="white"/>
<stop offset="0.99" stop-color="#C0CBD8"/>
</linearGradient>
<linearGradient id="paint1_linear_57_455" x1="0.224615" y1="58.2377" x2="133.334" y2="58.2377" gradientUnits="userSpaceOnUse">
<stop stop-color="#C0CBD8"/>
<stop offset="0.54" stop-color="white"/>
<stop offset="0.87" stop-color="white"/>
<stop offset="0.99" stop-color="#C0CBD8"/>
</linearGradient>
<linearGradient id="paint2_linear_57_455" x1="0.0728047" y1="58.2538" x2="132.988" y2="58.2538" gradientUnits="userSpaceOnUse">
<stop stop-color="#C0CBD8"/>
<stop offset="0.54" stop-color="white"/>
<stop offset="0.87" stop-color="white"/>
<stop offset="0.99" stop-color="#C0CBD8"/>
</linearGradient>
<linearGradient id="paint3_linear_57_455" x1="0.492594" y1="57.8691" x2="132.877" y2="57.8691" gradientUnits="userSpaceOnUse">
<stop stop-color="#C0CBD8"/>
<stop offset="0.54" stop-color="white"/>
<stop offset="0.87" stop-color="white"/>
<stop offset="0.99" stop-color="#C0CBD8"/>
</linearGradient>
<linearGradient id="paint4_linear_57_455" x1="0.0955512" y1="58.5852" x2="132.299" y2="58.5852" gradientUnits="userSpaceOnUse">
<stop stop-color="#C0CBD8"/>
<stop offset="0.54" stop-color="white"/>
<stop offset="0.87" stop-color="white"/>
<stop offset="0.99" stop-color="#C0CBD8"/>
</linearGradient>
<linearGradient id="paint5_linear_57_455" x1="0.0955512" y1="57.401" x2="133.243" y2="57.401" gradientUnits="userSpaceOnUse">
<stop stop-color="#C0CBD8"/>
<stop offset="0.54" stop-color="white"/>
<stop offset="0.87" stop-color="white"/>
<stop offset="0.99" stop-color="#C0CBD8"/>
</linearGradient>
<linearGradient id="paint6_linear_57_455" x1="0.0209567" y1="58.1995" x2="132.886" y2="58.1995" gradientUnits="userSpaceOnUse">
<stop stop-color="#C0CBD8"/>
<stop offset="0.54" stop-color="white"/>
<stop offset="0.87" stop-color="white"/>
<stop offset="0.99" stop-color="#C0CBD8"/>
</linearGradient>
<linearGradient id="paint7_linear_57_455" x1="0.0248773" y1="58.189" x2="132.838" y2="58.189" gradientUnits="userSpaceOnUse">
<stop stop-color="#C0CBD8"/>
<stop offset="0.54" stop-color="white"/>
<stop offset="0.87" stop-color="white"/>
<stop offset="0.99" stop-color="#C0CBD8"/>
</linearGradient>
<linearGradient id="paint8_linear_57_455" x1="0.224504" y1="58.2377" x2="132.988" y2="58.2377" gradientUnits="userSpaceOnUse">
<stop stop-color="#C0CBD8"/>
<stop offset="0.54" stop-color="white"/>
<stop offset="0.87" stop-color="white"/>
<stop offset="0.99" stop-color="#C0CBD8"/>
</linearGradient>
<linearGradient id="paint9_linear_57_455" x1="-0.186025" y1="57.9971" x2="132.634" y2="57.9971" gradientUnits="userSpaceOnUse">
<stop stop-color="#C0CBD8"/>
<stop offset="0.54" stop-color="white"/>
<stop offset="0.87" stop-color="white"/>
<stop offset="0.99" stop-color="#C0CBD8"/>
</linearGradient>
<linearGradient id="paint10_linear_57_455" x1="0.492594" y1="58.5194" x2="132.877" y2="58.5194" gradientUnits="userSpaceOnUse">
<stop stop-color="#C0CBD8"/>
<stop offset="0.54" stop-color="white"/>
<stop offset="0.87" stop-color="white"/>
<stop offset="0.99" stop-color="#C0CBD8"/>
</linearGradient>
<linearGradient id="paint11_linear_57_455" x1="0.0955512" y1="57.942" x2="133.243" y2="57.942" gradientUnits="userSpaceOnUse">
<stop stop-color="#C0CBD8"/>
<stop offset="0.54" stop-color="white"/>
<stop offset="0.87" stop-color="white"/>
<stop offset="0.99" stop-color="#C0CBD8"/>
</linearGradient>
<linearGradient id="paint12_linear_57_455" x1="0.0955512" y1="58.1887" x2="133.243" y2="58.1887" gradientUnits="userSpaceOnUse">
<stop stop-color="#C0CBD8"/>
<stop offset="0.54" stop-color="white"/>
<stop offset="0.87" stop-color="white"/>
<stop offset="0.99" stop-color="#C0CBD8"/>
</linearGradient>
<linearGradient id="paint13_linear_57_455" x1="-0.848757" y1="58.1887" x2="132.299" y2="58.1887" gradientUnits="userSpaceOnUse">
<stop stop-color="#C0CBD8"/>
<stop offset="0.54" stop-color="white"/>
<stop offset="0.87" stop-color="white"/>
<stop offset="0.99" stop-color="#C0CBD8"/>
</linearGradient>
<linearGradient id="paint14_linear_57_455" x1="-0.0466467" y1="58.1943" x2="132.747" y2="58.1943" gradientUnits="userSpaceOnUse">
<stop stop-color="#C0CBD8"/>
<stop offset="0.54" stop-color="white"/>
<stop offset="0.87" stop-color="white"/>
<stop offset="0.99" stop-color="#C0CBD8"/>
</linearGradient>
<linearGradient id="paint15_linear_57_455" x1="0.151582" y1="57.9826" x2="132.576" y2="57.9826" gradientUnits="userSpaceOnUse">
<stop stop-color="#C0CBD8"/>
<stop offset="0.54" stop-color="white"/>
<stop offset="0.87" stop-color="white"/>
<stop offset="0.99" stop-color="#C0CBD8"/>
</linearGradient>
<linearGradient id="paint16_linear_57_455" x1="-0.0466467" y1="58.1943" x2="132.747" y2="58.1943" gradientUnits="userSpaceOnUse">
<stop stop-color="#C0CBD8"/>
<stop offset="0.54" stop-color="white"/>
<stop offset="0.87" stop-color="white"/>
<stop offset="0.99" stop-color="#C0CBD8"/>
</linearGradient>
<linearGradient id="paint17_linear_57_455" x1="-0.0466467" y1="58.1943" x2="132.747" y2="58.1943" gradientUnits="userSpaceOnUse">
<stop stop-color="#C0CBD8"/>
<stop offset="0.54" stop-color="white"/>
<stop offset="0.87" stop-color="white"/>
<stop offset="0.99" stop-color="#C0CBD8"/>
</linearGradient>
<linearGradient id="paint18_linear_57_455" x1="-0.503198" y1="58.1497" x2="132.632" y2="58.1497" gradientUnits="userSpaceOnUse">
<stop stop-color="#C0CBD8"/>
<stop offset="0.54" stop-color="white"/>
<stop offset="0.87" stop-color="white"/>
<stop offset="0.99" stop-color="#C0CBD8"/>
</linearGradient>
</defs>
</svg>
