<svg width="128" height="124" viewBox="0 0 128 124" fill="none" xmlns="http://www.w3.org/2000/svg">
<g id="5">
<path d="M12.5172 75.9293C12.5472 76.7793 12.5172 77.6593 12.4172 78.5593C12.0172 82.2293 11.0372 85.6593 11.0372 89.3993C11.0372 91.8493 11.6872 95.0493 13.1172 97.0993C14.5372 99.1493 16.6572 100.349 18.9072 101.289C20.8972 104.589 24.1872 107.179 27.3672 109.169C27.4772 110.239 27.5272 111.329 27.8472 112.399C28.2772 113.839 29.3872 114.889 30.4572 115.879C32.5772 117.829 35.3072 118.829 38.0672 119.419C39.5972 119.749 41.5372 119.889 43.3072 119.599C43.5472 119.649 43.7872 119.669 44.0272 119.649C44.7472 119.909 45.5072 119.919 46.4172 119.929C48.4472 119.939 50.4772 120.309 52.5172 120.359C56.8272 120.449 60.6972 119.559 63.5772 123.369C63.6472 123.459 63.7372 123.489 63.8372 123.479C63.9272 123.479 64.0272 123.459 64.0972 123.369C66.9772 119.559 70.8572 120.449 75.1572 120.359C77.1972 120.319 79.2272 119.949 81.2572 119.929C82.1672 119.929 82.9272 119.899 83.6372 119.649C83.8872 119.669 84.1272 119.649 84.3572 119.599C86.1372 119.889 88.0772 119.749 89.5972 119.419C92.3572 118.829 95.0872 117.819 97.2072 115.879C98.2872 114.889 99.3872 113.839 99.8172 112.399C100.137 111.329 100.187 110.239 100.297 109.169C103.477 107.189 106.757 104.589 108.757 101.289C111.007 100.359 113.127 99.1493 114.547 97.0993C115.977 95.0493 116.627 91.8493 116.627 89.3993C116.627 85.6493 115.647 82.2293 115.247 78.5593C115.147 77.6493 115.117 76.7793 115.147 75.9293C122.857 69.2793 130.197 60.2493 126.767 49.3293C125.317 44.6993 122.317 40.4293 118.287 37.6993C117.097 36.8993 115.867 36.3893 114.627 35.8893C110.517 30.4993 108.937 24.2393 106.477 18.0693C104.247 12.4793 100.917 8.83927 95.8671 5.59927C90.3871 2.05927 84.3472 0.00926758 77.7572 -0.000732422C73.1872 -0.000732422 67.2472 0.169267 63.8372 3.60927C60.4272 0.169267 54.4872 -0.000732422 49.9172 -0.000732422C43.3272 0.00926758 37.2872 2.05927 31.7972 5.59927C26.7572 8.84927 23.4172 12.4893 21.1872 18.0693C18.7272 24.2393 17.1472 30.4993 13.0372 35.8893C11.7872 36.3893 10.5572 36.8993 9.37716 37.6993C5.33716 40.4293 2.34716 44.6893 0.887156 49.3293C-2.54284 60.2493 4.80716 69.2793 12.5072 75.9293H12.5172Z" fill="url(#paint0_linear_57_315)"/>
<path d="M72.9072 44.6193C72.8872 44.7893 72.9572 44.9693 73.1472 45.0593C75.0072 45.9993 76.7672 45.0893 78.7172 44.8593C81.8372 44.4893 84.5871 45.0293 87.2271 46.7693C87.3071 46.8193 87.3872 46.7293 87.3272 46.6593C85.6472 44.9893 83.8872 44.0893 81.5072 43.8993C79.1072 43.7093 76.7972 44.4393 74.4472 44.3193C74.3472 44.2493 74.2472 44.1693 74.1572 44.0893C76.3872 43.4393 78.4572 42.7593 80.9272 43.2093C82.9672 43.5793 84.9572 44.5793 86.5872 45.8693C86.5972 45.8793 86.6172 45.8693 86.6072 45.8493C84.9472 44.3993 82.4771 42.8193 80.2971 42.3893C77.4571 41.8393 75.4571 42.6193 72.7971 43.2293C72.4171 43.3193 72.3172 43.8493 72.5172 44.1393C72.6572 44.3393 72.7872 44.4893 72.9172 44.6193H72.9072Z" fill="#897EB3"/>
<path d="M118.297 37.6993C117.107 36.8993 115.877 36.3893 114.637 35.8893C110.527 30.4993 108.947 24.2393 106.487 18.0693C104.257 12.4793 100.927 8.83927 95.8772 5.59927C90.3872 2.05927 84.3472 0.00926758 77.7572 -0.000732422C73.1872 -0.000732422 67.2472 0.169267 63.8372 3.60927C60.4272 0.169267 54.4872 -0.000732422 49.9172 -0.000732422C43.3272 0.00926758 37.2872 2.05927 31.7972 5.59927C26.7572 8.84927 23.4172 12.4893 21.1872 18.0693C18.7272 24.2393 17.1472 30.4993 13.0372 35.8893C11.7872 36.3893 10.5572 36.8993 9.37716 37.6993C5.33716 40.4293 2.34716 44.6893 0.887156 49.3293C-2.53284 60.2493 4.79716 69.2693 12.4972 75.9193C12.5272 76.7793 12.5072 77.6493 12.4172 78.5593C12.0172 82.2293 11.0372 85.6593 11.0372 89.3993C11.0372 91.8493 11.6872 95.0493 13.1172 97.0993C14.5472 99.1593 16.6772 100.359 18.9272 101.299C20.9172 104.589 24.1872 107.189 27.3672 109.169C27.4772 110.239 27.5272 111.329 27.8472 112.399C28.2772 113.839 29.3872 114.889 30.4572 115.879C32.5772 117.829 35.3072 118.829 38.0672 119.419C39.5772 119.749 41.5072 119.879 43.2672 119.589C43.5172 119.649 43.7772 119.669 44.0372 119.649C44.7572 119.899 45.5172 119.919 46.4172 119.929C48.4472 119.939 50.4772 120.309 52.5172 120.359C56.8272 120.449 60.6972 119.559 63.5772 123.369C63.6472 123.459 63.7372 123.479 63.8372 123.469C63.9272 123.479 64.0272 123.469 64.0972 123.369C66.9772 119.559 70.8572 120.449 75.1572 120.359C77.1972 120.319 79.2272 119.949 81.2572 119.929C82.1572 119.929 82.9172 119.899 83.6372 119.649C83.8972 119.669 84.1572 119.649 84.4072 119.589C86.1772 119.879 88.0972 119.739 89.6072 119.419C92.3672 118.829 95.0972 117.819 97.2172 115.879C98.2972 114.889 99.3972 113.839 99.8272 112.399C100.147 111.329 100.197 110.239 100.307 109.169C103.487 107.189 106.757 104.599 108.747 101.299C110.997 100.369 113.137 99.1593 114.557 97.0993C115.987 95.0493 116.637 91.8493 116.637 89.3993C116.637 85.6493 115.657 82.2293 115.257 78.5593C115.157 77.6493 115.147 76.7793 115.177 75.9193C122.877 69.2693 130.217 60.2493 126.787 49.3293C125.337 44.6993 122.337 40.4293 118.307 37.6993H118.297ZM78.8671 117.949C76.1571 118.099 73.3472 117.819 70.6772 118.159C68.6772 118.419 64.9572 119.439 63.8372 121.519C62.7172 119.439 58.9972 118.429 56.9972 118.159C54.3272 117.819 51.5172 118.089 48.8072 117.949C48.4172 117.929 47.9872 117.879 47.5472 117.829C47.8272 117.579 48.0772 117.329 48.2972 117.099C49.5572 115.739 50.6172 114.239 51.5472 112.649C52.8372 113.639 55.2872 114.089 56.2872 114.319C58.8072 114.899 61.3172 115.309 63.8372 115.079C66.3572 115.309 68.8672 114.899 71.3872 114.319C72.3872 114.089 74.8372 113.639 76.1272 112.649C77.0572 114.229 78.1172 115.729 79.3772 117.099C79.5972 117.329 79.8472 117.579 80.1272 117.829C79.6872 117.879 79.2671 117.929 78.8671 117.949ZM41.1672 70.8093C40.1472 68.0393 39.5272 64.7193 39.4372 61.7793C39.3972 60.3193 39.4372 58.7393 39.8672 57.3493C40.0572 56.7393 39.9772 55.8793 39.7472 55.2893C39.2972 54.1193 38.9872 53.0093 38.7772 51.8993C39.8272 52.1393 40.8772 52.2593 41.9472 52.2493C42.5572 54.1493 44.0972 55.3193 46.0772 55.6693C47.2072 55.8693 48.3672 55.6893 49.4772 55.4193C50.9472 55.0593 52.7272 53.6493 54.2772 54.2093C54.4072 54.2593 54.5372 54.1193 54.4772 53.9893C53.8872 52.7293 51.6672 53.6893 50.6872 53.7593C50.3272 53.7893 49.9772 53.8293 49.6272 53.8693C49.9872 53.5993 50.3872 53.2593 50.5072 52.8793C50.7172 52.2493 50.6972 51.8293 50.6272 51.1893C50.6272 51.1693 50.6172 51.1493 50.6072 51.1293C51.8472 51.5693 52.7272 52.6193 53.8872 53.3093C54.4172 53.6193 55.1072 53.2493 55.0072 52.5993C54.6472 50.3593 51.3472 49.0493 49.2972 49.2193C47.5072 49.3693 45.8572 49.9293 44.2272 50.6693C42.5072 51.4493 40.5872 51.6293 38.7172 51.5093C38.4472 49.9493 38.3572 48.3893 38.3672 46.6393C38.3672 46.2593 38.3972 45.8793 38.4372 45.5093C38.7772 43.2693 39.5172 41.1993 41.1872 39.2093C43.1672 36.8393 45.2772 34.8893 47.5772 32.8493C49.6672 30.9993 52.0372 29.6193 53.9472 27.5093C54.5972 26.7893 55.6072 25.7993 56.1972 24.7393C59.4072 29.1893 64.8372 31.6293 69.9272 33.5093C76.5972 35.9693 84.6172 36.4393 88.7872 42.4693C89.1572 43.8093 89.4472 45.1593 89.4572 46.6393C89.4772 48.3893 89.3872 49.9593 89.1072 51.5093C87.2372 51.6293 85.3172 51.4493 83.5972 50.6693C81.9672 49.9293 80.3172 49.3693 78.5272 49.2193C76.4772 49.0493 73.1772 50.3593 72.8172 52.5993C72.7072 53.2493 73.4072 53.6193 73.9372 53.3093C74.1572 53.1793 74.3572 53.0393 74.5672 52.8893C74.7172 53.0693 74.9172 53.2293 75.1072 53.3693C74.3572 53.2793 73.6472 53.3493 73.3472 53.9793C73.2872 54.1093 73.4171 54.2493 73.5471 54.1993C75.0971 53.6393 76.8772 55.0493 78.3472 55.4093C79.4572 55.6793 80.6172 55.8593 81.7472 55.6593C83.7272 55.3093 85.2672 54.1493 85.8772 52.2393C86.9472 52.2493 87.9871 52.1293 89.0471 51.8893C88.8271 52.9993 88.5172 54.1093 88.0772 55.2793C87.8572 55.8693 87.7672 56.7293 87.9572 57.3393C88.3872 58.7293 88.4272 60.3093 88.3872 61.7693C88.2972 64.7093 87.6872 68.0293 86.6572 70.7993C84.4872 76.6593 79.9072 79.7893 75.9172 84.2993C72.7772 87.8693 68.8772 92.5293 64.2271 93.8393C64.0571 93.8893 63.9572 93.9893 63.9172 94.0993C63.8772 93.9793 63.7772 93.8893 63.6072 93.8393C58.9572 92.5293 55.0572 87.8693 51.9172 84.2993C47.9372 79.7793 43.3472 76.6493 41.1772 70.7993L41.1672 70.8093ZM44.9572 51.8193C45.1572 52.1593 45.4272 52.3793 45.8572 52.5193C46.2872 52.6593 46.7372 52.6393 47.1372 52.4393C47.5972 52.2093 48.1072 51.5693 48.0272 51.0593C48.4572 50.9893 48.8972 50.9393 49.3572 50.9293C49.4672 50.9293 49.5672 50.9493 49.6772 50.9593C49.6072 51.0493 49.5672 51.1593 49.5772 51.3093C49.6172 51.8493 49.7072 52.2793 49.2772 52.7193C48.9472 53.0593 48.5072 53.4693 48.0372 53.5793C47.2172 53.7693 46.4772 53.5993 45.6572 53.6093C45.5972 53.6093 45.5672 53.6393 45.5272 53.6593C44.6372 53.2593 43.9772 52.5693 43.1372 52.1793C43.6272 52.1193 44.1172 52.0493 44.6172 51.9193C44.7372 51.8893 44.8472 51.8593 44.9672 51.8193H44.9572ZM46.0972 51.5093C46.4172 51.4193 46.7372 51.3293 47.0572 51.2593C46.9572 51.4593 46.7972 51.6093 46.5372 51.6193C46.3772 51.6193 46.2372 51.5793 46.0972 51.5093ZM76.1572 51.6793C76.3572 52.1093 76.6372 52.3593 77.1272 52.5193C77.5572 52.6593 77.9972 52.6393 78.4072 52.4393C78.8772 52.1993 79.4172 51.5193 79.2872 50.9993C79.8172 51.0593 80.3372 51.1493 80.8472 51.2793C80.8472 51.2793 80.8472 51.2893 80.8472 51.2993C80.8872 51.8393 80.9771 52.2693 80.5471 52.7093C80.2171 53.0493 79.7772 53.4593 79.3072 53.5693C78.4972 53.7593 77.7771 53.5993 76.9771 53.5993C76.5271 53.3593 76.0672 53.0693 75.6772 52.7393C75.5272 52.6093 75.4072 52.4693 75.2872 52.3193C75.5672 52.0893 75.8572 51.8793 76.1572 51.6793ZM76.8872 51.2693C77.3472 51.0593 77.8472 50.9193 78.4272 50.9293C78.3672 51.2693 78.2072 51.5993 77.8072 51.6193C77.5772 51.6193 77.3772 51.5393 77.1772 51.4193C77.0772 51.3493 76.9872 51.3093 76.8872 51.2793V51.2693ZM81.7772 52.8893C81.9472 52.3893 81.9672 52.0193 81.9272 51.5693C82.3372 51.6893 82.7572 51.8093 83.1972 51.9093C83.6972 52.0293 84.1872 52.1093 84.6772 52.1693C83.7172 52.6093 82.9972 53.4493 81.9072 53.7993C81.4872 53.9393 81.0772 54.0093 80.6772 54.0393C81.0772 53.7493 81.6272 53.3493 81.7772 52.8893ZM54.9172 90.7693C57.3172 93.0793 60.0072 94.9593 63.3472 94.8693C63.6072 94.8693 63.8172 94.6693 63.8972 94.4393C63.9772 94.6593 64.1772 94.8593 64.4472 94.8693C67.7072 94.9593 70.3472 93.1793 72.7072 90.9493C71.4772 96.7993 72.0972 103.519 74.2472 108.859C74.5272 109.559 74.8472 110.249 75.1772 110.929C74.8072 111.129 74.4372 111.349 74.0572 111.539C72.6172 112.239 70.8771 112.609 69.2971 112.849C67.9071 113.049 66.5172 113.329 65.1072 113.359C64.6572 113.309 64.2772 113.329 63.8272 113.349C63.3872 113.329 62.9972 113.309 62.5472 113.359C61.1472 113.319 59.7472 113.049 58.3572 112.849C56.7772 112.619 55.0472 112.239 53.6072 111.539C53.2172 111.349 52.8572 111.129 52.4772 110.929C52.8072 110.249 53.1272 109.569 53.4072 108.869C55.5872 103.469 56.1872 96.6793 54.9172 90.7793V90.7693ZM123.157 64.0493C121.037 67.8293 118.057 71.3093 115.247 74.6493C115.547 71.8293 116.507 69.2193 117.977 66.5293C118.037 66.4093 117.857 66.2893 117.777 66.3993C116.117 68.7493 114.587 71.2993 113.857 74.1093C113.057 77.1793 113.667 80.0593 114.017 83.1493C114.407 86.6593 114.487 89.8793 113.717 93.3393C113.177 95.8093 111.667 97.6193 109.827 99.1293C111.197 95.8193 113.167 91.0293 111.737 87.5993C111.717 87.5393 111.617 87.5593 111.627 87.6293C111.857 89.9793 111.007 92.2693 110.227 94.4393C109.527 96.4193 108.827 98.5193 107.537 100.209C105.597 102.749 103.167 104.739 100.767 106.809C101.797 103.329 103.677 100.269 104.787 96.7993C104.857 96.5893 104.577 96.4393 104.467 96.6493C103.207 99.2293 101.587 101.579 100.377 104.169C99.9172 105.139 99.2672 106.179 99.0772 107.249C98.8172 108.739 98.6872 110.399 98.0672 111.799C96.1072 116.249 90.0372 117.999 85.0872 117.559C84.9372 117.479 84.7772 117.429 84.5872 117.429C82.0272 117.469 79.7272 114.439 78.4272 112.299C78.0672 111.479 77.7772 110.619 77.5972 109.599C77.3772 108.349 77.9372 106.739 78.3372 105.589C79.6272 101.919 81.6872 98.7593 83.4972 95.3493C86.8572 89.0393 89.9972 82.6993 91.8772 75.7493C91.9072 75.6393 91.7472 75.6193 91.7172 75.7193C90.3072 80.2893 88.2872 84.9193 85.9072 89.0593C83.9472 92.4693 81.3372 95.5293 79.4372 98.9693C78.0072 101.549 76.5371 104.489 76.0471 107.339C75.5371 105.929 75.1472 104.489 74.8972 103.019C74.4072 100.089 74.0272 97.0593 74.1872 94.0993C74.2772 92.4593 74.0872 90.7193 74.4872 89.0993C74.4872 89.0993 74.4872 89.0893 74.4872 89.0793C75.5672 87.9393 76.5971 86.7793 77.6171 85.7693C78.0871 85.2993 78.5672 84.8393 79.0372 84.3793C77.5072 88.6293 77.1971 93.1993 78.2271 97.9293C78.2471 97.9993 78.3472 97.9893 78.3472 97.9193C77.8872 93.9293 78.1872 89.7093 79.8472 85.9793C80.6072 84.2693 81.5772 82.6593 82.4372 80.9993C83.1072 80.2993 83.7572 79.5893 84.3772 78.8493C84.0472 79.6393 83.7172 80.4293 83.3772 81.2093C82.5272 83.1793 81.6772 85.3193 81.2672 87.4393C80.9772 88.9193 81.1072 90.4493 80.6772 91.8893C80.6772 91.9193 80.7172 91.9393 80.7372 91.9093C81.4072 90.2893 81.4172 88.5093 81.9872 86.8493C82.7572 84.6193 83.6472 82.1393 84.8872 80.1193C86.3472 77.7393 87.8772 75.0693 88.4572 72.2593C88.6472 71.7893 88.8272 71.2993 88.9872 70.7993C89.8972 67.9293 90.7471 64.5493 90.6171 61.5093C90.5571 60.1193 90.4672 58.7393 90.0572 57.3993C89.5272 55.6293 90.0172 55.1393 90.3972 53.6293C90.5872 52.8793 90.7272 52.1093 90.8272 51.3393C90.8272 51.3393 90.8472 51.3393 90.8572 51.3393C90.8872 51.3393 90.8772 51.2793 90.8472 51.2793C91.1172 49.1393 91.0672 46.9393 90.8372 44.8293C90.7672 44.1793 90.6172 43.5993 90.4072 43.0593C91.8072 44.6793 92.9972 46.4893 93.8772 48.5593C95.1772 51.6293 96.2872 54.9793 95.8272 58.3493C95.4672 60.9593 95.1072 63.4993 94.4472 66.0593C94.3872 66.2793 94.7572 66.3993 94.8372 66.1793C95.8672 63.1793 97.0772 59.7893 97.2572 56.6093C97.4472 53.3793 96.5872 49.9893 95.1372 47.1093C92.7372 42.3293 89.4272 38.7593 84.8572 36.5093C82.3972 34.9393 79.5672 34.0593 76.7072 33.3393C72.3772 32.2493 67.9472 30.9893 64.0172 28.8193C60.6172 26.9493 58.1272 24.1493 55.6672 21.2293C55.6072 20.6293 54.8072 20.1193 54.2872 20.6393C54.2272 20.6993 54.1672 20.7493 54.1172 20.8093C54.0572 20.8693 54.0072 20.9393 53.9672 21.0093C51.7772 23.7093 49.0172 25.9193 46.1972 27.9693C42.9972 30.2793 40.1772 32.8593 37.4872 35.7393C32.9872 40.5693 30.5572 46.5993 29.7572 53.0593C29.7572 53.1293 29.8472 53.1293 29.8672 53.0593C31.4472 45.3993 35.4872 39.2693 41.1072 33.8993C45.4472 29.7493 50.8772 26.9993 54.8572 22.4793C54.9672 22.7093 55.0972 22.9393 55.2172 23.1593C53.3772 25.3993 51.5372 27.5293 49.1672 29.2893C46.9072 30.9693 44.5172 32.5193 42.5772 34.5993C42.3272 34.8593 42.0872 35.1293 41.8472 35.3893C35.1172 41.8393 30.3072 51.4693 31.7672 60.4393C31.7672 60.4893 31.8572 60.4793 31.8472 60.4293C31.3172 54.3693 33.4372 48.8093 36.7172 43.8393C36.3372 45.4393 36.2872 47.1393 36.7472 48.9593C36.7672 49.7393 36.8172 50.5093 36.9172 51.2793C36.8872 51.2793 36.8672 51.3293 36.9072 51.3393C36.9072 51.3393 36.9272 51.3393 36.9372 51.3393C37.0372 52.1093 37.1772 52.8793 37.3672 53.6293C37.7572 55.1493 38.2472 55.6293 37.7072 57.3993C37.4072 58.3793 37.2872 59.3793 37.2172 60.3893C35.5872 64.6893 36.3572 68.9493 37.3772 73.5593C38.6772 79.4893 42.7872 84.3493 45.3872 89.7293C45.4472 89.8593 45.6572 89.7893 45.5972 89.6493C43.3272 84.1793 39.9572 79.2793 38.7172 73.4293C38.2572 71.2593 38.0072 69.1793 37.7572 67.0193C38.0472 68.3193 38.4072 69.5993 38.7872 70.7993C39.3072 72.4393 40.0072 73.9193 40.8372 75.2893C41.3672 79.0793 44.2572 82.9593 46.3372 85.8893C49.6272 90.5293 51.3672 95.6393 50.9072 101.329C50.9072 101.369 50.9572 101.379 50.9672 101.329C51.9072 96.3093 51.1772 92.2893 49.0072 87.6693C47.8872 85.2793 46.1572 83.1993 44.8972 80.8793C44.7472 80.6093 44.6272 80.3293 44.4872 80.0593C46.2472 81.9893 48.1972 83.8093 50.1472 85.7293C51.1172 86.6793 52.0872 87.7593 53.0972 88.8393C53.1172 88.9093 53.1272 88.9693 53.1472 89.0593C53.5572 90.6693 53.3572 92.4093 53.4472 94.0593C53.6072 97.0293 53.2272 100.049 52.7372 102.979C52.2172 106.109 51.0472 109.129 49.4472 111.859C48.1972 113.989 45.7772 117.419 43.0572 117.379C42.8672 117.379 42.7072 117.429 42.5572 117.509C37.6172 117.949 31.5372 116.199 29.5772 111.749C28.9572 110.349 28.8372 108.699 28.5672 107.199C28.3772 106.129 27.7172 105.089 27.2672 104.119C26.0472 101.519 24.4372 99.1793 23.1672 96.5993C23.0672 96.3893 22.7872 96.5393 22.8472 96.7493C23.9572 100.219 25.8472 103.279 26.8672 106.749C24.4772 104.679 22.0472 102.689 20.0972 100.149C18.8072 98.4593 18.1072 96.3593 17.4072 94.3793C16.6372 92.2093 15.7772 89.9093 16.0072 87.5693C16.0072 87.4993 15.9172 87.4793 15.8972 87.5393C14.4672 90.9593 16.4372 95.7593 17.8072 99.0593C15.9672 97.5393 14.4572 95.7293 13.9172 93.2693C13.1472 89.8093 13.2272 86.5993 13.6172 83.0793C13.9672 79.9893 14.5772 77.1093 13.7772 74.0393C13.0472 71.2293 11.5072 68.6793 9.84716 66.3293C9.76716 66.2193 9.58716 66.3293 9.64716 66.4593C11.1172 69.1493 12.0772 71.7593 12.3772 74.5793C9.56716 71.2293 6.58716 67.7493 4.46716 63.9793C1.73716 59.0993 1.55716 52.4293 3.71716 47.3193C5.69716 42.6493 9.21716 39.8693 13.3072 37.1793C14.9672 36.0893 16.7372 35.3093 18.3772 34.1493C20.0672 32.9593 21.2872 31.0393 22.3872 29.3393C22.4772 29.2093 22.2872 29.0893 22.1972 29.2093C20.2272 31.5493 17.9672 33.6293 15.1572 34.9193C15.1172 34.9393 15.0872 34.9493 15.0472 34.9693C21.4372 26.9993 21.2872 15.2993 29.8972 8.98927C35.1472 5.14927 40.3072 2.52927 46.8372 1.72927C49.8672 1.35927 52.8272 1.67927 55.8272 1.98927C57.4172 2.14927 58.9572 2.56927 60.4672 3.09927C61.5972 3.49927 62.4372 4.28927 63.5372 4.66927C63.6272 4.69927 63.7072 4.69927 63.7872 4.67927C63.8672 4.68927 63.9472 4.69927 64.0372 4.66927C65.1372 4.28927 65.9772 3.50927 67.1072 3.09927C68.6072 2.56927 70.1572 2.14927 71.7472 1.98927C74.7572 1.67927 77.7172 1.36927 80.7372 1.72927C87.2672 2.52927 92.4272 5.13927 97.6772 8.98927C106.287 15.2893 106.137 26.9993 112.527 34.9693C112.487 34.9493 112.457 34.9393 112.417 34.9193C109.607 33.6293 107.347 31.5493 105.377 29.2093C105.277 29.0993 105.107 29.2093 105.187 29.3393C106.287 31.0393 107.507 32.9593 109.207 34.1493C110.847 35.2993 112.617 36.0893 114.277 37.1793C118.377 39.8693 121.897 42.6493 123.867 47.3193C126.037 52.4393 125.857 59.0993 123.117 63.9793L123.157 64.0493Z" fill="#897EB3"/>
<path d="M72.4972 50.4193C76.0472 46.5993 81.0672 46.2693 85.2172 49.4793C85.2472 49.4993 85.2772 49.4693 85.2572 49.4393C83.4672 47.2593 81.1872 45.9293 78.2472 46.2393C75.5072 46.5193 73.1972 47.5193 72.2172 50.2293C72.1472 50.4093 72.3672 50.5693 72.5072 50.4193H72.4972Z" fill="#897EB3"/>
<path d="M65.7172 69.3193C65.9772 69.2293 66.1672 69.0193 66.4472 69.0693C66.5872 69.0993 66.7472 69.0693 66.8772 69.1093C67.0072 69.1393 67.1072 69.2193 67.2472 69.2293C67.5872 69.2693 67.9572 68.8593 67.6872 68.5393C67.3472 68.1493 66.8872 68.0593 66.3972 68.1593C65.8972 68.2593 65.7772 68.5993 65.4472 68.9093C65.2572 69.0993 65.5071 69.3793 65.7271 69.3093L65.7172 69.3193Z" fill="#897EB3"/>
<path d="M66.9972 66.4193H67.0172C67.0172 66.4193 67.1072 66.5093 67.1672 66.5393C67.7872 66.8793 68.2671 67.4893 68.4771 68.1493C68.7171 68.8893 68.2272 69.2893 67.8072 69.8093C67.7072 69.9293 67.7972 70.1593 67.9672 70.1193C69.0972 69.8793 69.9472 68.6793 69.4272 67.5393C69.0172 66.6393 68.0772 65.4293 66.9672 65.5593C66.7072 65.5893 66.5972 65.7793 66.5972 65.9693C66.5772 66.1293 66.6372 66.2893 66.7872 66.3593C66.8472 66.3993 66.9172 66.4193 66.9972 66.4193Z" fill="#897EB3"/>
<path d="M49.0972 44.8593C51.0572 45.0893 52.8072 46.0093 54.6672 45.0593C54.8572 44.9693 54.9272 44.7893 54.9072 44.6193C55.0372 44.4893 55.1672 44.3293 55.3072 44.1393C55.5072 43.8493 55.4072 43.3193 55.0272 43.2293C52.3672 42.6193 50.3672 41.8393 47.5272 42.3893C45.3472 42.8093 42.8772 44.3993 41.2172 45.8493C41.2072 45.8593 41.2172 45.8793 41.2372 45.8693C42.8672 44.5893 44.8572 43.5893 46.8972 43.2093C49.3672 42.7593 51.4472 43.4393 53.6672 44.0893C53.5672 44.1693 53.4772 44.2493 53.3772 44.3193C51.0272 44.4393 48.7172 43.7193 46.3172 43.8993C43.9372 44.0893 42.1772 44.9893 40.4972 46.6593C40.4272 46.7293 40.5172 46.8193 40.5872 46.7693C43.2272 45.0193 45.9772 44.4793 49.0972 44.8593Z" fill="#897EB3"/>
<path d="M55.6172 50.2293C54.6272 47.5193 52.3172 46.5293 49.5772 46.2393C46.6372 45.9293 44.3572 47.2693 42.5672 49.4393C42.5472 49.4693 42.5872 49.4993 42.6072 49.4793C46.7572 46.2693 51.7672 46.5893 55.3172 50.4193C55.4572 50.5693 55.6772 50.4193 55.6072 50.2293H55.6172Z" fill="#897EB3"/>
<path d="M59.8472 70.1193C60.0172 70.1593 60.1072 69.9293 60.0072 69.8093C59.5872 69.2893 59.0972 68.8893 59.3372 68.1493C59.5472 67.4893 60.0272 66.8793 60.6472 66.5393C60.7072 66.5093 60.7572 66.4693 60.7972 66.4193H60.8172C60.8172 66.4293 60.8172 66.4493 60.8172 66.4593C60.7872 66.5893 60.7372 66.7293 60.7272 66.8593C60.7072 67.0593 60.9972 67.1793 61.0872 66.9693C61.1472 66.8093 61.2072 66.6593 61.2572 66.4993C61.6672 65.9093 61.9472 65.1993 62.1372 64.4393C62.1772 64.3493 62.2172 64.2593 62.2672 64.1693C62.2872 64.1193 62.2572 64.0893 62.2172 64.0793C62.6272 62.1093 62.4672 59.8093 62.1672 58.1393C61.6472 55.2293 61.5072 52.2493 61.0372 49.3193C61.0172 49.1593 60.7672 49.1793 60.7872 49.3393C61.2072 53.4993 61.6872 58.4693 61.4872 62.5893C61.4272 63.8493 61.1272 64.5193 60.9172 65.5693C60.8872 65.5693 60.8672 65.5493 60.8372 65.5493C59.7272 65.4193 58.7872 66.6393 58.3772 67.5293C57.8572 68.6693 58.7072 69.8793 59.8372 70.1093L59.8472 70.1193Z" fill="#897EB3"/>
<path d="M55.6772 77.4293C55.7672 77.4493 55.8572 77.4593 55.9572 77.4693C55.9572 77.4693 55.9572 77.4693 55.9572 77.4793C56.3572 78.3393 57.1272 78.9893 57.7272 79.7093C58.4672 80.5793 59.1472 81.4593 59.9972 82.2293C61.0072 83.1393 62.3372 83.6893 63.6672 83.7293C63.7472 83.7293 63.8272 83.7293 63.9072 83.7293C63.9872 83.7293 64.0672 83.7293 64.1472 83.7293C65.4872 83.6893 66.8072 83.1493 67.8172 82.2293C68.6672 81.4593 69.3472 80.5793 70.0872 79.7093C70.6972 78.9893 71.4672 78.3393 71.8572 77.4793C71.8572 77.4793 71.8572 77.4793 71.8572 77.4693C71.9472 77.4593 72.0372 77.4493 72.1372 77.4293C72.3172 77.3793 72.2572 77.1293 72.1072 77.0893C69.8172 76.5493 68.5372 74.0493 66.0572 73.9693C65.3472 73.9493 64.4872 74.1493 63.9072 74.6293C63.5172 74.3093 63.0072 74.1093 62.4872 74.0293C62.7572 73.6593 62.9472 73.1693 63.0372 72.8293C63.2272 72.1193 63.2572 71.3993 63.1472 70.6893C63.4972 70.9493 63.8972 71.1193 64.3372 70.9793C64.5572 70.9093 64.5272 70.6293 64.3572 70.5293C64.3572 70.5293 64.3372 70.5293 64.3272 70.5193C64.3272 70.5193 64.2372 70.4993 64.1872 70.5193C63.9772 70.5893 63.1272 69.6293 62.9072 69.4093C62.5772 69.0693 62.3772 68.7593 62.0572 68.5893C61.8972 68.3993 61.7372 68.2393 61.4172 68.1793C60.9272 68.0893 60.4572 68.1793 60.1272 68.5593C59.8572 68.8793 60.2272 69.2793 60.5672 69.2493C60.7072 69.2293 60.8072 69.1593 60.9372 69.1293C61.0772 69.0993 61.2272 69.1193 61.3672 69.0893C61.3972 69.0893 61.4272 69.0893 61.4572 69.0893C61.8572 69.4193 62.1872 69.8193 62.5572 70.1893C62.4672 70.8593 62.5672 71.5593 62.4072 72.2093C62.2372 72.8893 61.8872 73.3993 61.6072 74.0093C59.2172 74.1793 57.9372 76.5793 55.6872 77.1093C55.5372 77.1493 55.4672 77.3993 55.6572 77.4493L55.6772 77.4293ZM68.1372 80.1493C67.3972 80.9793 66.5672 81.7793 65.4472 82.0393C64.9372 82.1593 64.4172 82.1693 63.9072 82.1793C63.3972 82.1693 62.8772 82.1493 62.3672 82.0393C61.2472 81.7793 60.4172 80.9793 59.6772 80.1493C58.8472 79.2193 57.9472 77.8393 56.6872 77.4693C56.8672 77.4493 57.0372 77.3993 57.2072 77.3493C57.2072 77.3493 57.2172 77.3493 57.2272 77.3493C57.3172 77.3493 57.3972 77.3493 57.4772 77.3493C57.4972 77.3693 57.5172 77.3993 57.5572 77.4093C59.1172 77.8893 60.6172 79.6193 62.2472 80.4893C62.2772 80.5693 62.3272 80.6493 62.4272 80.6993C62.9372 80.9393 63.4272 81.0193 63.9072 80.9993C64.3872 81.0293 64.8772 80.9493 65.3872 80.6993C65.4872 80.6493 65.5372 80.5793 65.5672 80.4893C67.2072 79.6093 68.6972 77.8893 70.2572 77.4093C70.2972 77.3993 70.3172 77.3693 70.3272 77.3493C70.4172 77.3493 70.4972 77.3493 70.5872 77.3493C70.5872 77.3493 70.5972 77.3493 70.6072 77.3493C70.7772 77.3993 70.9472 77.4493 71.1272 77.4693C69.8672 77.8293 68.9572 79.2193 68.1372 80.1493ZM63.3072 78.4893C63.5072 78.5793 63.7072 78.6093 63.9072 78.5993C64.1072 78.5993 64.3172 78.5793 64.5072 78.4893C65.0372 78.3093 65.5572 77.9593 66.0072 77.6993C67.0572 77.1093 68.0572 77.1693 69.0972 77.2593C68.0972 77.5693 67.2372 78.2593 66.3372 78.8193C65.6272 79.2693 64.7472 79.5593 63.8972 79.6093C63.0472 79.5593 62.1672 79.2693 61.4572 78.8193C60.5672 78.2593 59.6972 77.5693 58.6972 77.2593C59.7472 77.1693 60.7372 77.1093 61.7872 77.6993C62.2372 77.9593 62.7572 78.2993 63.2872 78.4893H63.3072ZM62.9772 75.4893C63.0972 75.6093 63.2072 75.6993 63.3172 75.7893C63.3772 75.9693 63.5572 76.1193 63.7572 76.0893C63.8072 76.0893 63.8572 76.0693 63.9072 76.0593C63.9572 76.0693 63.9972 76.0893 64.0572 76.0893C64.2572 76.1193 64.4372 75.9793 64.4972 75.7993C64.6072 75.7193 64.7272 75.6193 64.8372 75.4993C65.8272 74.4793 67.7172 75.5693 68.5872 76.2193C68.7772 76.3593 68.9772 76.4993 69.1672 76.6293C68.3572 76.3393 67.5272 76.1393 66.6572 76.2493C65.8772 76.3593 64.7672 76.5893 63.8872 76.9793C63.0172 76.5893 61.8972 76.3593 61.1272 76.2493C60.2572 76.1393 59.4272 76.3393 58.6172 76.6293C58.8172 76.4993 59.0072 76.3593 59.1972 76.2193C60.0772 75.5693 61.9572 74.4893 62.9572 75.4993L62.9772 75.4893Z" fill="#897EB3"/>
</g>
<defs>
<linearGradient id="paint0_linear_57_315" x1="0.0271573" y1="61.7393" x2="127.667" y2="61.7393" gradientUnits="userSpaceOnUse">
<stop stop-color="#C0CBD8"/>
<stop offset="0.54" stop-color="white"/>
<stop offset="0.87" stop-color="white"/>
<stop offset="0.99" stop-color="#C0CBD8"/>
</linearGradient>
</defs>
</svg>
