<svg width="110" height="125" viewBox="0 0 110 125" fill="none" xmlns="http://www.w3.org/2000/svg">
<g id="7">
<path d="M26.3109 106.859C26.6709 106.279 27.1509 105.499 27.0209 104.949C26.8109 104.099 25.4609 105.069 25.1509 105.249C25.0309 105.319 24.9109 105.389 24.7709 105.459C24.3209 105.019 23.8109 104.609 23.2709 104.489C23.1409 104.459 23.0109 104.589 23.0109 104.709C22.9809 105.189 23.0709 105.719 23.1809 106.229C22.6109 106.519 22.0709 106.849 21.6909 107.279C21.6409 107.339 21.6309 107.459 21.6709 107.529C22.0309 108.109 22.8809 108.139 23.4809 108.219C23.5209 108.219 23.5509 108.219 23.5809 108.219C23.5809 108.219 23.5809 108.239 23.5809 108.249C23.5909 108.379 23.6009 108.519 23.6009 108.639C23.6009 109.119 23.5309 109.959 23.9609 110.279C24.0409 110.339 24.1809 110.359 24.2709 110.309C24.5909 110.109 24.7409 109.909 24.9009 109.579C25.1009 109.179 25.2909 108.779 25.4809 108.379C26.0809 108.429 26.6809 108.489 27.2609 108.599C27.3909 108.629 27.5309 108.479 27.4909 108.349C27.3409 107.799 26.8109 107.299 26.2909 106.849L26.3109 106.859Z" fill="url(#paint0_linear_57_361)"/>
<path d="M101.621 90.1092C101.911 89.6292 102.311 88.9792 102.211 88.5292C102.041 87.8292 100.921 88.6292 100.671 88.7792C100.571 88.8392 100.471 88.8992 100.361 88.9492C99.9809 88.5892 99.5709 88.2392 99.1209 88.1492C99.0209 88.1292 98.9109 88.2292 98.9009 88.3292C98.8809 88.7292 98.9509 89.1692 99.0409 89.5892C98.5609 89.8292 98.1209 90.0992 97.8109 90.4592C97.7709 90.5092 97.7609 90.6092 97.7909 90.6692C98.0809 91.1492 98.7909 91.1792 99.2909 91.2392C99.3209 91.2392 99.3409 91.2392 99.3709 91.2392V91.2592C99.3709 91.3692 99.3809 91.4792 99.3809 91.5892C99.3809 91.9892 99.3209 92.6792 99.6809 92.9392C99.7509 92.9892 99.8609 93.0092 99.9409 92.9592C100.201 92.7992 100.331 92.6292 100.461 92.3592C100.621 92.0292 100.781 91.6992 100.941 91.3692C101.441 91.4092 101.931 91.4592 102.411 91.5592C102.521 91.5792 102.631 91.4492 102.611 91.3492C102.481 90.8892 102.051 90.4792 101.621 90.1092Z" fill="url(#paint1_linear_57_361)"/>
<path d="M18.7309 34.1592C19.0309 33.6792 19.4209 33.0292 19.3209 32.5792C19.1509 31.8792 18.0309 32.6792 17.7809 32.8292C17.6809 32.8892 17.5809 32.9392 17.4709 32.9992C17.0909 32.6392 16.6709 32.2992 16.2209 32.1992C16.1209 32.1792 16.0109 32.2792 16.0009 32.3792C15.9809 32.7792 16.0509 33.2192 16.1409 33.6392C15.6609 33.8792 15.2209 34.1492 14.9109 34.5092C14.8709 34.5592 14.8609 34.6592 14.8909 34.7192C15.1809 35.1992 15.8909 35.2292 16.3909 35.2892C16.4209 35.2892 16.4409 35.2892 16.4709 35.2892C16.4709 35.2892 16.4709 35.2992 16.4709 35.3092C16.4709 35.4192 16.4909 35.5292 16.4909 35.6292C16.4909 36.0292 16.4309 36.7192 16.7909 36.9792C16.8609 37.0292 16.9709 37.0492 17.0509 36.9992C17.3109 36.8392 17.4409 36.6692 17.5709 36.3992C17.7309 36.0692 17.8909 35.7392 18.0509 35.4092C18.5509 35.4492 19.0409 35.4992 19.5209 35.5992C19.6309 35.6192 19.7409 35.4992 19.7209 35.3892C19.5909 34.9292 19.1609 34.5192 18.7209 34.1492L18.7309 34.1592Z" fill="url(#paint2_linear_57_361)"/>
<path d="M12.4709 97.2392C13.2409 97.0492 14.2909 96.7892 14.6309 96.2192C15.1609 95.3492 13.2309 95.0492 12.8309 94.9492C12.6709 94.9092 12.5109 94.8692 12.3509 94.8092C12.3309 94.0792 12.2509 93.3192 11.8809 92.7692C11.8009 92.6492 11.5909 92.6392 11.4809 92.7392C11.0609 93.1192 10.7109 93.6392 10.3809 94.1492C9.67086 93.9192 8.95086 93.7592 8.28086 93.8092C8.19086 93.8092 8.08086 93.9092 8.06086 93.9992C7.88086 94.7792 8.56086 95.4992 9.01086 96.0592C9.03086 96.0892 9.06086 96.1192 9.09086 96.1492C9.09086 96.1492 9.08086 96.1692 9.07086 96.1792C8.97086 96.2992 8.87086 96.4192 8.76086 96.5192C8.37086 96.9192 7.62086 97.5592 7.72086 98.1792C7.74086 98.2992 7.84086 98.4292 7.96086 98.4492C8.39086 98.5492 8.67086 98.4992 9.08086 98.3592C9.57086 98.1892 10.0509 98.0092 10.5409 97.8292C11.0009 98.3592 11.4509 98.8992 11.8409 99.4792C11.9309 99.6092 12.1709 99.5992 12.2409 99.4592C12.5609 98.8792 12.5409 98.0292 12.4609 97.2292L12.4709 97.2392Z" fill="url(#paint3_linear_57_361)"/>
<path d="M106.701 49.6492C107.471 49.4592 108.521 49.1992 108.861 48.6292C109.391 47.7592 107.461 47.4592 107.061 47.3592C106.901 47.3192 106.741 47.2792 106.581 47.2292C106.561 46.4992 106.481 45.7292 106.121 45.1892C106.041 45.0692 105.831 45.0592 105.721 45.1492C105.301 45.5292 104.941 46.0492 104.621 46.5592C103.911 46.3392 103.191 46.1692 102.521 46.2192C102.431 46.2192 102.321 46.3192 102.301 46.4092C102.121 47.1892 102.801 47.9092 103.251 48.4592C103.271 48.4892 103.301 48.5192 103.331 48.5592C103.331 48.5592 103.321 48.5792 103.311 48.5792C103.211 48.6992 103.111 48.8192 103.001 48.9192C102.611 49.3192 101.861 49.9592 101.961 50.5792C101.981 50.6992 102.081 50.8292 102.201 50.8592C102.631 50.9592 102.911 50.9092 103.321 50.7692C103.811 50.5892 104.301 50.4192 104.791 50.2392C105.251 50.7692 105.701 51.3092 106.091 51.8892C106.181 52.0192 106.421 51.9992 106.491 51.8692C106.811 51.2792 106.791 50.4392 106.711 49.6392L106.701 49.6492Z" fill="url(#paint4_linear_57_361)"/>
<path d="M73.1609 108.009C73.8909 108.319 74.8809 108.749 75.4909 108.509C76.4409 108.129 75.0909 106.729 74.8209 106.409C74.7209 106.289 74.6209 106.149 74.5209 106.009C74.9509 105.419 75.3409 104.759 75.3809 104.109C75.3809 103.959 75.2309 103.829 75.0909 103.839C74.5209 103.889 73.9309 104.089 73.3609 104.299C72.9309 103.689 72.4609 103.119 71.8909 102.759C71.8109 102.709 71.6709 102.719 71.6009 102.779C70.9909 103.289 71.0909 104.279 71.1109 104.989C71.1109 105.029 71.1109 105.069 71.1109 105.109C71.1009 105.109 71.0909 105.109 71.0809 105.109C70.9309 105.149 70.7809 105.179 70.6309 105.199C70.0709 105.279 69.0909 105.339 68.8009 105.889C68.7509 105.989 68.7509 106.159 68.8309 106.259C69.1109 106.589 69.3709 106.729 69.7809 106.859C70.2809 107.019 70.7709 107.169 71.2709 107.329C71.3209 108.029 71.3509 108.739 71.3109 109.429C71.3109 109.589 71.5009 109.719 71.6409 109.659C72.2509 109.389 72.7409 108.699 73.1709 108.019L73.1609 108.009Z" fill="url(#paint5_linear_57_361)"/>
<path d="M7.94086 48.7492C8.67086 49.0692 9.66086 49.4892 10.2709 49.2492C11.2209 48.8692 9.86086 47.4692 9.60086 47.1492C9.50086 47.0292 9.40086 46.8892 9.30086 46.7492C9.73086 46.1492 10.1209 45.4992 10.1609 44.8492C10.1609 44.6992 10.0009 44.5692 9.86086 44.5792C9.29086 44.6292 8.70086 44.8192 8.13086 45.0292C7.70086 44.4192 7.23086 43.8492 6.66086 43.4892C6.58086 43.4392 6.44086 43.4492 6.36086 43.5092C5.75086 44.0192 5.85086 45.0092 5.87086 45.7192C5.87086 45.7592 5.87086 45.7992 5.87086 45.8392C5.87086 45.8392 5.85086 45.8392 5.84086 45.8392C5.69086 45.8692 5.53086 45.8992 5.39086 45.9292C4.83086 46.0092 3.85086 46.0692 3.56086 46.6192C3.51086 46.7192 3.50086 46.8892 3.58086 46.9792C3.86086 47.3092 4.12086 47.4492 4.53086 47.5792C5.03086 47.7392 5.52086 47.8892 6.01086 48.0492C6.06086 48.7492 6.09086 49.4592 6.05086 50.1492C6.05086 50.3092 6.24086 50.4392 6.38086 50.3792C6.99086 50.1092 7.48086 49.4192 7.91086 48.7392L7.94086 48.7492Z" fill="url(#paint6_linear_57_361)"/>
<path d="M7.29086 83.6992C6.73086 83.6992 6.23086 83.7892 5.79086 84.1692C5.39086 84.5092 5.13086 84.9992 5.08086 85.5292C4.98086 86.5492 5.80086 87.7392 6.91086 87.7392C7.48086 87.7392 7.97086 87.6492 8.42086 87.2692C8.82086 86.9292 9.08086 86.4392 9.13086 85.9092C9.23086 84.8892 8.41086 83.6992 7.30086 83.6992H7.29086Z" fill="url(#paint7_linear_57_361)"/>
<path d="M14.2309 83.8892C13.0809 83.8892 12.9009 85.6792 14.0609 85.6792C15.2209 85.6792 15.3909 83.8892 14.2309 83.8892Z" fill="url(#paint8_linear_57_361)"/>
<path d="M108.771 63.0092C107.621 63.0092 107.441 64.7992 108.601 64.7992C109.761 64.7992 109.931 63.0092 108.771 63.0092Z" fill="url(#paint9_linear_57_361)"/>
<path d="M105.381 82.4092C105.411 82.5192 105.441 82.6292 105.491 82.7392C105.641 83.0592 105.861 83.1492 106.071 83.1092C106.281 83.1292 106.491 83.0292 106.651 82.6892C106.681 82.6392 106.701 82.5892 106.711 82.5392C107.081 81.3192 105.081 81.4192 105.381 82.4192V82.4092Z" fill="url(#paint10_linear_57_361)"/>
<path d="M95.8309 36.6392C95.8609 36.7492 95.8909 36.8592 95.9409 36.9592C96.0909 37.2792 96.3109 37.3692 96.5209 37.3292C96.7309 37.3492 96.9409 37.2492 97.1009 36.9092C97.1309 36.8592 97.1509 36.8092 97.1609 36.7592C97.5309 35.5392 95.5309 35.6492 95.8309 36.6392Z" fill="url(#paint11_linear_57_361)"/>
<path d="M7.77086 36.4292C7.80086 36.5392 7.83086 36.6492 7.88086 36.7492C8.03086 37.0692 8.25086 37.1592 8.46086 37.1192C8.67086 37.1392 8.88086 37.0392 9.04086 36.6992C9.07086 36.6492 9.09086 36.5992 9.10086 36.5492C9.47086 35.3292 7.47086 35.4392 7.77086 36.4292Z" fill="url(#paint12_linear_57_361)"/>
<path d="M77.9909 91.5492C74.2709 91.5492 73.7009 97.3392 77.4409 97.3392C81.1809 97.3392 81.7309 91.5492 77.9909 91.5492Z" fill="url(#paint13_linear_57_361)"/>
<path d="M86.6109 101.639C84.8409 101.639 84.5709 104.399 86.3509 104.399C88.1309 104.399 88.4009 101.639 86.6109 101.639Z" fill="url(#paint14_linear_57_361)"/>
<path d="M99.3409 76.2192C97.5709 76.2192 97.3009 78.9792 99.0809 78.9792C100.861 78.9792 101.121 76.2192 99.3409 76.2192Z" fill="url(#paint15_linear_57_361)"/>
<path d="M102.911 34.4592C101.141 34.4592 100.871 37.2192 102.651 37.2192C104.431 37.2192 104.701 34.4592 102.911 34.4592Z" fill="url(#paint16_linear_57_361)"/>
<path d="M1.49086 70.8292C-0.279143 70.8292 -0.549143 73.5892 1.23086 73.5892C3.01086 73.5892 3.27086 70.8292 1.49086 70.8292Z" fill="url(#paint17_linear_57_361)"/>
<path d="M11.2009 75.6892C11.1709 75.3192 10.7909 75.0192 10.4409 74.9892C9.98086 74.9392 9.55086 75.2992 9.51086 75.7592C9.51086 75.8492 9.50086 75.9392 9.49086 76.0292C9.45086 76.5092 9.80086 76.9392 10.2809 76.9792C10.8909 77.0392 11.2709 76.5092 11.2309 75.9592L11.2109 75.6892H11.2009Z" fill="url(#paint18_linear_57_361)"/>
<path d="M100.651 66.2892C100.071 65.8392 99.5909 65.8192 98.8909 65.8292C98.5909 65.8292 98.0009 65.9492 97.5009 66.1692C97.3409 66.0492 97.1209 66.0992 96.9609 66.1692C96.2009 66.5392 95.7309 67.1992 95.1609 67.8092C94.2709 68.7592 93.3709 69.7092 92.5109 70.6792C92.0509 71.1892 90.9709 72.1492 90.7009 73.0492C89.0109 72.1292 86.3009 71.9492 84.8509 72.2692C84.7609 72.0692 84.6709 71.8792 84.5609 71.6792C83.5009 69.6992 81.7809 67.6692 80.3709 65.9092C79.7909 65.1892 76.7409 61.0092 75.1709 61.4792C74.7209 60.8192 73.9209 60.2492 73.3609 59.9392C72.2909 59.3692 70.9309 58.2892 69.6609 58.3092C69.6609 58.3092 69.6409 58.3092 69.6309 58.3092C69.0509 57.7292 68.1909 57.3192 67.4609 57.5692C67.3009 57.3892 67.1209 57.2392 66.9309 57.1192C66.8009 56.5792 66.5609 56.0692 66.3909 55.5092C66.3509 55.3692 66.3209 55.2392 66.2909 55.0992C66.6509 55.0292 66.9709 54.8392 67.2309 54.5892C67.4909 54.7992 67.8409 54.9292 68.1309 55.0992C69.4909 55.8792 70.9209 56.5492 72.2709 57.3592C73.0209 57.8192 75.3509 59.9192 76.5309 59.4492C77.3209 60.1692 79.3509 60.6692 79.9209 60.7892C80.6809 60.9392 83.3509 61.6292 84.0109 60.6792C85.6709 59.8992 87.2309 58.6492 88.6309 57.4992C89.8009 56.5492 91.3109 55.3092 90.9709 53.6492C91.4309 53.3692 91.8809 52.9692 92.3009 52.7092C92.6909 52.4692 93.0609 52.4492 93.4909 52.3692C93.9609 52.2792 94.4309 52.5792 94.9309 52.5192C95.3909 52.4592 95.5309 51.9592 95.1609 51.6792C93.2809 50.2392 91.4209 51.5592 90.0109 52.9392C89.4709 52.9992 88.8409 53.3592 88.5109 53.6092C87.7209 54.1892 86.9509 54.7992 86.1509 55.3692C85.1809 56.0592 83.9309 57.0792 82.7609 57.4392C82.4009 57.1992 81.9609 57.0392 81.4209 56.9692C80.5909 56.8692 79.5809 56.9392 78.7509 57.0792C77.9509 57.2192 77.1609 56.9992 76.5709 57.4592C76.0709 56.7192 75.3309 56.0192 74.9709 55.7492C72.9409 54.1992 70.3009 52.3292 67.7409 51.7492C67.3709 50.8892 66.6109 50.1092 65.7509 50.1592C65.7509 49.3392 65.8009 48.5192 65.8009 47.7092C66.1609 47.6592 66.5209 47.4792 66.8109 47.2292C67.1309 47.5192 67.5209 47.7092 67.9209 47.9492C68.8109 48.4792 69.7309 49.0292 70.6709 49.4692C71.7309 49.9692 72.9309 50.8392 74.1509 50.5392C76.4009 50.9292 78.6109 49.6692 80.8109 49.3792C81.4409 49.2992 82.3309 49.1292 82.8209 48.6792C83.9809 48.4592 84.5709 47.2392 85.2709 46.3192C85.8509 45.5592 86.2809 44.7092 86.8309 43.9292C87.2809 43.2992 87.7109 42.7992 87.7609 42.0192C88.2309 41.6492 88.6709 41.2692 89.1909 40.9592C89.7309 40.6292 90.4209 40.9892 90.9709 41.1192C91.3709 41.2092 91.7809 40.6692 91.4009 40.3692C90.7309 39.8292 90.0109 39.5492 89.1409 39.6792C88.2609 39.8092 87.3909 40.6392 86.8509 41.2892C86.8009 41.3492 86.7709 41.4092 86.7409 41.4692C85.7309 41.7492 85.0409 42.6092 84.3409 43.3992C83.8209 43.9792 83.3809 44.6092 82.9309 45.2392C82.8609 45.3392 82.3009 46.2692 82.0909 46.7092C80.8109 46.4092 78.7509 47.0092 78.0809 47.1492C76.9609 47.3792 74.7309 47.7692 73.8809 48.8992C72.0509 47.3292 69.6609 46.4992 67.6109 45.2692C67.6109 44.8592 67.5409 44.4492 67.3709 44.0592C67.0509 43.3392 66.2709 42.6192 65.4309 42.6392C65.0409 42.6392 64.6009 42.6692 64.2609 42.8492C64.1909 42.7892 64.1109 42.7292 64.0409 42.6692C64.1509 42.2692 64.1909 41.8692 64.1709 41.4692C65.1709 41.0692 65.8909 40.1192 66.3109 39.1592C66.5409 38.6292 66.5509 38.0492 66.4409 37.4792C67.5609 37.4092 68.7609 37.8892 69.8509 37.9292C70.7509 37.9692 72.5709 38.3492 73.7309 37.9492C73.8609 38.5492 74.2109 38.9492 74.8909 38.9492C78.2409 38.9492 82.0109 35.5392 83.9009 33.0992C86.0109 30.3792 86.4609 27.0592 85.7409 23.7992C85.9209 23.6892 86.0909 23.5792 86.2709 23.4392C86.3909 23.3492 86.4609 23.2292 86.4909 23.0892C87.7509 21.4492 85.8209 18.6892 84.8709 16.9692C85.7009 12.7992 82.6009 9.40925 79.6109 6.89925C76.1409 3.98925 71.8309 1.40925 67.1909 1.08925C67.0909 1.04925 67.0009 1.01925 66.9009 0.979245C66.8509 0.959245 66.8209 1.03925 66.8709 1.05925C66.9009 1.07925 66.9309 1.09925 66.9609 1.10925C66.9409 1.14925 66.9409 1.19925 66.9909 1.22925C67.2909 1.36925 67.5809 1.49925 67.8809 1.62925C70.3509 3.08925 72.5709 4.83925 74.5409 6.93925C75.8509 8.32925 76.7209 9.85925 77.6009 11.3992C76.9909 10.8792 76.4209 10.2892 75.8509 9.74925C73.1509 7.19925 70.7809 4.47925 67.1609 3.15925C66.1409 2.78925 61.0509 0.949245 59.7809 1.85925C59.7209 1.84925 59.6609 1.81925 59.6009 1.80925C59.4809 1.78925 59.4409 1.91925 59.5209 1.98925C59.5609 2.01925 59.5909 2.03925 59.6209 2.06925C59.6209 2.10925 59.6509 2.12925 59.7009 2.12925C63.0709 4.68925 65.4509 7.38925 67.4109 11.1792C68.8009 13.8592 69.6809 16.4792 71.6209 18.8392C73.8709 21.5692 78.2609 24.6792 82.2609 24.7192C81.4409 26.5392 78.5809 28.3792 77.3809 29.1592C76.3609 29.8192 75.2109 30.2192 75.0409 31.5392C74.9909 31.8992 74.5809 33.0092 74.2209 34.2692C71.6609 34.0792 69.2009 33.1492 66.6309 32.9092C65.7809 32.8292 64.5409 33.2792 64.0909 34.0392C63.2509 33.5092 62.2509 33.2492 61.2509 33.2792C60.3909 33.2992 59.1309 33.6292 58.4509 34.3192C57.1809 33.9292 55.7809 33.8092 54.6609 34.0592C53.5409 33.8092 52.1509 33.9292 50.8709 34.3192C50.1809 33.6292 48.9309 33.2992 48.0609 33.2792C47.0609 33.2492 46.0609 33.5092 45.2209 34.0392C44.7709 33.2892 43.5309 32.8292 42.6809 32.9092C40.1209 33.1492 37.6509 34.0792 35.0909 34.2692C34.7309 33.0092 34.3109 31.8892 34.2709 31.5392C34.1009 30.2092 32.9509 29.8192 31.9209 29.1592C30.7209 28.3792 27.8609 26.5392 27.0409 24.7192C31.0409 24.6792 35.4409 21.5692 37.6809 18.8392C39.6309 16.4792 40.5109 13.8592 41.8909 11.1792C43.8509 7.38925 46.2309 4.68925 49.6009 2.12925C49.6409 2.12925 49.6609 2.09925 49.6809 2.06925C49.7109 2.03925 49.7409 2.01925 49.7809 1.98925C49.8709 1.91925 49.8209 1.77925 49.7009 1.80925C49.6409 1.81925 49.5809 1.84925 49.5109 1.85925C48.2509 0.949245 43.1509 2.78925 42.1309 3.15925C38.5109 4.47925 36.1509 7.19925 33.4409 9.74925C32.8709 10.2892 32.3009 10.8792 31.6909 11.3992C32.5809 9.85925 33.4409 8.32925 34.7609 6.93925C36.7409 4.84925 38.9509 3.08925 41.4209 1.62925C41.7109 1.49925 42.0109 1.35925 42.3109 1.22925C42.3609 1.20925 42.3609 1.14925 42.3309 1.10925C42.3609 1.08925 42.3909 1.06925 42.4209 1.05925C42.4709 1.02925 42.4309 0.959245 42.3809 0.979245C42.2809 1.00925 42.1909 1.04925 42.0909 1.08925C37.4509 1.40925 33.1409 3.98925 29.6709 6.89925C26.6809 9.40925 23.5809 12.7892 24.4009 16.9692C23.4509 18.6892 21.5209 21.4492 22.7809 23.0892C22.8109 23.2292 22.8809 23.3492 23.0009 23.4392C23.1709 23.5692 23.3509 23.6892 23.5309 23.7992C22.8109 27.0592 23.2609 30.3792 25.3709 33.0992C27.2709 35.5392 31.0409 38.9492 34.3909 38.9492C35.0809 38.9492 35.4209 38.5592 35.5509 37.9492C36.7009 38.3492 38.5309 37.9692 39.4309 37.9292C40.5209 37.8792 41.7209 37.4092 42.8409 37.4792C42.7209 38.0492 42.7409 38.6292 42.9709 39.1592C43.3909 40.1292 44.1109 41.0792 45.1109 41.4692C45.0909 41.8692 45.1309 42.2692 45.2409 42.6692C45.1609 42.7292 45.0909 42.7892 45.0209 42.8492C44.6809 42.6692 44.2409 42.6392 43.8509 42.6392C43.0109 42.6192 42.2309 43.3392 41.9109 44.0592C41.7409 44.4392 41.6709 44.8492 41.6709 45.2692C39.6209 46.4992 37.2309 47.3192 35.4009 48.8992C34.5509 47.7692 32.3209 47.3892 31.2009 47.1492C30.5309 47.0092 28.4709 46.4092 27.1909 46.7092C26.9809 46.2592 26.4309 45.3392 26.3509 45.2392C25.9109 44.6092 25.4609 43.9692 24.9509 43.3992C24.2509 42.6092 23.5509 41.7492 22.5409 41.4692C22.5109 41.4092 22.4809 41.3492 22.4309 41.2892C21.8909 40.6292 21.0209 39.7992 20.1409 39.6792C19.2809 39.5592 18.5609 39.8292 17.8809 40.3692C17.5109 40.6692 17.9209 41.2092 18.3109 41.1192C18.8609 40.9892 19.5509 40.6392 20.0909 40.9592C20.6109 41.2692 21.0509 41.6492 21.5209 42.0192C21.5709 42.7892 22.0109 43.2892 22.4509 43.9292C22.9909 44.7092 23.4309 45.5592 24.0109 46.3192C24.7209 47.2492 25.3009 48.4592 26.4609 48.6792C26.9509 49.1292 27.8409 49.2992 28.4709 49.3792C30.6709 49.6692 32.8809 50.9292 35.1309 50.5392C36.3509 50.8392 37.5409 49.9692 38.6109 49.4692C39.5509 49.0292 40.4609 48.4792 41.3609 47.9492C41.7709 47.7092 42.1609 47.5192 42.4809 47.2292C42.7709 47.4692 43.1309 47.6592 43.4909 47.7092C43.4909 48.5192 43.5409 49.3392 43.5409 50.1592C42.6809 50.1092 41.9309 50.8892 41.5509 51.7492C38.9809 52.3192 36.3409 54.1892 34.3209 55.7492C33.9709 56.0192 33.2209 56.7192 32.7209 57.4592C32.1309 56.9992 31.3409 57.2092 30.5409 57.0792C29.7109 56.9392 28.7109 56.8692 27.8709 56.9692C27.3309 57.0292 26.8909 57.1992 26.5309 57.4392C25.3609 57.0792 24.1109 56.0692 23.1409 55.3692C22.3409 54.7992 21.5809 54.1892 20.7809 53.6092C20.4509 53.3592 19.8209 52.9992 19.2809 52.9392C17.8709 51.5592 16.0009 50.2292 14.1309 51.6792C13.7609 51.9592 13.9009 52.4692 14.3609 52.5192C14.8609 52.5792 15.3309 52.2792 15.8009 52.3692C16.2309 52.4492 16.6009 52.4792 16.9909 52.7092C17.4209 52.9692 17.8609 53.3692 18.3209 53.6492C17.9809 55.3192 19.4909 56.5492 20.6609 57.4992C22.0609 58.6392 23.6209 59.8992 25.2809 60.6792C25.9409 61.6192 28.6009 60.9392 29.3709 60.7892C29.9409 60.6792 31.9809 60.1792 32.7709 59.4492C33.9509 59.9192 36.2709 57.8192 37.0309 57.3592C38.3709 56.5492 39.8109 55.8792 41.1709 55.0992C41.4609 54.9292 41.8109 54.7992 42.0709 54.5892C42.3409 54.8392 42.6609 55.0192 43.0109 55.0992C42.9709 55.2392 42.9509 55.3692 42.9109 55.5092C42.7409 56.0692 42.5009 56.5792 42.3809 57.1192C42.1909 57.2292 42.0109 57.3892 41.8509 57.5692C41.1209 57.3192 40.2609 57.7292 39.6809 58.3092C39.6809 58.3092 39.6609 58.3092 39.6509 58.3092C38.3809 58.2892 37.0209 59.3692 35.9509 59.9392C35.3809 60.2492 34.5809 60.8092 34.1409 61.4792C32.5709 61.0192 29.5209 65.1892 28.9309 65.9092C27.5309 67.6692 25.8009 69.6992 24.7409 71.6792C24.6409 71.8792 24.5409 72.0692 24.4609 72.2692C23.0009 71.9492 20.2909 72.1292 18.6009 73.0492C18.3309 72.1492 17.2609 71.1892 16.8009 70.6792C15.9309 69.7092 15.0309 68.7592 14.1409 67.8092C13.5709 67.2092 13.1009 66.5392 12.3409 66.1692C12.1809 66.0992 11.9609 66.0492 11.8109 66.1692C11.3109 65.9492 10.7209 65.8292 10.4209 65.8292C9.72086 65.8292 9.24086 65.8492 8.66086 66.2892C8.08086 66.7392 7.60086 67.1792 7.21086 67.7892C6.99086 68.1392 7.41086 68.4692 7.73086 68.3092C8.57086 67.9092 9.23086 66.9292 10.2109 66.9192C10.8309 66.9192 11.3509 67.1092 11.8909 67.3192C11.9609 68.9892 13.6109 70.7492 14.5409 72.0192C15.2009 72.9192 16.0009 74.5092 17.1509 75.0292C17.1509 75.0292 17.1509 75.0292 17.1509 75.0492C17.1509 75.3992 17.5909 75.6492 17.8709 75.4592C19.0309 76.0792 20.8509 75.5892 22.0709 75.3992C22.8009 75.2792 23.7809 75.1592 24.5509 74.7892C24.5809 74.8092 24.6109 74.8292 24.6409 74.8392C26.6209 75.6592 29.1509 71.3292 29.9909 70.1092C31.3609 68.1292 32.9709 66.2792 34.2909 64.2692C34.5309 63.8992 34.7409 63.5692 34.7509 63.2092C36.0809 63.2892 38.4709 62.2992 39.5509 61.6992C39.7209 61.8592 39.9109 61.9992 40.1509 62.1092C40.1009 62.3792 40.0509 62.6092 40.0109 62.7992C39.8709 63.4892 39.8509 64.1892 39.9309 64.8892C39.0009 65.1092 38.1809 65.9292 38.0809 66.9092C37.1009 67.8192 36.5609 69.1792 36.2309 70.4592C36.0509 71.1492 35.7309 71.9892 35.7009 72.7492C34.0809 74.9392 33.7809 78.1292 32.8209 80.6192C32.6509 81.0692 32.3009 81.8492 32.0809 82.6592C31.4109 82.8392 30.7109 82.9092 30.0309 83.0592C29.2509 83.2292 28.5109 83.4992 27.7409 83.7092C27.3709 83.8092 26.9009 83.9792 26.5109 84.2292C25.1309 84.2092 24.1809 85.0592 23.0509 85.7792C22.0209 86.4392 20.9909 87.1392 20.0709 87.9592C18.7209 89.1792 16.4309 90.9492 17.0509 92.9192C16.9109 93.4392 16.8709 94.0092 16.7709 94.4992C16.5609 95.4892 16.7709 96.4792 17.4609 97.2292C17.7909 97.5892 18.3109 97.2092 18.2309 96.7792C18.1009 96.1192 17.8609 95.5192 17.9709 94.8292C18.0209 94.4892 18.1009 94.1492 18.1109 93.8192C18.1109 93.6692 18.1409 93.4992 18.1609 93.3292C19.7409 92.0192 20.9709 90.3192 22.5709 89.0092C23.8209 87.9792 25.3109 87.0592 26.4909 85.9292C26.5709 85.9492 26.6509 85.9792 26.7409 85.9892C26.8509 86.0192 26.9509 86.0092 27.0409 85.9892C27.0609 86.0092 27.0809 86.0292 27.1009 86.0392C28.1909 86.7292 29.7709 86.2292 30.9609 86.0092C31.6509 85.8892 32.2509 85.7092 32.6709 85.2592C32.8209 85.2092 32.9509 85.0592 32.9509 84.8992C32.9509 84.8792 32.9509 84.8692 32.9509 84.8592C32.9609 84.8392 32.9709 84.8092 32.9809 84.7892C34.5509 83.7992 35.4409 81.8392 36.0209 80.1392C36.6509 78.2892 37.3909 76.0992 37.3909 74.0692C37.6609 73.9192 37.8809 73.7092 38.0709 73.4292C38.3309 73.0492 38.7809 72.4492 38.9009 72.0092C39.0009 71.6092 39.1909 71.2292 39.3909 70.8692C39.0009 72.8792 39.5509 74.9792 40.8509 76.6892C39.0109 78.1292 42.4409 84.0992 43.5709 84.9892C43.9409 85.2792 44.3209 85.5092 44.7109 85.7292C44.4709 88.0692 44.7909 91.1292 47.0109 92.3792C47.1209 92.4392 47.2409 92.5092 47.3609 92.5692C46.3009 94.4492 46.8909 96.8592 48.4309 98.3492C49.0509 98.9492 50.0509 99.5592 51.1509 99.9692C51.1509 101.689 51.7809 103.729 52.4109 105.109C53.1109 106.629 54.3809 107.939 56.0109 108.399C55.6509 109.529 56.4509 110.779 57.1409 111.779C57.7209 112.609 58.4709 113.519 59.3509 114.159C59.2909 114.639 59.2509 115.129 59.1909 115.589C59.0609 116.449 58.8209 117.269 58.6809 118.119C56.5809 118.039 54.0309 117.209 52.1209 118.179C51.7109 118.389 51.3609 118.639 51.0909 118.919C50.0209 117.079 48.0209 115.129 45.9409 114.899C45.1409 114.809 44.2809 114.769 43.5409 114.919C43.3809 112.359 41.5809 107.959 39.2509 106.079C39.6209 102.109 41.7009 98.8992 40.8909 94.7592C40.3909 92.1892 37.9009 88.7592 35.4709 87.5592C35.4609 87.5392 35.4409 87.5192 35.4309 87.4992C35.3709 87.4292 35.2909 87.4192 35.2409 87.4492C35.2209 87.4492 35.2109 87.4292 35.1909 87.4192C35.1409 87.3992 35.0709 87.4692 35.0909 87.5192C35.1509 87.6592 35.2109 87.7892 35.2809 87.9192C36.6109 91.3292 34.3909 93.1492 32.5409 95.6592C31.3409 97.2992 30.8609 98.9292 30.5409 100.909C30.1809 103.169 32.2709 105.909 34.3509 106.989C33.5509 108.719 35.1909 110.699 36.2409 112.299C37.4209 114.109 39.5009 116.409 41.7309 117.109C41.7309 117.189 41.7309 117.269 41.7309 117.359C41.8909 119.459 44.6309 121.299 46.3209 122.109C47.7009 122.779 50.4809 124.139 51.9909 123.089C54.3909 124.779 58.7209 124.209 60.7009 122.369C60.7809 122.389 60.8609 122.399 60.9409 122.409C62.8909 122.609 64.3409 119.879 64.7609 118.399C65.2309 116.729 64.9409 114.479 63.8709 113.069C64.0109 112.049 63.8009 110.859 63.6409 110.129C63.3009 108.609 61.7909 106.779 60.2709 105.959C60.2909 105.879 60.3209 105.799 60.3309 105.719C60.5209 104.769 60.2809 103.659 60.1109 102.709C59.9209 101.649 59.6709 100.479 59.3509 99.4192C59.9409 99.0992 60.4509 98.7292 60.8309 98.3692C62.3709 96.8792 62.9609 94.4692 61.9009 92.5892C62.0209 92.5292 62.1409 92.4592 62.2509 92.3992C64.4709 91.1492 64.7909 88.0792 64.5509 85.7492C64.9409 85.5392 65.3209 85.2992 65.6909 85.0092C66.8209 84.1192 70.2509 78.1392 68.4109 76.7092C69.7109 74.9892 70.2609 72.8992 69.8709 70.8892C70.0709 71.2592 70.2609 71.6292 70.3609 72.0292C70.4709 72.4692 70.9309 73.0692 71.1809 73.4492C71.3709 73.7292 71.6009 73.9392 71.8609 74.0892C71.8609 76.1192 72.6009 78.3092 73.2309 80.1592C73.8109 81.8692 74.7009 83.8292 76.2709 84.8092C76.2809 84.8292 76.2909 84.8592 76.3009 84.8792C76.3009 84.8892 76.3009 84.9092 76.3009 84.9192C76.3009 85.0792 76.4309 85.2292 76.5809 85.2792C77.0009 85.7292 77.6009 85.9092 78.2909 86.0292C79.4809 86.2492 81.0509 86.7492 82.1509 86.0592C82.1709 86.0492 82.1909 86.0292 82.2109 86.0092C82.3009 86.0292 82.3909 86.0392 82.5109 86.0092C82.6009 85.9992 82.6809 85.9692 82.7609 85.9492C83.9409 87.0792 85.4309 87.9992 86.6909 89.0292C88.2809 90.3492 89.5209 92.0392 91.1009 93.3492C91.1209 93.5292 91.1409 93.6992 91.1509 93.8392C91.1709 94.1792 91.2509 94.5192 91.2909 94.8492C91.3909 95.5392 91.1509 96.1392 91.0209 96.7992C90.9409 97.2292 91.4509 97.6092 91.7909 97.2492C92.4809 96.4992 92.6909 95.4992 92.4809 94.5192C92.3809 94.0292 92.3309 93.4692 92.2009 92.9392C92.8209 90.9792 90.5409 89.1992 89.1809 87.9792C88.2709 87.1592 87.2409 86.4492 86.2009 85.7992C85.0709 85.0792 84.1209 84.2292 82.7409 84.2492C82.3509 83.9892 81.8809 83.8292 81.5109 83.7292C80.7509 83.5292 80.0109 83.2592 79.2209 83.0792C78.5409 82.9292 77.8409 82.8592 77.1709 82.6792C76.9409 81.8692 76.5909 81.0892 76.4209 80.6392C75.4709 78.1392 75.1609 74.9592 73.5509 72.7692C73.5309 71.9992 73.2009 71.1692 73.0209 70.4792C72.6909 69.1992 72.1509 67.8492 71.1809 66.9292C71.0809 65.9592 70.2609 65.1292 69.3209 64.9092C69.4009 64.2092 69.3909 63.5092 69.2509 62.8192C69.2109 62.6292 69.1709 62.3992 69.1109 62.1292C69.3509 62.0192 69.5409 61.8792 69.7109 61.7192C70.7909 62.3292 73.1809 63.3092 74.5109 63.2292C74.5209 63.5792 74.7309 63.9192 74.9809 64.2892C76.3009 66.2992 77.9109 68.1492 79.2809 70.1292C80.1209 71.3492 82.6509 75.6792 84.6309 74.8592C84.6609 74.8492 84.6909 74.8192 84.7209 74.8092C85.4809 75.1792 86.4709 75.2992 87.2009 75.4192C88.4309 75.6192 90.2409 76.1092 91.4009 75.4792C91.6809 75.6692 92.1309 75.4192 92.1209 75.0692C92.1209 75.0692 92.1209 75.0692 92.1209 75.0492C93.2709 74.5292 94.0609 72.9392 94.7309 72.0392C95.6609 70.7792 97.3109 69.0092 97.3809 67.3392C97.9209 67.1292 98.4409 66.9392 99.0609 66.9392C100.041 66.9392 100.701 67.9292 101.541 68.3292C101.861 68.4892 102.281 68.1592 102.061 67.8092C101.661 67.1992 101.181 66.7492 100.611 66.3092L100.651 66.2892Z" fill="url(#paint19_linear_57_361)"/>
<path d="M94.7709 72.0092C95.7009 70.7392 97.3409 68.9892 97.4109 67.3092C97.9509 67.1092 98.4809 66.8992 99.1009 66.9092C100.081 66.9092 100.741 67.8992 101.581 68.2992C101.901 68.4592 102.321 68.1292 102.101 67.7792C101.701 67.1692 101.221 66.7192 100.651 66.2792C100.071 65.8292 99.5909 65.8092 98.8909 65.8192C98.5909 65.8192 98.0109 65.9392 97.5009 66.1592C97.3409 66.0392 97.1209 66.0892 96.9609 66.1592C96.2009 66.5292 95.7309 67.1892 95.1609 67.7992C94.2709 68.7492 93.3709 69.6992 92.5109 70.6692C92.0509 71.1792 90.9809 72.1392 90.7009 73.0392C89.0109 72.1192 86.3009 71.9492 84.8409 72.2692C84.7609 72.0692 84.6609 71.8692 84.5509 71.6792C83.4909 69.6992 81.7709 67.6692 80.3609 65.9092C79.7809 65.1792 76.7409 61.0292 75.1709 61.4892C74.7209 60.8192 73.9209 60.2492 73.3509 59.9392C72.2809 59.3692 70.9209 58.2892 69.6509 58.3092C69.6409 58.3092 69.6309 58.3092 69.6209 58.3092C69.0409 57.7292 68.1809 57.3192 67.4509 57.5692C67.2909 57.3892 67.1109 57.2492 66.9209 57.1292C66.7909 56.5792 66.5509 56.0692 66.3809 55.5092C66.3409 55.3692 66.3109 55.2292 66.2709 55.0892C66.6309 55.0092 66.9609 54.8392 67.2209 54.5792C67.4809 54.7892 67.8209 54.9292 68.1109 55.0992C69.4709 55.8792 70.9009 56.5492 72.2509 57.3592C73.0009 57.8192 75.3309 59.9192 76.5109 59.4492C77.3009 60.1692 79.3409 60.6792 79.9009 60.7892C80.6609 60.9392 83.3309 61.6292 83.9909 60.6792C85.6509 59.8992 87.2109 58.6492 88.6109 57.4992C89.7809 56.5492 91.2909 55.3092 90.9409 53.6492C91.4009 53.3692 91.8509 52.9692 92.2809 52.7092C92.6709 52.4692 93.0409 52.4492 93.4709 52.3692C93.9409 52.2792 94.4109 52.5792 94.9109 52.5192C95.3709 52.4592 95.5109 51.9592 95.1409 51.6792C93.2609 50.2292 91.3909 51.5692 89.9809 52.9492C89.4409 53.0092 88.8209 53.3692 88.4909 53.6092C87.7009 54.1892 86.9309 54.7992 86.1309 55.3692C85.1609 56.0592 83.9109 57.0792 82.7409 57.4392C82.3809 57.1992 81.9409 57.0392 81.4009 56.9692C80.5709 56.8692 79.5609 56.9392 78.7309 57.0792C77.9309 57.2192 77.1409 56.9992 76.5509 57.4592C76.0509 56.7192 75.3109 56.0192 74.9509 55.7592C72.9209 54.2092 70.2909 52.3392 67.7209 51.7692C67.3509 50.9092 66.5909 50.1292 65.7309 50.1792C65.7309 49.3492 65.7809 48.5392 65.7809 47.7292C66.1409 47.6792 66.5009 47.4992 66.8009 47.2492C67.1109 47.5392 67.5109 47.7292 67.9109 47.9692C68.8009 48.4992 69.7209 49.0492 70.6609 49.4892C71.7309 49.9892 72.9209 50.8492 74.1409 50.5392C76.3909 50.9292 78.5909 49.6792 80.7909 49.3892C81.4209 49.3092 82.3109 49.1392 82.8009 48.6892C83.9609 48.4692 84.5509 47.2592 85.2509 46.3292C85.8309 45.5692 86.2709 44.7192 86.8109 43.9392C87.2509 43.3092 87.6809 42.8092 87.7309 42.0392C88.2009 41.6592 88.6509 41.2792 89.1709 40.9692C89.7109 40.6392 90.4009 40.9992 90.9509 41.1292C91.3509 41.2192 91.7609 40.6792 91.3809 40.3792C90.7109 39.8392 89.9909 39.5592 89.1209 39.6892C88.2409 39.8192 87.3709 40.6492 86.8309 41.2992C86.7809 41.3592 86.7509 41.4192 86.7209 41.4792C85.7109 41.7592 85.0109 42.6192 84.3109 43.4092C83.7909 43.9892 83.3509 44.6192 82.9009 45.2492C82.8309 45.3492 82.2709 46.2792 82.0709 46.7192C80.7909 46.4192 78.7309 47.0192 78.0609 47.1592C76.9409 47.3892 74.7109 47.7792 73.8609 48.9092C72.0309 47.3292 69.6309 46.5092 67.5809 45.2792C67.5809 44.8692 67.5109 44.4592 67.3509 44.0792C67.0309 43.3592 66.2509 42.6392 65.4109 42.6592C65.0209 42.6592 64.5809 42.6892 64.2409 42.8692C64.1709 42.8092 64.0909 42.7492 64.0209 42.6892C64.1309 42.2892 64.1709 41.8892 64.1509 41.4892C65.1409 41.0892 65.8709 40.1392 66.2909 39.1792C66.5209 38.6492 66.5309 38.0692 66.4209 37.4992C67.5409 37.4292 68.7409 37.9092 69.8309 37.9492C70.7309 37.9892 72.5609 38.3592 73.7109 37.9592C73.8409 38.5692 74.1809 38.9592 74.8709 38.9592C78.2209 38.9592 81.9909 35.5492 83.8909 33.1092C86.0009 30.3892 86.4409 27.0592 85.7209 23.7992C85.9009 23.6892 86.0909 23.5892 86.2609 23.4592C86.3809 23.3692 86.4509 23.2392 86.4809 23.1092C87.7409 21.4692 85.8209 18.7092 84.8609 16.9892C85.6909 12.8092 82.5909 9.42925 79.6009 6.91925C76.1309 4.00925 71.8409 1.44925 67.2009 1.10925C67.1009 1.06925 67.0009 1.02925 66.8909 0.989245C66.8409 0.969245 66.8109 1.04925 66.8609 1.06925C66.8909 1.08925 66.9209 1.10925 66.9609 1.12925C66.9409 1.16925 66.9309 1.21925 66.9809 1.23925C67.2209 1.34925 67.4509 1.44925 67.6909 1.55925C70.2209 3.03925 72.5109 4.80925 74.5309 6.94925C75.8309 8.32925 76.7009 9.84925 77.5809 11.3792C76.9809 10.8592 76.4109 10.2892 75.8409 9.74925C73.1409 7.19925 70.7809 4.47925 67.1509 3.15925C66.1309 2.78925 61.0309 0.949245 59.7709 1.85925C59.7109 1.83925 59.6509 1.81925 59.5909 1.80925C59.4709 1.78925 59.4309 1.91925 59.5109 1.98925C59.5509 2.01925 59.5809 2.03925 59.6109 2.06925C59.6109 2.08925 59.6409 2.09925 59.6609 2.10925C63.0409 4.67925 65.4309 7.37925 67.4009 11.1792C68.7909 13.8592 69.6709 16.4792 71.6109 18.8392C73.8609 21.5692 78.2509 24.6692 82.2609 24.7092C81.4509 26.5292 78.5809 28.3792 77.3709 29.1592C76.3509 29.8192 75.2009 30.2192 75.0309 31.5392C74.9809 31.8992 74.5709 33.0092 74.2109 34.2692C71.6509 34.0792 69.1909 33.1592 66.6209 32.9092C65.7709 32.8292 64.5209 33.2892 64.0709 34.0492C63.2309 33.5192 62.2409 33.2492 61.2409 33.2792C60.3709 33.2992 59.1209 33.6392 58.4309 34.3292C57.1609 33.9392 55.7709 33.8292 54.6509 34.0692C53.5309 33.8192 52.1409 33.9392 50.8709 34.3292C50.1809 33.6392 48.9209 33.2992 48.0609 33.2792C47.0609 33.2492 46.0709 33.5192 45.2309 34.0492C44.7909 33.2892 43.5309 32.8292 42.6809 32.9092C40.1109 33.1492 37.6509 34.0792 35.0909 34.2692C34.7309 33.0092 34.3109 31.8892 34.2709 31.5392C34.1009 30.2092 32.9509 29.8192 31.9209 29.1592C30.7209 28.3792 27.8509 26.5292 27.0409 24.7092C31.0509 24.6692 35.4409 21.5692 37.6909 18.8392C39.6409 16.4792 40.5209 13.8592 41.9009 11.1792C43.8709 7.37925 46.2509 4.67925 49.6309 2.10925C49.6509 2.10925 49.6809 2.08925 49.6809 2.06925C49.7209 2.03925 49.7509 2.01925 49.7809 1.98925C49.8709 1.91925 49.8209 1.77925 49.7009 1.80925C49.6409 1.81925 49.5809 1.84925 49.5209 1.85925C48.2609 0.949245 43.1609 2.78925 42.1409 3.15925C38.5209 4.47925 36.1609 7.19925 33.4509 9.74925C32.8809 10.2892 32.3209 10.8592 31.7109 11.3792C32.5909 9.84925 33.4609 8.32925 34.7609 6.94925C36.7809 4.80925 39.0709 3.03925 41.6009 1.55925C41.8409 1.44925 42.0709 1.34925 42.3109 1.23925C42.3609 1.21925 42.3509 1.16925 42.3309 1.12925C42.3609 1.10925 42.3909 1.08925 42.4309 1.06925C42.4809 1.03925 42.4409 0.969245 42.3909 0.989245C42.2809 1.02925 42.1909 1.06925 42.0809 1.10925C37.4409 1.43925 33.1509 4.00925 29.6809 6.91925C26.6909 9.42925 23.5909 12.8092 24.4109 16.9892C23.4609 18.7092 21.5309 21.4692 22.7909 23.1092C22.8209 23.2492 22.8909 23.3692 23.0109 23.4592C23.1809 23.5892 23.3709 23.6892 23.5509 23.7992C22.8309 27.0692 23.2709 30.3892 25.3809 33.1092C27.2809 35.5492 31.0509 38.9592 34.4009 38.9592C35.0909 38.9592 35.4309 38.5592 35.5609 37.9592C36.7109 38.3592 38.5409 37.9892 39.4409 37.9492C40.5309 37.8992 41.7309 37.4292 42.8509 37.4992C42.7309 38.0692 42.7509 38.6492 42.9809 39.1792C43.3909 40.1492 44.1209 41.0992 45.1209 41.4892C45.1009 41.8892 45.1409 42.2892 45.2509 42.6892C45.1709 42.7492 45.1009 42.8092 45.0309 42.8692C44.6909 42.6892 44.2509 42.6692 43.8609 42.6592C43.0209 42.6392 42.2409 43.3592 41.9209 44.0792C41.7509 44.4592 41.6909 44.8692 41.6909 45.2792C39.6409 46.5092 37.2409 47.3392 35.4109 48.9092C34.5709 47.7792 32.3309 47.3992 31.2109 47.1592C30.5409 47.0192 28.4809 46.4192 27.2009 46.7192C26.9909 46.2792 26.4409 45.3492 26.3609 45.2492C25.9209 44.6192 25.4709 43.9792 24.9609 43.4092C24.2609 42.6192 23.5609 41.7592 22.5509 41.4792C22.5209 41.4192 22.4909 41.3592 22.4409 41.2992C21.9009 40.6392 21.0309 39.8092 20.1509 39.6892C19.2909 39.5692 18.5709 39.8392 17.8909 40.3792C17.5209 40.6792 17.9309 41.2192 18.3209 41.1292C18.8709 40.9992 19.5609 40.6492 20.1009 40.9692C20.6209 41.2792 21.0709 41.6592 21.5409 42.0392C21.6009 42.8092 22.0209 43.3092 22.4609 43.9392C23.0009 44.7192 23.4409 45.5692 24.0209 46.3292C24.7209 47.2592 25.3109 48.4692 26.4709 48.6892C26.9509 49.1392 27.8509 49.3092 28.4709 49.3892C30.6709 49.6792 32.8809 50.9292 35.1309 50.5392C36.3509 50.8392 37.5509 49.9792 38.6109 49.4892C39.5509 49.0492 40.4609 48.4992 41.3609 47.9692C41.7709 47.7292 42.1609 47.5392 42.4709 47.2492C42.7609 47.4992 43.1309 47.6792 43.4909 47.7292C43.4909 48.5392 43.5309 49.3592 43.5409 50.1792C42.6809 50.1292 41.9209 50.9092 41.5509 51.7692C38.9909 52.3392 36.3509 54.2092 34.3209 55.7592C33.9709 56.0292 33.2209 56.7292 32.7209 57.4592C32.1309 56.9992 31.3409 57.2092 30.5409 57.0792C29.7109 56.9392 28.7109 56.8692 27.8709 56.9692C27.3309 57.0292 26.8909 57.1992 26.5309 57.4392C25.3609 57.0792 24.1109 56.0692 23.1409 55.3692C22.3409 54.7992 21.5809 54.1892 20.7809 53.6092C20.4509 53.3692 19.8309 53.0092 19.2909 52.9492C17.8809 51.5692 16.0109 50.2292 14.1309 51.6792C13.7609 51.9592 13.9009 52.4692 14.3609 52.5192C14.8609 52.5792 15.3309 52.2792 15.8009 52.3692C16.2309 52.4492 16.6009 52.4792 16.9909 52.7092C17.4209 52.9692 17.8709 53.3692 18.3309 53.6492C17.9909 55.3192 19.5009 56.5492 20.6709 57.4992C22.0709 58.6392 23.6309 59.8992 25.2909 60.6792C25.9509 61.6192 28.6109 60.9392 29.3709 60.7892C29.9409 60.6792 31.9809 60.1792 32.7609 59.4492C33.9409 59.9192 36.2709 57.8192 37.0209 57.3592C38.3609 56.5492 39.8009 55.8792 41.1609 55.0992C41.4509 54.9292 41.7909 54.7892 42.0509 54.5792C42.3209 54.8392 42.6409 55.0092 43.0009 55.0892C42.9609 55.2292 42.9409 55.3692 42.8909 55.5092C42.7209 56.0792 42.4809 56.5892 42.3509 57.1292C42.1609 57.2392 41.9909 57.3892 41.8309 57.5692C41.1009 57.3192 40.2409 57.7192 39.6609 58.3092C39.6509 58.3092 39.6409 58.3092 39.6309 58.3092C38.3609 58.2892 37.0009 59.3692 35.9309 59.9392C35.3609 60.2492 34.5509 60.8192 34.1109 61.4892C32.5409 61.0392 29.4909 65.1892 28.9109 65.9092C27.5109 67.6692 25.7809 69.6992 24.7209 71.6792C24.6209 71.8792 24.5209 72.0692 24.4309 72.2692C22.9709 71.9492 20.2609 72.1192 18.5709 73.0392C18.3009 72.1392 17.2209 71.1792 16.7709 70.6692C15.9009 69.6992 15.0009 68.7492 14.1109 67.7992C13.5409 67.1992 13.0709 66.5292 12.3109 66.1592C12.1509 66.0892 11.9309 66.0392 11.7809 66.1592C11.2809 65.9392 10.6909 65.8192 10.3909 65.8192C9.69086 65.8192 9.21086 65.8392 8.63086 66.2792C8.05086 66.7292 7.57086 67.1692 7.18086 67.7792C6.96086 68.1292 7.38086 68.4592 7.70086 68.2992C8.54086 67.8992 9.20086 66.9192 10.1809 66.9092C10.8009 66.9092 11.3309 67.0992 11.8709 67.3092C11.9409 68.9792 13.5809 70.7392 14.5109 72.0092C15.1709 72.9092 15.9709 74.4892 17.1209 75.0092C17.1209 75.0092 17.1209 75.0292 17.1209 75.0392C17.1109 75.3892 17.5609 75.6392 17.8409 75.4492C19.0009 76.0692 20.8109 75.5792 22.0409 75.3892C22.7709 75.2692 23.7509 75.1492 24.5209 74.7792C24.5509 74.7992 24.5809 74.8192 24.6209 74.8292C26.6009 75.6492 29.1309 71.3192 29.9709 70.0992C31.3409 68.1192 32.9509 66.2692 34.2709 64.2592C34.5109 63.8892 34.7209 63.5492 34.7309 63.1992C36.0609 63.2792 38.4509 62.2992 39.5309 61.6892C39.7009 61.8492 39.8909 61.9892 40.1309 62.0992C40.0809 62.3692 40.0309 62.5992 39.9909 62.7892C39.8509 63.4792 39.8309 64.1892 39.9209 64.8892C38.9909 65.1092 38.1809 65.9192 38.0809 66.8792C37.1009 67.7992 36.5509 69.1592 36.2209 70.4392C36.0409 71.1392 35.7209 71.9792 35.7009 72.7492C34.0909 74.9492 33.7709 78.1192 32.8209 80.6092C32.6509 81.0492 32.3009 81.8392 32.0709 82.6492C31.4009 82.8292 30.7009 82.8992 30.0209 83.0492C29.2409 83.2192 28.5009 83.4892 27.7309 83.6992C27.3709 83.7992 26.8909 83.9692 26.5109 84.2192C25.1309 84.1992 24.1809 85.0492 23.0509 85.7692C22.0209 86.4292 20.9909 87.1292 20.0709 87.9492C18.7209 89.1592 16.4309 90.9392 17.0509 92.8992C16.9209 93.4292 16.8709 93.9892 16.7709 94.4792C16.5609 95.4692 16.7709 96.4592 17.4609 97.2092C17.7909 97.5692 18.3109 97.1892 18.2309 96.7592C18.1009 96.0992 17.8609 95.4992 17.9609 94.8092C18.0109 94.4692 18.0909 94.1292 18.1009 93.7892C18.1009 93.6392 18.1309 93.4592 18.1509 93.2792C19.7209 91.9692 20.9609 90.2892 22.5609 88.9692C23.8109 87.9392 25.2809 87.0092 26.4609 85.8792C26.5509 85.8992 26.6409 85.9392 26.7309 85.9492C26.8509 85.9792 26.9509 85.9692 27.0409 85.9492C27.0609 85.9692 27.0709 85.9892 27.0909 85.9992C28.1809 86.6892 29.7609 86.1892 30.9509 85.9692C31.6609 85.8492 32.2609 85.6592 32.6809 85.1992C32.8209 85.1492 32.9409 85.0192 32.9409 84.8592C32.9409 84.8392 32.9409 84.8292 32.9409 84.8192C32.9509 84.7992 32.9609 84.7792 32.9709 84.7492C34.5409 83.7592 35.4309 81.7992 36.0109 80.0992C36.6409 78.2492 37.3809 76.0592 37.3809 74.0292C37.6509 73.8792 37.8809 73.6692 38.0609 73.3892C38.3209 73.0092 38.7709 72.4092 38.8909 71.9692C38.9909 71.5692 39.1809 71.1892 39.3809 70.8292C38.9909 72.8392 39.5409 74.9392 40.8409 76.6492C39.0009 78.0892 42.4309 84.0592 43.5609 84.9492C43.9309 85.2392 44.3109 85.4792 44.7009 85.6892C44.4609 88.0292 44.7709 91.0892 46.9909 92.3392C47.1009 92.3992 47.2309 92.4692 47.3509 92.5292C46.3009 94.4092 46.8709 96.8092 48.4109 98.3092C49.0309 98.9092 50.0309 99.5192 51.1309 99.9292C51.1309 101.649 51.7609 103.689 52.3909 105.069C53.0909 106.589 54.3709 107.899 56.0109 108.349C55.6409 109.479 56.4309 110.729 57.1209 111.739C57.7009 112.569 58.4509 113.479 59.3409 114.129C59.2809 114.609 59.2309 115.089 59.1609 115.549C59.0309 116.409 58.7909 117.219 58.6509 118.069C56.5509 117.979 54.0009 117.169 52.0909 118.139C51.6709 118.349 51.3309 118.599 51.0609 118.889C49.9909 117.049 47.9909 115.089 45.9109 114.859C45.1109 114.769 44.2509 114.729 43.5109 114.879C43.3509 112.319 41.5509 107.919 39.2209 106.039C39.5809 102.069 41.6709 98.8592 40.8609 94.7192C40.3609 92.1492 37.8709 88.7192 35.4409 87.5192C35.4209 87.4992 35.4109 87.4792 35.4009 87.4592C35.3409 87.3892 35.2709 87.3792 35.2109 87.4092C35.1909 87.4092 35.1709 87.3892 35.1609 87.3792C35.1109 87.3592 35.0409 87.4292 35.0609 87.4792C35.1009 87.5592 35.1509 87.6392 35.1909 87.7192C36.6609 91.2292 34.3909 93.0692 32.5109 95.6192C31.3109 97.2592 30.8309 98.8892 30.5109 100.869C30.1509 103.129 32.2409 105.869 34.3209 106.949C33.5209 108.679 35.1609 110.659 36.2009 112.259C37.3809 114.069 39.4609 116.369 41.6909 117.069C41.6909 117.149 41.6909 117.229 41.6909 117.319C41.8509 119.419 44.5909 121.259 46.2809 122.069C47.6609 122.739 50.4409 124.099 51.9509 123.049C54.3509 124.749 58.7009 124.159 60.6709 122.319C60.7509 122.329 60.8209 122.359 60.9009 122.369C62.8509 122.569 64.3009 119.839 64.7209 118.359C65.1909 116.689 64.9009 114.439 63.8309 113.029C63.9609 112.009 63.7609 110.819 63.6009 110.089C63.2609 108.569 61.7509 106.749 60.2309 105.919C60.2509 105.839 60.2809 105.759 60.3009 105.669C60.4909 104.719 60.2509 103.609 60.0809 102.659C59.8909 101.599 59.6409 100.429 59.3209 99.3692C59.9109 99.0492 60.4209 98.6792 60.8009 98.3192C62.3409 96.8292 62.9209 94.4192 61.8609 92.5392C61.9809 92.4792 62.1009 92.4092 62.2209 92.3492C64.4409 91.0992 64.7509 88.0392 64.5109 85.6992C64.9009 85.4892 65.2909 85.2492 65.6609 84.9592C66.7909 84.0692 70.2209 78.0992 68.3809 76.6592C69.6809 74.9492 70.2309 72.8392 69.8409 70.8392C70.0409 71.2092 70.2309 71.5792 70.3309 71.9792C70.4409 72.4192 70.9009 73.0192 71.1509 73.3992C71.3409 73.6792 71.5709 73.8892 71.8309 74.0392C71.8309 76.0692 72.5709 78.2592 73.2009 80.1092C73.7809 81.8092 74.6709 83.7792 76.2409 84.7592C76.2509 84.7792 76.2609 84.8092 76.2709 84.8292C76.2709 84.8392 76.2709 84.8592 76.2709 84.8692C76.2709 85.0292 76.3909 85.1592 76.5309 85.2092C76.9509 85.6792 77.5609 85.8592 78.2609 85.9792C79.4509 86.1992 81.0209 86.6992 82.1209 86.0092C82.1409 85.9992 82.1509 85.9692 82.1709 85.9592C82.2609 85.9892 82.3609 85.9992 82.4809 85.9592C82.5809 85.9492 82.6609 85.9092 82.7609 85.8892C83.9409 87.0192 85.4109 87.9492 86.6609 88.9792C88.2509 90.2992 89.4909 91.9792 91.0609 93.2892C91.0809 93.4692 91.1009 93.6492 91.1109 93.7992C91.1309 94.1392 91.2109 94.4792 91.2509 94.8192C91.3509 95.5092 91.1109 96.1092 90.9809 96.7692C90.9009 97.1992 91.4109 97.5792 91.7509 97.2192C92.4409 96.4692 92.6509 95.4692 92.4409 94.4892C92.3409 93.9992 92.2909 93.4392 92.1609 92.9092C92.7809 90.9492 90.5009 89.1692 89.1409 87.9492C88.2309 87.1292 87.2009 86.4192 86.1609 85.7692C85.0309 85.0492 84.0809 84.1992 82.7009 84.2192C82.3109 83.9692 81.8409 83.7992 81.4709 83.6992C80.7109 83.4992 79.9709 83.2292 79.1809 83.0492C78.5009 82.8992 77.8009 82.8292 77.1309 82.6492C76.9009 81.8392 76.5509 81.0592 76.3809 80.6092C75.4309 78.1192 75.1209 74.9492 73.5009 72.7492C73.4809 71.9792 73.1609 71.1392 72.9809 70.4392C72.6509 69.1592 72.1009 67.7892 71.1209 66.8792C71.0109 65.9092 70.2109 65.0992 69.2809 64.8892C69.3609 64.1892 69.3509 63.4792 69.2109 62.7892C69.1709 62.5992 69.1309 62.3592 69.0709 62.0992C69.3109 61.9892 69.5009 61.8492 69.6709 61.6892C70.7509 62.2992 73.1409 63.2792 74.4709 63.1992C74.4809 63.5492 74.6909 63.8892 74.9309 64.2592C76.2509 66.2692 77.8609 68.1192 79.2309 70.0992C80.0709 71.3192 82.6009 75.6492 84.5809 74.8292C84.6109 74.8192 84.6409 74.7992 84.6809 74.7792C85.4409 75.1492 86.4309 75.2692 87.1609 75.3892C88.3909 75.5892 90.2009 76.0792 91.3609 75.4492C91.6409 75.6492 92.0909 75.3892 92.0809 75.0392C92.0809 75.0392 92.0809 75.0192 92.0809 75.0092C93.2309 74.4792 94.0309 72.9092 94.6909 72.0092H94.7709ZM86.3709 56.8292C87.4909 56.0792 88.5109 55.1792 89.6109 54.3992C89.9409 54.1292 89.9709 54.1992 89.6809 54.5992C89.4909 55.0292 89.0409 55.4292 88.6909 55.7392C88.1209 56.2692 87.4909 56.7492 86.8609 57.1992C85.9509 57.8592 84.8509 58.4792 83.9809 59.2692C83.8809 58.9292 83.7609 58.6192 83.6109 58.3492C84.6009 58.0492 85.5609 57.3692 86.3709 56.8292ZM82.5809 58.9392C82.6309 59.0392 83.0209 59.9392 82.7909 59.9592C81.9509 60.0192 81.0209 59.9592 80.2109 59.7192C79.6209 59.5392 79.0809 59.4592 78.5009 59.2092C78.3909 59.1592 77.3909 58.8892 77.0409 58.7892C77.0509 58.6592 77.0409 58.5192 77.0009 58.3792C78.7609 58.4292 81.7309 57.3592 82.5709 58.9392H82.5809ZM84.4609 45.1092C84.9809 44.4092 85.6309 43.4192 86.4309 42.8392C86.2209 43.1592 85.9509 43.4492 85.7509 43.7292C85.3609 44.2892 85.0209 44.8992 84.6409 45.4792C84.2409 46.0792 83.7509 47.0092 83.1009 47.5592C83.0609 47.3992 82.9809 47.2692 82.8809 47.1492C83.4209 46.4792 83.9409 45.7992 84.4509 45.0992L84.4609 45.1092ZM77.9409 48.4292C78.6809 48.2292 79.4409 48.1192 80.2009 48.0092C80.7509 47.8792 81.3009 47.8692 81.8609 47.9892C82.2609 48.1592 81.3409 48.1392 81.1909 48.1792C80.0409 48.4992 78.8509 48.7992 77.6809 49.0792C76.8609 49.2792 75.8809 49.2992 75.0009 49.4692C75.8409 48.8892 77.0409 48.6792 77.9509 48.4392L77.9409 48.4292ZM24.6709 45.4792C24.2909 44.8992 23.9509 44.2992 23.5609 43.7292C23.3709 43.4492 23.0909 43.1592 22.8809 42.8392C23.6809 43.4192 24.3309 44.4092 24.8509 45.1092C25.3709 45.7992 25.8909 46.4892 26.4309 47.1592C26.3309 47.2692 26.2509 47.4092 26.2109 47.5692C25.5609 47.0192 25.0709 46.0892 24.6709 45.4892V45.4792ZM31.6409 49.0692C30.4709 48.7892 29.2809 48.4892 28.1309 48.1692C27.9809 48.1292 27.0609 48.1492 27.4609 47.9792C28.0209 47.8592 28.5709 47.8692 29.1209 47.9992C29.8709 48.1092 30.6409 48.2192 31.3809 48.4192C32.2909 48.6692 33.4809 48.8692 34.3309 49.4492C33.4509 49.2692 32.4709 49.2592 31.6509 49.0592L31.6409 49.0692ZM20.6309 55.7392C20.2909 55.4192 19.8409 55.0292 19.6409 54.5992C19.3509 54.1992 19.3809 54.1292 19.7109 54.3992C20.8109 55.1792 21.8209 56.0792 22.9509 56.8292C23.7609 57.3692 24.7109 58.0592 25.7109 58.3492C25.5609 58.6192 25.4309 58.9292 25.3409 59.2692C24.4709 58.4792 23.3709 57.8492 22.4609 57.1992C21.8309 56.7492 21.2009 56.2692 20.6409 55.7392H20.6309ZM29.1009 59.7192C28.3009 59.9592 27.3609 60.0192 26.5209 59.9592C26.2909 59.9392 26.6809 59.0392 26.7309 58.9392C27.5709 57.3592 30.5409 58.4292 32.3009 58.3792C32.2709 58.5192 32.2509 58.6592 32.2609 58.7892C31.9109 58.8992 30.9109 59.1592 30.8009 59.2092C30.2109 59.4692 29.6809 59.5392 29.0909 59.7192H29.1009ZM54.6609 72.2192C51.4509 71.5792 47.9609 71.1792 45.0709 69.5392C41.1209 67.2892 40.8509 63.1592 42.6909 59.3692C43.3609 57.9792 44.1709 59.7392 44.8809 60.3392C45.6809 61.0092 46.5109 61.8092 47.4709 62.2692C49.7509 63.3492 52.0409 63.9692 54.5809 63.6692C54.6109 63.6692 54.6309 63.6492 54.6509 63.6492C54.6709 63.6492 54.7009 63.6692 54.7209 63.6692C57.2609 63.9692 59.5509 63.3592 61.8309 62.2692C62.7809 61.8192 63.6109 61.0092 64.4209 60.3392C65.1309 59.7492 65.9409 57.9792 66.6109 59.3692C68.4509 63.1592 68.1909 67.2892 64.2309 69.5392C61.3409 71.1792 57.8509 71.5792 54.6409 72.2192H54.6609ZM50.8509 48.7892C51.1209 52.5092 52.4609 56.6392 54.1909 59.9992C54.1909 60.0592 54.1909 60.1192 54.2009 60.1792C54.2309 60.4092 54.4509 60.5892 54.6609 60.5692C54.8609 60.5792 55.0809 60.4092 55.1109 60.1792C55.1109 60.1192 55.1109 60.0592 55.1209 59.9992C56.8509 56.6392 58.1909 52.5092 58.4709 48.7892C58.5909 47.1492 58.4509 45.1492 57.8809 43.3192C59.0709 42.7992 61.3909 43.0092 62.4609 43.5892C64.7109 44.8092 64.2209 47.9492 64.1709 50.0992C64.1209 51.9792 64.0709 55.1892 65.2209 57.1192C64.9209 57.2992 64.6609 57.5692 64.4809 57.8392C63.7109 58.9792 62.6609 59.7892 61.5909 60.6092C59.6609 62.0792 56.9609 62.1592 54.6609 62.4892C52.3609 62.1492 49.6609 62.0792 47.7309 60.6092C46.6509 59.7892 45.6009 58.9792 44.8309 57.8392C44.6509 57.5692 44.3909 57.2892 44.0909 57.1192C45.2409 55.1892 45.1909 51.9792 45.1509 50.0992C45.1009 47.9492 44.6109 44.8092 46.8609 43.5892C47.9209 43.0092 50.2509 42.8092 51.4409 43.3192C50.8809 45.1392 50.7309 47.1392 50.8509 48.7892ZM54.6609 40.3692C55.0209 41.1292 55.5009 41.8592 55.8609 42.5892C57.1109 45.0792 57.0909 47.7392 56.6209 50.4292C56.2909 52.3392 55.7009 54.3792 55.0409 56.1992C54.9109 56.5592 54.7809 56.9092 54.6609 57.2492C54.5409 56.9092 54.4109 56.5692 54.2809 56.1992C53.6309 54.3792 53.0409 52.3392 52.7009 50.4292C52.2309 47.7392 52.2209 45.0892 53.4609 42.5892C53.8309 41.8592 54.3009 41.1292 54.6609 40.3692ZM75.6609 58.1692C75.6609 58.1692 75.6509 58.1692 75.6409 58.1692C75.1409 57.9392 74.9209 57.6792 74.4909 57.4292C73.6109 56.9292 72.7709 56.3592 71.8709 55.8892C70.9409 55.4092 70.0209 54.9192 69.1109 54.4192C68.7009 54.1992 68.1709 54.0692 67.7309 53.8692C67.8409 53.6292 67.9309 53.3692 67.9609 53.0992C68.7809 53.6492 69.9309 53.9792 70.7109 54.3492C72.4709 55.1992 74.6309 56.3892 75.6609 58.1692ZM66.7009 52.7692C66.7409 53.3392 66.4009 53.5692 66.0109 53.7692C65.8809 52.9492 65.8109 52.1092 65.7709 51.2692C66.2809 51.5992 66.6509 52.0592 66.7009 52.7692ZM69.8009 47.7092C69.0109 47.2792 68.1709 46.8492 67.2909 46.6092C67.3409 46.5092 67.3809 46.4092 67.4209 46.3092C69.1909 47.3092 71.1709 48.1092 72.7809 49.3792C71.7009 49.0092 70.4909 48.0892 69.8009 47.7092ZM66.2109 44.8592C66.3509 45.3292 66.2409 45.9192 65.8309 46.2092C65.7909 46.2392 65.7609 46.2492 65.7209 46.2792C65.6309 45.4392 65.4309 44.5992 65.0109 43.7892C65.1209 43.8192 65.2209 43.8392 65.2809 43.8492C65.8209 43.9492 66.0709 44.3792 66.2209 44.8592H66.2109ZM72.2209 3.63925C73.9409 4.48925 75.6009 5.44925 77.1609 6.72925C78.5409 7.84925 79.8409 9.02925 81.0309 10.3592C82.2909 11.7592 82.8609 13.2692 83.2609 14.9092C82.8609 14.5192 82.4309 14.1592 81.9509 13.8292C81.3609 13.4292 80.6509 13.1492 79.9509 12.8492C79.4109 10.5192 77.5609 8.21925 75.9609 6.67925C74.7509 5.51925 73.5209 4.50925 72.2209 3.63925ZM69.9709 13.5292C68.1109 9.41925 65.3809 4.01925 60.8709 2.22925C62.3109 2.49925 64.1109 3.25925 65.1809 3.56925C68.7209 4.60925 71.3309 7.11925 73.8609 9.64925C75.6509 11.4392 77.2709 13.1392 79.5709 14.2692C81.3809 15.1592 82.5709 15.8592 83.5809 17.7192C84.1609 18.7892 85.8509 21.2992 85.2009 22.5892C78.6909 24.7592 72.5309 19.2192 69.9709 13.5292ZM75.5909 34.4092C76.1709 32.5692 76.3309 31.4192 78.0409 30.3092C79.3909 29.4192 80.6209 28.4592 81.7409 27.2792C82.4109 26.5692 83.1909 25.6392 83.3009 24.6592C83.7009 24.6092 84.1009 24.5192 84.4909 24.3892C84.4609 25.2692 84.5309 26.1392 84.5309 27.0492C84.5309 28.9592 83.6709 30.6192 82.7509 32.2192C81.8209 33.8392 79.7709 35.3092 78.2409 36.2692C77.3709 36.8092 76.4809 37.2492 75.5109 37.5792C74.6209 37.8792 75.4709 34.7992 75.6009 34.4092H75.5909ZM67.1509 34.2992C68.0109 34.3792 68.8109 34.5992 69.6609 34.7392C70.9209 34.9392 72.6009 35.5692 73.9509 35.2492C73.8409 35.7292 73.7409 36.2092 73.7009 36.6592C72.4309 36.7792 71.0909 36.5892 69.8409 36.5892C69.1909 36.5892 67.0609 36.6292 66.2609 36.4592C66.1309 35.9392 65.7609 35.4192 65.5309 34.9892C64.9109 33.8692 66.3009 34.2192 67.1609 34.2992H67.1509ZM63.0309 35.0492C64.2409 35.5792 65.4409 37.5392 64.8709 38.8392C64.6409 39.3492 64.2709 39.7292 63.9009 40.1092C63.3709 38.5092 62.1509 36.9892 61.1409 35.8892C60.8009 35.5292 60.3509 35.2092 59.8509 34.9392C60.8809 34.7392 61.8609 34.5392 63.0309 35.0492ZM28.2809 10.3592C29.4709 9.02925 30.7809 7.85925 32.1509 6.72925C33.7109 5.44925 35.3709 4.48925 37.0909 3.63925C35.7909 4.50925 34.5609 5.51925 33.3409 6.67925C31.7409 8.21925 29.8809 10.5192 29.3509 12.8492C28.6509 13.1392 27.9409 13.4192 27.3509 13.8192C26.8709 14.1492 26.4509 14.5092 26.0509 14.8992C26.4509 13.2592 27.0209 11.7592 28.2809 10.3492V10.3592ZM25.7209 17.7292C26.7309 15.8692 27.9209 15.1692 29.7309 14.2792C32.0309 13.1492 33.6609 11.4592 35.4409 9.65925C37.9709 7.11925 40.5809 4.61925 44.1209 3.57925C45.1909 3.25925 46.9909 2.50925 48.4309 2.23925C43.9209 4.02925 41.1909 9.42925 39.3309 13.5392C36.7609 19.2292 30.6009 24.7792 24.1009 22.5992C23.4609 21.3092 25.1409 18.8092 25.7209 17.7292ZM33.8009 37.5892C32.8309 37.2592 31.9409 36.8192 31.0709 36.2792C29.5409 35.3192 27.4909 33.8492 26.5609 32.2292C25.6409 30.6292 24.7709 28.9692 24.7809 27.0592C24.7809 26.1492 24.8409 25.2792 24.8209 24.3992C25.2109 24.5292 25.6109 24.6192 26.0109 24.6692C26.1209 25.6492 26.9009 26.5892 27.5809 27.2892C28.7009 28.4692 29.9209 29.4292 31.2809 30.3192C32.9809 31.4392 33.1409 32.5792 33.7309 34.4192C33.8509 34.8192 34.7109 37.8992 33.8209 37.5892H33.8009ZM39.4609 36.5892C38.2109 36.5892 36.8709 36.7792 35.6009 36.6592C35.5509 36.2092 35.4609 35.7292 35.3509 35.2492C36.7009 35.5792 38.3809 34.9492 39.6409 34.7392C40.4909 34.5992 41.2909 34.3792 42.1509 34.2992C43.0109 34.2192 44.4009 33.8692 43.7809 34.9892C43.5509 35.4092 43.1809 35.9292 43.0509 36.4592C42.2509 36.6192 40.1209 36.5892 39.4709 36.5892H39.4609ZM44.4309 38.8392C43.8609 37.5492 45.0609 35.5892 46.2709 35.0492C47.4409 34.5292 48.4209 34.7392 49.4509 34.9392C48.9509 35.2092 48.5009 35.5292 48.1609 35.8892C47.1509 36.9792 45.9409 38.4992 45.4009 40.1092C45.0209 39.7292 44.6509 39.3492 44.4309 38.8392ZM46.9409 41.0892C47.3409 39.6492 48.1109 38.0092 49.2709 36.9992C50.7509 35.6992 52.7709 35.3992 54.6609 35.0392C56.5509 35.3892 58.5709 35.6992 60.0509 36.9992C61.2109 38.0192 61.9709 39.6492 62.3809 41.0892C62.4509 41.3492 62.4909 41.5992 62.5309 41.8492C62.0909 41.6892 61.6509 41.5892 61.2509 41.5992C60.3909 41.5992 58.3909 41.5192 57.4809 42.2392C56.9409 40.9892 56.1609 39.8892 55.0909 39.1492C55.0709 38.9392 54.8709 38.7892 54.6609 38.8792C54.4509 38.7892 54.2509 38.9392 54.2309 39.1492C53.1609 39.8892 52.3809 40.9892 51.8409 42.2392C50.9309 41.5192 48.9309 41.6092 48.0709 41.6092C47.6809 41.6092 47.2409 41.6992 46.8009 41.8592C46.8409 41.6092 46.8709 41.3592 46.9509 41.0992L46.9409 41.0892ZM39.5109 47.7092C38.8309 48.0892 37.6109 49.0092 36.5309 49.3792C38.1409 48.1092 40.1209 47.3092 41.8909 46.3092C41.9309 46.4092 41.9709 46.5092 42.0209 46.6092C41.1409 46.8492 40.3009 47.2792 39.5109 47.7092ZM43.1009 44.8592C43.2409 44.3792 43.5009 43.9492 44.0409 43.8492C44.1009 43.8392 44.2009 43.8092 44.3109 43.7892C43.8909 44.5992 43.6909 45.4292 43.6009 46.2792C43.5609 46.2592 43.5309 46.2392 43.4909 46.2092C43.0809 45.9292 42.9709 45.3292 43.1109 44.8592H43.1009ZM40.2109 54.4192C39.2909 54.9192 38.3709 55.4092 37.4509 55.8892C36.5509 56.3592 35.7109 56.9292 34.8309 57.4292C34.4009 57.6792 34.1809 57.9392 33.6809 58.1692C33.6809 58.1692 33.6709 58.1692 33.6609 58.1692C34.6909 56.3892 36.8509 55.1892 38.6109 54.3492C39.3909 53.9792 40.5309 53.6492 41.3609 53.0992C41.3909 53.3692 41.4809 53.6292 41.5909 53.8692C41.1509 54.0692 40.6209 54.1992 40.2209 54.4192H40.2109ZM42.6209 52.7692C42.6709 52.0492 43.0409 51.5992 43.5509 51.2692C43.5009 52.1192 43.4309 52.9492 43.3009 53.7792C42.9109 53.5792 42.5709 53.3492 42.6109 52.7792L42.6209 52.7692ZM16.2709 72.7692C15.8509 72.0892 15.4209 71.4192 14.9709 70.7492C14.6709 70.2992 14.3809 69.8192 14.1009 69.3292C14.4009 69.6692 14.7009 69.9992 15.0209 70.2992C15.5409 70.7892 17.5909 72.3792 18.0309 73.4192C17.7809 73.6192 17.5709 73.8392 17.4209 74.0992C17.0109 73.6892 16.5909 73.2892 16.2709 72.7692ZM19.0609 74.3792C20.5409 73.3892 22.4309 73.2592 24.2409 73.0492C24.2009 73.3092 24.2109 73.5592 24.2809 73.8092C24.2809 73.8392 24.2809 73.8792 24.2709 73.9092C22.5409 74.2192 20.8109 74.3792 19.0609 74.3692V74.3792ZM29.3409 68.9392C29.2209 69.1092 26.2009 73.0692 25.2709 73.5792C26.1309 71.5492 27.7909 69.7992 29.0109 68.0192C29.9309 66.6892 30.9409 65.4092 32.0109 64.1992C32.3209 63.8492 33.3609 62.9692 33.8209 62.3392C33.8209 62.3592 33.8209 62.3792 33.8209 62.3992C33.8209 62.6392 33.9109 62.8192 34.0509 62.9392C33.7209 63.9392 32.3709 64.9692 31.7709 65.7692C30.9709 66.8292 30.1109 67.8592 29.3409 68.9392ZM35.7509 61.8992C35.4509 61.9192 35.1909 62.0392 34.9909 62.2692C35.1109 62.0792 35.2609 61.9092 35.4409 61.7792C36.2309 61.0492 37.1509 60.4592 38.1409 60.0192C38.4409 59.8892 38.7209 59.7792 38.9809 59.6492C38.8809 60.1092 38.9209 60.5692 39.0809 60.9792C38.4609 61.0592 37.9009 61.2392 37.2309 61.4292C36.7409 61.5692 36.2509 61.7892 35.7509 61.8992ZM40.2509 60.3292C40.1909 59.9292 40.3309 59.5592 40.6009 59.2692C40.7509 59.0992 40.9109 58.9492 41.0809 58.8392C40.8209 59.4192 40.6309 60.0692 40.4709 60.6792C40.3609 60.5792 40.2709 60.4692 40.2409 60.3192L40.2509 60.3292ZM40.1309 65.8592C40.3009 66.5092 40.5609 67.1392 40.8909 67.7192C40.7809 67.8492 40.6809 67.9892 40.5809 68.1292C40.1909 68.0192 39.7809 67.9392 39.5709 67.5292C39.2209 66.8492 39.5609 66.1992 40.1309 65.8592ZM22.0309 87.7792C23.1909 86.7492 24.5009 85.6792 25.8809 85.0892C25.8609 85.1892 25.8609 85.2892 25.8809 85.3992C25.8809 85.4092 25.8909 85.4292 25.8909 85.4392C24.5809 86.0992 23.2709 86.8792 22.0309 87.7792ZM27.3809 85.0992C28.1209 84.6192 29.2009 84.3492 29.9309 84.1292C30.6209 83.9192 31.2809 83.7692 31.9209 83.5092C31.8809 83.8492 31.8809 84.1792 31.9509 84.4592C31.9209 84.5292 31.9109 84.5992 31.9209 84.6692C30.5609 85.1792 28.7309 84.8792 27.3709 85.0992H27.3809ZM33.2109 82.9392C33.7809 79.8792 35.3109 76.9592 36.0909 73.9492C36.1409 74.0192 36.1909 74.0992 36.2609 74.1592C36.3309 74.2292 36.4309 74.2692 36.5309 74.2992C35.7509 77.3292 35.0209 80.3992 33.2109 82.9392ZM37.9809 71.1292C37.8109 71.7792 37.4609 72.3492 37.0509 72.8692C36.9409 71.9492 37.5109 70.8092 37.7309 70.0092C37.9109 69.3992 38.1909 68.7792 38.4309 68.1592C38.6309 68.4592 38.9209 68.7692 39.2509 69.0292C38.8409 69.7292 38.1909 70.3292 37.9809 71.1292ZM32.1809 100.629C32.5809 98.3192 33.6309 96.8792 34.8909 94.9592C36.1509 93.0492 36.9509 91.2192 36.3909 89.2592C36.6709 89.5792 36.9609 89.8992 37.2109 90.2392C38.5709 92.0592 39.4509 94.2092 39.5609 96.4792C39.7009 99.4492 37.5909 102.369 37.8709 105.239C37.0109 104.989 36.1209 105.129 35.2409 105.849C33.7009 104.619 31.8409 102.699 32.2009 100.619L32.1809 100.629ZM38.7609 112.899C37.9609 112.079 34.3709 108.289 36.1109 106.989C38.9109 104.879 41.7109 112.459 42.6509 115.189C42.4609 115.309 42.3009 115.449 42.1609 115.619C40.8109 115.069 39.7509 113.919 38.7609 112.899ZM48.5509 121.489C46.8709 120.969 45.5009 120.289 44.2209 119.069C44.0909 118.929 43.9609 118.799 43.8309 118.659C42.9509 117.939 43.0109 117.079 44.0109 116.079C45.2409 115.969 46.3909 116.239 47.4809 116.839C48.7509 117.529 49.7209 118.529 50.6209 119.629C50.3609 120.259 50.4209 120.999 50.8909 121.809C50.8909 121.809 50.9009 121.819 50.9009 121.829C50.1209 121.779 49.3709 121.739 48.5609 121.499L48.5509 121.489ZM52.9309 121.939C51.5909 121.249 51.8709 120.329 53.7709 119.189C54.4409 119.109 55.1409 119.159 55.8109 119.179C56.7809 119.199 57.7109 119.259 58.6309 119.039C58.6109 120.059 58.8309 121.019 59.4509 121.649C57.2409 122.329 55.3009 123.379 52.9409 121.939H52.9309ZM62.8809 119.389C62.2509 120.609 60.0809 121.739 59.9709 119.459C59.8909 117.799 60.5809 116.249 60.4209 114.679C61.0509 114.939 61.7409 115.039 62.4609 114.889C62.7509 114.829 62.9809 114.699 63.1709 114.549C63.3309 115.159 63.4909 115.769 63.5709 116.399C63.7009 117.419 63.3409 118.499 62.8809 119.389ZM61.0409 108.339C62.0909 109.239 62.8009 111.059 62.5609 112.439C62.1009 115.129 58.9909 111.889 58.3709 111.019C57.8809 110.319 57.2209 109.409 57.0409 108.489C57.1209 108.489 57.1909 108.509 57.2709 108.509C58.3309 108.509 59.1609 107.989 59.7109 107.199C60.1209 107.599 60.5909 107.949 61.0409 108.339ZM58.3909 101.959C58.6909 103.149 59.9409 107.709 57.0009 107.099C54.5309 106.589 53.7009 104.879 53.0509 102.649C52.8309 101.899 52.7309 101.079 52.5409 100.299C53.2809 100.439 54.0109 100.459 54.6609 100.309C55.7009 100.549 56.9609 100.349 58.1209 99.9092C58.1009 100.589 58.2209 101.249 58.3909 101.959ZM60.6909 94.0392C60.8009 95.5592 60.2309 96.6792 59.0109 97.5892C58.1909 98.1992 56.9209 98.4792 55.9209 98.6092C55.4609 98.6692 55.0609 98.6492 54.6609 98.6892C54.2609 98.6492 53.8509 98.6692 53.3909 98.6092C52.3909 98.4892 51.1209 98.2092 50.3009 97.5892C49.0809 96.6792 48.5109 95.5592 48.6209 94.0392C48.6409 93.7292 48.6809 93.4192 48.6909 93.1192C50.5709 93.9092 52.9309 94.5092 54.6609 93.9392C56.3909 94.5092 58.7509 93.9092 60.6309 93.1192C60.6409 93.4192 60.6809 93.7292 60.7009 94.0392H60.6909ZM61.4909 90.9792C60.1709 91.8592 58.1009 92.2992 56.5609 92.4892C55.8909 92.5792 55.2809 92.5392 54.6509 92.7092C54.0309 92.5492 53.4209 92.5792 52.7409 92.4892C51.2009 92.2992 49.1309 91.8592 47.8109 90.9792C46.0309 89.7992 46.4909 87.9692 46.2009 86.3092C47.5209 86.7592 48.9409 86.9592 50.4009 87.1692C51.7309 87.3592 53.3109 87.5892 54.6609 87.2292C56.0109 87.5792 57.5909 87.3492 58.9109 87.1692C60.3709 86.9592 61.7809 86.7592 63.1109 86.3092C62.8209 87.9792 63.2709 89.7992 61.4909 90.9792ZM66.1209 81.7692C65.1309 83.4992 63.6409 84.6392 61.6909 84.9692C59.3809 85.3692 56.9509 85.4192 54.6509 85.8092C52.3509 85.4192 49.9109 85.3692 47.6109 84.9692C45.6609 84.6392 44.1809 83.4992 43.1809 81.7692C42.5809 80.7192 42.0509 79.6992 42.0709 78.4492C42.1009 78.2592 42.0909 78.0692 42.0709 77.8892C42.1909 77.9992 42.3109 78.0992 42.4309 78.1992C44.5409 79.8492 47.7209 80.3192 50.2709 80.7392C51.6809 80.9692 53.2309 81.3292 54.6509 81.0492C56.0709 81.3292 57.6309 80.9692 59.0309 80.7392C61.5809 80.3192 64.7609 79.8492 66.8709 78.1992C67.0009 78.0992 67.1109 77.9892 67.2309 77.8892C67.2009 78.0692 67.2009 78.2592 67.2309 78.4492C67.2409 79.6992 66.7209 80.7192 66.1209 81.7692ZM64.2709 77.5992C62.0409 78.5892 59.5009 79.0992 57.1009 79.4892C56.3009 79.6192 55.4509 79.5892 54.6609 79.7392C53.8609 79.5892 53.0209 79.6192 52.2209 79.4892C49.8109 79.0992 47.2809 78.5792 45.0509 77.5992C42.5609 76.4992 40.1109 74.0192 40.9709 70.9992C41.1709 70.3092 41.4909 69.6492 41.7609 68.9792C42.4509 69.7992 43.3109 70.4692 44.2809 70.8892C47.1609 72.1492 51.4409 74.0792 54.6609 73.2992C57.8809 74.0892 62.1609 72.1592 65.0409 70.8892C66.0109 70.4692 66.8609 69.7992 67.5609 68.9792C67.8309 69.6492 68.1609 70.3192 68.3509 70.9992C69.2209 74.0292 66.7709 76.4992 64.2809 77.5992H64.2709ZM72.7809 74.2992C72.8809 74.2692 72.9809 74.2292 73.0609 74.1592C73.1309 74.0892 73.1709 74.0192 73.2309 73.9492C74.0109 76.9592 75.5509 79.8792 76.1109 82.9392C74.2909 80.4092 73.5709 77.3292 72.7809 74.3092V74.2992ZM87.3009 87.7792C86.0609 86.8692 84.7409 86.0892 83.4309 85.4292C83.4309 85.4192 83.4409 85.3992 83.4409 85.3892C83.4609 85.2792 83.4509 85.1792 83.4409 85.0792C84.8209 85.6692 86.1309 86.7392 87.3009 87.7792ZM79.3909 84.1292C80.1209 84.3492 81.2009 84.6192 81.9409 85.0992C80.5809 84.8792 78.7509 85.1792 77.3909 84.6692C77.3909 84.5992 77.3909 84.5292 77.3609 84.4592C77.4309 84.1792 77.4409 83.8592 77.3909 83.5192C78.0309 83.7792 78.7009 83.9292 79.3809 84.1392L79.3909 84.1292ZM70.8909 68.1592C71.1309 68.7792 71.4109 69.3992 71.5809 70.0092C71.8109 70.7992 72.3709 71.9492 72.2609 72.8692C71.8509 72.3492 71.5009 71.7792 71.3309 71.1292C71.1209 70.3392 70.4709 69.7292 70.0609 69.0292C70.3909 68.7692 70.6809 68.4592 70.8809 68.1592H70.8909ZM69.7409 67.5292C69.5309 67.9392 69.1109 68.0192 68.7309 68.1292C68.6309 67.9892 68.5309 67.8592 68.4209 67.7192C68.7509 67.1292 69.0109 66.4992 69.1809 65.8592C69.7509 66.2092 70.0909 66.8492 69.7409 67.5292ZM68.2209 58.8392C68.4009 58.9492 68.5509 59.0992 68.7009 59.2692C68.9709 59.5592 69.1209 59.9292 69.0509 60.3292C69.0309 60.4792 68.9409 60.5892 68.8309 60.6892C68.6709 60.0692 68.4709 59.4292 68.2209 58.8492V58.8392ZM73.5609 61.8992C73.0709 61.7892 72.5809 61.5592 72.0809 61.4292C71.4109 61.2492 70.8509 61.0692 70.2309 60.9792C70.4009 60.5692 70.4309 60.1192 70.3409 59.6492C70.6009 59.7792 70.8909 59.8892 71.1809 60.0192C72.1609 60.4592 73.0909 61.0592 73.8709 61.7792C74.0509 61.9092 74.2009 62.0792 74.3209 62.2692C74.1109 62.0392 73.8609 61.9092 73.5609 61.8992ZM79.9709 68.9392C79.2009 67.8592 78.3409 66.8292 77.5409 65.7692C76.9409 64.9692 75.5909 63.9392 75.2609 62.9392C75.4009 62.8192 75.4909 62.6392 75.4909 62.3992C75.4909 62.3792 75.4909 62.3592 75.4909 62.3492C75.9609 62.9692 76.9909 63.8492 77.3009 64.2092C78.3709 65.4192 79.3909 66.6992 80.3009 68.0292C81.5209 69.8092 83.1809 71.5592 84.0409 73.5892C83.1109 73.0692 80.0909 69.1092 79.9709 68.9492V68.9392ZM85.0409 73.9092C85.0409 73.9092 85.0409 73.8392 85.0309 73.8092C85.1009 73.5592 85.1109 73.2992 85.0709 73.0492C86.8909 73.2492 88.7709 73.3892 90.2509 74.3792C88.5009 74.3792 86.7709 74.2192 85.0409 73.9192V73.9092ZM91.2809 73.4092C91.7209 72.3692 93.7709 70.7792 94.2909 70.2892C94.6109 69.9892 94.9109 69.6592 95.2109 69.3192C94.9309 69.7992 94.6509 70.2792 94.3409 70.7292C93.8909 71.3992 93.4609 72.0692 93.0409 72.7492C92.7209 73.2692 92.3009 73.6692 91.8909 74.0792C91.7409 73.8292 91.5309 73.5992 91.2809 73.3992V73.4092Z" fill="#897EB3"/>
</g>
<defs>
<linearGradient id="paint0_linear_57_361" x1="0.109856" y1="62.7047" x2="109.992" y2="62.7047" gradientUnits="userSpaceOnUse">
<stop stop-color="#C0CBD8"/>
<stop offset="0.54" stop-color="white"/>
<stop offset="0.87" stop-color="white"/>
<stop offset="0.99" stop-color="#C0CBD8"/>
</linearGradient>
<linearGradient id="paint1_linear_57_361" x1="-0.0356476" y1="62.582" x2="109.733" y2="62.582" gradientUnits="userSpaceOnUse">
<stop stop-color="#C0CBD8"/>
<stop offset="0.54" stop-color="white"/>
<stop offset="0.87" stop-color="white"/>
<stop offset="0.99" stop-color="#C0CBD8"/>
</linearGradient>
<linearGradient id="paint2_linear_57_361" x1="0.190332" y1="62.9643" x2="109.733" y2="62.9643" gradientUnits="userSpaceOnUse">
<stop stop-color="#C0CBD8"/>
<stop offset="0.54" stop-color="white"/>
<stop offset="0.87" stop-color="white"/>
<stop offset="0.99" stop-color="#C0CBD8"/>
</linearGradient>
<linearGradient id="paint3_linear_57_361" x1="0.00794691" y1="62.8628" x2="109.538" y2="62.8628" gradientUnits="userSpaceOnUse">
<stop stop-color="#C0CBD8"/>
<stop offset="0.54" stop-color="white"/>
<stop offset="0.87" stop-color="white"/>
<stop offset="0.99" stop-color="#C0CBD8"/>
</linearGradient>
<linearGradient id="paint4_linear_57_361" x1="-0.148545" y1="62.6415" x2="109.538" y2="62.6415" gradientUnits="userSpaceOnUse">
<stop stop-color="#C0CBD8"/>
<stop offset="0.54" stop-color="white"/>
<stop offset="0.87" stop-color="white"/>
<stop offset="0.99" stop-color="#C0CBD8"/>
</linearGradient>
<linearGradient id="paint5_linear_57_361" x1="-0.0646109" y1="62.3332" x2="109.496" y2="62.3332" gradientUnits="userSpaceOnUse">
<stop stop-color="#C0CBD8"/>
<stop offset="0.54" stop-color="white"/>
<stop offset="0.87" stop-color="white"/>
<stop offset="0.99" stop-color="#C0CBD8"/>
</linearGradient>
<linearGradient id="paint6_linear_57_361" x1="0.468049" y1="62.5991" x2="109.674" y2="62.5991" gradientUnits="userSpaceOnUse">
<stop stop-color="#C0CBD8"/>
<stop offset="0.54" stop-color="white"/>
<stop offset="0.87" stop-color="white"/>
<stop offset="0.99" stop-color="#C0CBD8"/>
</linearGradient>
<linearGradient id="paint7_linear_57_361" x1="-0.0247543" y1="62.5361" x2="109.338" y2="62.5361" gradientUnits="userSpaceOnUse">
<stop stop-color="#C0CBD8"/>
<stop offset="0.54" stop-color="white"/>
<stop offset="0.87" stop-color="white"/>
<stop offset="0.99" stop-color="#C0CBD8"/>
</linearGradient>
<linearGradient id="paint8_linear_57_361" x1="-0.216098" y1="62.1922" x2="108.955" y2="62.1922" gradientUnits="userSpaceOnUse">
<stop stop-color="#C0CBD8"/>
<stop offset="0.54" stop-color="white"/>
<stop offset="0.87" stop-color="white"/>
<stop offset="0.99" stop-color="#C0CBD8"/>
</linearGradient>
<linearGradient id="paint9_linear_57_361" x1="0.411321" y1="62.88" x2="109.582" y2="62.88" gradientUnits="userSpaceOnUse">
<stop stop-color="#C0CBD8"/>
<stop offset="0.54" stop-color="white"/>
<stop offset="0.87" stop-color="white"/>
<stop offset="0.99" stop-color="#C0CBD8"/>
</linearGradient>
<linearGradient id="paint10_linear_57_361" x1="0.0838999" y1="62.2692" x2="109.884" y2="62.2692" gradientUnits="userSpaceOnUse">
<stop stop-color="#C0CBD8"/>
<stop offset="0.54" stop-color="white"/>
<stop offset="0.87" stop-color="white"/>
<stop offset="0.99" stop-color="#C0CBD8"/>
</linearGradient>
<linearGradient id="paint11_linear_57_361" x1="0.0838999" y1="62.9496" x2="109.884" y2="62.9496" gradientUnits="userSpaceOnUse">
<stop stop-color="#C0CBD8"/>
<stop offset="0.54" stop-color="white"/>
<stop offset="0.87" stop-color="white"/>
<stop offset="0.99" stop-color="#C0CBD8"/>
</linearGradient>
<linearGradient id="paint12_linear_57_361" x1="0.0838999" y1="62.9496" x2="109.884" y2="62.9496" gradientUnits="userSpaceOnUse">
<stop stop-color="#C0CBD8"/>
<stop offset="0.54" stop-color="white"/>
<stop offset="0.87" stop-color="white"/>
<stop offset="0.99" stop-color="#C0CBD8"/>
</linearGradient>
<linearGradient id="paint13_linear_57_361" x1="-0.0127201" y1="62.4298" x2="109.656" y2="62.4298" gradientUnits="userSpaceOnUse">
<stop stop-color="#C0CBD8"/>
<stop offset="0.54" stop-color="white"/>
<stop offset="0.87" stop-color="white"/>
<stop offset="0.99" stop-color="#C0CBD8"/>
</linearGradient>
<linearGradient id="paint14_linear_57_361" x1="-0.441284" y1="62.5361" x2="109.312" y2="62.5361" gradientUnits="userSpaceOnUse">
<stop stop-color="#C0CBD8"/>
<stop offset="0.54" stop-color="white"/>
<stop offset="0.87" stop-color="white"/>
<stop offset="0.99" stop-color="#C0CBD8"/>
</linearGradient>
<linearGradient id="paint15_linear_57_361" x1="-0.441976" y1="62.5361" x2="109.475" y2="62.5361" gradientUnits="userSpaceOnUse">
<stop stop-color="#C0CBD8"/>
<stop offset="0.54" stop-color="white"/>
<stop offset="0.87" stop-color="white"/>
<stop offset="0.99" stop-color="#C0CBD8"/>
</linearGradient>
<linearGradient id="paint16_linear_57_361" x1="-0.0332806" y1="62.5361" x2="109.312" y2="62.5361" gradientUnits="userSpaceOnUse">
<stop stop-color="#C0CBD8"/>
<stop offset="0.54" stop-color="white"/>
<stop offset="0.87" stop-color="white"/>
<stop offset="0.99" stop-color="#C0CBD8"/>
</linearGradient>
<linearGradient id="paint17_linear_57_361" x1="-0.0333635" y1="62.5361" x2="109.475" y2="62.5361" gradientUnits="userSpaceOnUse">
<stop stop-color="#C0CBD8"/>
<stop offset="0.54" stop-color="white"/>
<stop offset="0.87" stop-color="white"/>
<stop offset="0.99" stop-color="#C0CBD8"/>
</linearGradient>
<linearGradient id="paint18_linear_57_361" x1="-0.409858" y1="62.8437" x2="108.753" y2="62.8437" gradientUnits="userSpaceOnUse">
<stop stop-color="#C0CBD8"/>
<stop offset="0.54" stop-color="white"/>
<stop offset="0.87" stop-color="white"/>
<stop offset="0.99" stop-color="#C0CBD8"/>
</linearGradient>
<linearGradient id="paint19_linear_57_361" x1="0.0235804" y1="62.5192" x2="109.617" y2="62.5192" gradientUnits="userSpaceOnUse">
<stop stop-color="#C0CBD8"/>
<stop offset="0.54" stop-color="white"/>
<stop offset="0.87" stop-color="white"/>
<stop offset="0.99" stop-color="#C0CBD8"/>
</linearGradient>
</defs>
</svg>
