<svg width="113" height="124" viewBox="0 0 113 124" fill="none" xmlns="http://www.w3.org/2000/svg">
<g id="9">
<path d="M24.8255 105.429C25.1855 104.849 25.6655 104.069 25.5355 103.509C25.3255 102.659 23.9755 103.639 23.6755 103.819C23.5555 103.889 23.4255 103.959 23.3055 104.029C22.8455 103.599 22.3455 103.179 21.7955 103.069C21.6655 103.039 21.5355 103.159 21.5255 103.289C21.4955 103.779 21.5855 104.299 21.6955 104.819C21.1255 105.109 20.5855 105.439 20.2055 105.869C20.1555 105.929 20.1455 106.049 20.1855 106.119C20.5455 106.709 21.3955 106.729 21.9955 106.809C22.0255 106.809 22.0655 106.809 22.0955 106.809C22.0955 106.809 22.0955 106.829 22.0955 106.839C22.0955 106.979 22.1155 107.109 22.1155 107.239C22.1155 107.719 22.0455 108.559 22.4755 108.879C22.5555 108.939 22.6955 108.959 22.7855 108.909C23.1055 108.709 23.2555 108.509 23.4155 108.179C23.6155 107.779 23.7955 107.379 23.9955 106.979C24.5955 107.029 25.1955 107.089 25.7855 107.209C25.9155 107.239 26.0555 107.079 26.0155 106.949C25.8655 106.399 25.3355 105.899 24.8155 105.449L24.8255 105.429Z" fill="url(#paint0_linear_57_410)"/>
<path d="M95.9655 93.0591C96.2655 92.5791 96.6555 91.9291 96.5555 91.4791C96.3855 90.7791 95.2655 91.5791 95.0155 91.7391C94.9155 91.7991 94.8155 91.8491 94.7055 91.9091C94.3255 91.5491 93.9055 91.2091 93.4555 91.1091C93.3555 91.0891 93.2455 91.1891 93.2355 91.2891C93.2055 91.6891 93.2855 92.1291 93.3755 92.5491C92.9055 92.7891 92.4555 93.0591 92.1455 93.4191C92.1055 93.4691 92.0955 93.5691 92.1255 93.6291C92.4155 94.1091 93.1255 94.1391 93.6255 94.1991C93.6555 94.1991 93.6855 94.1991 93.7155 94.1991C93.7155 94.1991 93.7155 94.2091 93.7155 94.2191C93.7155 94.3291 93.7255 94.4391 93.7255 94.5491C93.7255 94.9491 93.6655 95.6391 94.0255 95.8991C94.0955 95.9491 94.2055 95.9691 94.2855 95.9191C94.5455 95.7591 94.6755 95.5891 94.8055 95.3191C94.9655 94.9891 95.1255 94.6591 95.2855 94.3291C95.7855 94.3691 96.2755 94.4191 96.7555 94.5091C96.8655 94.5291 96.9755 94.4091 96.9555 94.2991C96.8255 93.8391 96.3955 93.4291 95.9555 93.0591H95.9655Z" fill="url(#paint1_linear_57_410)"/>
<path d="M19.5155 56.3991C20.2455 56.7091 21.2355 57.1391 21.8455 56.8891C22.7955 56.5091 21.4455 55.1091 21.1755 54.7891C21.0755 54.6591 20.9755 54.5291 20.8755 54.3891C21.3055 53.7991 21.6955 53.1391 21.7355 52.4891C21.7355 52.3391 21.5855 52.2091 21.4355 52.2191C20.8655 52.2691 20.2755 52.4691 19.7055 52.6791C19.2755 52.0691 18.8055 51.4991 18.2355 51.1391C18.1555 51.0891 18.0155 51.0991 17.9455 51.1591C17.3355 51.6691 17.4355 52.6591 17.4655 53.3691C17.4655 53.4091 17.4655 53.4491 17.4655 53.4891C17.4655 53.4891 17.4455 53.4891 17.4355 53.4891C17.2855 53.5191 17.1255 53.5491 16.9755 53.5791C16.4155 53.6591 15.4355 53.7191 15.1455 54.2691C15.0955 54.3791 15.0855 54.5391 15.1655 54.6391C15.4455 54.9691 15.7055 55.1091 16.1155 55.2391C16.6155 55.3991 17.1055 55.5491 17.6055 55.7091C17.6555 56.4091 17.6855 57.1191 17.6455 57.8091C17.6455 57.9691 17.8355 58.0991 17.9755 58.0391C18.5855 57.7691 19.0755 57.0791 19.5055 56.3991H19.5155Z" fill="url(#paint2_linear_57_410)"/>
<path d="M15.7855 92.8791C15.2155 92.8791 14.7255 92.9791 14.2855 93.3591C13.8855 93.6991 13.6255 94.1891 13.5755 94.7191C13.4755 95.7391 14.2955 96.9291 15.4055 96.9291C15.9755 96.9291 16.4655 96.8291 16.9155 96.4491C17.3155 96.1091 17.5755 95.6191 17.6255 95.0891C17.7255 94.0691 16.9055 92.8791 15.7955 92.8791H15.7855Z" fill="url(#paint3_linear_57_410)"/>
<path d="M30.7755 109.539C29.6255 109.539 29.4455 111.329 30.6055 111.329C31.7655 111.329 31.9355 109.539 30.7755 109.539Z" fill="url(#paint4_linear_57_410)"/>
<path d="M76.6655 100.259C76.6955 100.369 76.7255 100.479 76.7755 100.579C76.9255 100.899 77.1455 100.989 77.3555 100.949C77.5655 100.969 77.7755 100.869 77.9355 100.529C77.9655 100.479 77.9855 100.429 77.9955 100.379C78.3655 99.1591 76.3655 99.2691 76.6655 100.259Z" fill="url(#paint5_linear_57_410)"/>
<path d="M22.5355 80.4191C22.8355 79.9391 23.2255 79.2891 23.1255 78.8391C22.9555 78.1391 21.8355 78.9391 21.5855 79.0891C21.4855 79.1491 21.3755 79.2091 21.2755 79.2591C20.8955 78.8991 20.4855 78.5591 20.0355 78.4591C19.9355 78.4391 19.8255 78.5391 19.8155 78.6391C19.7955 79.0391 19.8655 79.4791 19.9555 79.8991C19.4755 80.1391 19.0355 80.4091 18.7255 80.7691C18.6755 80.8191 18.6755 80.9191 18.7055 80.9791C18.9955 81.4591 19.7055 81.4891 20.2055 81.5491C20.2355 81.5491 20.2655 81.5491 20.2855 81.5491C20.2855 81.5491 20.2855 81.5591 20.2855 81.5691C20.2855 81.6791 20.3055 81.7891 20.3055 81.8991C20.3055 82.2991 20.2455 82.9891 20.6055 83.2491C20.6755 83.2991 20.7855 83.3191 20.8655 83.2691C21.1255 83.1091 21.2555 82.9391 21.3855 82.6691C21.5455 82.3391 21.7055 82.0091 21.8655 81.6791C22.3655 81.7191 22.8555 81.7691 23.3355 81.8591C23.4455 81.8791 23.5555 81.7591 23.5355 81.6491C23.4055 81.1891 22.9755 80.7791 22.5355 80.4091V80.4191Z" fill="url(#paint6_linear_57_410)"/>
<path d="M100.436 60.9891C101.206 60.7991 102.256 60.5391 102.596 59.9791C103.126 59.0991 101.196 58.7991 100.796 58.7091C100.636 58.6691 100.476 58.6291 100.316 58.5691C100.296 57.8391 100.215 57.0791 99.8555 56.5391C99.7755 56.4091 99.5655 56.4091 99.4555 56.4991C99.0355 56.8791 98.6755 57.3991 98.3555 57.9091C97.6455 57.6791 96.9255 57.5191 96.2555 57.5691C96.1655 57.5691 96.0555 57.6691 96.0355 57.7591C95.8555 58.5291 96.5455 59.2591 96.9855 59.8091C97.0155 59.8391 97.0355 59.8691 97.0655 59.8991C97.0655 59.8991 97.0555 59.9191 97.0455 59.9291C96.9455 60.0491 96.8455 60.1691 96.7355 60.2791C96.3455 60.6791 95.5955 61.3191 95.6955 61.9291C95.7155 62.0491 95.8155 62.1791 95.9355 62.1991C96.3655 62.2891 96.6455 62.2491 97.0555 62.1091C97.5455 61.9391 98.0355 61.7591 98.5255 61.5891C98.9855 62.1191 99.4355 62.6591 99.8255 63.2391C99.9155 63.3691 100.156 63.3591 100.226 63.2191C100.546 62.6291 100.526 61.7891 100.446 60.9891H100.436Z" fill="url(#paint7_linear_57_410)"/>
<path d="M86.6955 106.699C87.4655 106.509 88.5155 106.249 88.8555 105.689C89.3855 104.809 87.4555 104.509 87.0555 104.419C86.8955 104.379 86.7355 104.339 86.5755 104.289C86.5555 103.549 86.4755 102.789 86.1155 102.249C86.0355 102.129 85.8255 102.119 85.7155 102.219C85.2955 102.599 84.9355 103.119 84.6155 103.629C83.8955 103.399 83.1855 103.239 82.5155 103.289C82.4255 103.289 82.3155 103.389 82.2955 103.479C82.1155 104.249 82.7955 104.979 83.2455 105.529C83.2755 105.559 83.2955 105.589 83.3255 105.619C83.3255 105.619 83.3255 105.639 83.3155 105.649C83.2155 105.769 83.1055 105.889 83.0055 105.999C82.6155 106.399 81.8655 107.039 81.9655 107.649C81.9855 107.769 82.0855 107.899 82.2055 107.919C82.6355 108.019 82.9155 107.969 83.3255 107.829C83.8155 107.649 84.3055 107.469 84.7955 107.299C85.2555 107.829 85.7055 108.379 86.0955 108.949C86.1855 109.079 86.4255 109.069 86.4955 108.929C86.8155 108.349 86.7955 107.499 86.7155 106.699H86.6955Z" fill="url(#paint8_linear_57_410)"/>
<path d="M2.6955 84.9491C1.5455 84.9491 1.3655 86.7391 2.5255 86.7391C3.6855 86.7391 3.8555 84.9491 2.6955 84.9491Z" fill="url(#paint9_linear_57_410)"/>
<path d="M101.806 73.9891C101.836 74.0991 101.866 74.2091 101.916 74.3191C102.066 74.6391 102.286 74.7191 102.496 74.6891C102.706 74.7091 102.916 74.6091 103.076 74.2691C103.106 74.2191 103.126 74.1691 103.136 74.1091C103.506 72.8891 101.506 72.9991 101.806 73.9891Z" fill="url(#paint10_linear_57_410)"/>
<path d="M110.996 65.0491C111.026 65.1591 111.055 65.2691 111.105 65.3691C111.255 65.6891 111.476 65.7791 111.686 65.7391C111.896 65.7591 112.106 65.6591 112.266 65.3191C112.296 65.2691 112.316 65.2191 112.326 65.1591C112.696 63.9391 110.696 64.0491 110.996 65.0391V65.0491Z" fill="url(#paint11_linear_57_410)"/>
<path d="M103.806 13.8791C97.9955 2.71906 83.4155 -4.64094 72.1655 3.37906C69.0255 5.61906 66.5055 8.66906 65.2755 12.1991C62.7055 11.8191 59.6355 14.7791 57.9455 17.1391C57.4755 16.9391 56.9055 16.8591 56.4355 16.8191C55.8955 16.7691 55.2655 16.7391 54.6755 16.7891C54.0855 16.7391 53.4455 16.7691 52.9155 16.8191C52.4355 16.8591 51.8755 16.9391 51.4055 17.1391C49.7055 14.7791 46.6455 11.8291 44.0755 12.1991C42.8555 8.66906 40.3255 5.61906 37.1855 3.37906C25.9255 -4.64094 11.3455 2.71906 5.5355 13.8791C2.3955 19.8991 1.5955 25.8991 0.525503 32.4891C-0.484497 38.7491 -0.0344975 45.8491 2.3855 51.7091C2.5455 52.0791 2.9255 52.1791 3.2055 52.0691C3.6755 52.2891 4.4055 52.0091 4.3455 51.3991C3.7955 45.7291 4.5555 39.4291 6.7555 34.1691C8.2155 30.6791 10.1055 27.3391 12.4855 24.3891C13.6555 22.9391 14.8455 21.4591 16.4955 20.5191C17.1055 20.1691 20.2755 18.4691 21.7555 18.7091C21.8955 19.8691 21.8655 21.0691 21.9955 22.2591C20.7455 23.3191 20.2755 25.2291 19.8655 26.7291C19.5055 28.0491 19.8155 29.3791 20.3955 30.5591C19.0755 30.6891 17.7355 30.8191 16.3055 30.7591C15.7755 30.5391 15.0255 30.7991 15.1155 31.4891C15.6855 35.9391 16.5055 39.6891 20.1455 42.7291C21.7555 44.0691 23.4155 45.3591 25.2955 46.2991C28.0255 47.6591 30.1655 49.4791 30.3855 52.4391C28.6255 55.6491 26.9655 58.9091 27.9855 62.7191C28.4855 64.5791 29.3955 66.2391 31.0055 67.3791C31.5955 67.7991 32.2255 68.1891 32.8655 68.5891C32.5055 70.3891 32.0055 72.1591 31.4255 73.8891C30.7755 75.8191 29.6355 77.4191 28.8655 79.2691C27.4055 82.7691 27.0455 85.5691 28.1255 89.1891C28.1555 89.2991 28.2255 89.3791 28.3055 89.4491C28.0555 90.7691 28.0255 92.1291 28.3355 93.5691C28.3755 93.7291 28.4555 93.8291 28.5555 93.8791C28.7255 98.2291 31.1755 100.639 32.9055 104.589C32.9555 104.699 33.0355 104.749 33.1155 104.759C34.5755 108.379 37.3755 110.689 39.9255 113.519C40.0055 113.599 40.0955 113.649 40.1855 113.659C41.8855 116.399 44.4355 118.519 47.4355 119.699C47.9155 119.889 48.5355 119.299 48.3255 118.799C48.2755 118.679 48.2155 118.549 48.1655 118.419C49.3555 119.449 50.7155 120.349 52.1455 121.159C52.7355 122.019 53.2055 122.939 53.9055 123.709C54.1055 123.939 54.4955 123.859 54.6455 123.619C54.7955 123.859 55.1855 123.939 55.3855 123.709C56.0855 122.939 56.5555 122.019 57.1455 121.159C58.5755 120.349 59.9455 119.449 61.1355 118.419C61.0855 118.549 61.0255 118.679 60.9755 118.799C60.7655 119.289 61.3855 119.889 61.8655 119.699C64.8655 118.519 67.4155 116.399 69.1055 113.659C69.1955 113.659 69.2855 113.609 69.3655 113.519C71.9155 110.689 74.7155 108.379 76.1755 104.759C76.2655 104.749 76.3455 104.699 76.3855 104.589C78.1155 100.639 80.5555 98.2391 80.7355 93.8791C80.8455 93.8291 80.9255 93.7291 80.9555 93.5691C81.2655 92.1291 81.2355 90.7691 80.9855 89.4491C81.0655 89.3891 81.1255 89.2991 81.1655 89.1891C82.2455 85.5691 81.8855 82.7691 80.4255 79.2691C79.6555 77.4191 78.5155 75.8191 77.8655 73.8891C77.2755 72.1491 76.7855 70.3891 76.4255 68.5891C77.0655 68.1891 77.7055 67.7991 78.2855 67.3791C79.8955 66.2391 80.8055 64.5791 81.3055 62.7191C82.3255 58.9191 80.6655 55.6591 78.9055 52.4391C79.1355 49.4791 81.2655 47.6491 83.9955 46.2991C85.8755 45.3691 87.5355 44.0791 89.1455 42.7291C92.7855 39.6891 93.6055 35.9491 94.1755 31.4891C94.2655 30.7991 93.5155 30.5291 92.9855 30.7591C91.5555 30.8191 90.2155 30.6891 88.8955 30.5591C89.4755 29.3791 89.7855 28.0391 89.4255 26.7291C89.0155 25.2291 88.5455 23.3191 87.2955 22.2591C87.4155 21.0691 87.3855 19.8691 87.5355 18.7091C89.0155 18.4691 92.1855 20.1691 92.7955 20.5191C94.4455 21.4691 95.6355 22.9391 96.8055 24.3891C99.1855 27.3391 101.075 30.6791 102.535 34.1691C104.735 39.4391 105.496 45.7391 104.946 51.3991C104.886 52.0091 105.626 52.2891 106.086 52.0691C106.376 52.1791 106.756 52.0891 106.906 51.7091C109.326 45.8491 109.776 38.7491 108.766 32.4891C107.696 25.8991 106.896 19.8991 103.756 13.8791H103.806Z" fill="url(#paint12_linear_57_410)"/>
<path d="M103.806 13.8791C97.9955 2.71906 83.4155 -4.64094 72.1655 3.37906C69.0255 5.61906 66.4955 8.67906 65.2755 12.2191C62.7055 11.8491 59.6455 14.7891 57.9455 17.1491C57.4755 16.9491 56.9055 16.8691 56.4355 16.8291C55.8955 16.7791 55.2655 16.7491 54.6755 16.7991C54.0855 16.7391 53.4455 16.7791 52.9155 16.8291C52.4455 16.8691 51.8755 16.9491 51.4055 17.1491C49.7155 14.7891 46.6455 11.8491 44.0755 12.2191C42.8555 8.67906 40.3255 5.61906 37.1855 3.37906C25.9255 -4.64094 11.3455 2.71906 5.5355 13.8791C2.3955 19.8991 1.5955 25.8991 0.525503 32.4891C-0.484497 38.7491 -0.0344975 45.8491 2.3855 51.7091C2.5455 52.0891 2.9255 52.1791 3.2155 52.0591C3.6755 52.2691 4.4055 51.9991 4.3455 51.3891C3.7955 45.7191 4.5555 39.4191 6.7555 34.1591C8.2155 30.6691 10.1055 27.3291 12.4855 24.3791C13.6555 22.9291 14.8455 21.4491 16.4955 20.5091C17.1055 20.1591 20.2755 18.4591 21.7555 18.6991C21.8955 19.8591 21.8655 21.0591 21.9955 22.2491C20.7455 23.3091 20.2755 25.2191 19.8655 26.7191C19.5055 28.0391 19.8155 29.3691 20.3955 30.5491C19.0655 30.6791 17.7155 30.8091 16.2755 30.7491C15.7455 30.5491 15.0255 30.7991 15.1155 31.4791C15.6855 35.9291 16.5055 39.6791 20.1455 42.7191C21.7555 44.0591 23.4155 45.3491 25.2955 46.2891C28.0255 47.6491 30.1555 49.4691 30.3855 52.4291C28.6255 55.6391 26.9655 58.9091 27.9855 62.7091C28.4855 64.5691 29.3955 66.2291 31.0055 67.3691C31.5855 67.7891 32.2255 68.1791 32.8655 68.5791C32.5055 70.3691 32.0055 72.1391 31.4255 73.8791C30.7755 75.8091 29.6355 77.4091 28.8655 79.2591C27.4055 82.7591 27.0455 85.5591 28.1255 89.1791C28.1555 89.2891 28.2255 89.3791 28.3055 89.4391C28.0555 90.7591 28.0255 92.1191 28.3355 93.5591C28.3755 93.7191 28.4555 93.8191 28.5655 93.8691C28.7355 98.2191 31.1855 100.619 32.9155 104.569C32.9655 104.679 33.0455 104.729 33.1255 104.739C34.5855 108.369 37.3855 110.669 39.9355 113.499C40.0155 113.589 40.1155 113.629 40.2155 113.639C41.9155 116.369 44.4455 118.489 47.4455 119.669C47.9255 119.859 48.5455 119.269 48.3355 118.769C48.2855 118.649 48.2255 118.509 48.1755 118.389C49.3655 119.419 50.7255 120.319 52.1555 121.129C52.7455 121.989 53.2255 122.919 53.9255 123.689C54.1255 123.919 54.5155 123.839 54.6655 123.599C54.8155 123.839 55.2055 123.919 55.4055 123.689C56.1055 122.919 56.5855 121.999 57.1755 121.129C58.6055 120.319 59.9755 119.419 61.1555 118.389C61.1055 118.519 61.0455 118.649 60.9955 118.769C60.7855 119.259 61.4055 119.859 61.8855 119.669C64.8755 118.489 67.4155 116.369 69.1055 113.639C69.2055 113.639 69.3055 113.589 69.3855 113.499C71.9355 110.669 74.7355 108.359 76.2055 104.739C76.2855 104.729 76.3655 104.679 76.4155 104.569C78.1455 100.619 80.5855 98.2191 80.7655 93.8691C80.8655 93.8191 80.9555 93.7191 80.9955 93.5591C81.3055 92.1191 81.2755 90.7591 81.0255 89.4391C81.1055 89.3791 81.1655 89.2991 81.2055 89.1791C82.2855 85.5591 81.9255 82.7591 80.4655 79.2591C79.6955 77.4091 78.5555 75.8091 77.9055 73.8791C77.3155 72.1391 76.8255 70.3691 76.4655 68.5791C77.1055 68.1791 77.7455 67.7891 78.3255 67.3691C79.9355 66.2291 80.8455 64.5691 81.3455 62.7091C82.3655 58.9091 80.7055 55.6491 78.9455 52.4291C79.1755 49.4691 81.3055 47.6391 84.0355 46.2791C85.9155 45.3491 87.5755 44.0591 89.1855 42.7091C92.8255 39.6691 93.6455 35.9291 94.2155 31.4691C94.3055 30.7891 93.5855 30.5291 93.0555 30.7391C91.6155 30.7991 90.2655 30.6691 88.9355 30.5391C89.5155 29.3591 89.8255 28.0191 89.4655 26.7091C89.0555 25.2091 88.5855 23.2991 87.3355 22.2391C87.4655 21.0491 87.4255 19.8491 87.5755 18.6891C89.0555 18.4491 92.2255 20.1491 92.8355 20.4991C94.4855 21.4491 95.6755 22.9191 96.8455 24.3691C99.2255 27.3191 101.116 30.6591 102.576 34.1491C104.776 39.4191 105.536 45.7191 104.986 51.3791C104.926 51.9891 105.656 52.2591 106.126 52.0491C106.416 52.1691 106.796 52.0791 106.956 51.6991C109.376 45.8391 109.826 38.7391 108.816 32.4791C107.746 25.8891 106.946 19.8891 103.806 13.8691V13.8791ZM14.9455 19.6291C11.2955 22.2491 8.5455 26.2591 6.5455 30.2291C4.0555 35.1491 2.5955 40.5991 2.4955 46.0891C1.7855 41.3791 1.6455 36.5391 2.3955 31.8691C3.3555 25.8391 4.0155 20.2091 7.0255 14.7391C10.2555 8.85906 15.5055 3.72906 22.2755 2.21906C28.8955 0.749055 35.0855 2.54906 39.5355 7.84906C44.2955 13.5291 44.4855 22.8091 37.4255 26.9791C34.4255 28.7491 30.1855 29.4191 27.1155 27.3191C25.7755 26.3991 24.4755 25.0291 24.0655 23.3891C23.6855 21.8991 23.9555 20.5191 23.7755 19.0791C23.3255 15.5391 20.7855 11.7091 16.7255 12.0891C13.2555 12.4091 9.6855 14.3891 8.6555 17.9491C8.6155 18.0791 8.8155 18.1691 8.8755 18.0391C10.6055 14.1591 17.3855 11.6291 20.4455 15.3391C21.0355 16.0491 21.3655 16.7991 21.5755 17.5791C19.3955 17.1891 16.4055 18.5691 14.9555 19.6091L14.9455 19.6291ZM21.6255 26.5391C21.8355 25.7091 22.0855 24.9191 22.4055 24.1591C22.4855 24.3991 22.5855 24.6391 22.6955 24.8691C25.1255 29.8391 30.5855 31.2791 35.6555 29.8091C40.6655 28.3591 44.5155 22.8991 44.8455 17.7891C44.9355 16.3891 44.8055 15.0291 44.5155 13.7291C45.9755 14.3091 47.6155 15.6791 48.4255 16.4691C50.1155 18.1291 51.8955 20.7891 51.5755 23.3191C50.7255 29.8291 46.1255 33.2191 40.0055 34.6191C35.1955 35.7191 31.3955 32.1991 26.9955 30.8391C25.3555 30.3391 23.8155 30.2991 22.2755 30.3891C21.7755 29.1291 21.2655 28.0291 21.6455 26.5291L21.6255 26.5391ZM77.5855 77.1591C78.7155 79.4291 79.9455 81.6291 80.2855 84.2091C80.3955 85.0491 80.3355 85.9391 80.2655 86.8391C79.2355 84.1991 77.5755 81.6891 76.3455 79.1191C76.3155 79.0491 76.1855 79.0991 76.2155 79.1791C76.9555 81.1791 77.6355 83.1791 78.3955 85.1691C78.7755 86.1791 79.0455 87.1591 79.2555 88.1291C79.1655 87.9491 79.0755 87.7691 78.9955 87.5891C77.6355 84.8191 76.2755 82.0791 75.3355 79.1091C75.2755 78.9191 75.0055 78.9991 75.0455 79.1891C75.9455 83.4591 78.0855 87.2891 78.9055 91.5391C79.3955 94.0691 79.1255 96.4191 77.9755 98.7591C77.7955 99.1291 77.6255 99.4691 77.4455 99.8191C77.6655 97.5891 77.4355 95.3291 76.4755 93.2391C76.4555 93.1891 76.3855 93.2291 76.3955 93.2691C77.7455 97.2591 76.3955 102.149 74.2955 105.619C73.3455 107.189 72.3055 108.439 70.9655 109.639C71.6255 107.849 72.0655 106.139 72.0655 104.069C72.0655 100.929 71.2655 97.7791 72.0855 94.6691C72.0955 94.6191 72.0255 94.5991 72.0055 94.6391C70.3255 98.5391 71.2655 102.629 70.3955 106.689C69.4655 111.069 66.6855 115.039 62.9555 117.419C63.1055 116.939 63.2455 116.459 63.3755 115.969C64.4455 114.439 65.1355 112.659 65.2555 110.499C65.2555 110.369 65.0655 110.349 65.0355 110.469C64.4855 113.129 62.9055 115.489 60.7355 117.139C60.4755 117.339 60.2055 117.519 59.9355 117.709C60.0055 117.609 60.0855 117.509 60.1455 117.409C61.5055 115.319 62.1755 112.969 61.9855 110.499C61.9655 110.269 61.6655 110.279 61.6355 110.499C61.3555 113.559 59.6455 115.939 57.6855 118.189C56.3855 119.679 54.9855 121.029 54.6555 122.999C54.3255 121.029 52.9255 119.679 51.6255 118.189C49.6655 115.939 47.9555 113.559 47.6755 110.499C47.6555 110.279 47.3455 110.269 47.3255 110.499C47.1355 112.979 47.8155 115.319 49.1655 117.409C49.2355 117.509 49.3055 117.609 49.3755 117.709C49.0955 117.519 48.8255 117.339 48.5755 117.139C46.4055 115.489 44.8255 113.129 44.2755 110.469C44.2455 110.349 44.0555 110.369 44.0555 110.499C44.1655 112.659 44.8655 114.449 45.9355 115.969C46.0655 116.459 46.1955 116.949 46.3555 117.429C42.6255 115.049 39.8455 111.079 38.9155 106.699C38.0555 102.639 38.9855 98.5391 37.3055 94.6491C37.2855 94.5991 37.2155 94.6291 37.2255 94.6791C38.0455 97.7791 37.2555 100.929 37.2455 104.079C37.2455 106.149 37.6855 107.859 38.3455 109.649C36.9955 108.449 35.9655 107.199 35.0155 105.629C32.9155 102.159 31.5655 97.2691 32.9155 93.2791C32.9355 93.2291 32.8555 93.1991 32.8355 93.2491C31.8855 95.3291 31.6455 97.5991 31.8655 99.8291C31.6955 99.4791 31.5155 99.1291 31.3355 98.7691C30.1955 96.4391 29.9255 94.0891 30.4055 91.5491C31.2255 87.2991 33.3655 83.4691 34.2655 79.1991C34.3055 79.0091 34.0355 78.9291 33.9755 79.1191C33.0355 82.0891 31.6755 84.8291 30.3155 87.5991C30.2255 87.7691 30.1455 87.9491 30.0555 88.1391C30.2655 87.1691 30.5355 86.1891 30.9155 85.1791C31.6655 83.1891 32.3555 81.1791 33.0955 79.1891C33.1255 79.1191 33.0055 79.0591 32.9655 79.1291C31.7355 81.7091 30.0855 84.2091 29.0455 86.8491C28.9755 85.9491 28.9155 85.0591 29.0255 84.2191C29.3655 81.6391 30.5955 79.4391 31.7255 77.1691C32.8355 74.9391 33.7355 71.8291 33.7555 69.1591C34.3155 69.5291 34.8555 69.9191 35.3455 70.3591C35.3855 70.4191 35.4255 70.4791 35.4655 70.5391C36.1555 71.7591 36.6155 73.0091 36.9755 74.3491C37.6255 76.7591 38.0655 78.8291 38.1855 81.3591C38.3755 85.3691 38.8955 89.4991 40.8155 93.0991C41.9255 95.1691 43.4755 97.0591 45.4955 98.1391C45.2555 98.8891 45.3555 99.8791 45.5655 100.539C46.0155 102.009 46.7755 103.219 47.8255 104.329C49.4455 106.049 52.2755 106.699 54.6255 106.509C56.9755 106.699 59.8055 106.049 61.4255 104.329C62.4755 103.219 63.2355 102.009 63.6955 100.539C63.8955 99.8791 64.0055 98.8891 63.7655 98.1391C65.7755 97.0591 67.3355 95.1691 68.4355 93.0991C70.3555 89.4991 70.8755 85.3691 71.0655 81.3591C71.1855 78.8291 71.6255 76.7591 72.2755 74.3491C72.6355 73.0091 73.0955 71.7591 73.7855 70.5391C73.8255 70.4791 73.8655 70.4191 73.9055 70.3591C74.3955 69.9291 74.9355 69.5291 75.4955 69.1591C75.5155 71.8191 76.4155 74.9391 77.5255 77.1691L77.5855 77.1591ZM48.9055 89.4591C50.2555 89.4591 51.7755 88.9591 52.3155 87.6191C52.9355 86.0791 50.7255 85.6791 49.7655 85.7991C48.9855 85.8991 48.3755 86.4891 47.8155 86.9891C47.1755 87.5591 46.3655 87.6791 45.6055 87.9691C45.3255 87.6491 45.0655 87.2991 44.8455 86.8591C42.6855 82.4791 47.2755 82.3291 50.1455 82.5591C51.7755 82.6991 53.1855 82.9291 54.6655 82.5191C56.1455 82.9291 57.5555 82.6891 59.1855 82.5591C62.0455 82.3191 66.6455 82.4791 64.4855 86.8591C64.2655 87.2991 64.0055 87.6591 63.7255 87.9691C62.9655 87.6791 62.1555 87.5591 61.5155 86.9891C60.9555 86.4891 60.3455 85.8991 59.5655 85.7991C58.6055 85.6791 56.3955 86.0791 57.0155 87.6191C57.5555 88.9591 59.0755 89.4691 60.4255 89.4591C60.8555 89.4591 61.2655 89.4691 61.6555 89.4791C60.8055 89.8991 59.8855 90.2491 58.9855 90.7591C58.1755 91.2091 57.4855 91.6091 56.7755 92.1991C56.1255 92.7291 55.5955 93.9391 54.6555 94.1191C53.7155 93.9391 53.1855 92.7291 52.5355 92.1991C51.8155 91.6191 51.1255 91.2191 50.3255 90.7591C49.4255 90.2491 48.5055 89.8991 47.6555 89.4791C48.0555 89.4791 48.4655 89.4591 48.8855 89.4591H48.9055ZM47.6755 88.3091C48.4755 87.8691 49.4055 86.9391 50.1555 86.9691C50.6555 86.8791 50.7955 87.1691 50.5755 87.8391C50.3155 87.9991 50.0355 88.1191 49.7455 88.1991C49.2155 88.3191 48.6555 88.2691 48.1155 88.2791C47.9555 88.2791 47.8155 88.2891 47.6755 88.3091ZM61.6755 88.3091C61.5355 88.2891 61.3955 88.2791 61.2355 88.2791C60.6955 88.2791 60.1355 88.3291 59.6055 88.1991C59.3055 88.1191 59.0355 87.9991 58.7755 87.8391C58.5555 87.1691 58.6955 86.8691 59.1955 86.9691C59.9355 86.9391 60.8755 87.8691 61.6755 88.3091ZM54.6755 95.8191C55.3655 98.0091 57.3155 98.9591 59.6955 99.0591C60.6055 99.0991 61.4655 98.9791 62.2555 98.7491C62.2355 98.8791 62.2155 99.0091 62.1755 99.1491C61.8455 100.589 61.7255 101.559 60.7455 102.769C59.2255 104.669 56.8755 104.849 54.6655 105.089C52.4555 104.849 50.1055 104.669 48.5855 102.769C47.6155 101.549 47.4955 100.579 47.1555 99.1491C47.1255 99.0091 47.0955 98.8791 47.0755 98.7491C47.8755 98.9791 48.7255 99.0991 49.6355 99.0591C52.0155 98.9591 53.9655 98.0091 54.6555 95.8191H54.6755ZM92.3955 32.5391C92.0755 34.9091 91.6255 37.0691 90.3055 39.2091C88.7655 41.6991 85.8455 43.6991 83.2855 45.0091C80.4955 46.4391 78.3655 48.3691 78.1955 51.0791C77.6255 50.0191 77.0755 48.9591 76.6555 47.8791C76.5455 47.5991 76.1255 47.7091 76.2055 48.0091C77.3855 52.7591 80.4255 57.1291 79.5255 62.2091C79.1655 64.2291 77.8055 65.4791 76.3255 66.6591C71.2255 69.1491 70.0455 75.0691 69.5755 80.4491C69.2055 84.5891 68.9455 88.4691 67.1355 92.3091C64.9855 96.8491 59.0555 99.8591 55.6855 94.9991C55.6855 94.9991 55.6855 94.9991 55.6955 94.9991C57.1355 94.1591 58.1655 92.7791 59.6855 91.9491C60.9255 91.2691 62.3955 91.1191 63.4955 90.1991C64.0655 89.7191 64.6755 89.1291 65.1955 88.4791C71.0555 85.2391 69.2455 77.9091 67.7355 72.5691C66.4855 68.1591 64.4955 64.0291 63.1955 59.6491C62.9155 58.6991 62.6755 57.7791 62.4555 56.8591C62.5355 55.2891 62.5855 53.7491 63.2255 52.2391C63.9355 50.5891 64.9755 49.2091 66.4855 48.2291C68.3555 47.0191 70.6655 47.6491 72.1555 49.0991C73.9255 50.8091 73.8855 53.1391 73.0655 55.1991C71.9055 55.6991 70.7655 54.9991 69.5555 54.7691C68.3555 54.5491 67.5255 55.0391 66.7455 55.8891C65.8055 56.9091 65.7655 58.0291 65.4955 59.2891C65.3755 59.8691 65.6355 60.3191 65.5355 60.8791C65.4555 61.3491 65.3355 61.5391 65.4255 61.8691C65.3955 62.0191 65.4555 62.1691 65.6155 62.2291C65.6955 62.3091 65.8055 62.3691 65.9155 62.3591C65.9655 62.3591 66.0255 62.3591 66.0755 62.3591C66.1055 62.3591 66.1155 62.3391 66.1455 62.3291C67.6255 62.5091 69.0355 62.3291 70.3555 61.5391C71.1655 61.0591 71.7555 60.0991 72.2055 59.2991C72.6355 58.5291 73.0855 57.5691 73.3855 56.6591C73.4055 56.6491 73.4255 56.6391 73.4455 56.6291C73.5355 56.6091 73.6155 56.5691 73.6955 56.5091C75.5255 55.0191 75.6455 52.3591 74.7155 50.2891C73.6255 47.8691 71.7455 46.3691 69.0655 46.1491C66.6555 45.9491 64.6955 47.6191 63.4055 49.4491C62.4055 50.8591 61.9755 52.2791 61.8355 53.7591C61.4355 51.3191 61.2155 48.8691 61.1255 46.2291C61.1255 46.1591 61.0155 46.1591 61.0155 46.2291C60.8655 49.5291 60.4955 52.5191 61.0155 55.8391C61.6055 59.6791 63.1555 63.3591 64.4355 66.9991C65.6555 70.4691 66.4555 74.0491 67.3455 77.6091C67.8055 79.4491 67.7855 81.7891 67.1855 83.5891C67.0355 84.0391 66.8155 84.4491 66.5555 84.8391C66.5055 83.0191 65.3255 81.6391 63.3555 81.0691C62.0055 80.6791 60.5655 81.0691 59.1955 81.0691C57.8255 81.0691 56.1255 81.0191 54.6755 81.2391C53.2255 81.0191 51.5655 81.0691 50.1555 81.0691C48.7455 81.0691 47.3555 80.6891 45.9955 81.0691C44.0155 81.6391 42.8455 83.0091 42.7855 84.8391C42.5255 84.4491 42.3055 84.0391 42.1555 83.5891C41.5555 81.7891 41.5355 79.4391 41.9955 77.6091C42.8855 74.0491 43.6855 70.4691 44.9055 66.9991C46.1855 63.3591 47.7355 59.6791 48.3255 55.8391C48.8355 52.5191 48.4755 49.5391 48.3255 46.2291C48.3255 46.1591 48.2155 46.1591 48.2155 46.2291C48.1255 48.8691 47.9055 51.3191 47.5055 53.7591C47.3655 52.2791 46.9355 50.8591 45.9355 49.4491C44.6455 47.6191 42.6755 45.9591 40.2755 46.1491C37.5955 46.3691 35.7155 47.8591 34.6255 50.2891C33.6955 52.3591 33.8055 55.0191 35.6455 56.5091C35.7255 56.5791 35.8155 56.6091 35.8955 56.6291C35.9155 56.6391 35.9355 56.6491 35.9555 56.6591C36.2555 57.5691 36.6955 58.5191 37.1355 59.2991C37.5855 60.0991 38.1655 61.0591 38.9855 61.5391C40.3155 62.3191 41.7255 62.5091 43.1955 62.3291C43.2255 62.3291 43.2355 62.3491 43.2655 62.3591C43.3155 62.3591 43.3755 62.3591 43.4255 62.3591C43.5355 62.3591 43.6455 62.3091 43.7255 62.2291C43.8855 62.1691 43.9355 62.0191 43.9155 61.8691C44.0055 61.5391 43.8855 61.3491 43.8055 60.8791C43.7055 60.3191 43.9655 59.8591 43.8455 59.2891C43.5855 58.0291 43.5355 56.9091 42.5955 55.8891C41.8155 55.0391 40.9855 54.5491 39.7855 54.7691C38.5855 54.9891 37.4455 55.6991 36.2755 55.1991C35.4555 53.1291 35.4155 50.8091 37.1855 49.0991C38.6755 47.6591 40.9955 47.0191 42.8555 48.2291C44.3755 49.2091 45.4055 50.5891 46.1155 52.2391C46.7655 53.7491 46.8155 55.2791 46.8955 56.8591C46.6755 57.7791 46.4455 58.6991 46.1555 59.6491C44.8555 64.0291 42.8555 68.1591 41.6155 72.5691C40.1055 77.8991 38.2955 85.2391 44.1555 88.4791C44.6755 89.1291 45.2855 89.7191 45.8555 90.1991C46.9555 91.1191 48.4255 91.2791 49.6655 91.9491C51.1855 92.7791 52.2155 94.1591 53.6555 94.9991C53.6555 94.9991 53.6555 94.9991 53.6655 94.9991C50.2955 99.8591 44.3655 96.8491 42.2155 92.3091C40.4055 88.4691 40.1455 84.5891 39.7755 80.4491C39.3055 75.0691 38.1155 69.1591 33.0155 66.6591C31.5455 65.4791 30.1755 64.2291 29.8155 62.2091C28.9155 57.1391 31.9555 52.7691 33.1355 48.0091C33.2055 47.7091 32.7855 47.6091 32.6855 47.8791C32.2655 48.9591 31.7155 50.0191 31.1455 51.0791C30.9755 48.3691 28.8455 46.4491 26.0555 45.0191C23.5055 43.7091 20.5755 41.7091 19.0355 39.2191C17.7155 37.0791 17.2655 34.9191 16.9555 32.5491C18.8855 33.0791 21.2655 32.3591 23.1155 32.0791C26.5355 31.5591 30.0655 34.2891 32.9955 35.5691C37.7755 37.6591 44.2955 36.4691 48.3355 33.1091C52.4355 29.6991 54.8655 23.8191 52.3855 18.7591C52.3355 18.6691 52.2755 18.5591 52.2255 18.4591C52.5455 18.3791 52.8855 18.3091 53.1955 18.2991C53.6655 18.2791 54.1755 18.2991 54.6755 18.2691C55.1655 18.3091 55.6855 18.2791 56.1555 18.2991C56.4655 18.2991 56.8055 18.3791 57.1255 18.4591C57.0655 18.5591 57.0055 18.6691 56.9655 18.7591C54.4855 23.8191 56.9255 29.6991 61.0155 33.1091C65.0555 36.4691 71.5755 37.6691 76.3555 35.5691C79.2755 34.2891 82.8055 31.5591 86.2355 32.0791C88.0955 32.3591 90.4755 33.0791 92.4055 32.5491L92.3955 32.5391ZM66.4455 61.1791C66.5055 60.9991 66.5855 60.8291 66.5855 60.6391C66.5855 60.1291 66.4655 59.7291 66.5955 59.2091C67.0755 57.3891 67.8255 55.7391 70.0355 56.3591C70.4855 56.4891 71.0955 56.6691 71.7055 56.7691C71.2355 57.6391 70.9355 58.6291 70.3755 59.4591C69.6955 60.4691 68.4955 61.0591 67.2855 61.0591C66.9755 61.0591 66.7055 61.0991 66.4455 61.1691V61.1791ZM42.8955 61.1791C42.6355 61.0991 42.3655 61.0691 42.0555 61.0691C40.8455 61.0691 39.6455 60.4791 38.9655 59.4691C38.4055 58.6391 38.1055 57.6391 37.6355 56.7791C38.2455 56.6791 38.8555 56.4891 39.3055 56.3691C41.5055 55.7491 42.2655 57.3991 42.7455 59.2191C42.8855 59.7391 42.7555 60.1391 42.7555 60.6491C42.7555 60.8291 42.8255 61.0091 42.8955 61.1891V61.1791ZM87.7155 26.5391C88.0955 28.0391 87.5755 29.1391 87.0855 30.3991C85.5455 30.3091 84.0055 30.3491 82.3655 30.8491C77.9555 32.1991 74.1655 35.7191 69.3555 34.6291C63.2355 33.2391 58.6355 29.8391 57.7855 23.3291C57.4555 20.7991 59.2355 18.1391 60.9355 16.4791C61.7455 15.6791 63.3855 14.3091 64.8455 13.7391C64.5455 15.0391 64.4255 16.3991 64.5155 17.7991C64.8455 22.9091 68.6955 28.3691 73.7055 29.8191C78.7755 31.2891 84.2355 29.8491 86.6655 24.8791C86.7755 24.6491 86.8755 24.4091 86.9555 24.1691C87.2755 24.9291 87.5255 25.7191 87.7355 26.5491L87.7155 26.5391ZM106.846 46.0891C106.746 40.5891 105.286 35.1391 102.796 30.2191C100.786 26.2491 98.0455 22.2391 94.3955 19.6191C92.9455 18.5791 89.9555 17.1891 87.7755 17.5891C87.9755 16.8191 88.3155 16.0591 88.9055 15.3491C91.9655 11.6391 98.7455 14.1691 100.486 18.0491C100.546 18.1791 100.736 18.0891 100.696 17.9591C99.6655 14.3991 96.0955 12.4191 92.6255 12.0991C88.5755 11.7191 86.0355 15.5591 85.5755 19.0891C85.3955 20.5291 85.6555 21.8991 85.2755 23.3991C84.8655 25.0291 83.5655 26.4091 82.2255 27.3291C79.1555 29.4191 74.9155 28.7591 71.9155 26.9891C64.8455 22.8191 65.0455 13.5391 69.8055 7.85906C74.2555 2.54906 80.4455 0.759055 87.0655 2.22906C93.8355 3.72906 99.0855 8.86906 102.316 14.7491C105.316 20.2191 105.986 25.8491 106.946 31.8791C107.696 36.5491 107.556 41.3891 106.846 46.0991V46.0891Z" fill="#897EB3"/>
<path d="M77.0555 43.6691C76.9955 43.8591 77.2755 43.9691 77.3755 43.7991C79.0255 40.9591 80.8955 38.1091 84.1955 37.0991C85.6055 36.6691 87.4655 36.7391 89.0255 36.3291C88.4455 37.0191 87.7455 37.6591 87.2155 38.3091C85.5555 40.3591 83.1755 41.8291 80.9255 43.1391C80.7955 43.2091 80.8855 43.4291 81.0255 43.3791C83.2455 42.5591 85.3755 41.5791 87.2255 40.0791C88.7855 38.8091 90.6855 37.0391 91.2855 35.0591C91.3155 34.9591 91.2955 34.8691 91.2655 34.7791C91.2655 34.4091 90.8555 34.1091 90.4255 34.2991C87.4855 35.6291 84.1655 35.1991 81.2655 36.8591C79.0555 38.1291 77.7355 41.3491 77.0555 43.6791V43.6691Z" fill="#897EB3"/>
<path d="M28.0755 36.8491C25.1755 35.1891 21.8555 35.6191 18.9155 34.2891C18.4955 34.0991 18.0855 34.3991 18.0755 34.7691C18.0355 34.8491 18.0155 34.9391 18.0555 35.0491C18.6555 37.0191 20.5555 38.7991 22.1255 40.0691C23.9755 41.5791 26.0955 42.5491 28.3255 43.3691C28.4655 43.4191 28.5555 43.1991 28.4255 43.1291C26.1755 41.8291 23.7855 40.3591 22.1355 38.2991C21.6155 37.6491 20.9055 37.0091 20.3255 36.3191C21.8855 36.7291 23.7455 36.6591 25.1555 37.0891C28.4555 38.1091 30.3255 40.9591 31.9755 43.7891C32.0755 43.9591 32.3455 43.8491 32.2955 43.6591C31.6155 41.3291 30.3055 38.1091 28.0855 36.8391L28.0755 36.8491Z" fill="#897EB3"/>
<path d="M96.3455 46.1391C92.6255 46.1391 92.0555 51.9291 95.7955 51.9291C99.5355 51.9291 100.086 46.1391 96.3455 46.1391Z" fill="url(#paint13_linear_57_410)"/>
<path d="M109.366 75.6091C107.596 75.6091 107.325 78.3591 109.105 78.3591C110.885 78.3591 111.146 75.6091 109.366 75.6091Z" fill="url(#paint14_linear_57_410)"/>
<path d="M89.7355 74.0691C87.9655 74.0691 87.6955 76.8291 89.4755 76.8291C91.2555 76.8291 91.5155 74.0691 89.7355 74.0691Z" fill="url(#paint15_linear_57_410)"/>
<path d="M22.8955 71.4891C21.1255 71.4891 20.8555 74.2491 22.6355 74.2491C24.4155 74.2491 24.6755 71.4891 22.8955 71.4891Z" fill="url(#paint16_linear_57_410)"/>
<path d="M15.4355 76.0991C13.6655 76.0991 13.3955 78.8591 15.1755 78.8591C16.9555 78.8591 17.2155 76.0991 15.4355 76.0991Z" fill="url(#paint17_linear_57_410)"/>
<path d="M3.1055 62.5391C3.0755 62.1691 2.6955 61.8691 2.3455 61.8391C1.8855 61.7891 1.4555 62.1391 1.4155 62.6091C1.4155 62.6991 1.3955 62.7891 1.3955 62.8791C1.3555 63.3591 1.7055 63.7891 2.1855 63.8391C2.7955 63.8991 3.1755 63.3691 3.1355 62.8191L3.1155 62.5491L3.1055 62.5391Z" fill="url(#paint18_linear_57_410)"/>
</g>
<defs>
<linearGradient id="paint0_linear_57_410" x1="0.11061" y1="61.6729" x2="112.621" y2="61.6729" gradientUnits="userSpaceOnUse">
<stop stop-color="#C0CBD8"/>
<stop offset="0.54" stop-color="white"/>
<stop offset="0.87" stop-color="white"/>
<stop offset="0.99" stop-color="#C0CBD8"/>
</linearGradient>
<linearGradient id="paint1_linear_57_410" x1="0.193306" y1="61.9688" x2="112.548" y2="61.9688" gradientUnits="userSpaceOnUse">
<stop stop-color="#C0CBD8"/>
<stop offset="0.54" stop-color="white"/>
<stop offset="0.87" stop-color="white"/>
<stop offset="0.99" stop-color="#C0CBD8"/>
</linearGradient>
<linearGradient id="paint2_linear_57_410" x1="0.161015" y1="61.8968" x2="112.306" y2="61.8968" gradientUnits="userSpaceOnUse">
<stop stop-color="#C0CBD8"/>
<stop offset="0.54" stop-color="white"/>
<stop offset="0.87" stop-color="white"/>
<stop offset="0.99" stop-color="#C0CBD8"/>
</linearGradient>
<linearGradient id="paint3_linear_57_410" x1="-0.027303" y1="61.7697" x2="112.143" y2="61.7697" gradientUnits="userSpaceOnUse">
<stop stop-color="#C0CBD8"/>
<stop offset="0.54" stop-color="white"/>
<stop offset="0.87" stop-color="white"/>
<stop offset="0.99" stop-color="#C0CBD8"/>
</linearGradient>
<linearGradient id="paint4_linear_57_410" x1="-0.223559" y1="62.2686" x2="112.394" y2="62.2686" gradientUnits="userSpaceOnUse">
<stop stop-color="#C0CBD8"/>
<stop offset="0.54" stop-color="white"/>
<stop offset="0.87" stop-color="white"/>
<stop offset="0.99" stop-color="#C0CBD8"/>
</linearGradient>
<linearGradient id="paint5_linear_57_410" x1="0.0841407" y1="61.4947" x2="112.703" y2="61.4947" gradientUnits="userSpaceOnUse">
<stop stop-color="#C0CBD8"/>
<stop offset="0.54" stop-color="white"/>
<stop offset="0.87" stop-color="white"/>
<stop offset="0.99" stop-color="#C0CBD8"/>
</linearGradient>
<linearGradient id="paint6_linear_57_410" x1="-0.199673" y1="61.9688" x2="112.316" y2="61.9688" gradientUnits="userSpaceOnUse">
<stop stop-color="#C0CBD8"/>
<stop offset="0.54" stop-color="white"/>
<stop offset="0.87" stop-color="white"/>
<stop offset="0.99" stop-color="#C0CBD8"/>
</linearGradient>
<linearGradient id="paint7_linear_57_410" x1="-0.154272" y1="61.8474" x2="112.348" y2="61.8474" gradientUnits="userSpaceOnUse">
<stop stop-color="#C0CBD8"/>
<stop offset="0.54" stop-color="white"/>
<stop offset="0.87" stop-color="white"/>
<stop offset="0.99" stop-color="#C0CBD8"/>
</linearGradient>
<linearGradient id="paint8_linear_57_410" x1="-0.47596" y1="61.8024" x2="112.188" y2="61.8024" gradientUnits="userSpaceOnUse">
<stop stop-color="#C0CBD8"/>
<stop offset="0.54" stop-color="white"/>
<stop offset="0.87" stop-color="white"/>
<stop offset="0.99" stop-color="#C0CBD8"/>
</linearGradient>
<linearGradient id="paint9_linear_57_410" x1="-0.223559" y1="61.5767" x2="111.75" y2="61.5767" gradientUnits="userSpaceOnUse">
<stop stop-color="#C0CBD8"/>
<stop offset="0.54" stop-color="white"/>
<stop offset="0.87" stop-color="white"/>
<stop offset="0.99" stop-color="#C0CBD8"/>
</linearGradient>
<linearGradient id="paint10_linear_57_410" x1="0.0841407" y1="62.0449" x2="112.703" y2="62.0449" gradientUnits="userSpaceOnUse">
<stop stop-color="#C0CBD8"/>
<stop offset="0.54" stop-color="white"/>
<stop offset="0.87" stop-color="white"/>
<stop offset="0.99" stop-color="#C0CBD8"/>
</linearGradient>
<linearGradient id="paint11_linear_57_410" x1="0.0841407" y1="62.7548" x2="111.904" y2="62.7548" gradientUnits="userSpaceOnUse">
<stop stop-color="#C0CBD8"/>
<stop offset="0.54" stop-color="white"/>
<stop offset="0.87" stop-color="white"/>
<stop offset="0.99" stop-color="#C0CBD8"/>
</linearGradient>
<linearGradient id="paint12_linear_57_410" x1="0.0153502" y1="61.9091" x2="112.418" y2="61.9091" gradientUnits="userSpaceOnUse">
<stop stop-color="#C0CBD8"/>
<stop offset="0.54" stop-color="white"/>
<stop offset="0.87" stop-color="white"/>
<stop offset="0.99" stop-color="#C0CBD8"/>
</linearGradient>
<linearGradient id="paint13_linear_57_410" x1="-0.0149598" y1="61.8157" x2="112.269" y2="61.8157" gradientUnits="userSpaceOnUse">
<stop stop-color="#C0CBD8"/>
<stop offset="0.54" stop-color="white"/>
<stop offset="0.87" stop-color="white"/>
<stop offset="0.99" stop-color="#C0CBD8"/>
</linearGradient>
<linearGradient id="paint14_linear_57_410" x1="-0.0361332" y1="62.1478" x2="112.284" y2="62.1478" gradientUnits="userSpaceOnUse">
<stop stop-color="#C0CBD8"/>
<stop offset="0.54" stop-color="white"/>
<stop offset="0.87" stop-color="white"/>
<stop offset="0.99" stop-color="#C0CBD8"/>
</linearGradient>
<linearGradient id="paint15_linear_57_410" x1="-0.0361332" y1="61.9226" x2="112.284" y2="61.9226" gradientUnits="userSpaceOnUse">
<stop stop-color="#C0CBD8"/>
<stop offset="0.54" stop-color="white"/>
<stop offset="0.87" stop-color="white"/>
<stop offset="0.99" stop-color="#C0CBD8"/>
</linearGradient>
<linearGradient id="paint16_linear_57_410" x1="-0.0361332" y1="61.9226" x2="112.284" y2="61.9226" gradientUnits="userSpaceOnUse">
<stop stop-color="#C0CBD8"/>
<stop offset="0.54" stop-color="white"/>
<stop offset="0.87" stop-color="white"/>
<stop offset="0.99" stop-color="#C0CBD8"/>
</linearGradient>
<linearGradient id="paint17_linear_57_410" x1="-0.0361332" y1="61.9226" x2="112.284" y2="61.9226" gradientUnits="userSpaceOnUse">
<stop stop-color="#C0CBD8"/>
<stop offset="0.54" stop-color="white"/>
<stop offset="0.87" stop-color="white"/>
<stop offset="0.99" stop-color="#C0CBD8"/>
</linearGradient>
<linearGradient id="paint18_linear_57_410" x1="1.39551" y1="62.839" x2="3.13551" y2="62.839" gradientUnits="userSpaceOnUse">
<stop stop-color="#C0CBD8"/>
<stop offset="0.54" stop-color="white"/>
<stop offset="0.87" stop-color="white"/>
<stop offset="0.99" stop-color="#C0CBD8"/>
</linearGradient>
</defs>
</svg>
