<svg xmlns="http://www.w3.org/2000/svg" width="531" height="161" viewBox="0 0 531 161" fill="none">
  <path d="M63.1328 74.2546H2.76485C1.86396 74.2546 1.05569 73.7077 0.693649 72.857C0.33161 72.0063 0.49158 71.0253 1.09779 70.3395L57.9884 6.24799H2.76485C1.51876 6.24799 0.5 5.19759 0.5 3.90413C0.5 2.61066 1.51876 1.56895 2.76485 1.56895H63.1328C64.0337 1.56895 64.8419 2.11585 65.204 2.96658C65.566 3.81732 65.406 4.79826 64.7998 5.48406L7.90917 69.5843H63.1328C64.3873 69.5843 65.3976 70.6347 65.3976 71.9195C65.3976 73.2042 64.3789 74.2546 63.1328 74.2546Z" fill="#2B5C97"/>
  <path d="M41.0063 72.1886C40.4001 72.3362 39.7855 71.9455 39.6507 71.3118L24.8156 5.04133C24.6724 4.4163 25.0513 3.78259 25.6659 3.6437C26.2806 3.5048 26.8868 3.88676 27.0215 4.52047L41.8567 70.7909C41.9998 71.416 41.6209 72.0497 41.0063 72.1886Z" fill="#2B5C97"/>
  <path d="M18.4672 39.2443C19.1787 39.2443 19.7554 38.6497 19.7554 37.9161C19.7554 37.1826 19.1787 36.588 18.4672 36.588C17.7558 36.588 17.1791 37.1826 17.1791 37.9161C17.1791 38.6497 17.7558 39.2443 18.4672 39.2443Z" fill="#2B5C97"/>
  <path d="M49.1816 39.2443C49.8931 39.2443 50.4698 38.6497 50.4698 37.9161C50.4698 37.1826 49.8931 36.588 49.1816 36.588C48.4702 36.588 47.8934 37.1826 47.8934 37.9161C47.8934 38.6497 48.4702 39.2443 49.1816 39.2443Z" fill="#2B5C97"/>
  <path d="M107.63 29.2178C108.341 29.2178 108.918 28.6232 108.918 27.8896C108.918 27.1561 108.341 26.5614 107.63 26.5614C106.918 26.5614 106.342 27.1561 106.342 27.8896C106.342 28.6232 106.918 29.2178 107.63 29.2178Z" fill="#2B5C97"/>
  <path d="M270.169 70.9559C270.88 70.9559 271.457 70.3612 271.457 69.6277C271.457 68.8942 270.88 68.2995 270.169 68.2995C269.457 68.2995 268.88 68.8942 268.88 69.6277C268.88 70.3612 269.457 70.9559 270.169 70.9559Z" fill="#2B5C97"/>
  <path d="M325.737 39.635C326.449 39.635 327.026 39.0403 327.026 38.3068C327.026 37.5732 326.449 36.9786 325.737 36.9786C325.026 36.9786 324.449 37.5732 324.449 38.3068C324.449 39.0403 325.026 39.635 325.737 39.635Z" fill="#2B5C97"/>
  <path d="M350.516 58.2643C351.227 58.2643 351.804 57.6697 351.804 56.9361C351.804 56.2026 351.227 55.6079 350.516 55.6079C349.805 55.6079 349.228 56.2026 349.228 56.9361C349.228 57.6697 349.805 58.2643 350.516 58.2643Z" fill="#2B5C97"/>
  <path d="M270.169 70.9559C270.88 70.9559 271.457 70.3612 271.457 69.6277C271.457 68.8942 270.88 68.2995 270.169 68.2995C269.457 68.2995 268.88 68.8942 268.88 69.6277C268.88 70.3612 269.457 70.9559 270.169 70.9559Z" fill="#2B5C97"/>
  <path d="M242.586 70.9559C243.298 70.9559 243.874 70.3612 243.874 69.6277C243.874 68.8942 243.298 68.2995 242.586 68.2995C241.875 68.2995 241.298 68.8942 241.298 69.6277C241.298 70.3612 241.875 70.9559 242.586 70.9559Z" fill="#2B5C97"/>
  <path d="M167.19 24.3044C167.901 24.3044 168.478 23.7097 168.478 22.9762C168.478 22.2427 167.901 21.648 167.19 21.648C166.478 21.648 165.901 22.2427 165.901 22.9762C165.901 23.7097 166.478 24.3044 167.19 24.3044Z" fill="#2B5C97"/>
  <path d="M167.19 54.1843C167.901 54.1843 168.478 53.5896 168.478 52.8561C168.478 52.1225 167.901 51.5279 167.19 51.5279C166.478 51.5279 165.901 52.1225 165.901 52.8561C165.901 53.5896 166.478 54.1843 167.19 54.1843Z" fill="#2B5C97"/>
  <path d="M99.4967 73.5602C80.4349 73.5602 64.9261 57.5698 64.9261 37.9161C64.9261 18.2624 80.4265 2.26342 99.4967 2.26342C118.567 2.26342 134.067 18.2538 134.067 37.9075C134.067 57.5612 118.558 73.5515 99.4967 73.5515V73.5602ZM99.4967 6.94246C82.9355 6.94246 69.4558 20.8407 69.4558 37.9161C69.4558 54.9916 82.9355 68.8898 99.4967 68.8898C116.058 68.8898 129.537 54.9916 129.537 37.9161C129.537 20.8407 116.058 6.94246 99.4967 6.94246Z" fill="#2B5C97"/>
  <path d="M324.432 73.5602C305.371 73.5602 289.862 57.5698 289.862 37.9161C289.862 18.2624 305.371 2.26342 324.432 2.26342C333.5 2.26342 342.063 5.85734 348.554 12.3767C349.447 13.2796 349.472 14.7553 348.596 15.6842C347.721 16.6131 346.289 16.6304 345.389 15.7276C339.747 10.0589 332.305 6.94246 324.424 6.94246C307.863 6.94246 294.383 20.8407 294.383 37.9161C294.383 54.9916 307.863 68.8898 324.424 68.8898C332.271 68.8898 339.697 65.7907 345.33 60.1568C346.231 59.2626 347.662 59.28 348.537 60.2089C349.405 61.1377 349.388 62.6135 348.487 63.5163C342.004 70.001 333.458 73.5689 324.424 73.5689L324.432 73.5602Z" fill="#2B5C97"/>
  <path d="M104.532 44.9911C96.9961 44.9911 90.8582 38.6714 90.8582 30.8932C90.8582 23.1151 96.9876 16.7954 104.532 16.7954C112.075 16.7954 118.205 23.1151 118.205 30.8932C118.205 38.6714 112.075 44.9911 104.532 44.9911ZM104.532 19.1392C98.2421 19.1392 93.1315 24.4172 93.1315 30.8932C93.1315 37.3692 98.2506 42.6473 104.532 42.6473C110.812 42.6473 115.932 37.3692 115.932 30.8932C115.932 24.4172 110.812 19.1392 104.532 19.1392Z" fill="#2B5C97"/>
  <path d="M152.068 75.3224C145.105 75.3224 139.936 74.3067 139.456 74.2112C138.226 73.9595 137.427 72.7355 137.671 71.4681C137.915 70.2006 139.102 69.3759 140.331 69.6277C140.575 69.6798 164.79 74.4109 178.632 62.6656C185.081 57.1966 188.348 48.8628 188.348 37.9075C188.348 26.9521 185.081 18.6184 178.632 13.1494C164.79 1.40401 140.575 6.14381 140.331 6.1959C139.102 6.44765 137.915 5.62296 137.671 4.35554C137.427 3.08812 138.226 1.8641 139.456 1.61235C140.533 1.39533 165.986 -3.60491 181.503 9.52939C189.055 15.9273 192.886 25.4763 192.886 37.9075C192.886 50.3386 189.055 59.879 181.503 66.2855C172.797 73.6557 160.968 75.3224 152.068 75.3224Z" fill="#2B5C97"/>
  <path d="M141.46 73.3518C141.342 73.3518 141.224 73.3345 141.106 73.2911C140.508 73.0914 140.188 72.4317 140.382 71.8153L151.049 37.9075L140.382 3.99094C140.188 3.37459 140.517 2.71483 141.106 2.51517C141.704 2.31551 142.344 2.65407 142.537 3.26173L153.323 37.5342C153.398 37.7686 153.398 38.0203 153.323 38.2547L142.537 72.5271C142.386 73.022 141.939 73.3345 141.46 73.3345V73.3518Z" fill="#2B5C97"/>
  <path d="M190.629 39.0794H152.245C151.622 39.0794 151.108 38.5585 151.108 37.9075C151.108 37.2564 151.613 36.7355 152.245 36.7355H190.629C191.253 36.7355 191.766 37.2564 191.766 37.9075C191.766 38.5585 191.261 39.0794 190.629 39.0794Z" fill="#2B5C97"/>
  <path d="M210.104 4.97188C210.815 4.97188 211.392 4.37723 211.392 3.6437C211.392 2.91016 210.815 2.31551 210.104 2.31551C209.392 2.31551 208.816 2.91016 208.816 3.6437C208.816 4.37723 209.392 4.97188 210.104 4.97188Z" fill="#2B5C97"/>
  <path d="M210.104 73.5602C208.849 73.5602 207.839 72.5098 207.839 71.225V16.0401C207.839 14.7466 208.858 13.7049 210.104 13.7049C211.35 13.7049 212.369 14.7553 212.369 16.0401V71.225C212.369 72.5185 211.35 73.5602 210.104 73.5602Z" fill="#2B5C97"/>
  <path d="M223.533 24.1481L195.546 7.43728C194.267 6.67335 193.484 5.60559 193.795 5.04133C194.107 4.47707 195.403 4.65069 196.683 5.41461L224.67 22.1255C225.949 22.8894 226.732 23.9572 226.421 24.5214C226.109 25.0857 224.813 24.9121 223.533 24.1481Z" fill="#2B5C97"/>
  <path d="M222.733 73.647H197.483C196.329 73.647 195.395 73.1261 195.395 72.4751C195.395 71.824 196.329 71.3031 197.483 71.3031H222.733C223.887 71.3031 224.821 71.824 224.821 72.4751C224.821 73.1261 223.887 73.647 222.733 73.647Z" fill="#2B5C97"/>
  <path d="M228.719 75.305C228.433 75.305 228.147 75.253 227.861 75.1314C226.699 74.6453 226.143 73.2824 226.623 72.0844L254.104 2.75824C254.449 1.88146 255.275 1.30852 256.192 1.30852H256.201C257.11 1.30852 257.935 1.87278 258.289 2.74088L286.351 71.5809C286.839 72.7702 286.292 74.1418 285.139 74.6366C283.985 75.1401 282.655 74.5758 282.175 73.3865L256.226 9.74641L230.807 73.8553C230.445 74.7581 229.603 75.305 228.711 75.305H228.719Z" fill="#2B5C97"/>
  <path d="M256.478 32.7423C256.739 32.7423 256.992 32.8291 257.203 33.0114L277.569 50.5035C277.94 50.816 278.075 51.3369 277.906 51.797C277.746 52.2571 277.317 52.5696 276.837 52.5696H236.103C235.623 52.5696 235.202 52.2658 235.034 51.797C234.874 51.3369 235.009 50.816 235.371 50.5035L255.738 33.0114C255.948 32.8291 256.209 32.7423 256.462 32.7423H256.478ZM273.713 50.2344L256.478 35.4247L239.244 50.2344H273.713Z" fill="#2B5C97"/>
  <path d="M292.741 43.9407C292.455 43.9407 292.16 43.8279 291.941 43.6022C291.495 43.1421 291.495 42.4042 291.941 41.9528L328.844 3.89544C329.29 3.43535 330.006 3.43535 330.444 3.89544C330.89 4.35554 330.89 5.09342 330.444 5.54483L293.541 43.5935C293.322 43.8192 293.028 43.932 292.741 43.932V43.9407Z" fill="#2B5C97"/>
  <path d="M317.688 71.659C317.251 71.659 316.838 71.3986 316.653 70.9646L300.74 33.9316C300.487 33.3413 300.74 32.6555 301.321 32.3864C301.893 32.1259 302.559 32.3864 302.82 32.9854L318.732 70.0183C318.985 70.6086 318.732 71.2944 318.151 71.5635C318 71.633 317.848 71.6677 317.697 71.6677L317.688 71.659Z" fill="#2B5C97"/>
  <path d="M256.495 45.2689C257.207 45.2689 257.784 44.6743 257.784 43.9407C257.784 43.2072 257.207 42.6125 256.495 42.6125C255.784 42.6125 255.207 43.2072 255.207 43.9407C255.207 44.6743 255.784 45.2689 256.495 45.2689Z" fill="#2B5C97"/>
  <path d="M78.4984 100.402H61.7856V159.163H78.4984V100.402Z" fill="url(#paint0_linear_15_3575)"/>
  <path d="M277.367 82.6752L282.251 96.7036H301.354V159.172H318.118V96.7036H351.804L351.56 82.6752H277.367Z" fill="url(#paint1_linear_15_3575)"/>
  <path d="M351.686 101.339H334.974V159.163H351.686V101.339Z" fill="url(#paint2_linear_15_3575)"/>
  <path d="M455.112 96.6081H456.434V159.172H473.146V82.6752H464.39L455.112 96.6081Z" fill="url(#paint3_linear_15_3575)"/>
  <path d="M26.39 82.7533C19.6291 83.1613 14.1817 85.401 10.0646 89.4897C5.49277 94.0299 3.20266 99.6117 3.20266 106.218C3.20266 112.824 5.11389 117.729 8.94477 121.123C12.7757 124.517 19.1913 127.2 28.2002 129.162C33.033 130.221 36.2914 131.341 37.9837 132.539C39.676 133.737 40.518 135.429 40.518 137.608C40.518 139.787 39.5834 141.593 37.7227 143.138C36.4261 144.215 34.6495 144.9 32.4184 145.23H3.20266V159.146H31.4501C31.7785 159.146 32.1069 159.128 32.4268 159.102V159.163C39.9707 158.521 45.8307 156.133 49.9899 151.993C54.9069 147.088 57.3654 141.28 57.3654 134.553C57.3654 130.264 56.2203 126.393 53.9218 122.92C51.6233 119.448 48.8028 116.939 45.4602 115.376C42.1092 113.814 36.8302 112.269 29.6231 110.741C25.3123 109.829 22.5423 108.761 21.313 107.52C20.0838 106.287 19.4776 104.777 19.4776 102.997C19.4776 98.7263 22.4749 96.504 28.4444 96.313V96.2956H78.4984V82.6752H26.39V82.7533Z" fill="url(#paint4_linear_15_3575)"/>
  <path d="M167.434 116.271H151.656V159.172H167.434V116.271Z" fill="url(#paint5_linear_15_3575)"/>
  <path d="M218.397 124.925V82.6752H202.619L202.728 124.925H218.397Z" fill="url(#paint6_linear_15_3575)"/>
  <path d="M222.901 159.172H241.012L245.011 146.159H227.499L222.901 159.172Z" fill="url(#paint7_linear_15_3575)"/>
  <path d="M249.911 82.6752L234.992 124.925H251.048L257.876 103.006C258.567 100.801 258.996 98.5787 259.173 96.339H259.585C259.829 99.0041 260.242 101.296 260.823 103.223L268.788 128.936H202.72V135.317C201.609 133.311 200.405 131.297 199.1 129.257L169.665 82.6839H151.664V107.59H167.442C167.442 107.59 167.307 107.477 167.03 104.768H167.24C167.93 106.192 169.168 108.31 170.961 111.114L201.541 159.18H218.405V142.166H272.627L277.906 159.18H296.118L269.731 82.6839H249.92L249.911 82.6752Z" fill="url(#paint8_linear_15_3575)"/>
  <path d="M513.526 96.2262C519.875 96.2262 530.5 100.81 530.5 100.81V84.2204C525.532 82.3366 519.428 81.3904 512.188 81.3904C500.493 81.3904 490.987 85.1927 483.654 92.8059C482.088 94.4292 480.699 96.1654 479.469 98.0058V146.524C480.37 147.791 481.355 149.006 482.433 150.152C488.95 157.054 497.9 160.5 509.283 160.5C518.005 160.5 525.078 159.146 530.492 156.446V140.707C530.492 140.707 519.108 145.612 512.592 145.612C506.075 145.612 500.333 143.416 496.292 139.023C492.259 134.631 490.238 128.736 490.238 121.34C490.238 113.944 492.376 107.503 496.654 102.989C500.931 98.4745 506.555 96.2175 513.518 96.2175L513.526 96.2262Z" fill="url(#paint9_linear_15_3575)"/>
  <path d="M404.527 120.724C400.696 117.33 394.281 114.647 385.272 112.685C380.439 111.626 377.181 110.506 375.488 109.308C373.796 108.11 372.954 106.418 372.954 104.239C372.954 102.06 373.889 100.254 375.749 98.7089C377.046 97.6325 378.822 96.9467 381.054 96.6168H401.724L391.805 82.7012H382.03C381.702 82.7012 381.374 82.7186 381.054 82.7446V82.6839C373.51 83.3263 367.65 85.7135 363.491 89.8543C358.574 94.7591 356.115 100.567 356.115 107.294C356.115 111.583 357.26 115.454 359.559 118.927C361.857 122.399 364.678 124.908 368.02 126.471C371.371 128.033 376.65 129.578 383.857 131.106C388.168 132.018 390.938 133.086 392.167 134.327C393.397 135.56 394.003 137.07 394.003 138.85C394.003 143.121 391.005 145.343 385.036 145.534V145.551H355.433V159.172H387.082V159.094C393.843 158.686 399.29 156.446 403.407 152.357C407.979 147.817 410.269 142.235 410.269 135.629C410.269 129.023 408.358 124.118 404.527 120.724Z" fill="url(#paint10_linear_15_3575)"/>
  <path d="M397.665 82.6925L407.584 96.6081H419.447V159.172H436.159V96.6081H448.022L457.932 82.6925H397.665Z" fill="url(#paint11_linear_15_3575)"/>
  <path d="M109.625 116.271V129.752H132.139C130.758 134.032 128.561 137.313 125.547 139.596C122.541 141.879 118.853 143.017 114.492 143.017C108.127 143.017 103.134 141.072 99.4967 137.183C95.8678 133.294 94.0492 127.894 94.0492 120.976C94.0492 114.482 95.7752 109.3 99.2356 105.411C102.696 101.522 107.293 99.577 113.035 99.577C116.353 99.577 119.24 100.237 121.699 101.556C124.157 102.876 126.043 104.786 127.357 107.277H146.966C145.029 99.577 141.064 93.5437 135.086 89.1946C129.1 84.8454 121.749 82.6665 113.035 82.6665C105.837 82.6665 99.4461 84.2898 93.8387 87.5365C89.6795 89.9498 86.1938 93.0663 83.3817 96.8946V144.952C86.1938 148.763 89.6963 151.88 93.8893 154.293C99.5303 157.54 105.946 159.163 113.136 159.163C119.224 159.163 124.688 157.948 129.529 155.526C134.37 153.104 138.361 149.927 141.51 146.003C144.659 142.079 146.89 137.834 148.204 133.268V116.253H109.6L109.625 116.271Z" fill="url(#paint12_linear_15_3575)"/>
  <path d="M36.8302 86.3385L67.7551 88.5348C67.814 89.8457 68.8496 90.8961 70.1378 90.8961C71.426 90.8961 72.5289 89.7936 72.5289 88.4307C72.5289 87.0677 71.4597 85.9653 70.1378 85.9653C68.9591 85.9653 67.9908 86.842 67.7888 87.9879L36.8723 85.7916C36.7881 84.993 36.1398 84.3767 35.3484 84.3767C34.498 84.3767 33.8076 85.0885 33.8076 85.9653C33.8076 86.191 33.8581 86.408 33.9339 86.599L17.8947 97.6238C17.4569 97.0856 16.8086 96.7383 16.0761 96.7383C14.7542 96.7383 13.685 97.8408 13.685 99.2037C13.685 100.567 14.7542 101.669 16.0761 101.669C17.398 101.669 18.4672 100.567 18.4672 99.2037C18.4672 98.7957 18.3662 98.4225 18.1894 98.0839L34.2286 87.0591C34.5064 87.3629 34.9021 87.5539 35.34 87.5539C36.064 87.5539 36.6618 87.0417 36.8302 86.3472V86.3385Z" fill="white"/>
  <path d="M51.5812 141.523C51.0676 141.523 50.5961 141.697 50.2004 141.975L39.0445 129.066C39.2803 128.762 39.4318 128.389 39.4318 127.972C39.4318 127.009 38.6741 126.228 37.7395 126.228C36.8049 126.228 36.0472 127.009 36.0472 127.972C36.0472 128.936 36.8049 129.717 37.7395 129.717C38.0763 129.717 38.3878 129.613 38.6488 129.44L49.8047 142.348C49.4258 142.782 49.1901 143.355 49.1901 143.989C49.1901 144.553 49.3837 145.074 49.6952 145.491L45.8475 149.328C45.216 148.581 44.2899 148.104 43.2543 148.104C41.3599 148.104 39.8191 149.692 39.8191 151.645C39.8191 153.599 41.3599 155.187 43.2543 155.187C45.1487 155.187 46.6895 153.599 46.6895 151.645C46.6895 150.96 46.4958 150.317 46.1674 149.779L50.0741 145.89C50.4867 146.246 51.0087 146.463 51.5896 146.463C52.9115 146.463 53.9808 145.36 53.9808 143.997C53.9808 142.635 52.9115 141.532 51.5896 141.532L51.5812 141.523Z" fill="white"/>
  <path d="M74.516 132.079C74.3476 132.079 74.1792 132.096 74.0192 132.131L66.0712 107.529C66.5342 107.268 66.8458 106.765 66.8458 106.192C66.8458 105.341 66.1806 104.655 65.3555 104.655C64.5304 104.655 63.8653 105.341 63.8653 106.192C63.8653 107.043 64.5304 107.728 65.3555 107.728C65.4229 107.728 65.4902 107.72 65.566 107.711L73.5225 132.313C72.7058 132.704 72.1332 133.554 72.1332 134.544C72.1332 135.421 72.5795 136.185 73.2362 136.619L65.3808 153.121C65.2292 153.069 65.0693 153.043 64.9009 153.043C63.9747 153.043 63.2254 153.816 63.2254 154.771C63.2254 155.725 63.9747 156.498 64.9009 156.498C65.827 156.498 66.5764 155.725 66.5764 154.771C66.5764 154.189 66.2985 153.677 65.8691 153.364L73.7245 136.862C73.9771 136.957 74.2465 137.018 74.5244 137.018C75.8462 137.018 76.9155 135.916 76.9155 134.553C76.9155 133.19 75.8462 132.087 74.5244 132.087L74.516 132.079Z" fill="white"/>
  <path d="M142.394 136.836C142.259 136.836 142.125 136.853 141.99 136.888L136.45 123.111C137.41 122.59 138.058 121.557 138.058 120.368C138.058 118.658 136.711 117.269 135.052 117.269C133.394 117.269 132.046 118.658 132.046 120.368C132.046 120.429 132.046 120.498 132.055 120.559L118.104 122.755C117.826 121.705 116.908 120.932 115.805 120.932C114.483 120.932 113.414 122.035 113.414 123.398C113.414 124.76 114.483 125.863 115.805 125.863C117.127 125.863 118.196 124.76 118.196 123.398C118.196 123.363 118.196 123.337 118.188 123.302L132.139 121.114C132.459 122.469 133.638 123.467 135.052 123.467C135.364 123.467 135.667 123.415 135.945 123.328L141.485 137.105C140.988 137.417 140.66 137.973 140.66 138.615C140.66 139.596 141.434 140.395 142.386 140.395C143.337 140.395 144.112 139.596 144.112 138.615C144.112 137.634 143.337 136.836 142.386 136.836H142.394Z" fill="white"/>
  <path d="M101.231 85.019C100.515 85.019 99.9429 85.618 99.9429 86.3472C99.9429 86.8594 100.229 87.3021 100.642 87.5192L98.3011 96.2956C98.1832 96.2782 98.0569 96.2609 97.9306 96.2609C96.6088 96.2609 95.5395 97.3634 95.5395 98.7263C95.5395 99.577 95.9605 100.324 96.5919 100.775L87.1284 119.43C86.9263 119.352 86.7074 119.309 86.4717 119.309C85.394 119.309 84.5183 120.212 84.5183 121.323C84.5183 122.434 85.394 123.337 86.4717 123.337C86.6148 123.337 86.7579 123.319 86.8926 123.285L92.7526 139.605C91.5907 140.161 90.7825 141.367 90.7825 142.782C90.7825 144.718 92.3064 146.281 94.1755 146.281C96.0447 146.281 97.5686 144.709 97.5686 142.782C97.5686 140.855 96.0447 139.284 94.1755 139.284C93.8556 139.284 93.5441 139.336 93.2578 139.414L87.3978 123.094C88.0124 122.755 88.4334 122.095 88.4334 121.332C88.4334 120.654 88.105 120.064 87.6167 119.699L97.0803 101.044C97.3497 101.148 97.6359 101.218 97.939 101.218C99.2609 101.218 100.33 100.115 100.33 98.7523C100.33 97.7106 99.7071 96.8252 98.8231 96.4606L101.164 87.6928C101.164 87.6928 101.214 87.6928 101.239 87.6928C101.955 87.6928 102.528 87.0938 102.528 86.3646C102.528 85.6354 101.947 85.0364 101.239 85.0364L101.231 85.019Z" fill="white"/>
  <path d="M122.044 95.2452C122.684 95.2452 123.265 94.9848 123.694 94.5594L131.205 101.044C131.053 101.305 130.96 101.608 130.96 101.938C130.96 102.911 131.727 103.7 132.67 103.7C133.613 103.7 134.379 102.911 134.379 101.938C134.379 100.966 133.613 100.176 132.67 100.176C132.24 100.176 131.853 100.341 131.558 100.61L124.048 94.1254C124.301 93.7347 124.444 93.266 124.444 92.7625C124.444 91.3995 123.374 90.2971 122.053 90.2971C120.731 90.2971 119.661 91.3995 119.661 92.7625C119.661 94.1254 120.731 95.2279 122.053 95.2279L122.044 95.2452Z" fill="white"/>
  <path d="M277.974 128.841C277.83 128.841 277.687 128.867 277.553 128.893L264.393 95.9223C265.504 95.3407 266.27 94.1514 266.27 92.7711C266.27 90.8179 264.738 89.238 262.844 89.238C260.949 89.238 259.417 90.8179 259.417 92.7711C259.417 93.3614 259.56 93.917 259.804 94.4032L249.044 101.348C248.808 100.636 248.16 100.124 247.394 100.124C246.426 100.124 245.634 100.931 245.634 101.938C245.634 102.945 246.417 103.753 247.394 103.753C248.37 103.753 249.154 102.945 249.154 101.938L260.099 94.8719C260.722 95.74 261.724 96.3043 262.852 96.3043C263.223 96.3043 263.568 96.2435 263.905 96.1307L277.064 129.101C276.551 129.422 276.205 129.995 276.205 130.664C276.205 130.785 276.222 130.898 276.239 131.011L257.295 137.947C257.001 136.41 255.687 135.247 254.104 135.247C252.345 135.247 250.922 136.679 250.854 138.476L219.433 132.217C219.433 132.157 219.449 132.096 219.449 132.026C219.449 130.664 218.38 129.561 217.058 129.561C215.736 129.561 214.667 130.664 214.667 132.026C214.667 132.799 215.021 133.476 215.551 133.928L202.871 154.224C202.796 154.198 202.711 154.189 202.627 154.189C202.602 154.189 202.585 154.189 202.56 154.189L190.385 122.408C190.882 122.104 191.219 121.549 191.219 120.915C191.219 119.951 190.461 119.17 189.527 119.17C189.164 119.17 188.828 119.291 188.558 119.491L169.513 99.2645C169.85 98.8391 170.069 98.3009 170.069 97.7019C170.069 96.339 169 95.2365 167.678 95.2365C166.356 95.2365 165.287 96.339 165.287 97.7019C165.287 99.0648 166.356 100.167 167.678 100.167C168.225 100.167 168.73 99.9677 169.134 99.6465L188.188 119.873C187.977 120.168 187.851 120.524 187.851 120.915C187.851 121.878 188.609 122.66 189.543 122.66C189.67 122.66 189.788 122.642 189.905 122.616L202.072 154.389C201.861 154.562 201.726 154.823 201.726 155.118C201.726 155.639 202.139 156.055 202.636 156.055C203.132 156.055 203.545 155.63 203.545 155.118C203.545 154.883 203.461 154.675 203.326 154.519L216.006 134.223C216.326 134.388 216.679 134.483 217.067 134.483C218.136 134.483 219.037 133.754 219.34 132.747L250.888 139.032C251.098 140.673 252.462 141.94 254.113 141.94C255.906 141.94 257.363 140.438 257.363 138.589C257.363 138.555 257.363 138.528 257.363 138.494L276.433 131.514C276.736 132.087 277.317 132.487 277.99 132.487C278.975 132.487 279.767 131.662 279.767 130.655C279.767 129.648 278.967 128.823 277.99 128.823L277.974 128.841Z" fill="white"/>
  <path d="M206.753 122.226C208.075 122.226 209.144 121.123 209.144 119.76C209.144 118.753 208.555 117.885 207.713 117.503L214.516 88.9081C214.566 88.9081 214.608 88.9255 214.65 88.9255C215.593 88.9255 216.36 88.1355 216.36 87.1632C216.36 86.191 215.593 85.401 214.65 85.401C213.707 85.401 212.941 86.191 212.941 87.1632C212.941 87.8924 213.371 88.5175 213.985 88.7866L207.191 117.347C207.048 117.321 206.896 117.304 206.744 117.304C205.423 117.304 204.353 118.406 204.353 119.769C204.353 121.132 205.423 122.234 206.744 122.234L206.753 122.226Z" fill="white"/>
  <path d="M314.59 96.7036C315.912 96.7036 316.981 95.6011 316.981 94.2382C316.981 92.8753 315.912 91.7728 314.59 91.7728C313.554 91.7728 312.679 92.4586 312.342 93.4048L287.967 87.441C287.976 87.3455 287.993 87.25 287.993 87.1459C287.993 85.783 286.923 84.6805 285.602 84.6805C284.28 84.6805 283.21 85.783 283.21 87.1459C283.21 88.5088 284.28 89.6113 285.602 89.6113C286.637 89.6113 287.513 88.9255 287.85 87.9792L312.224 93.9431C312.216 94.0386 312.199 94.1341 312.199 94.2382C312.199 95.2279 312.763 96.0699 313.58 96.4692L306.718 117.347C306.558 117.312 306.381 117.286 306.213 117.286C304.891 117.286 303.821 118.389 303.821 119.752C303.821 121.114 304.891 122.217 306.213 122.217C306.322 122.217 306.423 122.2 306.524 122.182L313.765 152.027C312.856 152.375 312.207 153.277 312.207 154.337C312.207 155.699 313.277 156.802 314.598 156.802C315.92 156.802 316.99 155.699 316.99 154.337C316.99 152.974 315.92 151.871 314.598 151.871C314.489 151.871 314.388 151.888 314.287 151.906L307.046 122.061C307.955 121.713 308.604 120.811 308.604 119.752C308.604 118.762 308.04 117.92 307.223 117.521L314.085 96.6428C314.245 96.6776 314.422 96.7036 314.59 96.7036Z" fill="white"/>
  <path d="M432.581 95.2452C433.903 95.2452 434.972 94.1427 434.972 92.7798C434.972 91.4169 433.903 90.3144 432.581 90.3144C431.588 90.3144 430.737 90.9395 430.375 91.8336L416.239 87.5799C416.264 87.441 416.281 87.3021 416.281 87.1632C416.281 85.8003 415.212 84.6978 413.89 84.6978C412.568 84.6978 411.499 85.8003 411.499 87.1632C411.499 88.5262 412.568 89.6286 413.89 89.6286C414.883 89.6286 415.734 89.0036 416.096 88.1095L430.232 92.3631C430.207 92.502 430.19 92.6409 430.19 92.7798C430.19 93.7868 430.779 94.6462 431.613 95.0369L423.968 120.047C423.816 120.021 423.665 120.003 423.513 120.003C422.191 120.003 421.122 121.106 421.122 122.469C421.122 123.832 422.191 124.934 423.513 124.934C423.648 124.934 423.783 124.917 423.909 124.891L431.672 152.861C430.805 153.234 430.19 154.111 430.19 155.144C430.19 156.507 431.259 157.609 432.581 157.609C433.903 157.609 434.972 156.507 434.972 155.144C434.972 153.781 433.903 152.678 432.581 152.678C432.446 152.678 432.312 152.696 432.185 152.722L424.423 124.752C425.29 124.379 425.904 123.502 425.904 122.469C425.904 121.436 425.315 120.602 424.481 120.212L432.126 95.2018C432.278 95.2278 432.43 95.2452 432.581 95.2452Z" fill="white"/>
  <path d="M469.231 87.1459C467.909 87.1459 466.84 88.2484 466.84 89.6113C466.84 90.3839 467.185 91.061 467.724 91.5124L460.727 102.659C460.601 102.633 460.475 102.607 460.332 102.607C459.372 102.607 458.589 103.405 458.589 104.404C458.589 105.298 459.229 106.036 460.062 106.166V144.327C458.362 144.466 457.031 145.933 457.031 147.722C457.031 149.605 458.513 151.125 460.332 151.125C462.15 151.125 463.632 149.597 463.632 147.722C463.632 145.847 462.293 144.475 460.601 144.327V106.166C461.435 106.036 462.075 105.298 462.075 104.404C462.075 103.753 461.738 103.188 461.233 102.876L468.17 91.8162C468.49 91.9812 468.852 92.0853 469.231 92.0853C470.553 92.0853 471.622 90.9829 471.622 89.62C471.622 88.257 470.553 87.1546 469.231 87.1546V87.1459Z" fill="white"/>
  <path d="M525.878 91.7641C524.994 91.7641 524.236 92.259 523.823 92.9882L506.664 85.1406C506.706 84.993 506.732 84.8367 506.732 84.6718C506.732 83.6735 505.949 82.8662 504.98 82.8662C504.012 82.8662 503.229 83.6735 503.229 84.6718C503.229 85.0017 503.322 85.3142 503.473 85.5833L489.042 97.7193C488.411 97.0422 487.535 96.6168 486.55 96.6168C484.647 96.6168 483.098 98.2054 483.098 100.176C483.098 102.147 484.639 103.735 486.55 103.735C486.592 103.735 486.634 103.735 486.676 103.735L490.895 141.298C490.272 141.497 489.808 142.088 489.808 142.8C489.808 143.668 490.49 144.371 491.332 144.371C491.476 144.371 491.61 144.345 491.737 144.31L495.736 153.052C495.054 153.486 494.599 154.258 494.599 155.144C494.599 156.507 495.668 157.609 496.99 157.609C498.312 157.609 499.382 156.507 499.382 155.144C499.382 155.014 499.365 154.892 499.348 154.771L522.038 148.425C522.291 148.98 522.83 149.371 523.47 149.371C524.345 149.371 525.053 148.642 525.053 147.739C525.053 146.836 524.345 146.107 523.47 146.107C522.594 146.107 521.887 146.836 521.887 147.739C521.887 147.791 521.895 147.843 521.904 147.887L499.213 154.232C498.859 153.321 498.001 152.67 496.99 152.67C496.721 152.67 496.46 152.731 496.224 152.809L492.216 144.067C492.604 143.78 492.856 143.32 492.856 142.791C492.856 141.957 492.225 141.28 491.425 141.228L487.207 103.674C488.798 103.353 489.994 101.912 489.994 100.185C489.994 99.4294 489.766 98.735 489.379 98.162L503.802 86.026C504.113 86.3125 504.517 86.4948 504.972 86.4948C505.587 86.4948 506.134 86.1649 506.445 85.6614L523.596 93.509C523.529 93.7434 523.478 93.9865 523.478 94.2469C523.478 95.6098 524.547 96.7123 525.869 96.7123C527.191 96.7123 528.26 95.6098 528.26 94.2469C528.26 92.884 527.191 91.7815 525.869 91.7815L525.878 91.7641Z" fill="white"/>
  <path d="M349.06 88.0887C349.565 86.8308 348.986 85.3886 347.766 84.8676C346.546 84.3465 345.147 84.9439 344.642 86.2018C344.136 87.4598 344.716 88.9019 345.936 89.423C347.156 89.9441 348.555 89.3467 349.06 88.0887Z" fill="white"/>
  <path d="M393.254 115.984C391.932 115.984 390.862 117.087 390.862 118.449C390.862 118.692 390.904 118.927 390.972 119.153L379.252 124.3C378.982 123.241 378.056 122.451 376.945 122.451C376.482 122.451 376.044 122.599 375.674 122.833L367.372 108.232C367.953 107.781 368.332 107.069 368.332 106.261C368.332 105.541 368.029 104.89 367.54 104.438L378.157 89.2814C378.503 89.4811 378.898 89.6113 379.328 89.6113C380.649 89.6113 381.719 88.5088 381.719 87.1459C381.719 85.783 380.649 84.6805 379.328 84.6805C378.006 84.6805 376.936 85.783 376.936 87.1459C376.936 87.8664 377.24 88.5175 377.728 88.9689L367.111 104.126C366.766 103.926 366.37 103.796 365.941 103.796C364.619 103.796 363.549 104.898 363.549 106.261C363.549 107.624 364.619 108.727 365.941 108.727C366.286 108.727 366.614 108.649 366.909 108.51L375.244 123.163C374.815 123.606 374.545 124.222 374.545 124.908C374.545 126.271 375.615 127.373 376.936 127.373C378.258 127.373 379.328 126.271 379.328 124.908C379.328 124.891 379.328 124.873 379.328 124.856L391.182 119.656C391.595 120.403 392.361 120.915 393.254 120.915C394.575 120.915 395.645 119.812 395.645 118.449C395.645 117.087 394.575 115.984 393.254 115.984Z" fill="white"/>
  <path d="M389.591 151.133C388.454 151.133 387.511 151.949 387.267 153.043L363.549 150.204C363.549 148.841 362.48 147.739 361.158 147.739C359.836 147.739 358.767 148.841 358.767 150.204C358.767 151.567 359.836 152.67 361.158 152.67C362.295 152.67 363.238 151.854 363.482 150.76L387.2 153.599C387.2 154.962 388.269 156.064 389.591 156.064C390.913 156.064 391.982 154.962 391.982 153.599C391.982 152.236 390.913 151.133 389.591 151.133Z" fill="white"/>
  <path d="M348.125 151.871C347.931 151.871 347.754 151.897 347.569 151.941L340.901 132.868C341.692 132.469 342.24 131.636 342.24 130.664C342.24 129.631 341.617 128.745 340.741 128.38L344.075 116.027C344.201 116.045 344.319 116.071 344.454 116.071C345.776 116.071 346.845 114.968 346.845 113.605C346.845 112.243 345.776 111.14 344.454 111.14C343.132 111.14 342.063 112.243 342.063 113.605C342.063 114.638 342.686 115.524 343.562 115.889L340.227 128.242C340.101 128.224 339.983 128.198 339.849 128.198C338.527 128.198 337.457 129.301 337.457 130.664C337.457 132.026 338.527 133.129 339.849 133.129C340.042 133.129 340.219 133.103 340.404 133.059L347.072 152.132C346.281 152.531 345.734 153.364 345.734 154.337C345.734 155.699 346.803 156.802 348.125 156.802C349.447 156.802 350.516 155.699 350.516 154.337C350.516 152.974 349.447 151.871 348.125 151.871Z" fill="white"/>
  <path d="M230.462 153.599C231.783 153.599 232.853 152.495 232.853 151.133C232.853 149.772 231.783 148.668 230.462 148.668C229.142 148.668 228.071 149.772 228.071 151.133C228.071 152.495 229.142 153.599 230.462 153.599Z" fill="white"/>
  <path d="M164.327 153.642C164.327 153.642 164.268 153.642 164.243 153.651L156.623 122.668C157.524 122.312 158.172 121.418 158.172 120.368C158.172 119.005 157.103 117.903 155.781 117.903C154.459 117.903 153.39 119.005 153.39 120.368C153.39 121.731 154.459 122.833 155.781 122.833C155.891 122.833 156 122.816 156.101 122.799L163.721 153.781C163.232 154.015 162.887 154.527 162.887 155.126C162.887 155.951 163.535 156.611 164.327 156.611C165.118 156.611 165.767 155.942 165.767 155.126C165.767 154.31 165.118 153.642 164.327 153.642Z" fill="white"/>
  <defs>
    <linearGradient id="paint0_linear_15_3575" x1="265.366" y1="178.37" x2="265.366" y2="-14.9587" gradientUnits="userSpaceOnUse">
      <stop stop-color="#AD37AB"/>
      <stop offset="0.55" stop-color="#285596"/>
      <stop offset="1" stop-color="#51B3BA"/>
    </linearGradient>
    <linearGradient id="paint1_linear_15_3575" x1="265.53" y1="174.209" x2="265.53" y2="25.702" gradientUnits="userSpaceOnUse">
      <stop stop-color="#AD37AB"/>
      <stop offset="0.55" stop-color="#285596"/>
      <stop offset="1" stop-color="#51B3BA"/>
    </linearGradient>
    <linearGradient id="paint2_linear_15_3575" x1="265.366" y1="178.659" x2="265.366" y2="-17.8036" gradientUnits="userSpaceOnUse">
      <stop stop-color="#AD37AB"/>
      <stop offset="0.55" stop-color="#285596"/>
      <stop offset="1" stop-color="#51B3BA"/>
    </linearGradient>
    <linearGradient id="paint3_linear_15_3575" x1="265.5" y1="174.209" x2="265.5" y2="25.702" gradientUnits="userSpaceOnUse">
      <stop stop-color="#AD37AB"/>
      <stop offset="0.55" stop-color="#285596"/>
      <stop offset="1" stop-color="#51B3BA"/>
    </linearGradient>
    <linearGradient id="paint4_linear_15_3575" x1="265.47" y1="174.228" x2="265.47" y2="25.7049" gradientUnits="userSpaceOnUse">
      <stop stop-color="#AD37AB"/>
      <stop offset="0.55" stop-color="#285596"/>
      <stop offset="1" stop-color="#51B3BA"/>
    </linearGradient>
    <linearGradient id="paint5_linear_15_3575" x1="265.783" y1="184.944" x2="265.783" y2="-79.8561" gradientUnits="userSpaceOnUse">
      <stop stop-color="#AD37AB"/>
      <stop offset="0.55" stop-color="#285596"/>
      <stop offset="1" stop-color="#51B3BA"/>
    </linearGradient>
    <linearGradient id="paint6_linear_15_3575" x1="265.5" y1="315.01" x2="265.5" y2="46.1297" gradientUnits="userSpaceOnUse">
      <stop stop-color="#AD37AB"/>
      <stop offset="0.55" stop-color="#285596"/>
      <stop offset="1" stop-color="#51B3BA"/>
    </linearGradient>
    <linearGradient id="paint7_linear_15_3575" x1="265.5" y1="241.087" x2="265.5" y2="-631.922" gradientUnits="userSpaceOnUse">
      <stop stop-color="#AD37AB"/>
      <stop offset="0.55" stop-color="#285596"/>
      <stop offset="1" stop-color="#51B3BA"/>
    </linearGradient>
    <linearGradient id="paint8_linear_15_3575" x1="265.485" y1="174.189" x2="265.485" y2="25.6991" gradientUnits="userSpaceOnUse">
      <stop stop-color="#AD37AB"/>
      <stop offset="0.55" stop-color="#285596"/>
      <stop offset="1" stop-color="#51B3BA"/>
    </linearGradient>
    <linearGradient id="paint9_linear_15_3575" x1="265.456" y1="171.07" x2="265.456" y2="27.4681" gradientUnits="userSpaceOnUse">
      <stop stop-color="#AD37AB"/>
      <stop offset="0.55" stop-color="#285596"/>
      <stop offset="1" stop-color="#51B3BA"/>
    </linearGradient>
    <linearGradient id="paint10_linear_15_3575" x1="265.459" y1="174.21" x2="265.459" y2="25.6867" gradientUnits="userSpaceOnUse">
      <stop stop-color="#AD37AB"/>
      <stop offset="0.55" stop-color="#285596"/>
      <stop offset="1" stop-color="#51B3BA"/>
    </linearGradient>
    <linearGradient id="paint11_linear_15_3575" x1="265.5" y1="174.212" x2="265.5" y2="25.6714" gradientUnits="userSpaceOnUse">
      <stop stop-color="#AD37AB"/>
      <stop offset="0.55" stop-color="#285596"/>
      <stop offset="1" stop-color="#51B3BA"/>
    </linearGradient>
    <linearGradient id="paint12_linear_15_3575" x1="265.603" y1="174.227" x2="265.603" y2="25.7202" gradientUnits="userSpaceOnUse">
      <stop stop-color="#AD37AB"/>
      <stop offset="0.55" stop-color="#285596"/>
      <stop offset="1" stop-color="#51B3BA"/>
    </linearGradient>
  </defs>
</svg>